<?xml version="1.0" encoding="utf-8"?>
<!-- Generator: Adobe Illustrator 24.3.0, SVG Export Plug-In . SVG Version: 6.00 Build 0)  -->
<svg version="1.1" id="Layer_1" xmlns="http://www.w3.org/2000/svg" xmlns:xlink="http://www.w3.org/1999/xlink" x="0px" y="0px"
	 viewBox="0 0 1080 1080" style="enable-background:new 0 0 1080 1080;" xml:space="preserve">
<style type="text/css">
	.st0{opacity:0.5;}
	.st1{fill:#BC9661;}
	.st2{fill:url(#SVGID_1_);}
	.st3{fill:url(#SVGID_2_);}
	.st4{fill:#FFFFFF;}
	.st5{fill:#BB9661;}
	.st6{enable-background:new    ;}
</style>
<g>
	<g>
		<g class="st0">
			<path class="st1" d="M539.9,993.8c-19.9,0-37.6-14.1-42.1-33.5c-1.4-2.4-8.6-12.8-33.6-21.9c-10.3-2.6-36.8-10.7-62.4-30.9
				c-20.8-16.5-47.1-46.1-54.2-93.7h-8c-18.9,0-35.8-12.5-41.4-30.5c-18-5.6-30.5-22.5-30.5-41.4v-8c-19.1-2.9-36.9-9.1-52.8-18.4
				c-17.5-10.3-32.7-24.1-45.1-41.3c-17.3-23.8-24.4-47.6-26.8-56.8c-9-25.1-19.5-32.3-21.9-33.7c-19.4-4.5-33.5-22.2-33.5-42.1
				c0-12.5,5.5-24.4,15-32.6H99c-0.8,0-1.4-0.6-1.4-1.4v-6.1c0-0.8,0.6-1.4,1.4-1.4h3.4v-4.7c0-0.8,0.6-1.4,1.4-1.4h3.5v-4.7
				c0-0.8,0.6-1.4,1.4-1.4h3.8v-31.5c0-0.8,0.6-1.4,1.4-1.4h0.1v-43.9h-2.6c-0.8,0-1.4-0.6-1.4-1.4v-4.8c0-0.8,0.6-1.4,1.4-1.4h6
				v-50c0-0.2,0-0.3,0.1-0.5l4.4-12.4v-41.8h-1.3c-0.6,0-1.1-0.3-1.3-0.8l-5.2-12.6c-0.1-0.2-0.1-0.3-0.1-0.5v-16.6
				c0-0.8,0.6-1.4,1.4-1.4h6.5v-48.1h-1.3c-0.6,0-1.1-0.3-1.3-0.8l-5.2-12.6c-0.1-0.2-0.1-0.3-0.1-0.5v-16.6c0-0.8,0.6-1.4,1.4-1.4
				h5.4v-3.6c0-0.1,0-0.3,0.1-0.4l3.5-11.5c-4.6-3.5-7.1-8.7-7.1-15.1c0-10.8,7-29.2,17.1-35.8c-0.4-0.5-0.6-1.1-0.6-1.8v-2.5
				c0-1.7,1.4-3,3-3h0.7v-3.6c-1.4-0.6-2.7-1.5-3.8-2.6c-4.9-4.9-4.9-12.8,0-17.6c2.1-2.1,5-3.4,8-3.6c1.1-0.1,2.3,0,3.4,0.3
				c0.7,0.1,1.1,0.8,1.1,1.5c-0.1,0.7-0.6,1.2-1.3,1.2c-0.9,0-1.7,0.2-2.5,0.6c-0.7,0.3-1.4,0.8-1.9,1.4c-1.3,1.3-2,3-2,4.8
				s0.7,3.5,2,4.8c0.6,0.6,1.2,1,1.9,1.3c2.6,1.2,5.6,0.6,7.6-1.3c1.2-1.2,1.9-2.8,2-4.5c0-0.7,0.6-1.2,1.3-1.3
				c0.7-0.1,1.3,0.4,1.5,1.1c0.9,4.2-0.4,8.4-3.4,11.4c-1.5,1.5-3.2,2.5-5.2,3.1v3.1h0.7c1.7,0,3,1.4,3,3v2.5c0,0.7-0.2,1.3-0.6,1.8
				c10.1,6.5,17.1,25,17.1,35.8c0,6.4-2.4,11.5-7.1,15.1l3.5,11.5c0,0.1,0.1,0.3,0.1,0.4v3.6h5.4c0.8,0,1.4,0.6,1.4,1.4V205
				c0,0.2,0,0.4-0.1,0.5l-5.2,12.6c-0.2,0.5-0.7,0.8-1.3,0.8h-1.3V267h6.5c0.8,0,1.4,0.6,1.4,1.4V285c0,0.2,0,0.4-0.1,0.5l-5.2,12.6
				c-0.2,0.5-0.7,0.8-1.3,0.8h-1.3v41.8l0.9,2.5c6.3-10.9,16-16.9,28.7-17.8v-2.2c-0.4-0.4-0.7-1-0.7-1.7s0.3-1.3,0.7-1.7l1.4-27.6
				c-1.1-0.4-2.1-1.1-2.8-2.1c-1.4-1.8-2.1-4.3-1.7-6.7c0.1-0.7,0.7-1.2,1.3-1.2l0,0c0.7,0,1.2,0.5,1.4,1.1c0.2,1,0.6,1.9,1.1,2.6
				c0.3,0.4,0.6,0.7,1,0.9l0.3-6.1c0-0.7,0.6-1.3,1.4-1.3l0,0c0.7,0,1.3,0.6,1.4,1.3l0.3,6c0.3-0.2,0.7-0.5,0.9-0.9
				c0.6-0.7,1-1.7,1.2-2.8c0.1-0.7,0.7-1.2,1.3-1.2l0,0c0.7,0,1.2,0.5,1.4,1.2c0.4,2.5-0.2,5.1-1.7,7c-0.8,1-1.8,1.7-2.8,2.1
				l1.4,27.6c0.4,0.4,0.7,1.1,0.7,1.7c0,0.7-0.3,1.3-0.7,1.7v2.2c23.9,1.5,32.2,20.7,35.1,33.2c11-4.5,22.7-7.7,34.9-9.5v-8
				c0-18.9,12.5-35.8,30.5-41.4c5.6-18,22.5-30.5,41.4-30.5h8c7.1-47.6,33.3-77.2,54.2-93.7c25.5-20.2,52.1-28.4,62.4-30.9
				c25.1-9,32.3-19.5,33.6-21.9c4.5-19.5,22.2-33.5,42.1-33.5c19.9,0,37.6,14.1,42.1,33.5c1.4,2.4,8.6,12.8,33.6,21.9
				c10.3,2.6,36.8,10.7,62.4,30.9c20.8,16.5,47.1,46.1,54.2,93.7h8c18.9,0,35.8,12.5,41.4,30.5c18,5.6,30.5,22.5,30.5,41.4v8
				c9.6,1.4,19,3.8,27.9,6.9c3.7-13.6,12.7-29.2,34.4-30.5v-2.2c-0.4-0.4-0.7-1-0.7-1.7s0.3-1.3,0.7-1.7l1.4-27.6
				c-1.1-0.4-2.1-1.1-2.8-2.1c-1.5-1.8-2.1-4.4-1.7-6.9c0.1-0.7,0.7-1.2,1.4-1.2l0,0c0.7,0,1.2,0.5,1.3,1.2c0.2,1.1,0.6,2,1.2,2.8
				c0.3,0.3,0.6,0.6,0.9,0.9l0.3-6c0-0.7,0.6-1.3,1.4-1.3c0.7,0,1.3,0.6,1.4,1.3l0.3,6.1c0.4-0.2,0.7-0.5,1-0.9
				c0.6-0.7,1-1.6,1.1-2.6c0.1-0.7,0.7-1.2,1.4-1.1c0.7,0,1.2,0.5,1.3,1.2c0.3,2.4-0.3,5-1.7,6.7c-0.8,1-1.7,1.7-2.8,2.1L881,320
				c0.4,0.4,0.7,1.1,0.7,1.7c0,0.7-0.3,1.3-0.7,1.7v2.2c12.7,0.9,22.4,6.9,28.7,17.8l0.9-2.5v-41.8h-1.3c-0.6,0-1.1-0.3-1.3-0.8
				l-5.2-12.6c-0.1-0.2-0.1-0.3-0.1-0.5v-16.6c0-0.8,0.6-1.4,1.4-1.4h6.5v-48.1h-1.3c-0.6,0-1.1-0.3-1.3-0.8l-5.2-12.6
				c-0.1-0.2-0.1-0.3-0.1-0.5v-16.6c0-0.8,0.6-1.4,1.4-1.4h5.4v-3.6c0-0.1,0-0.3,0.1-0.4l3.5-11.5c-4.6-3.5-7.1-8.7-7.1-15.1
				c0-10.8,7-29.2,17.1-35.8c-0.4-0.5-0.6-1.1-0.6-1.8v-2.5c0-1.7,1.4-3,3-3h0.7v-3.1c-2-0.6-3.7-1.7-5.2-3.1c-3-3-4.3-7.3-3.4-11.4
				c0.1-0.7,0.8-1.1,1.5-1.1c0.7,0.1,1.2,0.6,1.3,1.3c0.1,1.7,0.8,3.3,2,4.5c2,2,5.1,2.5,7.6,1.3c0.7-0.3,1.4-0.8,1.9-1.3
				c1.3-1.3,2-3,2-4.8s-0.7-3.5-2-4.8c-0.6-0.6-1.2-1-1.9-1.4c-0.8-0.4-1.7-0.6-2.5-0.6c-0.7,0-1.3-0.6-1.3-1.2
				c-0.1-0.7,0.4-1.3,1.1-1.5c1.1-0.2,2.3-0.3,3.4-0.3c3,0.2,5.9,1.5,8,3.6c4.9,4.9,4.9,12.8,0,17.6c-1.1,1.1-2.4,2-3.8,2.6v3.6h0.7
				c1.7,0,3,1.4,3,3v2.5c0,0.7-0.2,1.3-0.6,1.8c10.1,6.5,17.1,25,17.1,35.8c0,6.4-2.4,11.5-7.1,15.1l3.5,11.5c0,0.1,0.1,0.3,0.1,0.4
				v3.6h5.4c0.8,0,1.4,0.6,1.4,1.4v16.6c0,0.2,0,0.4-0.1,0.5l-5.2,12.6c-0.2,0.5-0.7,0.8-1.3,0.8h-1.3v48.1h6.5
				c0.8,0,1.4,0.6,1.4,1.4v16.6c0,0.2,0,0.4-0.1,0.5l-5.2,12.6c-0.2,0.5-0.7,0.8-1.3,0.8h-1.3v41.8l4.4,12.4
				c0.1,0.1,0.1,0.3,0.1,0.5v50h6c0.8,0,1.4,0.6,1.4,1.4v4.8c0,0.8-0.6,1.4-1.4,1.4h-2.6v43.9h0.1c0.8,0,1.4,0.6,1.4,1.4V488h3.8
				c0.8,0,1.4,0.6,1.4,1.4v4.7h3.5c0.8,0,1.4,0.6,1.4,1.4v4.7h3.4c0.8,0,1.4,0.6,1.4,1.4v5.3c11,8.2,17.6,21.1,17.6,34.7
				c0,19.9-14.1,37.6-33.5,42.1c-2.4,1.4-12.8,8.6-21.9,33.7c-2.3,9.2-9.5,33-26.7,56.8c-12.4,17.1-27.6,31-45.1,41.3
				c-16,9.4-33.7,15.6-52.8,18.4v8c0,18.9-12.5,35.8-30.5,41.4c-5.6,18-22.5,30.5-41.4,30.5h-8c-7.1,47.6-33.3,77.2-54.2,93.7
				c-25.5,20.2-52.1,28.4-62.4,30.9c-25.1,9-32.3,19.5-33.7,21.9C577.6,979.7,559.9,993.8,539.9,993.8z M100.3,506.2h6.3
				c0.6,0,1.1,0.4,1.3,0.9c0.2,0.6,0,1.2-0.5,1.5c-10.6,7.7-17,20-17,32.9c0,18.7,13.3,35.4,31.6,39.5c0.1,0,0.2,0.1,0.4,0.1
				c3.1,1.7,14,9.3,23.3,35.3v0.1c2.2,9,9.3,32.4,26.3,56c12.2,16.8,27.1,30.4,44.2,40.5c16,9.4,33.8,15.5,53,18.2
				c0.7,0.1,1.2,0.7,1.2,1.4v9.2c0,17.9,12,33.9,29.2,38.9c0.5,0.1,0.8,0.5,0.9,0.9c5,17.2,21,29.2,38.9,29.2h9.2
				c0.7,0,1.3,0.5,1.4,1.2c6.7,47.4,32.7,76.8,53.3,93.1c25.2,19.9,51.3,27.9,61.4,30.5h0.1c26,9.4,33.6,20.2,35.3,23.3
				c0.1,0.1,0.1,0.2,0.1,0.4c4.2,18.3,20.8,31.6,39.5,31.6s35.4-13.3,39.5-31.6c0-0.1,0.1-0.2,0.1-0.4c1.7-3.1,9.3-14,35.3-23.3h0.1
				c10.1-2.5,36.2-10.5,61.4-30.5c20.6-16.3,46.6-45.8,53.3-93.1c0.1-0.7,0.7-1.2,1.4-1.2h9.2c17.9,0,33.9-12,38.9-29.2
				c0.1-0.5,0.5-0.8,0.9-0.9c17.2-5,29.2-21,29.2-38.9v-9.2c0-0.7,0.5-1.3,1.2-1.4c19.2-2.7,37-8.9,53-18.2
				c17.2-10.1,32.1-23.7,44.2-40.5c17-23.5,24.1-47,26.3-56v-0.1c9.4-26,20.2-33.6,23.3-35.3c0.1-0.1,0.2-0.1,0.4-0.1
				c18.3-4.2,31.6-20.8,31.6-39.5c0-12.9-6.4-25.2-17-32.9c-0.4-0.3-0.6-0.7-0.6-1.1v-4.6H968c-0.8,0-1.4-0.6-1.4-1.4v-4.7h-3.5
				c-0.8,0-1.4-0.6-1.4-1.4v-4.7h-5.3c-0.8,0-1.4-0.6-1.4-1.4s0.6-1.4,1.4-1.4h0.1v-30.1h-0.1c-0.8,0-1.4-0.6-1.4-1.4v-46.6
				c0-0.8,0.6-1.4,1.4-1.4h2.6v-2.1h-6c-0.8,0-1.4-0.6-1.4-1.4V354l-4.4-12.4c-0.1-0.1-0.1-0.3-0.1-0.5v-43.4c0-0.8,0.6-1.4,1.4-1.4
				h1.8l4.7-11.5v-15h-6c-0.8,0-1.4-0.6-1.4-1.4v-50.8c0-0.8,0.6-1.4,1.4-1.4h1.8l4.7-11.5v-15h-5.4c-0.8,0-1.4-0.6-1.4-1.4v-4.8
				l-3.7-12.2c-0.2-0.6,0-1.2,0.5-1.5c4.5-3,6.7-7.5,6.7-13.4c0-10.7-7.7-30.4-18-34.6c-0.6-0.2-0.9-0.9-0.8-1.5
				c0.1-0.6,0.7-1.1,1.3-1.1h0.7c0.2,0,0.3-0.1,0.3-0.3v-2.5c0-0.2-0.1-0.3-0.3-0.3h-2c-0.8,0-1.4-0.6-1.4-1.4V109
				c0-0.6,0.4-1.1,0.9-1.3c1.4-0.5,2.6-1.3,3.7-2.3c3.8-3.8,3.8-9.9,0-13.7c-0.6-0.6-1.2-1.1-1.9-1.5c1.2,1.6,1.9,3.6,1.9,5.6
				c0,2.5-1,4.9-2.8,6.7c-0.8,0.8-1.7,1.4-2.7,1.9c-3.2,1.5-6.9,1.1-9.6-1c0.4,0.7,0.9,1.3,1.5,1.9c1.4,1.4,3.1,2.3,4.9,2.7
				c0.6,0.1,1.1,0.7,1.1,1.3v5.5c0,0.8-0.6,1.4-1.4,1.4h-2c-0.2,0-0.3,0.1-0.3,0.3v2.5c0,0.2,0.1,0.3,0.3,0.3h0.7
				c0.7,0,1.2,0.5,1.3,1.1s-0.2,1.3-0.8,1.5c-10.3,4.2-18,23.9-18,34.6c0,5.9,2.3,10.4,6.7,13.4c0.5,0.3,0.7,1,0.5,1.5l-3.7,12.2
				v4.8c0,0.8-0.6,1.4-1.4,1.4h-5.4v15l4.7,11.5h1.8c0.8,0,1.4,0.6,1.4,1.4v50.8c0,0.8-0.6,1.4-1.4,1.4h-6.5v15l4.7,11.5h1.8
				c0.8,0,1.4,0.6,1.4,1.4v43.4c0,0.2,0,0.3-0.1,0.5l-2,5.7c-0.2,0.5-0.7,0.9-1.2,0.9c-0.6,0-1.1-0.3-1.3-0.8
				c-6-12.1-15.8-18.5-29.2-19.1c-0.7,0-1.3-0.6-1.3-1.4v-3.7c-0.1-0.2-0.1-0.4-0.1-0.6c0-0.4,0.2-0.7,0.4-1c-0.3-0.2-0.4-0.6-0.4-1
				c0-0.2,0-0.3,0.1-0.5l-0.6-11.4l-0.6,11.4c0.1,0.2,0.1,0.3,0.1,0.5c0,0.4-0.2,0.7-0.4,1c0.3,0.2,0.4,0.6,0.4,1
				c0,0.2,0,0.4-0.1,0.5v3.7c0,0.7-0.6,1.3-1.3,1.4c-21.8,0.8-30.3,16.7-33.6,30c-0.1,0.4-0.3,0.7-0.7,0.9c-0.3,0.2-0.7,0.2-1.1,0.1
				c-9.5-3.4-19.6-5.9-29.9-7.4c-0.7-0.1-1.2-0.7-1.2-1.4v-9.2c0-17.9-12-33.9-29.2-38.9c-0.5-0.1-0.8-0.5-0.9-0.9
				c-5-17.2-21-29.2-38.9-29.2h-9.2c-0.7,0-1.3-0.5-1.4-1.2c-6.7-47.4-32.7-76.8-53.3-93.1c-25.2-19.9-51.3-27.9-61.4-30.5h-0.1
				c-26-9.4-33.6-20.2-35.3-23.3c-0.1-0.1-0.1-0.2-0.1-0.4c-4.2-18.3-20.8-31.6-39.5-31.6s-35.4,13.3-39.5,31.6
				c0,0.1-0.1,0.2-0.1,0.4c-1.7,3.1-9.3,14-35.3,23.3H465c-10.1,2.5-36.2,10.5-61.4,30.4C383,194.2,357,223.7,350.3,271
				c-0.1,0.7-0.7,1.2-1.4,1.2h-9.2c-17.9,0-33.9,12-38.9,29.2c-0.1,0.5-0.5,0.8-0.9,0.9c-17.2,5-29.2,21-29.2,38.9v9.2
				c0,0.7-0.5,1.3-1.2,1.4c-12.9,1.8-25.4,5.3-36.9,10.2c-0.4,0.2-0.8,0.1-1.2,0c-0.4-0.2-0.6-0.5-0.7-0.9
				c-3-14.5-11.3-31.9-34.2-32.7c-0.7,0-1.3-0.6-1.3-1.4v-3.7c-0.1-0.2-0.1-0.4-0.1-0.5c0-0.4,0.2-0.7,0.4-1c-0.3-0.2-0.4-0.6-0.4-1
				c0-0.2,0-0.3,0.1-0.5l-0.6-11.4l-0.6,11.4c0.1,0.2,0.1,0.3,0.1,0.5c0,0.4-0.2,0.7-0.4,1c0.3,0.2,0.4,0.6,0.4,1
				c0,0.2,0,0.4-0.1,0.6v3.7c0,0.7-0.6,1.3-1.3,1.4c-13.4,0.6-23.2,7-29.2,19.1c-0.2,0.5-0.8,0.8-1.3,0.8s-1-0.4-1.2-0.9l-2-5.7
				c-0.1-0.1-0.1-0.3-0.1-0.5v-43.4c0-0.8,0.6-1.4,1.4-1.4h1.8l4.7-11.5v-15h-6.5c-0.8,0-1.4-0.6-1.4-1.4v-50.8
				c0-0.8,0.6-1.4,1.4-1.4h1.8l4.7-11.5v-15h-5.4c-0.8,0-1.4-0.6-1.4-1.4v-4.8l-3.7-12.2c-0.2-0.6,0-1.2,0.5-1.5
				c4.5-3,6.7-7.5,6.7-13.4c0-10.7-7.7-30.4-18-34.6c-0.6-0.2-0.9-0.9-0.8-1.5c0.1-0.6,0.7-1.1,1.3-1.1h0.7c0.2,0,0.3-0.1,0.3-0.3
				v-2.5c0-0.2-0.1-0.3-0.3-0.3h-2c-0.8,0-1.4-0.6-1.4-1.4v-5.5c0-0.7,0.5-1.2,1.1-1.3c1.9-0.4,3.6-1.3,4.9-2.7
				c0.6-0.6,1.1-1.2,1.5-1.9c-2.8,2-6.5,2.4-9.6,1c-1-0.5-1.9-1.1-2.7-1.9c-1.8-1.8-2.8-4.2-2.8-6.7c0-2.1,0.7-4,1.9-5.6
				c-0.7,0.4-1.3,0.9-1.9,1.5c-3.8,3.8-3.8,9.9,0,13.7c1.1,1.1,2.3,1.8,3.7,2.3c0.6,0.2,0.9,0.7,0.9,1.3v5.9c0,0.8-0.6,1.4-1.4,1.4
				h-2c-0.2,0-0.3,0.1-0.3,0.3v2.5c0,0.2,0.1,0.3,0.3,0.3h0.7c0.7,0,1.2,0.5,1.3,1.1s-0.2,1.3-0.8,1.5c-10.3,4.2-18,23.9-18,34.6
				c0,5.9,2.3,10.4,6.7,13.4c0.5,0.3,0.7,1,0.5,1.5l-3.7,12.2v4.8c0,0.8-0.6,1.4-1.4,1.4h-5.4v15l4.7,11.5h1.8
				c0.8,0,1.4,0.6,1.4,1.4v50.8c0,0.8-0.6,1.4-1.4,1.4h-6.5v15l4.7,11.5h1.8c0.8,0,1.4,0.6,1.4,1.4v43.4c0,0.2,0,0.3-0.1,0.5
				L120,354v51.1c0,0.8-0.6,1.4-1.4,1.4h-6v2.1h2.6c0.8,0,1.4,0.6,1.4,1.4v46.6c0,0.8-0.6,1.4-1.4,1.4h-0.1v30h0.1
				c0.8,0,1.4,0.6,1.4,1.4s-0.6,1.4-1.4,1.4h-5.3v4.7c0,0.8-0.6,1.4-1.4,1.4H105v4.7c0,0.8-0.6,1.4-1.4,1.4h-3.4v3.2H100.3z"/>
		</g>
		<g class="st0">
			<path class="st1" d="M194.6,283.8c-0.4,0-0.8-0.1-1-0.4c-0.3-0.3-0.4-0.6-0.4-1v-1.3c0-0.7,0.6-1.3,1.4-1.3l0,0
				c0.7,0,1.3,0.6,1.4,1.3v1.3c0,0.4-0.1,0.7-0.4,1C195.3,283.6,194.9,283.8,194.6,283.8z"/>
		</g>
		<g class="st0">
			<path class="st1" d="M877.6,283.8c-0.4,0-0.8-0.1-1-0.4c-0.3-0.3-0.4-0.6-0.4-1v-1.3c0-0.7,0.6-1.3,1.4-1.3l0,0
				c0.7,0,1.3,0.6,1.4,1.3v1.3c0,0.4-0.1,0.7-0.4,1C878.4,283.6,878,283.8,877.6,283.8z"/>
		</g>
	</g>
	<path class="st1" d="M539.9,968c-8.6,0-16-6.4-17.2-14.9c-0.5-1.9-7.1-24-51.2-39.5c-5.9-1.4-30.4-8-53.7-26.4
		c-21.5-17-46.3-47.8-46.2-99.3h-32c-9.6,0-17.5-7.8-17.5-17.5v-11.1H311c-9.6,0-17.5-7.8-17.5-17.5v-31.9c-0.1,0-0.1,0-0.2,0
		c-54.4,0-85.8-27.7-102.6-50.9c-15.8-21.8-21.6-43.7-22.9-49.1c-15.5-44.1-37.6-50.7-39.5-51.2c-8.5-1.3-14.9-8.6-14.9-17.2
		c0-8.6,6.4-16,14.9-17.2c1.9-0.5,24-7.1,39.5-51.2c1.3-5.4,7.1-27.2,22.9-49.1c16.8-23.2,48.2-50.9,102.6-50.9c0.1,0,0.1,0,0.2,0
		v-31.9c0-9.6,7.8-17.5,17.5-17.5h11.1v-11.1c0-9.6,7.8-17.5,17.5-17.5h32c-0.1-51.5,24.7-82.3,46.2-99.3
		c23.3-18.5,47.8-25,53.7-26.4c44-15.5,50.7-37.6,51.2-39.5c1.3-8.5,8.6-14.9,17.2-14.9c8.6,0,16,6.4,17.2,14.9
		c0.5,1.9,7.1,24,51.2,39.5c5.9,1.4,30.4,8,53.7,26.4c21.5,17,46.3,47.8,46.2,99.3h32c9.6,0,17.5,7.8,17.5,17.5v11.1h11.1
		c9.6,0,17.5,7.8,17.5,17.5v31.9c0.1,0,0.1,0,0.2,0c54.4,0,85.8,27.7,102.6,50.9c15.8,21.8,21.6,43.7,22.9,49.1
		c15.5,44.1,37.6,50.7,39.5,51.2c8.5,1.3,14.9,8.6,14.9,17.2c0,8.6-6.4,16-14.9,17.2c-1.9,0.5-24,7.1-39.5,51.2
		c-1.3,5.4-7.1,27.3-22.9,49.1c-16.8,23.2-48.2,50.9-102.6,50.9c-0.1,0-0.2,0-0.2,0v31.9c0,9.6-7.8,17.5-17.5,17.5h-11.1v11.1
		c0,9.6-7.8,17.5-17.5,17.5h-32c0.1,51.5-24.7,82.3-46.2,99.3c-23.3,18.5-47.8,25-53.7,26.4c-44.1,15.5-50.7,37.6-51.2,39.5
		C555.9,961.6,548.6,968,539.9,968z"/>
	
		<linearGradient id="SVGID_1_" gradientUnits="userSpaceOnUse" x1="122.4" y1="538.2" x2="957.4001" y2="538.2" gradientTransform="matrix(1 0 0 -1 0 1080)">
		<stop  offset="0" style="stop-color:#26343F"/>
		<stop  offset="1" style="stop-color:#26343F"/>
	</linearGradient>
	<path class="st2" d="M539.9,959.3c-4.4,0-8.1-3.3-8.6-7.7c-0.4-2-6.5-28.7-57.3-46.4c-4.2-1-28.1-6.9-50.7-24.8
		c-21.5-17-45.7-48.2-42.7-101.2h-40.9c-4.8,0-8.7-3.9-8.7-8.7v-19.8h-19.8c-4.8,0-8.7-3.9-8.7-8.7v-40.9c-3,0.2-6,0.3-8.9,0.3
		c-50.7,0-79.9-25.7-95.5-47.3c-15.4-21.3-20.7-42.4-21.6-46.4c-17.7-50.9-44.4-57-46.4-57.3c-4.4-0.5-7.7-4.2-7.7-8.6
		c0-4.4,3.3-8.1,7.7-8.6c2-0.4,28.7-6.5,46.4-57.3c0.9-4,6.2-25.1,21.6-46.4c15.6-21.6,44.8-47.3,95.5-47.3c2.9,0,5.9,0.1,8.9,0.3
		v-40.9c0-4.8,3.9-8.7,8.7-8.7H331v-19.8c0-4.8,3.9-8.7,8.7-8.7h40.9c-3-53,21.2-84.1,42.7-101.2c22.6-17.9,46.5-23.9,50.7-24.8
		c50.9-17.7,57-44.4,57.3-46.4c0.5-4.4,4.2-7.7,8.6-7.7c4.4,0,8.1,3.3,8.6,7.7c0.4,2,6.5,28.7,57.3,46.4c4.2,1,28.1,6.9,50.7,24.8
		c21.5,17,45.7,48.2,42.7,101.2h40.9c4.8,0,8.7,3.9,8.7,8.7v19.8h19.8c4.8,0,8.7,3.9,8.7,8.7v40.9c3-0.2,6-0.3,8.9-0.3
		c50.7,0,79.9,25.7,95.5,47.3c15.4,21.3,20.7,42.4,21.6,46.4c17.7,50.9,44.4,57,46.4,57.3c4.4,0.5,7.7,4.2,7.7,8.6
		c0,4.4-3.3,8.1-7.7,8.6c-2,0.4-28.7,6.5-46.4,57.3c-0.9,4-6.2,25.1-21.6,46.4c-15.6,21.6-44.8,47.2-95.5,47.3l0,0
		c-2.9,0-5.9-0.1-8.9-0.3V742c0,4.8-3.9,8.7-8.7,8.7H749v19.8c0,4.8-3.9,8.7-8.7,8.7h-40.9c3,53-21.2,84.1-42.7,101.2
		c-22.6,17.9-46.5,23.9-50.7,24.8c-50.9,17.7-57,44.4-57.3,46.4C548,956,544.3,959.3,539.9,959.3z"/>
	
		<radialGradient id="SVGID_2_" cx="539.8" cy="538.4" r="408.6" gradientTransform="matrix(1 0 0 -1 0 1080)" gradientUnits="userSpaceOnUse">
		<stop  offset="0.7161" style="stop-color:#26343F"/>
		<stop  offset="0.9553" style="stop-color:#26343F"/>
		<stop  offset="0.9947" style="stop-color:#26343F"/>
	</radialGradient>
	<path class="st3" d="M895.1,478c0,0-19.9-98.4-126.3-86.2v-50.4h-28.6v-28.6h-50.4c12.1-106.4-86.2-126.3-86.2-126.3
		C544.8,166.2,540,133,540,133s-4.9,33.2-63.6,53.5c0,0-98.4,19.9-86.2,126.3h-50.4v28.6h-28.6v50.4
		C204.7,379.6,184.7,478,184.7,478c-20.3,58.8-53.5,63.6-53.5,63.6s33.2,4.9,53.5,63.6c0,0,19.9,98.4,126.3,86.2v50.4h28.6v28.6H390
		c-12.1,106.4,86.2,126.3,86.2,126.3c58.8,20.3,63.6,53.5,63.6,53.5s4.9-33.2,63.6-53.5c0,0,98.4-19.9,86.2-126.3H740v-28.6h28.6
		v-50.4c106.4,12.1,126.3-86.2,126.3-86.2c20.3-58.8,53.5-63.6,53.5-63.6S915.4,536.7,895.1,478z"/>
</g>
<g>
	<g>
		<g>
			
				<rect x="581.7" y="643.2" transform="matrix(0.7071 -0.7071 0.7071 0.7071 -285.4776 602.2653)" class="st4" width="5.1" height="5.1"/>
			<polygon class="st4" points="610.7,668 607.4,664.7 603.8,668.3 607.4,671.9 610.7,668.6 613.9,671.9 617.5,668.3 613.9,664.7 
							"/>
			<path class="st4" d="M701.5,655.8h-2.7c-5.7-0.1-8.3-2.7-10.8-7.8c-2.9-5.9-7.1-13.9-20.3-7.5l2.7,5.6c7.7-3.7,9-1.3,12,4.7
				c0.6,1.3,1.9,3.4,3.1,5h-26.6v-13.6l-6.3,2v16.7c0,5-1.9,6.3-6.8,6.9c-0.4,0.1-1.3,0.1-2.2,0.2l1.3,5.6
				c8.1-0.5,13.6-3.6,13.9-11.9h48.8v-34.4l-6.3,2v26.5H701.5z"/>
			<polygon class="st4" points="715.1,628.6 715.1,661.8 721.4,661.8 721.4,626.6 			"/>
			<path class="st4" d="M643.2,659c0.9-4,1.6-11.2-3-15c-2-1.6-4.7-2.2-7.2-1.6c-2.1,0.4-4.9,1.8-7,5.9c-1.3,2.6-2.3,5-3,6.8
				c-0.1,0.4-0.5,0.7-1,0.7h-7.2c0.4-1.1,0.4-2,0.4-3.1v-10.6l-6.3,2v9.6c0,0.5,0,1.4-0.3,2h-8.7v-13.6l-6.3,2v15.3
				c0,5.8-2.9,8.2-8.1,8.2c-5.4,0-8-3.2-8-8.2v-8.8l-6.3,1.6v8.3c0,9.6,7.9,13,14.3,13c7.6,0,13.7-4.4,14.3-11.9h25
				c0.9,0,1.8-0.4,2.4-1.2l0.5-0.7l10.7,3l4.4-2.6L643.2,659z M637.6,656.3l-7.6-2.1c0.4-1,0.9-2,1.4-3.1s1.5-2.4,2.9-2.7
				c0.8-0.2,1.7,0.1,2.1,0.4C637.7,649.8,638.1,652.7,637.6,656.3z"/>
		</g>
	</g>
	<g>
		<path class="st1" d="M571.5,697c0.9-0.3,2-0.4,3.4-0.2c0.5,0.1,1,0.2,1.5,0.4c0.1,0,0.1,0,0.2,0.1c0.3,0.1,0.5,0.2,0.8,0.4
			c0.2,0.1,0.5,0.2,0.7,0.4c0.5,0.3,1,0.7,1.5,1.1c0.6-3.5,0.3-6.7,0.2-8.3l0,0c-1.2,0.8-0.9,2.9-0.6,3.5l0,0
			c-1.5-1.8-0.8-3.8-0.5-4.3l0,0c-0.2,0.2-0.4,0.4-0.6,0.6c-0.5,0.6-0.6,1.3-0.7,1.8c0,0.3,0,0.6,0,0.8c0,0.1,0,0.1,0,0.2l0,0l0,0
			c-0.4-0.8-0.6-2,0-3.2c0.2-0.3,0.4-0.6,0.7-1c0.1-0.1,0.2-0.2,0.3-0.3l0,0c-0.1,0-0.2,0-0.3,0.1c-0.3,0.1-0.5,0.2-0.7,0.4
			c-0.5,0.3-0.8,0.8-1,1.3c-0.2,0.4-0.2,0.8-0.2,1.2l0,0c-0.3-1.1-0.1-1.9,0.2-2.4c0.3-0.4,0.6-0.7,1-0.9c0.2-0.1,0.5-0.2,0.7-0.3
			c0.1,0,0.2-0.1,0.3-0.1l0,0c-0.1,0-0.2,0-0.3,0c-0.3,0-0.5,0-0.7,0.1c-0.4,0.1-0.7,0.2-1,0.4c-0.4,0.3-0.6,0.6-0.6,0.7l0,0
			c0.1-0.6,0.3-1,0.7-1.3c0.3-0.2,0.6-0.4,1-0.5c0.2-0.1,0.5-0.1,0.7-0.1c0.3,0,0.6,0,0.9,0.2l0,0c-0.2-0.3-0.5-0.5-0.9-0.6
			c-0.2-0.1-0.5-0.1-0.7-0.1s-0.4,0.1-0.6,0.1l0,0c0.2-0.2,0.4-0.4,0.6-0.5c0.2-0.1,0.5-0.2,0.7-0.2c0.6-0.1,1.3,0.2,1.7,0.8l0,0
			c0.1-0.1,0.2-0.3,0.2-0.5c0.2-0.4,0.3-0.8,0.4-1.3c0.1,0.4,0.2,0.9,0.4,1.3c0.1,0.2,0.1,0.3,0.2,0.5l0,0c0.4-0.6,1.1-0.9,1.7-0.8
			c0.2,0,0.5,0.1,0.7,0.2c0.2,0.1,0.4,0.3,0.6,0.5l0,0c-0.2-0.1-0.4-0.1-0.6-0.1c-0.2,0-0.5,0-0.7,0.1c-0.3,0.1-0.7,0.3-0.9,0.6l0,0
			c0.3-0.1,0.6-0.2,0.9-0.2c0.2,0,0.5,0,0.7,0.1c0.4,0.1,0.7,0.3,1,0.5c0.4,0.3,0.6,0.7,0.7,1.3l0,0c-0.1-0.1-0.3-0.4-0.6-0.7
			c-0.2-0.2-0.6-0.3-1-0.4c-0.2,0-0.4-0.1-0.7-0.1c-0.1,0-0.2,0-0.3,0l0,0c0.1,0,0.2,0,0.3,0.1c0.2,0.1,0.5,0.2,0.7,0.3
			c0.4,0.2,0.7,0.5,1,0.9c0.4,0.6,0.5,1.4,0.2,2.4l0,0c0-0.4-0.1-0.8-0.2-1.2c-0.2-0.5-0.5-1-1-1.3c-0.2-0.1-0.4-0.3-0.7-0.4
			c-0.1,0-0.2-0.1-0.3-0.1l0,0c0.1,0.1,0.2,0.2,0.3,0.3c0.3,0.3,0.5,0.6,0.7,1c0.6,1.2,0.4,2.4,0,3.2l0,0l0,0c0-0.1,0-0.1,0-0.2
			c0-0.2,0-0.5,0-0.8c0-0.6-0.2-1.2-0.7-1.8c-0.2-0.2-0.3-0.4-0.6-0.6l0,0c0.3,0.5,1.1,2.5-0.5,4.3l0,0c0.3-0.6,0.6-2.8-0.6-3.5l0,0
			c-0.1,1.6-0.4,4.8,0.2,8.3c0.5-0.4,1-0.7,1.5-1.1c0.2-0.1,0.5-0.3,0.7-0.4c0.3-0.1,0.5-0.3,0.8-0.4c0.1,0,0.1,0,0.2-0.1
			c0.5-0.2,1-0.3,1.5-0.4c1.4-0.2,2.6,0,3.4,0.2c0.1,0,0.1,0.1,0.1,0.2c0,0.1-0.1,0.2-0.2,0.2c-1.2-0.2-2.3-0.1-3.4,0.2
			c-0.5,0.2-1,0.4-1.5,0.6c-0.3,0.2-0.7,0.3-1,0.5c-0.2,0.1-0.5,0.3-0.7,0.4c-0.5,0.4-1.1,0.8-1.6,1.2c0.6,0.5,1.1,1,1.6,1.4
			c0.2,0.2,0.5,0.4,0.7,0.6c0.4,0.3,0.7,0.6,1,0.8c0.1,0.1,0.2,0.2,0.3,0.2c0.2-0.2,0.5-0.4,0.8-0.3c0.1,0,0.3,0.1,0.4,0.2
			c0.1,0.1,0.2,0.2,0.2,0.4c0.1,0.3-0.1,0.6-0.2,0.7c0,0,0,0-0.1,0.1c-0.4,0.4-0.9,0.3-1.5,0c-0.3-0.2-0.6-0.4-1-0.7
			c-0.2-0.2-0.5-0.4-0.7-0.6c-0.6-0.5-1.2-1.2-1.9-1.8c-0.1-0.1-0.3-0.2-0.4-0.3c-0.1,0.1-0.3,0.2-0.4,0.3c-0.7,0.6-1.3,1.3-1.9,1.8
			c-0.2,0.2-0.5,0.4-0.7,0.6c-0.3,0.3-0.7,0.5-1,0.7c-0.6,0.3-1.1,0.3-1.5,0c0,0,0,0-0.1-0.1s-0.2-0.4-0.2-0.7
			c0-0.2,0.1-0.3,0.2-0.4c0.1-0.1,0.2-0.2,0.4-0.2c0.3-0.1,0.6,0.1,0.8,0.3c0.1-0.1,0.2-0.1,0.3-0.2c0.3-0.2,0.6-0.5,1-0.8
			c0.2-0.2,0.5-0.4,0.7-0.6c0.5-0.4,1-0.9,1.6-1.4c-0.5-0.4-1-0.8-1.6-1.2c-0.2-0.2-0.5-0.3-0.7-0.4c-0.3-0.2-0.6-0.4-1-0.5
			c-0.5-0.2-1-0.4-1.5-0.6c-1-0.3-2.2-0.4-3.4-0.2c-0.1,0-0.2-0.1-0.2-0.2C571.4,697.1,571.4,697.1,571.5,697"/>
		<rect x="594.2" y="685.3" class="st4" width="0.5" height="19.3"/>
	</g>
	<g>
		<path class="st1" d="M600.3,693.6c0.4,0.4,1.1,0.4,1.7,0.4c0.8,0,1.3-0.2,1.7-0.6c0.4-0.4,0.6-0.9,0.6-1.6V688h-0.9v3.8
			c0,0.5-0.1,0.8-0.3,1s-0.5,0.4-1,0.4c-0.4,0-1,0-1.2-0.4c-0.2-0.3-0.3-0.6-0.3-1.1c0-0.3,0-0.7,0.1-1c0-0.3,0.1-0.6,0.2-0.9H600
			c-0.1,0.3-0.2,0.6-0.3,0.9c-0.1,0.3-0.1,0.7-0.1,1c0,0.4,0.1,0.8,0.2,1.1C599.9,693.2,600.1,693.4,600.3,693.6z"/>
		<path class="st1" d="M601.9,687.7c0.2,0,0.3-0.1,0.4-0.2c0.1-0.1,0.1-0.2,0.1-0.4s0-0.3-0.1-0.4c-0.1-0.1-0.2-0.2-0.4-0.2
			s-0.3,0-0.4,0.1c-0.1,0.1-0.1,0.2-0.1,0.4s0,0.3,0.1,0.4C601.6,687.6,601.7,687.7,601.9,687.7z"/>
		<path class="st1" d="M608.8,693.5c0.4-0.3,0.5-0.8,0.5-1.4v-4.4h-1.2c-0.5,0-0.9,0.1-1.3,0.3c-0.4,0.2-0.7,0.4-0.9,0.8
			c-0.2,0.3-0.3,0.7-0.3,1.2c0,0.6,0.2,1.1,0.5,1.5c0.3,0.3,0.8,0.5,1.4,0.5h0.8v0.2c0,0.3-0.1,0.6-0.3,0.8s-0.5,0.3-0.9,0.3
			c-0.2,0-0.4,0-0.6-0.1c-0.2-0.1-0.4-0.1-0.6-0.2l-0.4,0.7c0.2,0.1,0.5,0.3,0.8,0.3c0.3,0.1,0.6,0.1,0.9,0.1
			C607.9,694,608.4,693.8,608.8,693.5z M607.7,691.1c-0.4,0-0.6-0.1-0.8-0.3s-0.3-0.5-0.3-0.9s0.1-0.8,0.4-1
			c0.3-0.2,0.6-0.4,1.1-0.4h0.3v2.6L607.7,691.1L607.7,691.1z"/>
		<path class="st1" d="M612.6,686.9c0.2,0,0.3,0,0.5-0.1c0.1,0,0.3,0,0.4,0v-0.4c0,0-0.1,0-0.2,0c-0.1,0-0.2,0-0.3,0s-0.2,0-0.3,0
			h-0.1c-0.1,0-0.1-0.1-0.2-0.2c0-0.1-0.1-0.2-0.1-0.3s0-0.2,0.1-0.3s0.2-0.1,0.3-0.1s0.2,0,0.2,0c0.1,0,0.1,0,0.2,0.1l0.1-0.4
			c-0.2-0.1-0.4-0.1-0.6-0.1c-0.3,0-0.5,0.1-0.7,0.2c-0.2,0.1-0.2,0.3-0.2,0.6c0,0.1,0,0.2,0.1,0.3s0.1,0.2,0.2,0.2l-0.4,0.1v0.4
			c0.1,0,0.2,0,0.4-0.1C612.2,686.9,612.4,686.9,612.6,686.9z"/>
		<path class="st1" d="M621.7,686.9c0.2,0,0.3-0.1,0.4-0.2c0.1-0.1,0.1-0.2,0.1-0.4s0-0.3-0.1-0.4c-0.1-0.1-0.2-0.1-0.4-0.1
			c-0.1,0-0.3,0-0.4,0.1c-0.1,0.1-0.1,0.2-0.1,0.4s0,0.3,0.1,0.4C621.4,686.8,621.5,686.9,621.7,686.9z"/>
		<path class="st1" d="M622.6,686.3c0,0.2,0,0.3,0.1,0.4c0.1,0.1,0.2,0.1,0.4,0.1s0.3-0.1,0.4-0.2c0.1-0.1,0.1-0.2,0.1-0.4
			s0-0.3-0.1-0.4c-0.1-0.1-0.2-0.1-0.4-0.1s-0.3,0-0.4,0.1C622.7,686,622.6,686.1,622.6,686.3z"/>
		<path class="st1" d="M622.4,685.6c0.1,0,0.2,0,0.3-0.1s0.1-0.2,0.1-0.4s0-0.3-0.1-0.4c-0.1-0.1-0.2-0.1-0.3-0.1s-0.2,0-0.3,0.1
			s-0.1,0.2-0.1,0.4s0,0.3,0.1,0.4C622.2,685.6,622.3,685.6,622.4,685.6z"/>
		<path class="st1" d="M629.1,687.7h-0.9v3.4h-2.7v-3.4h-0.9v3.4h-0.5c-0.2,0-0.5,0-0.6-0.1c-0.2-0.1-0.3-0.3-0.5-0.5
			c0-0.1,0-0.1,0-0.2c0-0.1,0-0.1,0-0.2v-1.8h-0.9v1.7c0,0.3-0.1,0.6-0.2,0.7c-0.1,0.2-0.4,0.3-0.6,0.3h-0.9v-2.7h-0.9v2.7h-4.9
			v-3.4h-1.2c-0.5,0-0.9,0.1-1.3,0.3c-0.4,0.2-0.7,0.4-0.9,0.8c-0.2,0.3-0.3,0.7-0.3,1.2c0,0.4,0.1,0.8,0.2,1.1
			c0.1,0.3,0.4,0.5,0.7,0.7s0.6,0.2,1,0.2h0.8v0.2c0,0.3-0.1,0.6-0.3,0.8s-0.5,0.3-0.9,0.3c-0.2,0-0.4,0-0.6-0.1
			c-0.2-0.1-0.4-0.1-0.6-0.2l-0.4,0.7c0.2,0.1,0.5,0.3,0.8,0.3c0.3,0.1,0.6,0.1,0.9,0.1c0.4,0,0.8-0.1,1.1-0.2
			c0.3-0.1,0.5-0.4,0.7-0.6c0.2-0.3,0.2-0.6,0.2-1V692h6.8c0.3,0,0.6-0.1,0.8-0.2c0.2-0.1,0.4-0.3,0.5-0.5c0.2,0.2,0.4,0.4,0.7,0.5
			c0.2,0.1,0.5,0.1,0.7,0.1h5.1L629.1,687.7L629.1,687.7z M613.5,691.1h-0.7c-0.4,0-0.6-0.1-0.8-0.3s-0.3-0.5-0.3-0.9s0.1-0.8,0.4-1
			c0.3-0.2,0.6-0.4,1.1-0.4h0.3V691.1z"/>
		<path class="st1" d="M628.1,692.8c-0.1,0.1-0.1,0.2-0.1,0.4s0,0.3,0.1,0.4c0.1,0.1,0.2,0.1,0.4,0.1s0.3-0.1,0.4-0.2
			c0.1-0.1,0.1-0.2,0.1-0.4s0-0.3-0.1-0.4c-0.1-0.1-0.2-0.1-0.4-0.1C628.4,692.7,628.2,692.7,628.1,692.8z"/>
		<path class="st1" d="M633.5,686.5c0.2,0,0.3,0,0.4-0.1c0.1-0.1,0.1-0.2,0.1-0.4s0-0.3-0.1-0.4c-0.1-0.1-0.2-0.1-0.4-0.1
			c-0.1,0-0.3,0-0.4,0.1c-0.1,0.1-0.1,0.2-0.1,0.4s0,0.3,0.1,0.4C633.2,686.4,633.3,686.5,633.5,686.5z"/>
		<path class="st1" d="M632.7,691.7c0.3,0.2,0.8,0.2,1.2,0.2h5.7v-4.2h-0.9v3.4h-3.3v-3.4h-0.9H634c-0.5,0-0.9,0.1-1.3,0.3
			c-0.4,0.2-0.6,0.4-0.8,0.7s-0.3,0.7-0.3,1.2c0,0.4,0.1,0.8,0.3,1.1C632.1,691.3,632.4,691.5,632.7,691.7z M633,688.8
			c0.3-0.2,0.6-0.4,1.1-0.4h0.4v2.6H634c-0.4,0-0.8-0.1-1-0.3s-0.4-0.5-0.4-0.9C632.6,689.4,632.7,689.1,633,688.8z"/>
		<path class="st1" d="M635,686.5c0.2,0,0.3-0.1,0.4-0.2c0.1-0.1,0.1-0.2,0.1-0.4s0-0.3-0.1-0.4c-0.1-0.1-0.2-0.2-0.4-0.2
			s-0.3,0-0.4,0.1c-0.1,0.1-0.1,0.2-0.1,0.4s0,0.3,0.1,0.4C634.7,686.4,634.8,686.5,635,686.5z"/>
		<path class="st1" d="M637.4,692.8c-0.1,0.1-0.1,0.2-0.1,0.4s0,0.3,0.1,0.4c0.1,0.1,0.2,0.1,0.4,0.1s0.3,0,0.4-0.1
			c0.1-0.1,0.1-0.2,0.1-0.4s0-0.3-0.1-0.4c-0.1-0.1-0.2-0.1-0.4-0.1C637.6,692.7,637.5,692.7,637.4,692.8z"/>
		<path class="st1" d="M639.2,692.7c-0.2,0-0.3,0-0.4,0.1c-0.1,0.1-0.1,0.2-0.1,0.4s0,0.3,0.1,0.4c0.1,0.1,0.2,0.1,0.4,0.1
			s0.3-0.1,0.4-0.2c0.1-0.1,0.1-0.2,0.1-0.4s0-0.3-0.1-0.4C639.5,692.7,639.4,692.7,639.2,692.7z"/>
		<path class="st1" d="M648.3,686.9c0.2,0,0.3-0.1,0.4-0.2c0.1-0.1,0.1-0.2,0.1-0.4s0-0.3-0.1-0.4c-0.1-0.1-0.2-0.1-0.4-0.1
			s-0.3,0-0.4,0.1c-0.1,0.1-0.1,0.2-0.1,0.4s0,0.3,0.1,0.4C648,686.8,648.1,686.9,648.3,686.9z"/>
		<path class="st1" d="M661.1,691.9v-6.6h-0.9v5.8H658v-5.8h-1v5.8h-2.6c-0.2,0-0.3,0-0.5,0c-0.1,0-0.3-0.1-0.4-0.1
			c0.3-0.2,0.6-0.5,0.8-0.8s0.4-0.6,0.5-1s0.2-0.8,0.2-1.2c-0.3-0.2-0.6-0.3-1-0.4c-0.4-0.1-0.7-0.2-1.1-0.2c-0.3,0-0.5,0-0.8,0.1
			s-0.5,0.2-0.8,0.3s-0.5,0.3-0.7,0.5c0.1,0.3,0.2,0.6,0.3,1s0.3,0.7,0.6,1c0.1,0.1,0.2,0.3,0.3,0.4c0.1,0.1,0.2,0.2,0.3,0.3
			c-0.1,0.1-0.3,0.1-0.4,0.1c-0.2,0-0.3,0-0.5,0h-2.4v-3.4h-0.9v3.4h-5.5v-5.8h-0.9v6.6h9.9c0.3,0,0.5,0,0.8-0.1s0.5-0.2,0.8-0.3
			c0.2,0.1,0.5,0.3,0.8,0.3c0.3,0.1,0.6,0.1,0.8,0.1L661.1,691.9L661.1,691.9z M652.9,690.5c-0.2-0.1-0.4-0.3-0.5-0.5
			c-0.2-0.2-0.3-0.4-0.4-0.6c-0.1-0.2-0.2-0.5-0.3-0.7c0.1-0.1,0.3-0.2,0.4-0.2c0.1-0.1,0.3-0.1,0.5-0.2c0.2,0,0.3-0.1,0.5-0.1
			s0.4,0,0.6,0.1c0.2,0,0.4,0.1,0.6,0.2c0,0.4-0.1,0.8-0.4,1.2C653.6,689.9,653.3,690.2,652.9,690.5z"/>
		<path class="st1" d="M665.5,686.5c0.2,0,0.3,0,0.4-0.1c0.1-0.1,0.1-0.2,0.1-0.4s0-0.3-0.1-0.4c-0.1-0.1-0.2-0.1-0.4-0.1
			c-0.1,0-0.3,0-0.4,0.1c-0.1,0.1-0.1,0.2-0.1,0.4s0,0.3,0.1,0.4C665.2,686.4,665.4,686.5,665.5,686.5z"/>
		<path class="st1" d="M667,686.5c0.2,0,0.3-0.1,0.4-0.2c0.1-0.1,0.1-0.2,0.1-0.4s0-0.3-0.1-0.4c-0.1-0.1-0.2-0.2-0.4-0.2
			s-0.3,0-0.4,0.1c-0.1,0.1-0.1,0.2-0.1,0.4s0,0.3,0.1,0.4C666.7,686.4,666.8,686.5,667,686.5z"/>
		<path class="st1" d="M690.8,691.1h-3.5c-0.2,0-0.3,0-0.5,0s-0.3-0.1-0.4-0.1c0.3-0.2,0.6-0.5,0.8-0.8s0.4-0.6,0.5-1
			s0.2-0.8,0.2-1.2c-0.3-0.2-0.6-0.3-1-0.4c-0.4-0.1-0.7-0.2-1.1-0.2c-0.3,0-0.5,0-0.8,0.1s-0.5,0.2-0.8,0.3s-0.5,0.3-0.7,0.5
			c0.1,0.3,0.2,0.6,0.3,1s0.3,0.7,0.6,1c0.1,0.1,0.2,0.3,0.3,0.4c0.1,0.1,0.2,0.2,0.3,0.3c-0.1,0.1-0.3,0.1-0.4,0.1
			c-0.2,0-0.3,0-0.5,0h-4.5v-5.8h-0.9v6.6h5.5c0.3,0,0.5,0,0.8-0.1s0.5-0.2,0.8-0.3c0.2,0.1,0.5,0.3,0.8,0.3
			c0.3,0.1,0.6,0.1,0.8,0.1h4.5v-6.6H691v5.8H690.8z M685.6,690.5c-0.2-0.1-0.4-0.3-0.5-0.5c-0.2-0.2-0.3-0.4-0.4-0.6
			c-0.1-0.2-0.2-0.5-0.3-0.7c0.1-0.1,0.3-0.2,0.4-0.2c0.1-0.1,0.3-0.1,0.5-0.2c0.2,0,0.3-0.1,0.5-0.1s0.4,0,0.6,0.1
			c0.2,0,0.4,0.1,0.6,0.2c0,0.4-0.1,0.8-0.4,1.2C686.3,689.9,686,690.2,685.6,690.5z"/>
		<rect x="693.1" y="685.3" class="st1" width="0.9" height="6.6"/>
		<path class="st1" d="M697.7,691.7c0.3,0.2,0.8,0.2,1.2,0.2h20v-6.6H718v5.8h-2.1v-1.7c0-1-0.3-1.7-0.8-2.2s-1.3-0.8-2.3-0.8
			c-0.2,0-0.5,0-0.7,0s-0.4,0.1-0.7,0.1c-0.2,0-0.4,0.1-0.6,0.2l0.2,0.8c0.3-0.1,0.6-0.2,0.8-0.2s0.6-0.1,0.9-0.1
			c0.7,0,1.3,0.2,1.6,0.6c0.4,0.4,0.5,1,0.5,1.7v1.7h-1.1V690c0-0.4-0.1-0.7-0.2-1c-0.1-0.3-0.3-0.5-0.6-0.6s-0.6-0.2-1-0.2
			c-0.3,0-0.6,0.1-0.9,0.2c-0.3,0.2-0.5,0.4-0.7,0.6c-0.2,0.3-0.2,0.6-0.2,1c0,0.3,0,0.5,0.1,0.7s0.2,0.4,0.4,0.5h-2.5v-3.4h-0.9
			v3.4h-2.8v-3.4h-0.9v3.4h-3.1v-3.4h-0.9l0,0H699c-0.5,0-0.9,0.1-1.3,0.3s-0.6,0.4-0.8,0.7s-0.3,0.7-0.3,1.2c0,0.4,0.1,0.8,0.3,1.1
			C697.1,691.3,697.4,691.5,697.7,691.7z M711.4,689.2c0.1-0.2,0.4-0.3,0.6-0.3c0.3,0,0.5,0.1,0.6,0.3s0.2,0.5,0.2,0.8v1.1h-0.6
			c-0.2,0-0.4,0-0.6-0.1c-0.2-0.1-0.3-0.2-0.4-0.4c-0.1-0.2-0.1-0.4-0.1-0.6C711.2,689.6,711.3,689.4,711.4,689.2z M698,688.8
			c0.3-0.2,0.6-0.4,1.1-0.4h0.4v2.6H699c-0.4,0-0.8-0.1-1-0.3s-0.4-0.5-0.4-0.9C697.6,689.4,697.8,689.1,698,688.8z"/>
		<path class="st1" d="M700,686.5c0.2,0,0.3-0.1,0.4-0.2c0.1-0.1,0.1-0.2,0.1-0.4s0-0.3-0.1-0.4c-0.1-0.1-0.2-0.2-0.4-0.2
			s-0.3,0-0.4,0.1c-0.1,0.1-0.1,0.2-0.1,0.4s0,0.3,0.1,0.4C699.7,686.4,699.8,686.5,700,686.5z"/>
		<path class="st1" d="M698.5,686.5c0.2,0,0.3,0,0.4-0.1c0.1-0.1,0.1-0.2,0.1-0.4s0-0.3-0.1-0.4c-0.1-0.1-0.2-0.1-0.4-0.1
			c-0.1,0-0.3,0-0.4,0.1c-0.1,0.1-0.1,0.2-0.1,0.4s0,0.3,0.1,0.4C698.2,686.4,698.4,686.5,698.5,686.5z"/>
		<path class="st1" d="M704,686.8c0.2,0,0.3,0,0.5-0.1c0.1,0,0.3,0,0.4,0v-0.4c0,0-0.1,0-0.2,0c-0.1,0-0.2,0-0.3,0s-0.2,0-0.3,0H704
			c-0.1,0-0.1-0.1-0.2-0.2c0-0.1-0.1-0.1-0.1-0.2c0-0.1,0-0.3,0.1-0.3c0.1-0.1,0.2-0.1,0.3-0.1s0.2,0,0.2,0c0.1,0,0.1,0,0.2,0.1
			l0.1-0.4c-0.2-0.1-0.4-0.1-0.6-0.1c-0.3,0-0.5,0.1-0.7,0.2c-0.2,0.1-0.2,0.3-0.2,0.6c0,0.1,0,0.2,0.1,0.3s0.1,0.2,0.2,0.2
			l-0.4,0.1v0.4c0.1,0,0.2,0,0.4-0.1C703.7,686.8,703.8,686.8,704,686.8z"/>
		<path class="st1" d="M708.2,692.8c-0.1,0.1-0.1,0.2-0.1,0.4s0,0.3,0.1,0.4c0.1,0.1,0.2,0.1,0.4,0.1s0.3-0.1,0.4-0.2
			c0.1-0.1,0.1-0.2,0.1-0.4s0-0.3-0.1-0.4c-0.1-0.1-0.2-0.2-0.4-0.2C708.4,692.7,708.3,692.7,708.2,692.8z"/>
		<path class="st1" d="M706.7,692.8c-0.1,0.1-0.1,0.2-0.1,0.4s0,0.3,0.1,0.4c0.1,0.1,0.2,0.1,0.4,0.1s0.3,0,0.4-0.1
			c0.1-0.1,0.1-0.2,0.1-0.4s0-0.3-0.1-0.4c-0.1-0.1-0.2-0.1-0.4-0.1S706.8,692.7,706.7,692.8z"/>
		<rect x="720.4" y="685.3" class="st1" width="0.9" height="6.6"/>
		<path class="st1" d="M601.6,705.5c-0.1,0-0.3,0-0.4,0.1c-0.1,0.1-0.1,0.2-0.1,0.4s0,0.3,0.1,0.4c0.1,0.1,0.2,0.1,0.4,0.1
			s0.3,0,0.4-0.1c0.1-0.1,0.1-0.2,0.1-0.4s0-0.3-0.1-0.4C601.9,705.5,601.7,705.5,601.6,705.5z"/>
		<path class="st1" d="M603.1,705.5c-0.2,0-0.3,0-0.4,0.1c-0.1,0.1-0.1,0.2-0.1,0.4s0,0.3,0.1,0.4c0.1,0.1,0.2,0.1,0.4,0.1
			s0.3-0.1,0.4-0.2c0.1-0.1,0.1-0.2,0.1-0.4s0-0.3-0.1-0.4C603.4,705.5,603.2,705.5,603.1,705.5z"/>
		<path class="st1" d="M615.3,703.4c-0.2,0-0.3,0-0.4,0.1c-0.1,0.1-0.1,0.2-0.1,0.4s0,0.3,0.1,0.4c0.1,0.1,0.2,0.1,0.4,0.1
			s0.3-0.1,0.4-0.2c0.1-0.1,0.1-0.2,0.1-0.4s0-0.3-0.1-0.4C615.6,703.5,615.4,703.4,615.3,703.4z"/>
		<path class="st1" d="M618.7,697.6c0.2,0,0.3-0.1,0.4-0.2c0.1-0.1,0.1-0.2,0.1-0.4s0-0.3-0.1-0.4c-0.1-0.1-0.2-0.1-0.4-0.1
			s-0.3,0-0.4,0.1c-0.1,0.1-0.1,0.2-0.1,0.4s0,0.3,0.1,0.4C618.5,697.6,618.6,697.6,618.7,697.6z"/>
		<path class="st1" d="M621.4,701.8h-2.2v-3.4h-0.9v3.4h-2.5v-3.4h-0.9v3.4h-4.2v-3.4h-1.2c-0.5,0-0.9,0.1-1.3,0.3
			c-0.4,0.2-0.7,0.4-0.9,0.8c-0.2,0.3-0.3,0.7-0.3,1.2c0,0.4,0.1,0.8,0.2,1.1c0.1,0.3,0.4,0.5,0.7,0.7s0.6,0.2,1,0.2h0.8v0.2
			c0,0.3-0.1,0.6-0.3,0.8s-0.5,0.3-0.9,0.3c-0.2,0-0.4,0-0.6-0.1c-0.2-0.1-0.4-0.1-0.6-0.2l-0.4,0.7c0.2,0.1,0.5,0.3,0.8,0.3
			c0.3,0.1,0.6,0.1,0.9,0.1c0.4,0,0.8-0.1,1.1-0.2c0.3-0.1,0.5-0.4,0.7-0.6c0.2-0.3,0.2-0.6,0.2-1v-0.2h11.7v-6.6h-0.9L621.4,701.8
			L621.4,701.8z M609.8,701.8H609c-0.4,0-0.6-0.1-0.8-0.3s-0.3-0.5-0.3-0.9s0.1-0.8,0.4-1c0.3-0.2,0.6-0.4,1.1-0.4h0.3L609.8,701.8
			L609.8,701.8z"/>
		<rect x="623.8" y="696.1" class="st1" width="0.9" height="6.6"/>
		<rect x="656.3" y="696.1" class="st1" width="0.9" height="6.6"/>
		<path class="st1" d="M659.9,698.7c-0.4,0.2-0.7,0.4-0.9,0.8c-0.2,0.3-0.3,0.7-0.3,1.2c0,0.6,0.2,1.1,0.5,1.5
			c0.3,0.3,0.8,0.5,1.4,0.5h0.8v0.2c0,0.3-0.1,0.6-0.3,0.8s-0.5,0.3-0.9,0.3c-0.2,0-0.4,0-0.6-0.1c-0.2-0.1-0.4-0.1-0.6-0.2
			l-0.4,0.7c0.2,0.1,0.5,0.3,0.8,0.3c0.3,0.1,0.6,0.1,0.9,0.1c0.7,0,1.2-0.2,1.5-0.5c0.4-0.3,0.5-0.8,0.5-1.4v-4.4h-1.2
			C660.8,698.4,660.3,698.5,659.9,698.7z M661.5,701.8h-0.7c-0.4,0-0.6-0.1-0.8-0.3s-0.3-0.5-0.3-0.9s0.1-0.8,0.4-1
			c0.3-0.2,0.6-0.4,1.1-0.4h0.3V701.8z"/>
		<rect x="671.9" y="696.1" class="st1" width="0.9" height="6.6"/>
		<path class="st1" d="M686.6,701.8h-2.4c-0.1-0.1-0.2-0.2-0.3-0.4s-0.1-0.4-0.2-0.6c-0.1-0.2-0.1-0.5-0.2-0.8
			c-0.1-0.3-0.1-0.6-0.2-0.8c-0.1-0.2-0.2-0.4-0.3-0.5s-0.3-0.2-0.4-0.3c-0.1-0.1-0.2-0.1-0.4-0.1c-0.1,0-0.3,0-0.5,0
			c-0.3,0-0.6,0-0.8,0.1c-0.3,0.1-0.5,0.2-0.8,0.3l0.3,0.7c0.2-0.1,0.4-0.2,0.6-0.3c0.2-0.1,0.4-0.1,0.6-0.1c0.2,0,0.3,0,0.4,0.1
			c0.1,0,0.2,0.1,0.3,0.2c0.1,0.1,0.2,0.2,0.2,0.4c0.1,0.2,0.1,0.4,0.1,0.6c0,0.3,0.1,0.5,0.2,0.7c0.1,0.2,0.1,0.4,0.2,0.5
			c0.1,0.1,0.1,0.2,0.2,0.3H676v-3.4h-0.9v4.4c0,0.3-0.1,0.6-0.2,0.8c-0.1,0.2-0.3,0.3-0.6,0.3c-0.1,0-0.2,0-0.3,0s-0.2-0.1-0.4-0.1
			l-0.3,0.7c0.2,0.1,0.4,0.2,0.6,0.2c0.2,0,0.4,0.1,0.6,0.1c0.3,0,0.6-0.1,0.9-0.2c0.2-0.2,0.4-0.4,0.6-0.7c0.1-0.3,0.2-0.6,0.2-1
			v-0.2h11.5v-6.6h-0.9v5.7H686.6z"/>
		<rect x="689" y="696.1" class="st1" width="0.9" height="6.6"/>
		<path class="st1" d="M700,703.4c-0.2,0-0.3,0-0.4,0.1c-0.1,0.1-0.1,0.2-0.1,0.4s0,0.3,0.1,0.4c0.1,0.1,0.2,0.1,0.4,0.1
			s0.3-0.1,0.4-0.2c0.1-0.1,0.1-0.2,0.1-0.4s0-0.3-0.1-0.4C700.2,703.5,700.1,703.4,700,703.4z"/>
		<path class="st1" d="M635.4,703.4c-0.2,0-0.3,0-0.4,0.1c-0.1,0.1-0.1,0.2-0.1,0.4s0,0.3,0.1,0.4c0.1,0.1,0.2,0.1,0.4,0.1
			s0.3-0.1,0.4-0.2c0.1-0.1,0.1-0.2,0.1-0.4s0-0.3-0.1-0.4C635.6,703.5,635.5,703.4,635.4,703.4z"/>
		<rect x="720.4" y="696.1" class="st1" width="0.9" height="6.6"/>
		<path class="st1" d="M668.4,698.3c-0.8,0-1.9,0.6-1.9,2v1.4c-0.6,0-1.4,0.2-1.4,1.4v2.2h0.9v-2.1c0-0.2,0.1-0.4,0.2-0.5
			c0.1-0.1,0.3-0.2,0.5-0.2h1.6c1.6,0,2.1-1.3,2.1-2.2C670.3,699.3,669.7,698.3,668.4,698.3z M668,701.7h-0.6v-1.2
			c0-0.6,0.3-1.4,1-1.4c0.4,0,1,0.3,1,1.3C669.3,701.4,668.7,701.7,668,701.7z"/>
		<path class="st1" d="M674.4,691.9c1.6,0,2.1-1.3,2.1-2.2c0-0.4-0.1-0.7-0.2-1c-0.2-0.3-0.4-0.5-0.7-0.7c-0.1-0.1-0.3-0.1-0.5-0.2
			c-0.2,0-0.3-0.1-0.5-0.1c-0.9,0-1.9,0.6-1.9,2v1.4h-5.3v-3.4h-0.9l0,0H666c-0.5,0-0.9,0.1-1.3,0.3s-0.6,0.4-0.8,0.7
			s-0.3,0.7-0.3,1.2c0,0.4,0.1,0.8,0.3,1.1s0.4,0.5,0.8,0.7c0.3,0.2,0.8,0.2,1.2,0.2H674.4z M673.7,689.9c0-0.6,0.3-1.4,1-1.4
			c0.3,0,0.5,0.1,0.7,0.3s0.3,0.5,0.3,0.8s0,0.5-0.1,0.8c-0.1,0.2-0.2,0.4-0.4,0.5s-0.4,0.2-0.6,0.2h-0.7v-1.2H673.7z M666.6,691.1
			H666c-0.4,0-0.8-0.1-1-0.3s-0.4-0.5-0.4-0.9s0.1-0.8,0.4-1c0.3-0.2,0.6-0.4,1.1-0.4h0.4L666.6,691.1L666.6,691.1z"/>
		<path class="st1" d="M718,701.8h-1.4c-0.2,0-0.4,0-0.6-0.1c-0.1-0.1-0.3-0.2-0.4-0.3c0.1-0.3,0.2-0.7,0.2-1c0-0.4-0.1-0.7-0.2-1
			c-0.2-0.3-0.4-0.5-0.7-0.7c-0.1-0.1-0.3-0.1-0.5-0.2c-0.2,0-0.3-0.1-0.5-0.1c-0.9,0-1.9,0.6-1.9,2v1.4h-1.9v-3.4h-0.9v3.4h-0.5
			c-0.2,0-0.5,0-0.6-0.1c-0.2-0.1-0.3-0.2-0.5-0.5c0,0,0-0.1,0-0.2v-2.4h-0.9v2.2c0,0.3-0.1,0.6-0.2,0.7c-0.2,0.2-0.4,0.3-0.6,0.3
			H705v-3.2h-0.9v3.2h-1.7c-0.1-0.1-0.2-0.2-0.2-0.4c-0.1-0.2-0.1-0.4-0.2-0.6c-0.1-0.2-0.1-0.5-0.2-0.8c-0.1-0.3-0.1-0.6-0.2-0.8
			c-0.1-0.2-0.2-0.4-0.3-0.5s-0.3-0.2-0.5-0.3c-0.1-0.1-0.2-0.1-0.4-0.1c-0.1,0-0.3,0-0.5,0c-0.3,0-0.6,0-0.8,0.1
			c-0.3,0.1-0.5,0.2-0.8,0.3l0.3,0.7c0.2-0.1,0.4-0.2,0.6-0.3c0.2-0.1,0.4-0.1,0.6-0.1c0.2,0,0.3,0,0.4,0.1c0.1,0,0.2,0.1,0.3,0.2
			c0.1,0.1,0.2,0.2,0.2,0.4c0.1,0.2,0.1,0.4,0.1,0.6c0,0.3,0.1,0.5,0.2,0.7c0.1,0.2,0.1,0.4,0.2,0.5c0.1,0.1,0.1,0.2,0.2,0.3h-4.9
			v-1c0-0.5-0.1-0.8-0.3-1.2c-0.2-0.3-0.5-0.6-0.8-0.7c-0.4-0.2-0.8-0.3-1.3-0.3h-1.3v0.8h1.2c0.5,0,0.8,0.1,1.1,0.4
			c0.3,0.2,0.4,0.6,0.4,1v1h-3.1v0.8h13.5c0.3,0,0.6-0.1,0.8-0.2s0.4-0.3,0.5-0.5c0.2,0.2,0.4,0.4,0.7,0.5s0.5,0.1,0.7,0.1h5
			c0.7,0,1.2-0.2,1.5-0.6c0.2,0.2,0.4,0.4,0.6,0.4c0.2,0.1,0.5,0.1,0.7,0.1h2.4v-6.6H718V701.8z M714.8,701.2
			c-0.1,0.2-0.2,0.4-0.4,0.5s-0.4,0.2-0.6,0.2H713v-1.2c0-0.6,0.3-1.4,1-1.4c0.3,0,0.5,0.1,0.7,0.3s0.3,0.5,0.3,0.8
			C714.9,700.7,714.9,701,714.8,701.2z"/>
		<path class="st1" d="M653.9,701.8h-1.6c-0.2,0-0.4,0-0.6-0.1c-0.1-0.1-0.3-0.2-0.4-0.3c0.1-0.3,0.2-0.7,0.2-1c0-0.4-0.1-0.7-0.2-1
			c-0.2-0.3-0.4-0.5-0.7-0.7c-0.1-0.1-0.3-0.1-0.5-0.2c-0.2,0-0.3-0.1-0.5-0.1c-0.9,0-1.9,0.6-1.9,2v1.4h-1.9v-3.4h-0.9v3.4h-0.5
			c-0.2,0-0.5,0-0.6-0.1c-0.2-0.1-0.3-0.2-0.5-0.5c0,0,0-0.1,0-0.2v-2.4h-0.9v2.2c0,0.3-0.1,0.6-0.2,0.7c-0.2,0.2-0.4,0.3-0.6,0.3
			h-0.9v-3.2h-0.9v3.2h-2.6c-0.1-0.1-0.2-0.2-0.2-0.4c-0.1-0.2-0.1-0.4-0.2-0.6c-0.1-0.2-0.1-0.5-0.2-0.8c-0.1-0.3-0.1-0.6-0.2-0.8
			c-0.1-0.2-0.2-0.4-0.3-0.5s-0.3-0.2-0.5-0.3c-0.1-0.1-0.2-0.1-0.4-0.1c-0.1,0-0.3,0-0.5,0c-0.3,0-0.6,0-0.8,0.1
			c-0.3,0.1-0.5,0.2-0.8,0.3l0.3,0.7c0.2-0.1,0.4-0.2,0.6-0.3c0.2-0.1,0.4-0.1,0.6-0.1c0.2,0,0.3,0,0.4,0.1c0.1,0,0.2,0.1,0.3,0.2
			c0.1,0.1,0.2,0.2,0.2,0.4c0.1,0.2,0.1,0.4,0.1,0.6c0,0.3,0.1,0.5,0.2,0.7c0.1,0.2,0.1,0.4,0.2,0.5c0.1,0.1,0.1,0.2,0.2,0.3h-4.9
			v-1c0-0.5-0.1-0.8-0.3-1.2c-0.2-0.3-0.5-0.6-0.8-0.7s-0.8-0.3-1.3-0.3h-1.3v0.8h1.2c0.5,0,0.8,0.1,1.1,0.4s0.4,0.6,0.4,1v1h-3.1
			v0.8h14.5c0.3,0,0.6-0.1,0.8-0.2c0.2-0.1,0.4-0.3,0.5-0.5c0.2,0.2,0.4,0.4,0.7,0.5c0.2,0.1,0.5,0.1,0.7,0.1h5
			c0.7,0,1.2-0.2,1.5-0.6c0.2,0.2,0.4,0.4,0.6,0.4c0.2,0.1,0.5,0.1,0.7,0.1h2.6v-6.6h-0.9L653.9,701.8L653.9,701.8z M650.4,701.2
			c-0.1,0.2-0.2,0.4-0.4,0.5s-0.4,0.2-0.6,0.2h-0.7v-1.2c0-0.6,0.3-1.4,1-1.4c0.3,0,0.5,0.1,0.7,0.3s0.3,0.5,0.3,0.8
			C650.5,700.7,650.5,701,650.4,701.2z"/>
		<path class="st1" d="M602.8,699.5c-0.3,0.4-0.5,0.8-0.4,1.3c0.1,0.4,0.3,0.7,0.6,1s0.7,0.5,1.1,0.7c0.3,0.2,0.6,0.6,0.3,0.9
			c-0.2,0.3-0.6,0.4-0.9,0.4c-0.4,0.1-1.8,0-2.1,0c-0.4,0-0.8-0.2-1-0.6c-0.2-0.4-0.1-1.1-0.1-1.5c0-0.2,0.1-0.5,0.2-0.7h-0.9
			c-0.3,0.8-0.4,1.9-0.1,2.7c0.3,0.6,0.9,1,1.7,1h1.8c0.8,0,1.9-0.2,2.2-1c0.2-0.6,0-1.3-0.5-1.7c-0.3-0.3-0.8-0.6-1.2-0.9
			c-0.2-0.2-0.4-0.4-0.3-0.7c0.1-0.4,0.4-0.7,0.8-0.9c0.4-0.3,0.9-0.2,1.4,0l0.4-0.7c-0.2-0.1-0.5-0.3-0.7-0.3
			C604.3,698.2,603.4,698.8,602.8,699.5z"/>
	</g>
</g>
<g>
	<path class="st5" d="M419.1,665.3C419.2,665.4,419.1,665.3,419.1,665.3L419.1,665.3z"/>
	<path class="st5" d="M418.8,664.9C418.7,664.9,418.5,664.7,418.8,664.9L418.8,664.9z"/>
	<path class="st5" d="M424.8,657.2c-0.2-1.1-0.8-2.1-1.6-2.9c-1.1-1.2-2.3-2.2-3.7-3.1c-1-0.6-2-1.2-3-1.7l3.5-1.1l4.5-1.4h0.1
		c0,0,0,0,0.1,0s0-0.1,0-0.2v-0.2c-0.1-0.3-0.3-0.5-0.5-0.8c-0.3-0.4-0.7-0.7-1.1-1c-0.1-0.1-0.2-0.1-0.3-0.1l0,0l-3.2-1.1l-7.8-2.6
		l-9.2-3.2l-8-2.8l-2.6-0.9c-0.4-0.2-0.8-0.3-1.2-0.4c-0.2,0-0.4,0.1-0.6,0.2l-2,0.7l-7.2,2.5l-9.2,3.2l-8.3,2.9l-4.5,1.6l-0.3,0.1
		c-0.2,0.1,0.7,1.1,0.7,1.1c0.3,0.5,0.8,0.8,1.3,1l3.2,1l2.6,0.8c-0.6,0.3-1.3,0.6-1.9,1c-1.2,0.6-2.4,1.4-3.6,2.2
		c-0.8,0.6-1.5,1.4-2.1,2.3c-0.2,0.3-0.3,0.7-0.3,1.1l0,0v4l2.1,0.7c-1.3,1.7-2.1,3.8-2.1,5.9c0,0.2,0.1,0.3,0.2,0.5
		s0.2,0.3,0.4,0.4l0.1,0.1c0.3,0.3,0.6,0.6,1,0.8c-1,2.3-1.5,4.7-1.6,7.1c0,0.5,0,1.1,0,1.6c0,0.2,0.1,0.3,0.2,0.5s0.2,0.3,0.4,0.4
		l0.1,0.1c-0.5,2.5-0.7,5-0.8,7.5c0,0.7,0,1.4,0,2.1c0,0.2,0.1,0.3,0.2,0.5s0.2,0.3,0.4,0.4l0.1,0.1c0.3,0.4,0.8,0.8,1.3,1l3.2,1
		l7.8,2.6l9.2,3l8,2.6l2.6,0.9c0.4,0.2,0.8,0.3,1.2,0.4c0.2,0,0.4-0.1,0.6-0.2l2-0.6l7.2-2.3l9.2-3l8.3-2.7l4.5-1.4h0.2v-0.1
		c0.1-3.4-0.2-6.9-0.9-10.2l0.7-0.2h0.2v-0.1c0.1-3.4-0.7-6.8-2.3-9.8l2.1-0.8h0.2v-0.1c-0.1-2.8-1.3-5.5-3.2-7.5l3.2-1.1
		L424.8,657.2z M415.8,662.7c0.5,0.3,1,0.6,1.4,1h0.1l0.1,0.1l0.3,0.2l0.4,0.3l0.1,0.1h-0.1l0.1,0.1l0.3,0.3l0.2,0.1l0.2,0.3
		c0,0,0,0,0,0.1l0,0l0.1,0.1c0.1,0.1,0.2,0.2,0.3,0.3c-0.3-0.3,0,0.1,0.1,0.2c0.1,0.1,0.1,0.2,0.2,0.2v0.1l0.2,0.2l0.2,0.3l-3.6,1.2
		c-2-1.4-4.2-2.7-6.4-3.8l5.3-1.8L415.8,662.7z M418.8,670.9C418.9,671,419.2,671.4,418.8,670.9c0.2,0.3,0.4,0.5,0.5,0.6l0.1,0.1
		c0,0.1,0.2,0.2,0.2,0.4l0.2,0.3c0,0,0.1,0.2,0,0l0.1,0.2c0.1,0.2,0.2,0.5,0.4,0.7c0.5,1.1,0.9,2.2,1.2,3.3c0,0.1,0,0.2,0,0.3
		l-0.8,0.3l-4.3,1.4l-12.5,4.1l-10.8,3.5c-0.8,0.2-1.6,0.5-2.3,0.8h-0.1l-0.9-0.3l-9.4-3.1l-12.9-4.1l-5.2-1.7
		c0.1-0.4,0.3-0.9,0.5-1.3c1-2.4,2.6-4.5,4.7-6.1l4.3,1.4l9.2,3l8,2.6l2.6,0.8c0.4,0.2,0.8,0.3,1.2,0.4c0.2,0,0.4-0.1,0.6-0.1l2-0.6
		l7.2-2.3l9.2-3l6.4-2.1l0.1,0.1c0.1,0.1,0.5,0.5,0.1,0L418.8,670.9l-0.2-0.1L418.8,670.9z M390.8,686.8
		C390.7,686.8,390.8,686.8,390.8,686.8L390.8,686.8z M378.4,652.5l2.4,0.8c-1.3,0.9-2.6,1.7-4,2.5s-2.4,1.2-3.6,1.8l-3.2-1l1.2-0.6
		C373.5,654.8,376,653.8,378.4,652.5L378.4,652.5z M408.7,664.7l3.5,1.9c0.5,0.3,1.1,0.6,1.6,0.9l0.8,0.4l0.4,0.2l0.2,0.1h0.1
		l-0.7,0.2l-12.3,4.1l-9.9,3.2l-1.2,0.4l-0.4,0.1h-0.1c-0.1,0-0.2-0.1-0.3-0.1l-1.1-0.4l-9.7-3.1l-10.8-3.5c2.3-1.5,4.9-2.8,7.4-4.1
		l15.6,5l16.8-5.4L408.7,664.7z M384.3,654.4l1.3,0.4c-1.9,1.8-3.9,3.4-6,4.8l-2.5-0.8l0.8-0.4C380.1,657.2,382.3,655.9,384.3,654.4
		L384.3,654.4z M394.2,648.6c1.4,1.4,2.8,2.6,4.3,3.9l-3.4,1.1l-0.2-0.3l-0.3-0.4l-0.1-0.2c-0.2-0.3-0.4-0.5-0.5-0.8l-0.4-0.6
		c-0.5-1-0.7-2.1-0.7-3.2v-0.8C393.3,647.6,393.7,648.1,394.2,648.6z M391.7,652.2c0.2-0.3,0.5-0.7,0.7-1.1c0.6,0.9,1.3,1.8,2,2.6
		l-2.4,0.8c-0.4,0.1-0.9,0.2-1.3,0.4c-0.1-0.1-0.3-0.1-0.4-0.1l-0.4-0.1C390.6,653.9,391.2,653.1,391.7,652.2z M388.8,655.9l2.6,0.8
		c0.4,0.2,0.8,0.3,1.2,0.4c0.2,0,0.4-0.1,0.6-0.2l2-0.6l1.2-0.4c0.7,0.7,1.4,1.4,2.2,2c1,0.9,2,1.6,3.1,2.4l-10,3.2l-8.7-2.8
		C385.1,659.4,387.1,657.7,388.8,655.9L388.8,655.9z M401.2,659.1l-0.4-0.3l-0.2-0.1l-0.8-0.6l-0.8-0.6l-0.2-0.2l-0.3-0.2l-0.7-0.6
		l-0.3-0.3l-0.1-0.1l-0.2-0.2l4-1.3c0.4,0.3,0.7,0.5,1.1,0.8c1.7,1.2,3.5,2.3,5.4,3.2l-5,1.6C402.3,659.8,401.7,659.4,401.2,659.1
		L401.2,659.1z M399.3,652.2l-0.6-0.5l-1.2-1l-0.3-0.2l-0.2-0.2l-0.4-0.4c-0.3-0.3-0.6-0.6-1-0.9l-0.4-0.4l-0.2-0.2
		c-0.5-0.5-1-0.9-1.4-1.4c-0.1-0.1-0.2-0.1-0.3-0.2v-0.1l-0.4-0.5V643c3.6,2.7,7.3,5.2,11.1,7.6l-1.3,0.4L399.3,652.2z M387.5,652.7
		c-0.3,0.3-0.5,0.6-0.8,0.9l-1-0.3c0.8-0.6,1.6-1.3,2.4-2c0.5-0.5,1.1-1,1.6-1.4C389.1,650.9,388.3,651.8,387.5,652.7L387.5,652.7z
		 M409.2,658l-2.8-1.3c-1.4-0.8-2.9-1.6-4.3-2.5l0.4-0.1l4.6-1.4c1.3,0.6,2.6,1.2,3.9,1.8s2.4,1.1,3.5,1.7l0.2,0.1L409.2,658z
		 M405.2,650.3c-2.7-1.5-5.4-3.1-7.9-4.9c-1.4-1-2.9-2-4.3-3.1l-0.2-0.1v-2.8c3.6,1.8,7.1,3.6,10.7,5.5c0.7,0.4,1.4,0.8,2.2,1.1
		c0.7,0.4,1.4,0.6,2.1,0.9l3.5,1.4L405.2,650.3z M390.7,640.9c-1.7,1.2-3.3,2.4-4.9,3.6c-2.8,2.1-5.8,3.9-8.9,5.6l-0.5,0.3l-3.7-1.2
		l0.6-0.2c2.2-0.9,4.4-1.7,6.5-2.7c0.9-0.4,1.8-0.9,2.6-1.4l4.1-2.1l3.9-2l0.2-0.1L390.7,640.9z M386.9,647.2
		c1.2-0.8,2.3-1.6,3.5-2.5c-1.1,1.3-2.3,2.5-3.5,3.6c-1.5,1.4-3,2.7-4.7,3.9l-1.2-0.4l-0.8-0.3C382.5,650.2,384.7,648.7,386.9,647.2
		z M372.3,663.8c-1.9,1-3.8,2.1-5.7,3.2c-0.5,0.3-0.9,0.6-1.4,1l-1.2-0.4c1.5-1.9,3.3-3.5,5.4-4.7L372.3,663.8z M363.9,669.1
		c-0.7,0.6-1.3,1.4-1.8,2.1c0.3-0.8,0.7-1.6,1.1-2.4L363.9,669.1z M417.8,651.4c0.6,0.3,1.1,0.6,1.7,0.9l0.2,0.1h0.1l0.3,0.2
		l0.8,0.5l0.6,0.4h0.1c0.1,0.1,0.2,0.1,0.3,0.2l-5.9,2c-0.9-0.6-1.9-1.2-2.9-1.7c-1.4-0.8-2.9-1.4-4.3-2.1l3-1l3.2-1
		C415.9,650.4,416.8,650.9,417.8,651.4z M395.3,636.6l7.2,2.5l9.2,3.2l8.3,2.9l0.5,0.2l-1,0.3l-6.5,2.1l-1.8-0.8
		c-2.3-1-4.6-1.8-6.9-2.9c-0.9-0.4-1.7-0.9-2.5-1.3c-1.4-0.7-2.7-1.4-4.1-2.1l-4.8-2.5v-2.4c0.1,0.1,0.3,0.1,0.4,0.2L395.3,636.6z
		 M363.5,646.2l-0.4-0.1l0.9-0.3l7.7-2.7l9.2-3.2l8-2.8l1.8-0.6v0.8c-0.2,0.1-0.5,0.2-0.7,0.4l-3.2,1.7c-2.7,1.4-5.4,2.7-8,4.1
		c-1.8,0.9-3.7,1.8-5.6,2.5c-1.4,0.7-3,1.3-4.5,1.9L363.5,646.2z M364.9,652.9c1.8-1.1,3.7-2,5.6-2.9l1,0.3l2.8,0.9
		c-2.8,1.2-5.6,2.6-8.2,4.1l-3.2-1.1C363.6,653.8,364.3,653.3,364.9,652.9L364.9,652.9z M365.9,661.7c-1.5,1-2.8,2.3-4,3.8
		c-0.3,0.4-0.5,0.8-0.8,1.2H361c0.4-2.1,1.4-4,2.9-5.5L365.9,661.7z M422.6,686.4v0.4c0,0,0,0.3,0,0.4s0,0,0,0h-0.1
		c-0.1,0-0.2,0.1-0.3,0.1l-1.3,0.4l-11.3,3.7l-13.4,4.3l-4.3,1.4l-1,0.3h-0.1h-0.1c-0.3-0.1-0.6-0.2-0.9-0.3l-1.8-0.6l-5.4-1.7
		l-13.7-4.5l-7.9-2.5c0-3,0.3-5.9,0.9-8.8l2.2,0.7l7.7,2.5l9.2,3l8,2.6l2.6,0.8c0.4,0.2,0.8,0.3,1.2,0.4c0.2,0,0.4-0.1,0.6-0.2
		l2-0.6l7.2-2.3l9.2-3l8.3-2.7l2.1-0.7C422.5,681.8,422.6,684.1,422.6,686.4L422.6,686.4z M422.2,671.9c0.2,0.8,0.3,1.6,0.3,2.4
		c0,0.2,0,0.5,0,0.8c-0.9-1.9-2.2-3.7-3.8-5.2l1.2-0.4l1.4-0.4C421.8,670,422,671,422.2,671.9L422.2,671.9z M420.9,660.7l0.2,0.2
		l0.2,0.3l0.1,0.1v0.1c0.1,0.1,0.2,0.3,0.2,0.4c0.5,1.1,0.8,2.2,0.9,3.4c0,0.2,0.1,0.4,0,0.5c-0.1,0-0.2,0-0.3,0l-1.4,0.4
		c-1.3-1.6-2.9-3.1-4.6-4.3l4.5-1.4L420.9,660.7z"/>
	<path class="st5" d="M445.8,674.7c-0.9,0-1.8,0.2-2.7,0.5c-0.8,0.4-1.6,0.9-2.2,1.6l0.2,0.3c0.6-0.3,1.2-0.4,1.9-0.4
		c2.5,0,4.1,2,4.1,5.1v7.1h3.9v-9.2c0-0.7-0.1-1.3-0.3-2c-0.2-0.6-0.6-1.2-1.1-1.7s-1.1-0.8-1.7-1.1
		C447.2,674.8,446.5,674.6,445.8,674.7L445.8,674.7z"/>
	<path class="st5" d="M440.1,674.7h-3.4V689h3.4V674.7z"/>
	<path class="st5" d="M461.1,686.7c-2.1,0-3.2-1.8-3.2-4.8v-7.3h-3.5v9.2c-0.1,0.7,0,1.3,0.2,1.9c0.2,0.6,0.5,1.2,1,1.7
		c0.4,0.5,0.9,0.9,1.5,1.1c0.6,0.3,1.2,0.4,1.8,0.4c0.9,0,1.8-0.3,2.6-0.7c0.8-0.4,1.5-1.1,2.1-1.8l-0.2-0.3
		C462.7,686.5,461.9,686.8,461.1,686.7L461.1,686.7z"/>
	<path class="st5" d="M467.8,674.7h-3.4V689h3.4V674.7z"/>
	<path class="st5" d="M478,680c-2-0.6-3.8-1.2-3.8-2.5c0-0.2,0-0.5,0.1-0.7v-0.2h0.3c0.2-0.1,0.5-0.1,0.7-0.1c0.7,0,1.4,0.1,2,0.4
		c0.6,0.3,1.2,0.7,1.7,1.2l0.1,0.1l3-2.1l-0.2-0.2c-0.5-0.5-1-0.8-1.6-1.1c-0.6-0.2-1.3-0.3-1.9-0.3c-0.8,0-1.5,0.1-2.2,0.4
		c-0.7,0.3-1.3,0.7-1.8,1.3l-0.2,0.2H474c-0.7,0.1-1.3,0.5-1.7,1c-0.5,0.5-0.7,1.1-0.8,1.8c0,2.3,2.5,3.1,4.9,3.8
		c1.8,0.6,3.5,1.1,3.7,2.3c0,0.4-0.1,0.8-0.3,1.2l-0.1,0.2h-0.3c-0.3,0-0.6,0-0.8,0c-1.6-0.1-3.1-0.7-4.2-1.8v-0.1l-3,2.1l0.2,0.2
		c0.5,0.6,1.2,1,1.9,1.3c0.7,0.3,1.5,0.5,2.3,0.5s1.5-0.1,2.2-0.4c0.7-0.3,1.3-0.7,1.9-1.3l0.2-0.2h0.2c0.3,0,3-0.9,2.9-3.3
		C482.7,681.6,480.3,680.8,478,680z"/>
	<path class="st5" d="M492.8,686.7c-2.3,0-3.6-1.8-3.6-4.8v-7.3h-3.8v9.2c-0.1,0.7,0,1.3,0.2,1.9c0.2,0.6,0.6,1.2,1.1,1.7
		s1,0.9,1.7,1.1c0.6,0.3,1.3,0.4,2,0.4c1,0,2-0.3,2.8-0.7c0.9-0.4,1.6-1.1,2.2-1.8l-0.3-0.3C494.5,686.5,493.7,686.8,492.8,686.7
		L492.8,686.7z"/>
	<path class="st5" d="M499.7,674.7h-3.4V689h3.4V674.7z"/>
	<path class="st5" d="M507.2,668H503v21h4.2V668z"/>
	<path class="st5" d="M516.5,674.7h-3.4l-5.9,7.1l5.9,7.2h5l-7-8.3L516.5,674.7z"/>
	<path class="st5" d="M474.5,665.4v-14.3h-3.7v11.7h-5.7h-3.7h-21.8l-2.9,2.1v0.4h21.2h3.7h9.3h1.7L474.5,665.4L474.5,665.4z"/>
	<path class="st5" d="M481,658.5c0,3-1.2,4.8-3.2,4.8c-0.8,0-1.5-0.2-2.2-0.6l-0.2,0.3c0.5,0.8,1.2,1.4,2,1.8
		c0.8,0.4,1.7,0.7,2.6,0.7c0.6,0,1.3-0.1,1.8-0.3c0.6-0.2,1.1-0.6,1.5-1.1s0.8-1.1,1-1.7c0.2-0.6,0.3-1.3,0.2-2v-9.2H481V658.5z"/>
	<path class="st5" d="M486.2,644.9c-0.1-0.1-0.3-0.1-0.4-0.1h-0.1v-0.1c0.1-0.2,0.1-0.4,0.1-0.6c0-1.7-0.8-2.2-1.5-2.2
		c-0.6,0-1.2,0.3-1.7,0.6c-0.4,0.4-0.7,0.9-0.7,1.4c0,0.8,0.6,1.3,2.1,1.5h0.3l-0.2,0.1c-1.3,0.7-2.8,1.3-4.3,1.8l-0.3,0.1h0.3
		c0.5,0.1,0.9,0.2,1.4,0.3l0,0c1.5-0.4,2.8-1.1,3.9-2.1c0.1,0,0.2,0.1,0.3,0.1l0,0L486.2,644.9L486.2,644.9z M485.2,644.4
		c0,0.1,0,0.2,0,0.3l0,0c-2-0.3-2.4-0.9-2.4-1.3c0-0.4,0.6-0.8,1.2-0.8C484.5,642.7,485.2,643.4,485.2,644.4z"/>
	<path class="st5" d="M512.3,654.5l-2.9-3.3l-2.9,3.3l2.9,3.4L512.3,654.5z"/>
	<path class="st5" d="M513.1,645c-0.1-0.1-0.3-0.1-0.4-0.1h-0.1v-0.1c0.1-0.2,0.1-0.4,0.1-0.6c0-1.7-0.8-2.2-1.5-2.2
		c-0.6,0-1.2,0.3-1.7,0.7c-0.4,0.4-0.7,0.9-0.7,1.5c0,0.9,0.6,1.3,2.1,1.6h0.3l-0.2,0.1c-1.3,0.8-2.8,1.4-4.3,1.8l-0.3,0.1h0.3
		c0.5,0.1,0.9,0.1,1.4,0.1l0,0c1.4-0.4,2.7-1.1,3.8-2l0,0l0.3,0.1l0.7-0.9L513.1,645z M512.1,644.4c0,0.1,0,0.2,0,0.3
		c-2-0.3-2.4-0.9-2.4-1.3c0-0.4,0.6-0.8,1.2-0.8C511.4,642.7,512,643.4,512.1,644.4L512.1,644.4z"/>
	<path class="st5" d="M514.5,651.2v11.4h-20.7c0.3-0.7,0.4-1.5,0.4-2.2v-9.2h-3.7v7.3c0,3-1.2,4.8-3.4,4.8c-0.8,0-1.6-0.2-2.3-0.6
		l-0.3,0.3c0.6,0.8,1.3,1.4,2.2,1.8c0.8,0.4,1.8,0.7,2.7,0.7c0.8,0,1.6-0.2,2.4-0.6c0.7-0.4,1.3-1,1.7-1.7l2.4,1.9h22.2v-13.9H514.5
		z"/>
	<path class="st5" d="M454.8,653.7c1.1-0.1,2.2,0.2,3.2,0.7s1.8,1.2,2.5,2.1c0.5,0.8,0.8,1.7,0.8,2.6c0.1,0.9-0.1,1.8-0.4,2.7v0.2
		l0.2,0.1h0.1c1.2-0.6,2.1-1.6,2.6-2.8c0.6-1.2,0.7-2.5,0.4-3.8c-0.3-1.3-1.1-2.5-2.2-3.2c-1.1-0.8-2.4-1.2-3.8-1.1h-12.6l6.4-6.7
		h-3.5l-6,6.9l0.5,2.3H454.8z"/>
</g>
<g class="st6">
	<path class="st4" d="M299.5,447.2c0,0,13.5,12.8,11.1,17.2c-0.5,0.8-3.1,0.9-6.1,0.8c0,0-10.1,0-12.2,0s-7.1-0.6-7.1-6.3
		C285.9,451.1,299.5,447.2,299.5,447.2z M296.2,440c0,1.7-1.4,3.1-3.2,3.1c-1.7,0-3.1-1.5-3.1-3.1c0-1.8,1.4-3.1,3.1-3.1
		C294.9,436.8,296.2,438.2,296.2,440z M297.4,457.7c0-1.5-1.1-2.7-2.7-2.7c-1.5,0-2.7,1.1-2.7,2.7c0,1.5,1.2,2.7,2.7,2.7
		C296.2,460.4,297.4,459.1,297.4,457.7z M304.3,440c0,1.7-1.4,3.1-3.1,3.1c-1.7,0-3.1-1.5-3.1-3.1c0-1.8,1.5-3.1,3.1-3.1
		C302.9,436.8,304.3,438.2,304.3,440z"/>
	<path class="st4" d="M335.5,459.3v5.9h-5.6v0.4c-0.2,4.9-2.9,8.5-7.3,8.5h-9.7l3.2-5.8h5.8c2.3,0,2.4-2.8,2.4-2.8
		c0-1-0.5-13.9-0.5-13.9l6.1-2.6v10.3H335.5z"/>
	<path class="st4" d="M361.5,465.2H354c-2.2,1-5.5,1.3-8.7,1.3c-3.4,0-6.9-0.5-9-1.3h-6v-5.9h4.4c0.6-2.8,2.8-10.7,11-10.9
		c4.8,0,9.4,5.4,10.6,10.7h5.3V465.2z M347,457.7c0-1.5-1.2-2.7-2.7-2.7c-1.5,0-2.8,1.2-2.8,2.7c0,1.5,1.2,2.8,2.8,2.8
		C345.8,460.5,347,459.3,347,457.7z"/>
	<path class="st4" d="M392.8,465.2h-36.1v-5.9h12l-6.1-11.9h26.4l-5.9,11.9h9.7V465.2z M378.6,455.8c0-1.5-1.2-2.7-2.7-2.7
		c-1.5,0-2.8,1.1-2.8,2.7c0,1.5,1.2,2.8,2.8,2.8C377.4,458.6,378.6,457.3,378.6,455.8z"/>
	<path class="st4" d="M400.6,430.2v35h-13.6v-5.9h7.8l-0.2-26.5L400.6,430.2z"/>
	<path class="st4" d="M406,456.8l-0.5-24.1l6.1-2.5v26.7c0,3.4,1.8,5,2.8,5.7c-0.5,0.5-2.1,2.8-3.1,3.8
		C405.8,465.5,406,459,406,456.8z"/>
	<path class="st4" d="M465.1,461.9c0,3.2-5.5,4.6-11.5,4.6c-3.4,0-6.8-0.5-8.8-1.3h-18.5l3.2-6.1c8.8,0.1,8.8,0.1,13.8,0.2
		c0.6-2.8,2.8-10.7,11-10.9c4.1,0,8,4,10,8.6C464.6,458.4,465.1,460.4,465.1,461.9z M455.5,457.7c0-1.5-1.2-2.7-2.7-2.7
		c-1.5,0-2.8,1.2-2.8,2.7c0,1.5,1.2,2.8,2.8,2.8C454.3,460.5,455.5,459.3,455.5,457.7z"/>
	<path class="st4" d="M469,432.7l6.1-2.7v29.3h8.4v5.9h-13.9L469,432.7z"/>
	<path class="st4" d="M507.4,465.2h-7.6c-2.2,1-5.5,1.3-8.7,1.3c-3.4,0-6.9-0.5-9-1.3h-6v-5.9h4.4c0.6-2.8,2.8-10.7,11-10.9
		c4.8,0,9.4,5.4,10.6,10.7h5.3V465.2z M492.8,457.7c0-1.5-1.2-2.7-2.7-2.7c-1.5,0-2.8,1.2-2.8,2.7c0,1.5,1.2,2.8,2.8,2.8
		C491.6,460.5,492.8,459.3,492.8,457.7z"/>
	<path class="st4" d="M522.9,465.2h-19.4v-5.9h13.6l-0.4-7l6.1-3.5V465.2z M514.8,442.8c0,1.8-1.4,3.2-3.1,3.2
		c-1.8,0-3.1-1.5-3.1-3.2c0-1.7,1.4-3.1,3.1-3.1C513.4,439.7,514.8,441.1,514.8,442.8z M522.9,442.8c0,1.8-1.5,3.2-3.2,3.2
		c-1.7,0-3.1-1.5-3.1-3.2c0-1.7,1.5-3.1,3.1-3.1C521.5,439.7,522.9,441.1,522.9,442.8z"/>
	<path class="st4" d="M536,474.8l0.1,2.5c-3.5,0-10.3,0-10.3,0v-2.6h2.5c-0.2-0.4-0.4-1.2-0.4-1.6c0-2.8,1.2-4.7,3.9-4.8
		c1.3,0,3.7,0.8,4,0.9c-0.3,0.5-0.6,1.4-0.9,1.8c-0.1,0-1.4-0.4-1.5-0.4c-1.1,0-2,0.8-2,2c0,1.2,0.7,2.1,2,2.1c0,0,0.3,0,0.5,0H536z
		 M527.8,456.8l-0.5-24.1l6.1-2.5v26.7c0,3.4,1.8,5,2.8,5.7c-0.5,0.5-2.1,2.8-3.1,3.8C527.7,465.5,527.8,459,527.8,456.8z"/>
	<path class="st4" d="M590.7,459.3v5.9h-7.6c-2.1,1-5.3,1.4-8.5,1.4c-3.4,0-7.1-0.5-9.1-1.4c-8,0-17.1,0-18.2,0l3.2-5.9h13.5
		c0.6-2.8,2.8-10.6,11-10.8c4.9,0,9.4,5.4,10.6,10.8H590.7z M576.2,457.9c0-1.5-1.1-2.8-2.8-2.8c-1.5,0-2.7,1.2-2.7,2.8
		c0,1.5,1.2,2.7,2.7,2.7C575,460.6,576.2,459.4,576.2,457.9z"/>
	<path class="st4" d="M643.4,465.2h-57.7v-5.9h45.5l-2.6-3.6h-35.3l10.7-19.5l4.9,2.8l-6,10.9h29l6.7,9.5h4.8V465.2z"/>
	<path class="st4" d="M650.5,430.2v35h-13.6v-5.9h7.8l-0.2-26.5L650.5,430.2z"/>
	<path class="st4" d="M721.2,465.2h-57.6l3.2-5.9h43.9l-2.7-3.6h-35.3l10.7-19.5l4.9,2.8l-5.9,10.9h29L721.2,465.2z"/>
	<path class="st4" d="M734.1,451.6l6.2-2.6v16.6c-0.1,5-2.9,8.7-7.3,8.7h-9.7l3.2-5.9h5.9c2.2,0,2.3-2.8,2.3-2.8
		C734.8,464.6,734.2,451.6,734.1,451.6z"/>
	<path class="st4" d="M744.6,432.7l6.1-2.7v29.3h8.4v5.9h-13.9L744.6,432.7z"/>
	<path class="st4" d="M767.6,459.3v5.9h-15.9v-5.9h7.1l-0.4-7l6.1-3.5v10.5H767.6z M762.6,472c0,1.7-1.5,3.1-3.2,3.1
		c-1.7,0-3.1-1.5-3.1-3.1c0-1.8,1.5-3.2,3.1-3.2C761.1,468.8,762.6,470.2,762.6,472z"/>
	<path class="st4" d="M791.4,461.9c0,3.2-5.5,4.6-11.5,4.6c-3.4,0-6.9-0.5-8.9-1.3h-6.5v-5.9h5c0.6-2.8,2.8-10.7,11-10.9
		c4.1,0,8,4,10,8.6C790.9,458.4,791.4,460.4,791.4,461.9z M781.7,457.7c0-1.5-1.2-2.7-2.7-2.7c-1.5,0-2.8,1.2-2.8,2.7
		c0,1.5,1.3,2.8,2.8,2.8C780.6,460.5,781.7,459.3,781.7,457.7z"/>
</g>
<g>
	<g class="st6">
		<path class="st4" d="M346,541.8v5.9h-7.6c-2.1,1-5.3,1.4-8.5,1.4c-3.4,0-7.1-0.5-9.1-1.4c-8,0-17.1,0-18.2,0l3.2-5.9h13.5
			c0.6-2.8,2.8-10.6,11-10.8c4.9,0,9.4,5.4,10.6,10.8H346z M331.5,540.4c0-1.5-1.1-2.8-2.8-2.8c-1.5,0-2.7,1.2-2.7,2.8
			c0,1.5,1.2,2.7,2.7,2.7C330.3,543.1,331.5,541.9,331.5,540.4z"/>
		<path class="st4" d="M398.7,547.7H341v-5.9h45.5l-2.6-3.6h-35.3l10.7-19.5l4.9,2.8l-6,10.9h29l6.7,9.5h4.8V547.7z"/>
		<path class="st4" d="M412.3,541.8v5.8v0.1h-17.2v-5.9h8.6l-0.4-7l6.1-3.5v10.5H412.3z M404.3,525.3c0,1.8-1.4,3.2-3.2,3.2
			c-1.7,0-3.1-1.5-3.1-3.2c0-1.7,1.4-3.1,3.1-3.1C402.9,522.2,404.3,523.7,404.3,525.3z"/>
		<path class="st4" d="M436.8,544.4c0,3.2-5.5,4.6-11.5,4.6c-3.4,0-6.9-0.5-8.9-1.3h-6.5v-5.9h5c0.6-2.8,2.8-10.7,11-10.9
			c4.1,0,8,4,10,8.6C436.3,541,436.8,543,436.8,544.4z M427.1,540.3c0-1.5-1.1-2.7-2.7-2.7c-1.5,0-2.8,1.2-2.8,2.7
			c0,1.5,1.3,2.8,2.8,2.8C426,543,427.1,541.8,427.1,540.3z"/>
		<path class="st4" d="M477.8,547.7h-5.1v6c0,0.2,0,0.6,0,1c0,0.8-0.2,1.8-2,1.8h-21.6l2.2-5.8h15.4v-35.4l6.1-2.6v29.1h5V547.7z"/>
		<path class="st4" d="M490.2,541.8v5.9h-15.9v-5.9h7.1l-0.4-7l6.1-3.5v10.5H490.2z M485.1,554.5c0,1.7-1.5,3.1-3.2,3.1
			c-1.7,0-3.1-1.5-3.1-3.1c0-1.8,1.5-3.2,3.1-3.2C483.7,551.3,485.1,552.8,485.1,554.5z"/>
		<path class="st4" d="M521.8,541.8v5.9h-37.9v-5.9h24.8c0.8-0.1,1.6-1.2,1.6-2c0-0.5-0.4-0.9-1.1-0.9h-11.3c-1.6,0-6.3-1.1-6.3-5.7
			c0-4.2,3.5-8.3,7.1-10.1c2.4-1.1,6.4-1.4,6.4-1.4s11.1,8.7,11.1,18.2c0,0.7-0.2,1.4-0.4,2H521.8z M499.8,515.4
			c0,1.7-1.4,3.1-3.1,3.1c-1.8,0-3.1-1.4-3.1-3.1c0-1.8,1.4-3.1,3.1-3.1C498.5,512.2,499.8,513.6,499.8,515.4z M503,530.9
			c0-1.5-1.2-2.8-2.8-2.8c-1.5,0-2.7,1.3-2.7,2.8c0,1.5,1.2,2.8,2.7,2.8C501.7,533.6,503,532.4,503,530.9z M508,515.4
			c0,1.7-1.5,3.1-3.2,3.1c-1.7,0-3.1-1.4-3.1-3.1c0-1.8,1.5-3.1,3.1-3.1C506.5,512.2,508,513.6,508,515.4z"/>
		<path class="st4" d="M538.8,541.8v5.8v0.1h-22.2v-5.9h13.6l-0.4-7l6.1-3.5v10.5H538.8z M526,525.3c0,1.8-1.4,3.2-3.1,3.2
			c-1.7,0-3.1-1.5-3.1-3.2c0-1.7,1.5-3.1,3.1-3.1C524.6,522.2,526,523.7,526,525.3z M534,525.3c0,1.8-1.4,3.2-3.1,3.2
			c-1.7,0-3.1-1.5-3.1-3.2c0-1.7,1.4-3.1,3.1-3.1C532.6,522.2,534,523.7,534,525.3z"/>
		<path class="st4" d="M555.4,547.7H536v-5.9h13.6l-0.4-7l6.1-3.5V547.7z M545.3,554.5c0,1.7-1.4,3.1-3.1,3.1
			c-1.7,0-3.1-1.5-3.1-3.1c0-1.8,1.4-3.2,3.1-3.2C543.9,551.3,545.3,552.8,545.3,554.5z M553.4,554.5c0,1.7-1.5,3.1-3.1,3.1
			c-1.8,0-3.1-1.5-3.1-3.1c0-1.8,1.4-3.2,3.1-3.2C551.9,551.3,553.4,552.8,553.4,554.5z"/>
		<path class="st4" d="M593.3,539.5c0,3.3,0.1,7.4,0.1,9c0,5.5-8.3,9.3-12.7,9.3c-4.9,0-12.5-3.3-12.5-10.1c0-0.8,0-3.3,0.1-4.1
			c2.1-1,3.8-1.8,5.8-2.8c0,1.9,0,2.8,0,6.6c0,2.5,4,4.2,6.7,4.2c4.2,0,6.4-2.5,6.4-4.7c0-9,0-10.2,0-11.1l6.2-2.3
			C593.4,534.4,593.3,537.8,593.3,539.5z M577.5,536c0-1.7,1.5-3.1,3.1-3.1c1.8,0,3.2,1.5,3.2,3.1c0,1.8-1.4,3.1-3.2,3.1
			C578.9,539.1,577.5,537.8,577.5,536z"/>
		<path class="st4" d="M606.4,514.7l0.1,2.5c-3.5,0-10.3,0-10.3,0v-2.6h2.5c-0.2-0.4-0.4-1.2-0.4-1.6c0-2.8,1.2-4.7,3.9-4.8
			c1.3,0,3.7,0.8,4,0.9c-0.3,0.5-0.6,1.4-0.9,1.8c-0.1,0-1.4-0.4-1.5-0.4c-1.1,0-2,0.8-2,2c0,1.1,0.7,2.1,2,2.1c0,0,0.3,0,0.5,0
			H606.4z M598.6,539.4l-0.4-18.6l6.1-1.8v20.5c0,3.4,1.8,5,2.8,5.7c-0.5,0.5-2.1,2.8-3.2,3.8C598.5,548,598.6,541.5,598.6,539.4z"
			/>
		<path class="st4" d="M642,541.8v5.9h-19.7c-2.3-0.8-4.1-3.6-4.1-7.2c0-5.7,3.9-9,10.3-9c1.4,0,3.1,0.2,5.1,0.5l-0.2-3.3l6.1-3.5
			v16.6H642z M633.9,539.6c0-1.6-1.3-2.9-2.9-2.9c-1.5,0-2.8,1.3-2.8,2.9c0,1.5,1.2,2.8,2.8,2.8
			C632.6,542.4,633.9,541.1,633.9,539.6z"/>
		<path class="st4" d="M654.6,541.8v5.9h-14.3v-5.9h4.7l-0.2-26.5l6.1-2.7v29.2H654.6z"/>
		<path class="st4" d="M663.6,512.7v35H650v-5.9h7.8l-0.2-26.5L663.6,512.7z"/>
		<path class="st4" d="M669,539.4l-0.5-24.1l6.1-2.5v26.7c0,3.4,1.8,5,2.8,5.7c-0.5,0.5-2.1,2.8-3.1,3.8
			C668.9,548,669,541.5,669,539.4z"/>
		<path class="st4" d="M711.9,541.7v6.9c0,0.2,0,0.6,0,0.9c0,0.8-0.2,1.9-2,1.9h-21.6l2.2-5.8h15.3v-30.4l6.1-2.6V541.7z"/>
		<path class="st4" d="M725.4,514.7l0.1,2.5c-3.5,0-10.3,0-10.3,0v-2.6h2.5c-0.2-0.4-0.4-1.2-0.4-1.6c0-2.8,1.2-4.7,3.9-4.8
			c1.3,0,3.7,0.8,4,0.9c-0.3,0.5-0.6,1.4-0.9,1.8c-0.1,0-1.4-0.4-1.5-0.4c-1.1,0-2,0.8-2,2c0,1.1,0.7,2.1,2,2.1c0,0,0.3,0,0.5,0
			H725.4z M727.7,547.7h-10.7l-0.2-26.4l6.1-2.6v23.1c1.4,0,2.8,0,4.9,0V547.7z"/>
		<path class="st4" d="M763.1,541.8v5.9h-39.5v-5.9h7v-6.1l6.1-3.4v9.6h3.8v-6.1l6.2-3.4v9.6h3.8v-8.3l6.1-3.5v11.8H763.1z"/>
		<path class="st4" d="M773.2,547.7h-13.9v-5.9h8.2l-0.4-7l6.1-3.5V547.7z M772.7,525.3c0,1.8-1.5,3.2-3.2,3.2
			c-1.7,0-3.1-1.5-3.1-3.2c0-1.7,1.5-3.1,3.1-3.1C771.2,522.2,772.7,523.7,772.7,525.3z"/>
	</g>
</g>
</svg>
