<?xml version="1.0" encoding="utf-8"?>
<svg xmlns="http://www.w3.org/2000/svg" viewBox="80 480 920 120">
<style type="text/css">
	.st0{fill:#B79967;}
	.st1{fill:none;stroke:#B79967;stroke-width:6;stroke-miterlimit:10;}
	.st2{fill:#FFFFFF;}
	.st3{fill:#B79967;stroke:#B69967;stroke-miterlimit:10;}
</style>
<path class="st0" d="M328.4,540.2l-24,57.4H112.5c-10.1,0-18.4-8.3-18.4-18.4v-72.6c0-10.1,8.3-18.4,18.4-18.4h193.1L328.4,540.2z"
	/>
<polygon class="st1" points="328.4,540.2 305.6,488.2 305.7,488.2 "/>
<polygon class="st1" points="545.6,540.2 521.6,597.6 304.4,597.6 328.4,540.2 305.7,488.2 522.8,488.2 "/>
<polygon class="st1" points="328.4,540.2 305.6,488.2 305.7,488.2 "/>
<polygon class="st1" points="774.8,540.2 750.8,597.6 521.6,597.6 545.6,540.2 522.8,488.2 752,488.2 "/>
<path class="st1" d="M985.7,506.6v72.6c0,10.1-8.3,18.4-18.4,18.4H750.8l24-57.4l-22.8-52h215.2
	C977.4,488.2,985.7,496.5,985.7,506.6z"/>
<g>
	<path class="st0" d="M906.9,511.4c-0.6-0.6-1.5-0.5-2.1,0c-0.5,0.6-0.5,1.5,0,2l5.9,5.9c0.6,0.6,1.5,0.5,2.1,0c0.5-0.6,0.5-1.5,0-2
		L906.9,511.4z"/>
	<path class="st0" d="M917.2,513l-5.9-6c-4.6-4.5-12-4.5-16.6,0l-22.4,22.4l-5.3-5.5c-0.4-0.4-0.6-1-0.5-1.6
		c3.2-15.8-16.5-25.8-27.3-13.8c-8.5,9.2-2.7,24.8,9.7,26.3c2.3,0.3,4.6,0.1,6.8-0.6c0.7-0.2,1.4,0,1.9,0.5l4.6,4.8l-5.4,5.4
		c-0.4,0.5-1.1,0.7-1.7,0.5c-2.9-0.8-6.1-0.7-9,0.2c-19.2,7-11.1,34.8,8.8,30.5c7-1.8,11.9-8.1,11.9-15.4c0-1.4-0.2-2.8-0.5-4.1
		c-0.1-0.6,0.1-1.2,0.6-1.7l5.2-5.2l21.4,22.2c4.9,5.1,13,5.2,18.1,0.3l0,0c0.6-0.6,0.6-1.5,0.1-2.1l0,0l-37.4-38.7l22.5-22.4
		c3.4-3.4,9-3.4,12.4,0l5.9,6c0.6,0.6,1.5,0.5,2.1,0C917.7,514.5,917.7,513.6,917.2,513z M864.7,552.9c-2.5,2.3-0.9,5-0.9,7.8
		c0,5.9-4,11-9.7,12.5c-16.2,3.6-22.8-19.2-7.2-24.8c2.4-0.8,4.9-0.8,7.3-0.2c1.6,0.4,3.4-0.1,4.6-1.3c0,0,5.4-5.4,5.4-5.3l5.8,6
		L864.7,552.9z M908.4,571.2c-4,2.8-9.4,2.3-12.8-1.2c-5.9-6.1-36-37.3-36-37.3c-1.2-1.3-3.1-1.8-4.9-1.3c-1.8,0.6-3.7,0.7-5.6,0.5
		c-15.8-2.6-14.3-25.2,1.7-25.7c7.2,0,12.9,5.9,12.9,13c0,0.8-0.1,1.7-0.3,2.5c-0.3,1.5,0.2,3.1,1.3,4.2L908.4,571.2z"/>
	<path class="st0" d="M850.9,507.9c-6.2,0-11.2,5-11.2,11.2c0.5,14.8,21.9,14.8,22.4,0C862.1,512.9,857.1,507.9,850.9,507.9z
		 M850.9,527.3c-10.9-0.3-10.9-16.1,0-16.5C861.8,511.2,861.8,527,850.9,527.3L850.9,527.3z"/>
	<path class="st0" d="M850.9,549.5c-6.2,0-11.2,5-11.2,11.2c0.5,14.8,21.9,14.8,22.4,0C862.1,554.5,857.1,549.5,850.9,549.5z
		 M850.9,568.9c-10.9-0.3-10.9-16.1,0-16.5C861.8,552.8,861.8,568.6,850.9,568.9L850.9,568.9z"/>
	<path class="st0" d="M906.6,525c0.8,0,1.5-0.7,1.5-1.5c0-0.4-0.2-0.7-0.4-1l-6-5.9c-0.6-0.6-1.5-0.5-2.1,0c-0.5,0.6-0.5,1.5,0,2
		l6,5.9C905.9,524.9,906.2,525,906.6,525z"/>
	<path class="st0" d="M901.4,530.2c0.8,0,1.5-0.7,1.5-1.5c0-0.4-0.2-0.7-0.4-1l-6-5.9c-0.6-0.6-1.5-0.5-2.1,0c-0.5,0.6-0.5,1.5,0,2
		l6,5.9C900.7,530.1,901,530.2,901.4,530.2z"/>
	<path class="st0" d="M896.2,535.4c0.8,0,1.5-0.7,1.5-1.5c0-0.4-0.2-0.7-0.4-1l-5.9-5.9c-0.6-0.6-1.5-0.5-2.1,0
		c-0.5,0.6-0.5,1.5,0,2l5.9,5.9C895.4,535.2,895.8,535.4,896.2,535.4z"/>
	<path class="st0" d="M884,532.1c-0.6,0.6-0.6,1.5,0,2.1l0,0l5.9,5.9c0.6,0.6,1.5,0.6,2.1,0s0.6-1.5,0-2.1l-5.9-5.9
		C885.5,531.6,884.6,531.6,884,532.1L884,532.1z"/>
	<path class="st0" d="M869.6,539.6c0,1.5,1.2,2.6,2.7,2.6c1.4,0,2.6-1.2,2.6-2.6c0-1.5-1.2-2.6-2.7-2.6
		C870.8,537,869.6,538.1,869.6,539.6z"/>
</g>
<g>
	<path class="st0" d="M488.8,575.5H360.1c-0.6,0-1,0.5-1,1s0.5,1,1,1h128.7c0.6,0,1-0.5,1-1S489.3,575.5,488.8,575.5z"/>
	<path class="st0" d="M364.1,569.8c2.2,1.4,5.1,0.9,6.8-1.1l4.1-5l2.5,0.5l-0.7,1.6c-0.3,0.7-0.2,1.4,0.1,2c0.4,0.6,1,1,1.7,1.1
		l38.4,3.4c0.4,0,0.8,0.1,1.2,0.1c3.9,0,7.6-1.7,10.1-4.7c0.6,0.5,1.2,0.9,2,1c0.3,0.1,0.6,0.1,0.8,0.1c0.4,0,0.7-0.1,1.1-0.1
		l0.5,1.1c0.7,1.6,2.3,2.6,4,2.6h13.9c0.7,0,1.4-0.3,1.9-0.9c0.5-0.6,0.6-1.3,0.5-2.1c-0.5-2.2-2-4.1-4.1-5.1l-7.5-3.6
		c0.1-0.9-0.1-1.8-0.6-2.6l-0.2-0.3c1.3,0.5,2.6,1,3.9,1.4l7.3,2.4c0.5,2.1,1.5,4,2.9,5.7c2.4,2.9,5.8,4.6,9.5,5l6.4,0.6
		c0.4,0,0.9,0.1,1.3,0.1c7.2,0,13.3-5.5,14-12.7l0,0c0.7-7.7-5-14.5-12.7-15.2l-6.4-0.6c-2-0.2-3.9,0.1-5.7,0.7L451,528.3
		c-4.1-6.8-9.5-12.6-15.8-17.3c-10.9-8.1-24.6-10.7-37.7-7.3c-7.8,2-13.8,7.5-16.7,15c-2.9,7.5-2,15.6,2.4,22.3l6.4,9.7h-0.3
		c-3,0.4-6,0-8.7-1.3l-7-3.3c-1.4-0.7-3-0.6-4.4,0s-2.4,1.9-2.7,3.4l-3.9,16.4C362.3,567.5,362.9,569,364.1,569.8z M397.2,552v-0.3
		l2-0.3c0.7,4.6,0.4,9.4-1.1,13.8l-1,3.1l-1.9-0.2l0.7-2.3C397.4,561.4,397.8,556.6,397.2,552z M430.8,566.5c-0.6-0.1-1-0.4-1.3-0.9
		l-2.4-3.7c3.7-1.4,7.2-3.2,10.4-5.4l1.7,2.6c0.6,0.9,0.3,2.2-0.6,2.8l-6.2,4.3C431.9,566.5,431.3,566.6,430.8,566.5z M436.3,554.7
		c-3.2,2.2-6.7,4.1-10.4,5.4l-0.9-1.3l0.2-0.1c3.6-1.3,7.1-3.1,10.2-5.4L436.3,554.7z M448.1,566c1.5,0.7,2.6,2,3,3.7
		c0,0.1,0,0.2-0.1,0.3c0,0-0.1,0.1-0.3,0.1h-13.9c-0.9,0-1.8-0.5-2.2-1.4l-0.6-1.2l5.6-3.9c0.4-0.3,0.8-0.7,1-1.1L448.1,566z
		 M470.9,570.7l-6.4-0.6c-1.5-0.1-2.9-0.5-4.2-1.2l0.8-2.1c0.6-1.5-0.1-3.3-1.5-4l-1.1-0.6c-0.3-0.1-0.4-0.4-0.5-0.7
		c0-0.3,0.1-0.6,0.3-0.8l1.8-1.6c0.2-0.2,0.4-0.2,0.7-0.2l6.8,0.6c0.7,0.1,1.2,0.4,1.6,0.9l1.2,1.6c0.7,1,2,1.5,3.2,1.1l1.3-0.3
		c-0.3,1.9-0.7,3.8-1.1,5.7l-0.5,2.1C472.5,570.7,471.7,570.7,470.9,570.7z M483.8,559.8L483.8,559.8c-0.3,3.2-1.8,6.1-4.2,8.1
		c-1.2,1-2.6,1.8-4.1,2.2l0.3-1.1c1.6-6.5,2.2-13.1,1.8-19.7l-0.1-1.1C481.6,550.4,484.3,554.9,483.8,559.8z M466.7,546.3l6.4,0.6
		c0.8,0.1,1.6,0.2,2.3,0.4l0.1,2.1c0.2,3.7,0.1,7.5-0.3,11.2l-2.1,0.5c-0.4,0.1-0.8,0-1-0.4l-1.2-1.6c-0.7-1-1.9-1.6-3.1-1.8
		l-6.8-0.6c-0.8-0.1-1.6,0.2-2.2,0.7L457,559c-0.7,0.6-1.1,1.6-1,2.6s0.7,1.8,1.6,2.3l1.1,0.6c0.5,0.3,0.7,0.9,0.5,1.4l-0.7,1.8
		c-0.8-0.6-1.5-1.2-2.1-2c-2-2.4-3-5.5-2.7-8.7l0,0c0.2-2.5,1.2-4.8,2.8-6.7c1.1,2.5,3.3,4.4,6,5l2.2,0.5c1,0.2,2-0.2,2.6-1l0.8-1.1
		c1.1-1.4,3-2,4.6-1.3c0.2,0.1,0.3,0.2,0.4,0.4s0.1,0.4,0,0.5c-0.1,0.2-0.2,0.3-0.4,0.4l-2.6,0.7c-0.6,0.2-0.9,0.7-0.7,1.3
		c0.1,0.5,0.5,0.8,1,0.8c0.1,0,0.2,0,0.3,0l2.6-0.7c0.8-0.2,1.4-0.8,1.8-1.5c0.3-0.7,0.3-1.4,0-2.1c-0.3-0.7-0.8-1.2-1.5-1.5
		c-2.5-1-5.4-0.2-7.1,2l-0.8,1.1c-0.1,0.1-0.3,0.2-0.4,0.2l-2.2-0.5c-2.3-0.5-4.1-2.2-4.8-4.5C460.6,546.9,463.6,546,466.7,546.3z
		 M384.9,539.8c-4-6.1-4.8-13.6-2.2-20.4c2.6-6.9,8.2-11.8,15.3-13.7c12.5-3.3,25.6-0.7,35.9,7c6.1,4.6,11.3,10.2,15.3,16.7l10,16.3
		c-1,0.5-2,1.2-2.8,1.9c-0.1,0.1-0.1,0.1-0.2,0.2c-2.5,2.3-4.3,5.5-4.6,9.1l0,0c-0.1,0.7-0.1,1.5,0,2.2l-6.4-2
		c-2.2-0.7-4.4-1.6-6.5-2.6l-2.9-4.6c-0.6-1-0.5-2.2,0.2-3.1l2.8-3.3c0.4-0.4,0.3-1.1-0.1-1.5s-1.1-0.3-1.5,0.1l-2.8,3.3
		c-1.3,1.6-1.5,3.8-0.4,5.6l0.3,0.5c-3,2.1-6.3,3.9-9.8,5.2l-0.6,0.2l-3.5-5.5c-2-3.2-1.7-7.3,0.7-10.2l9.9-11.6
		c0.4-0.4,0.3-1.1-0.1-1.5s-1.1-0.3-1.5,0.1l-9.9,11.6c-0.2,0.2-0.3,0.4-0.5,0.6c-3.5-3.6-5.7-8.4-6-13.4l-0.4-7c0-0.6-0.5-1-1.1-1
		s-1,0.5-1,1.1l0.4,7c0.4,5.7,2.9,11.1,7,15.1c-1.5,3.2-1.3,7.1,0.7,10.2l8.4,13.3c-2.3,3-6,4.6-9.8,4.3l-18.1-1.6l0.9-2.7
		c1.5-4.7,1.9-9.8,1.1-14.7l2.4-0.4c0.6-0.1,1-0.6,0.9-1.2c-0.1-0.6-0.6-1-1.2-0.9l-11.5,1.7L384.9,539.8z M389.6,552.8l5.5-0.8v0.3
		c0.6,4.3,0.2,8.8-1.2,12.9l-0.9,2.7l-14.2-1.3c0,0-0.1,0-0.1-0.1s0-0.1,0-0.1s3.7-6.9,4.4-13.9C385.3,553,387.4,553.1,389.6,552.8z
		 M364.6,566.5l3.9-16.4c0.2-0.9,0.8-1.6,1.6-2c0.8-0.4,1.8-0.4,2.6,0l7,3.3c0.5,0.2,1,0.4,1.4,0.6c-0.4,3.5-1.2,7-2.7,10.2
		l-3.7-0.7c-0.4-0.1-0.8,0.1-1,0.4l-4.5,5.5c-1,1.2-2.7,1.5-4.1,0.7C364.7,567.7,364.5,567.1,364.6,566.5z"/>
</g>
<path class="st2" d="M191.1,529.2l2.8-0.7v2.3l-2.8,0.7V529.2z M177.5,534.9l3.9-1v-2.3l-3.9,1V534.9z M239.3,570.6v4.6h7.9
	c2,0,2,3.1,0,3.1h-94.7c-2,0-2-3.1,0-3.1h7.9v-4.7c-2.1-0.6-4-1.3-5.5-2c-4.9-2.2-7.3-5.1-7.3-8.6c0-4.5,4.3-8.1,12.9-10.6v-21.2
	v-15.9c0-0.7,0.5-1.3,1.2-1.5l37.9-9.3c0,0,0.4-0.1,0.7,0l37.9,9.3c0.7,0.2,1.2,0.8,1.2,1.5v37c2.7,0.8,5.2,1.7,7.2,2.8
	c3.9,2.1,5.8,4.7,5.8,7.9c0,3.3-2.1,6-6.3,8.1C244.2,569,242,569.8,239.3,570.6L239.3,570.6z M210.4,548.5c-2.1-0.1-2.3,3.1-0.2,3.2
	c0.9,0,22.3,1.1,31.7,5.1c2.6,1.1,3.3,4.6,1.2,6.6c-1.2,1.1-2.5,2-3.9,2.5v1.4c2.1-0.6,3.9-1.3,5.3-2c6.3-3.1,6-7.5,0.5-10.5
	C237,550.5,219.6,548.9,210.4,548.5L210.4,548.5z M222.2,563.4v-7.6c-3.7-0.4-7.3-0.7-10.1-0.9v7.5L222.2,563.4z M196.9,532.1v-5.5
	c0-1-0.9-1.7-1.9-1.5l-5.8,1.4c-0.7,0.2-1.2,0.8-1.2,1.5v5.5c0,1,0.9,1.7,1.9,1.5l5.8-1.4C196.5,533.4,196.9,532.8,196.9,532.1z
	 M182.6,528.1l-7,1.7c-0.7,0.2-1.2,0.8-1.2,1.5v5.5c0,1,0.9,1.7,1.9,1.5l7-1.7c0.7-0.2,1.2-0.8,1.2-1.5v-5.5
	C184.5,528.6,183.6,527.9,182.6,528.1z M201.4,513.6v4.1l34.8,8.5v-4.1L201.4,513.6z M203.2,532.2c0,0.7,0.5,1.3,1.2,1.5l4.7,1.1
	v-3.2l-2.8-0.7v-2.3l2.8,0.7v-3c0-0.1,0-0.1,0-0.2l-3.9-1c-1-0.2-1.9,0.5-1.9,1.5L203.2,532.2z M212.1,545.5
	c2.7,0.1,6.2,0.4,10.1,0.8v-15.6l-10.1-2.5V545.5L212.1,545.5z M230,539.9l6.3,1.5v-3.2l-4.4-1.1v-2.3l4.4,1.1v-3.2l-5.5-1.4
	c-1-0.2-1.9,0.5-1.9,1.5v5.5C228.8,539.2,229.3,539.8,230,539.9L230,539.9z M198.3,513.6l-34.8,8.5v4.1l34.8-8.5V513.6z
	 M163.5,541.5l6.3-1.5c0.7-0.2,1.2-0.8,1.2-1.5V533c0-1-0.9-1.7-1.9-1.5l-5.5,1.4v3.2l4.4-1.1v2.3l-4.4,1.1L163.5,541.5z
	 M160.4,559.2c-0.5,0.2-0.9,0.3-1.3,0.5c-0.6,0.3-0.7,1.1-0.3,1.5c0.5,0.5,1,0.9,1.6,1.2V559.2z M239.3,562.5
	c0.6-0.4,1.2-0.8,1.8-1.3c0.5-0.5,0.3-1.3-0.3-1.5c-0.5-0.2-1-0.4-1.5-0.6V562.5z M160.4,567.3v-1.4c-1.3-0.5-2.6-1.4-3.7-2.4
	c-2.1-2-1.5-5.4,1.2-6.6c7.7-3.2,23.2-4.6,25-4.7c1.4-0.1,2.2,1.6,1.2,2.6c0,0,0,0-0.1,0.1c-1.6,1.4,0.5,3.9,2.1,2.4l6.8-6
	c0.7-0.7,0.7-1.8,0-2.4l-6.8-6c-1.6-1.4-3.8,1-2.1,2.4l0.9,0.8c1,0.9,0.5,2.6-0.9,2.7c-8.1,0.6-33.4,3.1-33.4,11.2
	c0,2.2,1.9,4.2,5.5,5.8C157.4,566.3,158.8,566.8,160.4,567.3L160.4,567.3z M163.5,575.2h34.8v-10.6l-34.8,3.1V575.2z M236.2,575.2
	v-7.5c-15.8-1.4-7.1-0.6-34.8-3.1v10.6H236.2z"/>
<g>
	<path class="st0" d="M657.4,564.3L639,533.8l11.1-18.3c0-0.1,0.1-0.1,0.1-0.2c1.3-2.4,3.8-4,6.5-4s5.2,1.5,6.5,4v0.1l8,15.5
		c0.1,0.1,0.2,0.2,0.3,0.3c0.4,0.4,1.1,0.5,1.7,0.2c1.2-0.7,2.4-1,3.7-1c2.5,0,4.9,1.3,6.2,3.4l0.1,0.1l19.7,31.7l0,0
		c0.3,0.4,0.7,0.7,1.2,0.7c0.2,0,0.5-0.1,0.7-0.2c0.6-0.4,0.8-1.3,0.4-1.9l-19.8-31.8l-0.1-0.1c-1.9-2.9-5-4.6-8.5-4.6
		c-1.3,0-2.6,0.3-3.8,0.8l-7.4-14.4c0,0,0-0.1-0.1-0.1c-1.8-3.3-5.2-5.3-8.9-5.3s-7.1,2-8.9,5.3l0,0l-10.4,17.1l-2.7-4.4l0,0
		c-1.4-2.6-4.1-4.1-7-4.1s-5.6,1.6-7,4.1c0,0,0,0.1-0.1,0.1l-5.4,10.5c-0.9-0.3-1.8-0.5-2.7-0.5c-2.7,0-5.1,1.3-6.6,3.6l-0.1,0.1
		l-14.8,23.7c-0.4,0.6-0.2,1.5,0.4,1.9c0.6,0.4,1.5,0.2,1.9-0.4l0,0l14.7-23.6c0,0,0-0.1,0.1-0.1c1-1.5,2.6-2.4,4.4-2.4
		c0.9,0,1.8,0.2,2.6,0.7c0.5,0.3,1.2,0.2,1.6-0.2c0.1-0.1,0.2-0.2,0.3-0.4l5.9-11.6V528c0.9-1.7,2.6-2.8,4.6-2.8
		c1.9,0,3.7,1.1,4.6,2.8c0,0.1,0.1,0.1,0.1,0.1l22.7,37.5c0.3,0.4,0.7,0.7,1.2,0.7c0.2,0,0.5-0.1,0.7-0.2c0.2-0.1,0.4-0.3,0.5-0.5
		C657.7,565.3,657.7,564.8,657.4,564.3L657.4,564.3z"/>
	<path class="st0" d="M712.5,569H583.8c-0.6,0-1,0.5-1,1c0,0.6,0.5,1,1,1h128.7c0.6,0,1-0.5,1-1C713.6,569.5,713.1,569,712.5,569z"
		/>
	<path class="st3" d="M614.9,531h-15.2l3.2-3.2c0.1-0.1,0.1-0.2,0-0.3s-0.2-0.1-0.3,0l-3.6,3.6c0,0,0,0,0,0.1c0,0,0,0.1,0,0.2
		c0,0,0,0,0,0.1l3.6,3.6l0.1,0.1c0,0,0.1,0,0.1-0.1c0.1-0.1,0.1-0.2,0-0.3l-3.2-3.2h15.2c0.1,0,0.2-0.1,0.2-0.2
		C615.1,531.1,615,531,614.9,531z"/>
	<path class="st3" d="M672.8,523.3c0,0.1,0.1,0.2,0.2,0.2h15.2l-3.2,3.2c-0.1,0.1-0.1,0.2,0,0.3l0.1,0.1c0,0,0.1,0,0.1-0.1l3.6-3.6
		c0,0,0,0,0-0.1c0,0,0-0.1,0-0.2c0,0,0,0,0-0.1l-3.6-3.6c-0.1-0.1-0.2-0.1-0.3,0s-0.1,0.2,0,0.3l3.2,3.2H673
		C672.9,523.1,672.8,523.1,672.8,523.3z"/>
</g>
</svg>
