<?xml version="1.0" encoding="utf-8"?>
<!-- Generator: Adobe Illustrator 24.3.0, SVG Export Plug-In . SVG Version: 6.00 Build 0)  -->
<svg version="1.1" id="Layer_1" xmlns="http://www.w3.org/2000/svg" xmlns:xlink="http://www.w3.org/1999/xlink" x="0px" y="0px"
	 viewBox="0 0 1080 1080" style="enable-background:new 0 0 1080 1080;" xml:space="preserve">
<style type="text/css">
	.st0{fill:#B79967;}
	.st1{fill-rule:evenodd;clip-rule:evenodd;fill:#FFFFFF;}
	.st2{fill:#FFFFFF;}
</style>
<circle class="st0" cx="540" cy="540" r="501.2"/>
<g>
	<path class="st1" d="M706.1,421.4c11.9,0,21.5,9.7,21.5,21.9s-9.6,21.9-21.5,21.9c-11.9,0-21.5-9.7-21.5-21.9
		S694.2,421.4,706.1,421.4z M379.3,421.4c11.9,0,21.5,9.7,21.5,21.9s-9.6,21.9-21.5,21.9c-11.9,0-21.5-9.7-21.5-21.9
		S367.4,421.4,379.3,421.4z M820.3,355.4v26.2c0,3-0.6,4.3-1.6,5.4c-0.9,1-2.9,2.2-7,2.8L635,416.7c-0.1-7.4-0.7-14.6-1.8-21.8
		l167-13.2c2.4-0.2,4.5-1.5,5.8-3.5L820.3,355.4z M265.2,355.4l14.3,22.7c1.2,2,3.4,3.3,5.8,3.5l167,13.2
		c-1.1,7.2-1.7,14.4-1.8,21.8l-176.6-26.9c-4.1-0.6-6-1.8-7-2.8c-1-1-1.6-2.3-1.6-5.4C265.2,381.7,265.2,355.4,265.2,355.4z
		 M605.2,324.6l46.9,0.3c2.8,0,3.7,2.9,3.7,5.1c0,4.4-2.3,5.1-4.8,5.5l-34.5,5.6C613.2,335.4,609.5,329.8,605.2,324.6z M480.3,324.6
		c-4.4,5.2-8.1,10.8-11.2,16.5l-34.5-5.6c-4.7-0.8-4.9-2.6-4.9-5.5c0-3,2.1-5.1,3.7-5.1L480.3,324.6z M542.7,309.5
		c33,0,52,20.5,63,43c5.2,10.7,8.9,23.1,11.5,36.6c3,15.1,4,30.3,2.2,45.8c-4.1,35.7-35.3,64-76.7,64c-41.3,0-72.5-28.4-76.6-64
		c-1.8-15.5-0.9-30.7,2.1-45.8c2.6-13.6,6.3-26,11.5-36.6C490.7,330,509.7,309.5,542.7,309.5z M542.7,232.9c3.3,0,6.5,3.3,7.3,10
		l6.6,52.9c-4.4-0.7-9.1-1.1-13.9-1.1c-4.8,0-9.5,0.4-14,1.1l6.7-52.9C536.3,236.2,539.5,232.9,542.7,232.9z M542.7,216.4
		c-6.5,0-12.3,3.4-16,8.1c-3.7,4.7-5.7,10.6-6.1,17l-7.4,58.7c-6.3,2.5-11.9,5.7-17.1,9.4l-62.7,0.3c-5.4,0-10.1,2.7-13.1,6.2
		c-3,3.5-4.8,7.7-5.3,12.2c-0.5,4.5,0.4,9.5,3.3,13.7c3,4.2,8,7.3,14,8.2l31.2,5.1c-3.2,8-6.2,16.2-8.4,24.8l-164.9-13.1l-11.8-19.1
		c-3.3-5.4-8.3-7-13.1-7c-1.6,0-3.2,0.2-4.6,0.4c-6,1-10.3,7.2-10.3,14.1v26.2c0,5.7,1.7,11.4,5.7,15.6c3.9,4.2,9.4,6.4,15.6,7.4
		l82.2,12.5c-6.7,6.7-10.8,16-10.8,26.1c0,20.3,16.3,36.9,36.4,36.9c20.1,0,36.4-16.7,36.4-36.9c0-6.3-1.7-12.2-4.5-17.5l39.7,6
		c0.1,1.6,0.2,3.2,0.3,4.8c4.9,43.4,43.2,77.2,91.5,77.2c48.3,0,86.5-33.9,91.5-77.2c0.2-1.6,0.2-3.2,0.3-4.8l39.7-6
		c-2.8,5.2-4.5,11.1-4.5,17.5c0,20.3,16.3,36.9,36.4,36.9c20.1,0,36.4-16.7,36.4-36.9c0-10.2-4.2-19.4-10.8-26.1l82.2-12.5
		c6.2-0.9,11.7-3.2,15.6-7.4c4-4.2,5.7-9.9,5.7-15.6v-26.2c0-6.9-4.3-13.1-10.3-14.1c-1.5-0.2-3-0.4-4.6-0.4c-4.8,0-9.8,1.6-13.1,7
		l-11.8,19.1l-164.9,13.1c-2.2-8.7-5.2-16.8-8.4-24.8l31.2-5.1c5.9-0.9,11-4,14-8.2c2.9-4.2,3.8-9.2,3.3-13.7
		c-0.4-4.5-2.2-8.7-5.3-12.2c-3-3.5-7.7-6.1-13.1-6.2l-62.7-0.3c-5.2-3.8-10.9-7-17.2-9.5l-7.4-58.7c-0.8-6.3-2.4-12.3-6.1-17
		C555,219.8,549.3,216.4,542.7,216.4z"/>
	<path class="st2" d="M772.7,756.6c-4,1.7-6.7,2.7-10.6,4.9c-6.9,3.8-8,11-7.7,18.6c7-1.6,18.3-4.3,21.9-6.4
		c1.1-0.7,2.4-2.9,2.8-6.3c0.4-3.5-0.5-7.6-1-9.3C777.2,755,774.1,755.9,772.7,756.6z M769.2,745.1c4.3-1.3,8.6-1.3,12.3,0.3
		c3.7,1.6,6.3,4.7,7.7,8c1.8,4.4,2.5,9.7,1.9,15.2c-0.6,5.6-2.8,11.9-8.7,15.4c-7.9,4.6-19.9,6.5-26.2,8c-2.5,0.6-5.3,0.7-7.8-0.6
		c-2.6-1.2-4.6-3.5-5.1-5.8c-3.3-12.8,1.5-25.7,11.4-33.4C759.6,748.2,764.8,746.4,769.2,745.1z"/>
	<path class="st2" d="M659.6,775.5h57.9c2.3,0,3.5,1.1,3.7,2.2l3,12.8c0.8,3.7,0.2,5.5-0.4,6.3c-0.6,0.8-2,1.8-5.8,1.8h-58.9
		c-3.8,0-5.2-0.9-5.8-1.8c-0.7-0.8-1.2-2.6-0.4-6.4l3-12.7C656.3,775.5,658.6,775.5,659.6,775.5z M659.6,763.5
		c-3.2,0-6.5,0.7-9.4,2.6c-2.9,1.9-5.1,5.2-6,8.8l-3,12.9c-1.4,5.9-0.7,11.8,2.7,16.2c3.5,4.4,9.1,6.3,15.2,6.3H718
		c6.1,0,11.7-1.9,15.2-6.3c3.5-4.5,4-10.3,2.7-16.2l-3-12.9c-0.9-3.6-3.1-6.9-6-8.8c-2.9-1.9-6.1-2.6-9.4-2.6H659.6z"/>
	<path class="st2" d="M607.6,595.8h161.9c3.5,30.2,7.1,95.3,7.5,122.6H600.2C600.5,691.1,604,625.9,607.6,595.8z M602,583.8
		c-3,0-5.6,2.2-6,5.2c-4,30.8-8.1,109-8.1,135.4c0,3.3,2.7,5.9,6,6h189.4c3.3,0,5.9-2.7,6-6c0-26.4-4.2-104.6-8.2-135.4
		c-0.4-3-2.9-5.2-5.9-5.2H602z"/>
	<path class="st2" d="M766.4,837.9h27.4v14.3c0,0.8-0.5,1.2-1.4,1.2c0,0-16.5,0-24.8,0c-0.9,0-1.3-0.5-1.3-1.1L766.4,837.9
		L766.4,837.9z M583.3,837.9h27.4v14.3c0,0.7-0.5,1.2-1.4,1.2h-24.8c-0.8,0-1.3-0.5-1.3-1.2L583.3,837.9L583.3,837.9z M843.3,598.5
		l9.5,1.7c1.4,0.4,1.7,0.7,2.2,1.4c0.5,0.7,1.1,2,1.1,4.6v30.1c0,4.3-0.9,4.7-3,5.8c-2,1.1-5.9,1.6-9.5,1.7L843.3,598.5z
		 M533.7,598.5l-0.1,45.2c-3.7-0.1-7.5-0.6-9.5-1.7c-2.1-1.1-3-1.5-3-5.8v-30.1c0-2.6,0.6-3.9,1.1-4.6c0.5-0.7,0.9-1.1,2.2-1.4
		L533.7,598.5z M607.6,547.8h161.8c6.8,0,11.5,2.5,15.7,7c4.1,4.5,7.3,11.3,8.9,19c0.9,4.1,1.6,8.1,2.1,11.6
		c6.2,48.3,11.2,141.2,11.2,162.4v57.9c0,5.9-0.6,9.1-1.7,11.2c-1,1.9-3,3.8-6.7,6.1H578.1c-3.7-2.3-5.7-4.2-6.7-6.1
		c-1.1-2.1-1.8-5.3-1.8-11.2v-57.9c0-21.2,5.1-114,11.2-162.3c0.5-3.9,1.4-8.1,2.1-11.6c1.6-7.7,4.8-14.5,8.9-19
		C596.1,550.3,600.8,547.8,607.6,547.8z M607.6,532.8c-10.9,0-20.3,4.8-26.8,11.9c-6.5,7.1-10.4,16.3-12.5,25.9
		c-0.5,2.1-0.8,4.5-1.2,6.8l-46.1,8.2c-0.3,0-0.5,0.1-0.7,0.1c-4.2,1.1-8.2,3.7-10.7,7.5c-2.5,3.7-3.6,8.2-3.6,13v30.1
		c0,8.8,5,15.9,10.9,19c5.9,3.1,12.1,3.5,17.1,3.5c3.3,0,6.7-0.7,9.7-3c3-2.3,4.7-6.4,4.7-9.9l0.1-50l16.4-2.9
		c-5.7,50.9-10.3,132.7-10.3,154.9v57.9c0,6.8,0.6,12.7,3.4,18.2c2.1,4,6.2,6.7,10.2,9.6v18.8c0,8.9,7.4,16.2,16.3,16.2h24.8
		c8.9,0,16.3-7.3,16.3-16.2v-14.3h125.7v14.2c-0.2,9,7.4,16.3,16.3,16.3h24.8c8.9,0,16.3-7.3,16.3-16.2v-18.9
		c4-2.8,8.1-5.6,10.1-9.5c2.9-5.4,3.5-11.4,3.5-18.2v-57.9c0-22.2-4.6-104-10.3-154.9l16.4,2.9l0.1,50c0,3.5,1.8,7.6,4.7,9.9
		s6.4,3,9.7,3c4.9,0,11.2-0.4,17.1-3.5c5.9-3.1,11-10.2,11-19v-30.1c0-4.7-1.1-9.3-3.6-13c-2.6-3.8-6.5-6.4-10.7-7.5
		c-0.2,0-0.4-0.1-0.6-0.1l-46.1-8.2c-0.4-2.3-0.8-4.7-1.2-6.8c-2.1-9.6-6-18.8-12.5-25.9c-6.5-7.1-15.8-11.9-26.7-11.9L607.6,532.8
		L607.6,532.8z"/>
	<path class="st2" d="M291.8,810.4h131.3l8.5,19.2H283.2L291.8,810.4z M306.1,778.1h102.6l7.7,17.3h-118L306.1,778.1z M357.4,513.3
		c12.9,0,30.6,0.5,46.8,1.9c16.3,1.4,31.5,4.3,37.6,7.3c18.5,9.2,27.1,24.4,27.1,40.3v166.5c0,7-3.7,15.8-9.8,22.6
		c-6.1,6.7-14.3,11.2-22.6,11.2H278.3c-8.4,0-16.5-4.5-22.6-11.2c-6.1-6.7-9.8-15.6-9.8-22.6V562.9c0-16,8.6-31.1,27.1-40.3
		c6.1-3,21.4-5.9,37.7-7.3C326.9,513.8,344.6,513.3,357.4,513.3z M357.4,498.4c-13.2,0-31.2,0.4-48.1,1.9c-16.9,1.5-32.5,3.6-43,8.9
		c-22.8,11.4-35.3,32.1-35.3,53.7v166.5c0,11.8,5.4,23.5,13.7,32.6c8.4,9.2,20.1,16,33.6,16h11.5l-35.5,80c-4,9.1,9.6,15.2,13.7,6.1
		l8.7-19.7h161.6l8.7,19.7c3.9,9.5,18.1,3.2,13.6-6.1l-35.5-80h11.4c13.5,0,25.3-6.8,33.7-16c8.4-9.1,13.7-20.9,13.7-32.6V562.9
		c0-21.6-12.5-42.3-35.4-53.7c-10.5-5.3-26.1-7.4-43-8.9C388.6,498.8,370.7,498.4,357.4,498.4z"/>
	<path class="st1" d="M363.4,566.7h70.9c5.3,0,9.4,4.1,9.4,9.4v52.5c0,5.3-4.1,9.4-9.4,9.4h-70.9V566.7z M280.5,566.7h71v71.1h-71
		c-5.3,0-9.4-4-9.4-9.4V576C271.1,570.8,275.2,566.7,280.5,566.7z M280.5,554.8c-11.7,0-21.2,9.6-21.2,21.3v52.5
		c0,11.7,9.5,21.3,21.2,21.3h153.9c11.7,0,21.3-9.6,21.3-21.3V576c0-11.7-9.6-21.3-21.3-21.3C434.3,554.8,280.5,554.8,280.5,554.8z"
		/>
	<path class="st2" d="M322.7,737.3c-7.9,0.5-7.3,12.4,0.7,12h68.1c3.3,0,6-2.7,6-6c0-3.3-2.7-6-6-6h-68.1
		C323.2,737.3,322.9,737.3,322.7,737.3z"/>
	<path class="st2" d="M280.1,681c5,0.9,10.8,3.5,15.7,6.7c4.9,3.3,8.9,7.7,10.9,14.9c0.9,3.5,0.1,5.6-0.9,6.8
		c-1,1.2-2.1,1.6-3.6,1.3l-27-8c-1.7-1.1-3.3-4-3.8-8.2c-0.4-4.2,0.2-9.2,1.3-11.2C274.7,679.5,277.1,680.5,280.1,681z M283.6,669.6
		c-4.9-1.5-9.6-1.5-13.7,0.3c-4,1.8-6.8,5.2-8.3,8.9c-2,4.8-2.8,10.9-2.1,17.2c0.7,6.3,2.3,14.9,9.6,17.1l30.2,9.3
		c5.7,1.8,11.9-0.8,15.6-5.2c3.7-4.4,5.1-10.9,3.3-17.6c-2.8-10.2-9.1-17.3-15.8-21.8C295.7,673.4,288.6,671.2,283.6,669.6z"/>
	<path class="st1" d="M581,359.1l9.3,31c-12.3,3.9-27.5,7.1-41.5,8.5V368C559.4,366.5,570.6,363.1,581,359.1z M504.5,359.1
		c10.3,4,21.4,7,32.3,8.3v30.7c-14.2-1.3-29.3-4-41.6-7.9L504.5,359.1z M585,346c-0.2,0-0.5,0-0.7,0c-0.6,0.1-1.2,0.2-1.8,0.5
		c-11.7,5.4-27.3,9.3-39.9,10.3c-12.6-0.9-28.2-4.9-39.8-10.3c-0.9-0.4-1.9-0.6-2.9-0.5c-2.5,0.2-4.6,1.8-5.3,4.2l-12.8,42.7
		c-0.9,3,0.7,6.2,3.6,7.3c16.2,6,38.3,9.9,57.2,9.9c18.9,0,41-3.9,57.2-9.9c3-1.1,4.6-4.3,3.7-7.3l-12.8-42.7
		C590.1,347.7,587.7,345.9,585,346z"/>
	<path class="st2" d="M606.4,756.6c4,1.7,6.7,2.7,10.6,4.9c6.9,3.8,8,11,7.6,18.6c-7-1.6-18.3-4.3-21.9-6.4
		c-1.2-0.7-2.4-2.9-2.8-6.3c-0.4-3.5,0.5-7.6,1-9.3C601.9,755,605.1,755.9,606.4,756.6z M609.9,745.1c-4.4-1.3-8.6-1.3-12.3,0.3
		c-3.7,1.6-6.3,4.7-7.7,8c-1.8,4.4-2.5,9.7-1.9,15.2c0.6,5.6,2.8,11.9,8.7,15.4c7.9,4.6,19.9,6.5,26.2,8c2.5,0.6,5.3,0.7,7.8-0.6
		c2.6-1.2,4.6-3.5,5.1-5.8c3.3-12.8-1.5-25.7-11.4-33.4C619.5,748.2,614.3,746.4,609.9,745.1z"/>
	<path class="st2" d="M434.8,681c-5,0.9-10.7,3.5-15.7,6.7c-4.9,3.3-8.9,7.7-10.9,14.9c-0.9,3.5,0,5.6,0.9,6.8
		c1,1.2,2.2,1.6,3.6,1.3l27-8c1.7-1.1,3.3-4,3.7-8.2c0.5-4.2-0.2-9.2-1.3-11.2C440.2,679.5,437.7,680.5,434.8,681z M431.3,669.6
		c4.9-1.5,9.7-1.5,13.7,0.3s6.8,5.2,8.4,8.9c2,4.8,2.8,10.9,2.1,17.2c-0.7,6.3-2.4,14.9-9.6,17.1l-30.2,9.3
		c-5.7,1.8-11.9-0.8-15.6-5.2c-3.7-4.4-5.1-10.9-3.3-17.6c2.7-10.2,9.1-17.3,15.8-21.8C419.1,673.4,426.2,671.2,431.3,669.6z"/>
</g>
</svg>
