<?xml version="1.0" encoding="utf-8"?>
<!-- Generator: Adobe Illustrator 24.3.0, SVG Export Plug-In . SVG Version: 6.00 Build 0)  -->
<svg version="1.1" id="Layer_1" xmlns="http://www.w3.org/2000/svg" xmlns:xlink="http://www.w3.org/1999/xlink" x="0px" y="0px"
	 viewBox="0 0 1080 1080" style="enable-background:new 0 0 1080 1080;" xml:space="preserve">
<style type="text/css">
	.st0{fill:#B79967;}
</style>
<g>
	<path class="st0" d="M972.1,780H107.6c-3.9,0-7,3.1-7,7s3.1,7,7,7h864.6c3.9,0,7-3.1,7-7S976,780,972.1,780z"/>
	<path class="st0" d="M134.8,741.5c14.9,9.3,34.5,6.1,45.6-7.6l27.4-33.8l17,3.2l-4.4,10.6c-1.8,4.4-1.5,9.3,1,13.4
		c2.5,4.1,6.6,6.7,11.4,7.1l258,22.8c2.6,0.2,5.3,0.4,7.9,0.4c26.1,0,50.8-11.5,67.8-31.2c3.7,3.4,8.3,5.8,13.4,6.9
		c1.9,0.4,3.7,0.6,5.6,0.6c2.5,0,4.9-0.4,7.2-1l3.5,7.5c4.9,10.5,15.5,17.3,27.2,17.3h93.6c5,0,9.7-2.3,12.8-6.2s4.3-9,3.1-13.9
		c-3.5-15-13.5-27.4-27.5-34.1l-50.6-24c0.5-5.9-0.8-12-4.2-17.4l-1.3-2.1c8.6,3.5,17.4,6.7,26.3,9.5l49.3,15.9
		c3.3,14,9.8,27.2,19.3,38.6c16.1,19.3,38.8,31.2,63.8,33.5l42.9,3.9c2.9,0.3,5.8,0.4,8.6,0.4c48.1,0,89.2-36.8,93.7-85.5
		c0-0.1,0-0.1,0-0.1c4.7-51.7-33.5-97.6-85.2-102.3L825,570c-13.3-1.2-26.1,0.4-38.1,4.4l-68.3-111.5
		c-27.8-45.4-63.5-84.5-106.3-116.2c-73-54.3-165.4-72.2-253.4-49.1c-52.1,13.6-93,50.3-112.3,100.6S233.4,503,263,548l43,65.2
		l-2.2,0.3c-19.9,3-40,0.1-58.3-8.5l-46.8-21.9c-9.4-4.4-20.1-4.3-29.4,0.2c-9.3,4.5-16,12.8-18.4,22.9l-26.3,110.3
		C122.3,726.2,126.4,736.3,134.8,741.5z M357.1,621.9l-0.3-2.2l13.4-2c5,30.9,2.5,62.8-7.2,92.6l-6.9,21l-12.6-1.1l5-15.2
		C358.2,685.2,361.2,653,357.1,621.9z M582.6,719.6c-3.7-0.8-6.9-2.9-9-6.2l-15.8-25c24.7-9.2,48-21.4,69.6-36.4l11.2,17.6
		c4,6.3,2.3,14.5-3.8,18.7l-41.6,29C590.1,719.5,586.3,720.3,582.6,719.6z M619.9,640.1c-21.6,15.1-45,27.2-69.8,36.2l-5.7-9l1-0.4
		c24.3-9,47.4-21.1,68.6-36L619.9,640.1z M699.3,716.2c10.1,4.8,17.3,13.7,19.8,24.6c0.2,1-0.2,1.7-0.4,2c-0.3,0.3-0.8,0.9-1.8,0.9
		h-93.6c-6.2,0-11.8-3.6-14.5-9.2l-3.8-8.2l37.9-26.4c2.8-2,5.2-4.4,7-7.1L699.3,716.2z M852,747.5l-42.9-3.9
		c-10-0.9-19.5-3.6-28.2-7.9l5.6-14.4c4-10.4-0.4-21.9-10.3-26.9l-7.4-3.7c-1.8-0.9-2.9-2.5-3.2-4.5s0.5-3.8,1.9-5.1l12.3-10.9
		c1.2-1.1,2.8-1.6,4.4-1.4l45.5,4.1c4.4,0.4,8.4,2.7,11,6.2l7.8,10.6c5,6.8,13.5,9.8,21.6,7.7l8.8-2.3c-1.9,12.9-4.5,25.7-7.6,38.3
		l-3.4,14C862.7,748,857.4,748,852,747.5z M939.2,674.8c0,0.1,0,0.1,0,0.1c-1.9,21.3-12.1,40.6-28.5,54.3
		c-8.2,6.9-17.6,11.9-27.5,15l1.8-7.5c10.6-43.4,14.7-87.9,12.1-132.5l-0.5-7.6C924.4,611.3,942.1,641.6,939.2,674.8z M823.7,583.9
		l42.9,3.9c5.4,0.5,10.6,1.5,15.6,3l0.8,14.3c1.5,25.1,0.8,50.2-2.1,75l-14.3,3.7c-2.6,0.7-5.3-0.3-6.9-2.5l-7.8-10.6
		c-5-6.8-12.6-11.1-21-11.8l-45.5-4.1c-5.4-0.5-10.9,1.3-14.9,4.9l-12.3,10.9c-5,4.4-7.4,10.9-6.6,17.4c0.8,6.5,4.9,12.2,10.8,15.2
		l7.4,3.7c3.4,1.7,5,5.8,3.6,9.4l-4.7,12.1c-5.1-3.8-9.8-8.2-14-13.2c-13.7-16.4-20.2-37.2-18.3-58.5c0-0.1,0-0.1,0-0.1
		c1.5-16.8,8.2-32.3,19-44.9c7.2,16.7,22,29.3,40.3,33.3l14.5,3.2c6.5,1.4,13.2-1.1,17.2-6.4l5.5-7.4c7.2-9.6,19.9-13.1,31-8.6
		c1.1,0.5,2,1.3,2.5,2.5c0.5,1.1,0.4,2.4-0.1,3.5c-0.5,1.2-1.6,2.1-2.9,2.5l-17.4,5c-3.7,1.1-5.9,5-4.8,8.7c0.9,3.1,3.7,5.1,6.7,5.1
		c0.6,0,1.3-0.1,1.9-0.3l17.4-5c5.3-1.5,9.6-5.3,11.8-10.3c2-4.6,2.1-9.7,0.2-14.4s-5.5-8.3-10.2-10.2c-17-6.9-36.5-1.4-47.5,13.2
		l-5.5,7.4c-0.7,0.9-1.8,1.3-3,1.1l-14.5-3.2c-15.6-3.4-27.9-15.1-32.2-30.2C782.8,588.1,803,582,823.7,583.9z M274.7,540.3
		c-27.1-41.1-32.6-91.1-14.9-137.2s55.1-79.6,102.8-92.1c83.9-21.9,171.9-4.9,241.4,46.8c41.3,30.7,75.8,68.4,102.7,112.3
		l67.2,109.6c-6.8,3.5-13.2,7.8-18.9,12.7c-0.4,0.4-0.8,0.7-1.3,1.1c-17.1,15.3-28.7,36.9-31,61.5c0,0.1,0,0.1,0,0.1
		c-0.5,5-0.5,9.9-0.2,14.8l-42.7-13.8c-15.1-4.8-29.7-10.6-43.9-17.2l-19.5-30.9c-4.1-6.5-3.6-14.9,1.5-20.8l19.1-22.5
		c2.5-2.9,2.2-7.4-0.8-9.9c-2.9-2.5-7.4-2.2-9.9,0.8L607,578.3c-9,10.6-10.1,25.6-2.6,37.4l2.2,3.4c-20.4,14.3-42.6,26-66,34.7
		l-3.8,1.4l-23.4-36.9c-13.7-21.6-11.7-49.1,4.8-68.6l66.5-78.1c2.5-2.9,2.2-7.4-0.8-9.9c-2.9-2.5-7.4-2.2-9.9,0.8l-66.5,78.1
		c-1.2,1.4-2.3,2.8-3.3,4.2c-23.6-24-38.1-56.1-40.1-89.9l-2.9-47c-0.2-3.9-3.5-6.8-7.4-6.6c-3.9,0.2-6.8,3.6-6.6,7.4l2.9,47
		c2.4,38.4,19.3,74.9,46.8,101.5c-10,21.7-8.7,47.4,4.7,68.5l56.4,89c-15.7,20-40.4,30.8-65.9,28.6l-121.5-10.8l5.9-18
		c10.4-31.8,13-66,7.7-99l16.3-2.4c3.8-0.6,6.5-4.1,5.9-8s-4.1-6.5-8-5.9l-77,11.6L274.7,540.3z M305.8,627.4l37.2-5.6l0.3,2
		c3.8,29,1.1,59.1-8,86.9l-6,18.2l-95.2-8.4c-0.3,0-0.5-0.2-0.7-0.4c-0.2-0.4-0.1-0.7-0.1-0.8c0,0,24.5-46.6,29.5-93.5
		C276.9,629,291.4,629.5,305.8,627.4z M138.2,719.8l26.3-110.3c1.4-5.9,5.4-10.9,10.9-13.5c5.5-2.7,11.8-2.7,17.3-0.1l46.8,21.9
		c3.2,1.5,6.4,2.8,9.6,4c-2.4,23.7-8.4,46.7-17.9,68.5l-25-4.7c-2.5-0.5-5.1,0.5-6.7,2.5l-30,37c-6.6,8.2-18.4,10.2-27.3,4.6
		C138.9,727.6,137.3,723.6,138.2,719.8z"/>
</g>
</svg>
