<?xml version="1.0" encoding="utf-8"?>
<!-- Generator: Adobe Illustrator 24.3.0, SVG Export Plug-In . SVG Version: 6.00 Build 0)  -->
<svg version="1.1" id="Layer_1" xmlns="http://www.w3.org/2000/svg" xmlns:xlink="http://www.w3.org/1999/xlink" x="0px" y="0px"
	 viewBox="0 0 1080 1080" style="enable-background:new 0 0 1080 1080;" xml:space="preserve">
<style type="text/css">
	.st0{fill:#B79967;}
	.st1{fill-rule:evenodd;clip-rule:evenodd;fill:#FFFFFF;}
	.st2{fill:#FFFFFF;}
</style>
<circle class="st0" cx="540" cy="533" r="501.2"/>
<g transform="matrix(2.00001,0,0,2,-480,-4e-05)">
	<path class="st1" d="M581.8,357.3c1.8-0.2,3.2-1.7,3.2-3.6v-96.6c0-1.6-1.1-3.1-2.7-3.5l-71.6-17.9c-0.6-0.1-1.2-0.1-1.7,0
		l-71.6,17.9c-1.6,0.4-2.7,1.8-2.7,3.5v96.6c0,1.8,1.4,3.4,3.2,3.6l71.6,7.2c0.2,0,0.5,0,0.7,0L581.8,357.3z M395.4,350.2v-21.5
		c0-5.9,4.8-10.7,10.7-10.7s10.7,4.8,10.7,10.7v21.5h7.2c2,0,3.6,1.6,3.6,3.6s-1.6,3.6-3.6,3.6h-71.6c-2,0-3.6-1.6-3.6-3.6
		s1.6-3.6,3.6-3.6h7.2v-21.5c0-5.9,4.8-10.7,10.7-10.7s10.7,4.8,10.7,10.7v21.5H395.4z M638.7,350.2v-21.5c0-5.9,4.8-10.7,10.7-10.7
		c5.9,0,10.7,4.8,10.7,10.7v21.5h7.2c2,0,3.6,1.6,3.6,3.6s-1.6,3.6-3.6,3.6h-71.6c-2,0-3.6-1.6-3.6-3.6s1.6-3.6,3.6-3.6h7.2v-21.5
		c0-5.9,4.8-10.7,10.7-10.7c5.9,0,10.7,4.8,10.7,10.7v21.5H638.7z M441.9,350.5l64.4,6.4v-14.1l-64.4-3.2V350.5z M577.9,339.6
		l-64.4,3.2V357l64.4-6.4V339.6z M527.8,335l10.7-0.5v-29.4l-10.7-1V335z M638.7,300.1v-21.5c0-5.9,4.8-10.7,10.7-10.7
		c5.9,0,10.7,4.8,10.7,10.7v21.5h7.2c2,0,3.6,1.6,3.6,3.6s-1.6,3.6-3.6,3.6h-71.6c-2,0-3.6-1.6-3.6-3.6s1.6-3.6,3.6-3.6h7.2v-21.5
		c0-5.9,4.8-10.7,10.7-10.7c5.9,0,10.7,4.8,10.7,10.7v21.5H638.7z M395.4,300.1v-21.5c0-5.9,4.8-10.7,10.7-10.7s10.7,4.8,10.7,10.7
		v21.5h7.2c2,0,3.6,1.6,3.6,3.6s-1.6,3.6-3.6,3.6h-71.6c-2,0-3.6-1.6-3.6-3.6s1.6-3.6,3.6-3.6h7.2v-21.5c0-5.9,4.8-10.7,10.7-10.7
		s10.7,4.8,10.7,10.7v21.5H395.4z M506.3,289.7v-14.1l-64.4,9.7v10.9L506.3,289.7z M513.5,289.7l64.4,6.4v-10.9l-64.4-9.7V289.7z
		 M352.5,257.2H424c2,0,3.6-1.6,3.6-3.6S426,250,424,250h-71.6c-2,0-3.6,1.6-3.6,3.6S350.5,257.2,352.5,257.2z M595.8,257.2h71.6
		c2,0,3.6-1.6,3.6-3.6s-1.6-3.6-3.6-3.6h-71.6c-2,0-3.6,1.6-3.6,3.6S593.8,257.2,595.8,257.2z M434.8,71.7
		c-4.2,1.5-7.2,5.5-7.2,10.1v10.3l-2.8,11.2H424c-2,0-3.6,1.6-3.6,3.6s1.6,3.6,3.6,3.6v14.3c0,0.4,0.1,0.8,0.2,1.1l3.4,10.2v41.5
		l-5.8,11.6h-1.4c-2,0-3.6,1.6-3.6,3.6s1.6,3.6,3.6,3.6v25c0,1,0.4,1.9,1,2.5l6.1,6.1v9.3c0,2,1.6,3.6,3.6,3.6s3.6-1.6,3.6-3.6v-7.2
		h7.2v7.2c0,2,1.6,3.6,3.6,3.6s3.6-1.6,3.6-3.6V230l6.1-6.1c0.7-0.7,1-1.6,1-2.5v-25c2,0,3.6-1.6,3.6-3.6s-1.6-3.6-3.6-3.6h-1.4
		l-5.8-11.6v-41.5l3.4-10.2c0.1-0.4,0.2-0.7,0.2-1.1v-14.3c2,0,3.6-1.6,3.6-3.6s-1.6-3.6-3.6-3.6h-0.8l-2.8-11.2V81.9
		c0-4.7-3-8.6-7.2-10.1V60.4c0-2-1.6-3.6-3.6-3.6s-3.6,1.6-3.6,3.6V71.7z M577.9,71.7c-4.2,1.5-7.2,5.5-7.2,10.1v10.3l-2.8,11.2
		h-0.8c-2,0-3.6,1.6-3.6,3.6s1.6,3.6,3.6,3.6v14.3c0,0.4,0.1,0.8,0.2,1.1l3.4,10.2v41.5l-5.8,11.6h-1.4c-2,0-3.6,1.6-3.6,3.6
		s1.6,3.6,3.6,3.6v25c0,1,0.4,1.9,1,2.5l6.1,6.1v9.3c0,2,1.6,3.6,3.6,3.6c2,0,3.6-1.6,3.6-3.6v-7.2h7.2v7.2c0,2,1.6,3.6,3.6,3.6
		c2,0,3.6-1.6,3.6-3.6V230l6.1-6.1c0.7-0.7,1-1.6,1-2.5v-25c2,0,3.6-1.6,3.6-3.6s-1.6-3.6-3.6-3.6H598l-5.8-11.6v-41.5l3.4-10.2
		c0.1-0.4,0.2-0.7,0.2-1.1v-14.3c2,0,3.6-1.6,3.6-3.6s-1.6-3.6-3.6-3.6H595l-2.8-11.2V81.9c0-4.7-3-8.6-7.2-10.1V60.4
		c0-2-1.6-3.6-3.6-3.6c-2,0-3.6,1.6-3.6,3.6V71.7z M592.2,217.8h-21.5v2.1l5.1,5.1h11.3l5.1-5.1V217.8z M449.1,217.8h-21.5v2.1
		l5.1,5.1H444l5.1-5.1V217.8z M570.7,196.4v14.3h21.5v-14.3H570.7z M427.6,196.4v14.3h21.5v-14.3H427.6z M446.9,189.2
		c-1.7-3.4-3.6-7.2-3.6-7.2h-9.9l-3.6,7.2H446.9z M590,189.2c-1.7-3.4-3.6-7.2-3.6-7.2h-9.9l-3.6,7.2H590z M434.8,139.1v35.8h7.2
		v-35.8H434.8z M577.9,139.1v35.8h7.2v-35.8H577.9z M587.2,128.4L586,132h-9.2l-1.2-3.6H587.2z M444.1,128.4l-1.2,3.6h-9.2l-1.2-3.6
		H444.1z M574.3,110.5v10.7h14.3v-10.7H574.3z M431.2,110.5v10.7h14.3v-10.7H431.2z M444.5,103.3h-12.3l1.8-7.2h8.7L444.5,103.3z
		 M587.6,103.3h-12.3l1.8-7.2h8.7L587.6,103.3z M585,89v-7.2c0-2-1.6-3.6-3.6-3.6c-2,0-3.6,1.6-3.6,3.6V89H585z M441.9,89v-7.2
		c0-2-1.6-3.6-3.6-3.6s-3.6,1.6-3.6,3.6V89H441.9z"/>
</g>
<g>
	<path class="st2" d="M436.5,835.2c9.8-2.7,2.9-23.6,3.3-30.3c-5.2-11.1-9.6-39.1-26.1-39.6c33.1-48.8-55-49.1-22.2-0.1
		c-14.1,0.5-30.8,18.1-36,30.3c-1.2,8.4-17,39.3,3.7,34.7c7.8-3.5,10.6-28.3,17.2-33.3l-10.1,95.2c0.9,5.1,8.2,6.5,12.2,8.6v1.7
		c-24.4,23.7,16.1,25.7,16.3,1.8c5.3,0.5,10.7,0.5,16.1,0.2c0.2,23.6,40.6,21.8,16.2-1.9v-0.9c1.3-1.1,1-3.1,0.7-4.5
		c7.7-2.1,10.4,0.4,11.5-5l-6-56.4C434.3,835.8,435.5,835.6,436.5,835.2z M424,780.6l9.3,24.8c-10.7,11.6-21.4,17.9-31.8,19l0,0
		h-0.2c-0.7,0-1.4,0-2.1,0.1c-6.8,0.2-13.4-2-18.7-6.2l0.6-5.9c8-0.7,29.5-3.6,32.8-16.2c0.4-1.7-0.6-3.4-2.2-3.8
		c-1.7-0.4-3.4,0.6-3.8,2.2c-0.3,1-0.9,1.9-1.6,2.7c-3.3,4-11,6.4-17.9,7.7c-2.4,0.5-4.7,0.8-6.7,1l0.5-4.2
		c19.4-6.1,28.1-23.7,30.8-30.1C418,772.5,422.2,775.9,424,780.6L424,780.6z M390.4,746.5c0-6.7,5.5-12.2,12.2-12.2
		s12.2,5.5,12.2,12.2c0,7.8-6.2,18.7-12.2,18.7S390.4,754.2,390.4,746.5z M368.1,797.1c-0.2,0.3-0.4,0.6-0.5,0.9l-9.9,25.5
		c-0.3,1-1.4,1.5-2.3,1.2s-1.5-1.4-1.2-2.3l0,0l7.1-24.9c5.8-10.8,18.6-25.8,32.1-25.9H406c-3,6.2-10.1,18.1-23.2,23.4l0.8-7.4
		c0-1.7-1.4-3.2-3.1-3.2c-0.8,0-1.7,0.3-2.3,0.9L368.1,797.1z M387.8,907.8c-1.6,3.5-4.5,6.2-8.2,7.5c-0.8,0-2.6,0.6-2.9-1
		c1.7-3,4-5.7,6.7-8c0.6-0.6,1-1.4,1-2.2v-1.5c1.3,0.3,2.5,0.6,3.8,0.8L387.8,907.8z M372.6,891l7-65.6c1.9,1.2,3.9,2.2,6,3
		l-4.6,43.7c-0.2,1.7,1.1,3.3,2.8,3.5c1.7,0.2,3.3-1.1,3.5-2.8l4.5-42.6c2.2,0.4,4.5,0.7,6.7,0.7h0.4l2.3,29.1
		c0.1,1.7,1.6,3,3.4,2.9c1.7-0.1,3-1.6,2.9-3.4l-2.3-29.1c2.5-0.5,4.9-1.2,7.2-2.1l9.1,68.7C413,898.3,388.3,901.3,372.6,891z
		 M428.5,914.4c-0.3,1.5-1.9,1.1-2.9,1c-3.6-1.2-6.6-3.9-8.2-7.5l-0.5-3.9c1.4-0.2,2.7-0.4,3.8-0.5v0.8c0,0.9,0.4,1.6,1.1,2.2
		C425,909.2,428.2,912.9,428.5,914.4z M426.8,891l-8.6-65.5c2.5-1.3,4.8-2.8,7.1-4.5l7.4,68.9C431.1,890.2,429.2,890.6,426.8,891
		L426.8,891z M433,829.3c-0.4-0.3-0.7-0.7-0.8-1.3l-1.2-11.6c1.1-1,2.2-2.1,3.4-3.1l1.3,14.4c0,1-0.8,1.8-1.7,1.8
		C433.6,829.5,433.3,829.4,433,829.3L433,829.3z"/>
</g>
</svg>
