<?xml version="1.0" encoding="utf-8"?>
<!-- Generator: Adobe Illustrator 24.3.0, SVG Export Plug-In . SVG Version: 6.00 Build 0)  -->
<svg xmlns="http://www.w3.org/2000/svg" viewBox="80 480 920 120">
<style type="text/css">
	.st0{fill:none;stroke:#B79967;stroke-width:6;stroke-miterlimit:10;}
	.st1{fill:#B79967;}
	.st2{fill:#FFFFFF;}
	.st3{fill:#B79967;stroke:#B69967;stroke-miterlimit:10;}
</style>
<path class="st0" d="M985.7,506.6v72.6c0,10.1-8.3,18.4-18.4,18.4H775.3l-24-57.4l22.8-52h193.2
	C977.4,488.2,985.7,496.5,985.7,506.6z"/>
<polygon class="st1" points="775.3,597.6 558.2,597.6 534.1,540.2 556.9,488.2 774.1,488.2 751.3,540.2 "/>
<polygon class="st0" points="558.2,597.6 329,597.6 304.9,540.2 327.7,488.2 556.9,488.2 534.1,540.2 "/>
<path class="st0" d="M329,597.6H112.5c-10.1,0-18.4-8.3-18.4-18.4v-72.6c0-10.1,8.3-18.4,18.4-18.4h215.2l-22.8,52L329,597.6z"/>
<g>
	<path class="st1" d="M242.1,514.4c-0.6-0.6-1.5-0.5-2.1,0c-0.5,0.6-0.5,1.5,0,2l5.9,5.9c0.6,0.6,1.5,0.5,2.1,0c0.5-0.6,0.5-1.5,0-2
		L242.1,514.4z"/>
	<path class="st1" d="M252.4,516l-5.9-6c-4.6-4.5-12-4.5-16.6,0l-22.4,22.4l-5.3-5.5c-0.4-0.4-0.6-1-0.5-1.6
		c3.2-15.8-16.5-25.8-27.3-13.8c-8.5,9.2-2.7,24.8,9.7,26.3c2.3,0.3,4.6,0.1,6.8-0.6c0.7-0.2,1.4,0,1.9,0.5l4.6,4.8l-5.4,5.4
		c-0.4,0.5-1.1,0.7-1.7,0.5c-2.9-0.8-6.1-0.7-9,0.2c-19.2,7-11.1,34.8,8.8,30.5c7-1.8,11.9-8.1,11.9-15.4c0-1.4-0.2-2.8-0.5-4.1
		c-0.1-0.6,0.1-1.2,0.6-1.7l5.2-5.2c0,0,21.4,22.2,21.4,22.2c4.9,5.1,13,5.2,18.1,0.3c0,0,0,0,0,0c0.6-0.6,0.6-1.5,0.1-2.1
		c0,0,0,0,0,0l-37.4-38.7l22.5-22.4c3.4-3.4,9-3.4,12.4,0l5.9,6c0.6,0.6,1.5,0.5,2.1,0C252.9,517.5,252.9,516.6,252.4,516z
		 M199.9,555.9c-2.5,2.3-0.9,5-0.9,7.8c0,5.9-4,11-9.7,12.5c-16.2,3.6-22.8-19.2-7.2-24.8c2.4-0.8,4.9-0.8,7.3-0.2
		c1.6,0.4,3.4-0.1,4.6-1.3c0,0,5.4-5.4,5.4-5.3l5.8,6L199.9,555.9z M243.6,574.2c-4,2.8-9.4,2.3-12.8-1.2c-5.9-6.1-36-37.3-36-37.3
		c-1.2-1.3-3.1-1.8-4.9-1.3c-1.8,0.6-3.7,0.7-5.6,0.5c-15.8-2.6-14.3-25.2,1.7-25.7c7.2,0,12.9,5.9,12.9,13c0,0.8-0.1,1.7-0.3,2.5
		c-0.3,1.5,0.2,3.1,1.3,4.2L243.6,574.2z"/>
	<path class="st1" d="M186.1,510.9c-6.2,0-11.2,5-11.2,11.2c0.5,14.8,21.9,14.8,22.4,0C197.3,515.9,192.3,510.9,186.1,510.9z
		 M186.1,530.3c-10.9-0.3-10.9-16.1,0-16.5C197,514.2,197,530,186.1,530.3L186.1,530.3z"/>
	<path class="st1" d="M186.1,552.5c-6.2,0-11.2,5-11.2,11.2c0.5,14.8,21.9,14.8,22.4,0C197.3,557.5,192.3,552.5,186.1,552.5z
		 M186.1,571.9c-10.9-0.3-10.9-16.1,0-16.5C197,555.8,197,571.6,186.1,571.9L186.1,571.9z"/>
	<path class="st1" d="M241.8,528c0.8,0,1.5-0.7,1.5-1.5c0-0.4-0.2-0.7-0.4-1l-6-5.9c-0.6-0.6-1.5-0.5-2.1,0c-0.5,0.6-0.5,1.5,0,2
		l6,5.9C241,527.9,241.4,528,241.8,528z"/>
	<path class="st1" d="M236.6,533.2c0.8,0,1.5-0.7,1.5-1.5c0-0.4-0.2-0.7-0.4-1l-6-5.9c-0.6-0.6-1.5-0.5-2.1,0c-0.5,0.6-0.5,1.5,0,2
		l6,5.9C235.8,533.1,236.2,533.2,236.6,533.2z"/>
	<path class="st1" d="M231.4,538.4c0.8,0,1.5-0.7,1.5-1.5c0-0.4-0.2-0.7-0.4-1l-5.9-5.9c-0.6-0.6-1.5-0.5-2.1,0
		c-0.5,0.6-0.5,1.5,0,2l5.9,5.9C230.6,538.2,231,538.4,231.4,538.4z"/>
	<path class="st1" d="M219.2,535.1c-0.6,0.6-0.6,1.5,0,2.1c0,0,0,0,0,0l5.9,5.9c0.6,0.6,1.5,0.6,2.1,0c0.6-0.6,0.6-1.5,0-2.1
		l-5.9-5.9C220.7,534.6,219.8,534.6,219.2,535.1C219.2,535.1,219.2,535.1,219.2,535.1z"/>
	<path class="st1" d="M204.8,542.6c0,1.5,1.2,2.6,2.7,2.6c1.4,0,2.6-1.2,2.6-2.6c0-1.5-1.2-2.6-2.7-2.6
		C205.9,540,204.8,541.1,204.8,542.6z"/>
</g>
<g>
	<path class="st2" d="M719.1,574.1H590.4c-0.6,0-1,0.5-1,1c0,0.6,0.5,1,1,1h128.7c0.6,0,1-0.5,1-1
		C720.1,574.5,719.7,574.1,719.1,574.1z"/>
	<path class="st2" d="M594.5,568.3c2.2,1.4,5.1,0.9,6.8-1.1l4.1-5l2.5,0.5l-0.7,1.6c-0.3,0.7-0.2,1.4,0.1,2c0.4,0.6,1,1,1.7,1.1
		l38.4,3.4c0.4,0,0.8,0.1,1.2,0.1c3.9,0,7.6-1.7,10.1-4.7c0.6,0.5,1.2,0.9,2,1c0.3,0.1,0.6,0.1,0.8,0.1c0.4,0,0.7-0.1,1.1-0.1
		l0.5,1.1c0.7,1.6,2.3,2.6,4,2.6h13.9c0.7,0,1.4-0.3,1.9-0.9c0.5-0.6,0.6-1.3,0.5-2.1c-0.5-2.2-2-4.1-4.1-5.1l-7.5-3.6
		c0.1-0.9-0.1-1.8-0.6-2.6l-0.2-0.3c1.3,0.5,2.6,1,3.9,1.4l7.3,2.4c0.5,2.1,1.5,4,2.9,5.7c2.4,2.9,5.8,4.6,9.5,5l6.4,0.6
		c0.4,0,0.9,0.1,1.3,0.1c7.2,0,13.3-5.5,14-12.7c0,0,0,0,0,0c0.7-7.7-5-14.5-12.7-15.2l-6.4-0.6c-2-0.2-3.9,0.1-5.7,0.7l-10.2-16.6
		c-4.1-6.8-9.5-12.6-15.8-17.3c-10.9-8.1-24.6-10.7-37.7-7.3c-7.8,2-13.8,7.5-16.7,15c-2.9,7.5-2,15.6,2.4,22.3l6.4,9.7l-0.3,0
		c-3,0.4-6,0-8.7-1.3l-7-3.3c-1.4-0.7-3-0.6-4.4,0c-1.4,0.7-2.4,1.9-2.7,3.4l-3.9,16.4C592.6,566.1,593.2,567.6,594.5,568.3z
		 M627.5,550.5l0-0.3l2-0.3c0.7,4.6,0.4,9.4-1.1,13.8l-1,3.1l-1.9-0.2l0.7-2.3C627.7,560,628.2,555.2,627.5,550.5z M661.1,565.1
		c-0.6-0.1-1-0.4-1.3-0.9l-2.4-3.7c3.7-1.4,7.2-3.2,10.4-5.4l1.7,2.6c0.6,0.9,0.3,2.2-0.6,2.8l-6.2,4.3
		C662.2,565.1,661.7,565.2,661.1,565.1z M666.7,553.2c-3.2,2.2-6.7,4.1-10.4,5.4l-0.9-1.3l0.2-0.1c3.6-1.3,7.1-3.1,10.2-5.4
		L666.7,553.2z M678.5,564.6c1.5,0.7,2.6,2,3,3.7c0,0.1,0,0.2-0.1,0.3c0,0-0.1,0.1-0.3,0.1h-13.9c-0.9,0-1.8-0.5-2.2-1.4l-0.6-1.2
		l5.6-3.9c0.4-0.3,0.8-0.7,1-1.1L678.5,564.6z M701.2,569.2l-6.4-0.6c-1.5-0.1-2.9-0.5-4.2-1.2l0.8-2.1c0.6-1.5-0.1-3.3-1.5-4
		l-1.1-0.6c-0.3-0.1-0.4-0.4-0.5-0.7c0-0.3,0.1-0.6,0.3-0.8l1.8-1.6c0.2-0.2,0.4-0.2,0.7-0.2l6.8,0.6c0.7,0.1,1.2,0.4,1.6,0.9
		l1.2,1.6c0.7,1,2,1.5,3.2,1.1l1.3-0.3c-0.3,1.9-0.7,3.8-1.1,5.7l-0.5,2.1C702.8,569.3,702,569.3,701.2,569.2z M714.2,558.4
		C714.2,558.4,714.2,558.4,714.2,558.4c-0.3,3.2-1.8,6.1-4.2,8.1c-1.2,1-2.6,1.8-4.1,2.2l0.3-1.1c1.6-6.5,2.2-13.1,1.8-19.7
		l-0.1-1.1C712,549,714.6,553.5,714.2,558.4z M697,544.9l6.4,0.6c0.8,0.1,1.6,0.2,2.3,0.4l0.1,2.1c0.2,3.7,0.1,7.5-0.3,11.2
		l-2.1,0.5c-0.4,0.1-0.8,0-1-0.4l-1.2-1.6c-0.7-1-1.9-1.6-3.1-1.8l-6.8-0.6c-0.8-0.1-1.6,0.2-2.2,0.7l-1.8,1.6
		c-0.7,0.6-1.1,1.6-1,2.6c0.1,1,0.7,1.8,1.6,2.3l1.1,0.6c0.5,0.3,0.7,0.9,0.5,1.4l-0.7,1.8c-0.8-0.6-1.5-1.2-2.1-2
		c-2-2.4-3-5.5-2.7-8.7c0,0,0,0,0,0c0.2-2.5,1.2-4.8,2.8-6.7c1.1,2.5,3.3,4.4,6,5l2.2,0.5c1,0.2,2-0.2,2.6-1l0.8-1.1
		c1.1-1.4,3-2,4.6-1.3c0.2,0.1,0.3,0.2,0.4,0.4s0.1,0.4,0,0.5c-0.1,0.2-0.2,0.3-0.4,0.4l-2.6,0.7c-0.6,0.2-0.9,0.7-0.7,1.3
		c0.1,0.5,0.5,0.8,1,0.8c0.1,0,0.2,0,0.3,0l2.6-0.7c0.8-0.2,1.4-0.8,1.8-1.5c0.3-0.7,0.3-1.4,0-2.1s-0.8-1.2-1.5-1.5
		c-2.5-1-5.4-0.2-7.1,2l-0.8,1.1c-0.1,0.1-0.3,0.2-0.4,0.2l-2.2-0.5c-2.3-0.5-4.1-2.2-4.8-4.5C690.9,545.5,693.9,544.6,697,544.9z
		 M615.3,538.4c-4-6.1-4.8-13.6-2.2-20.4c2.6-6.9,8.2-11.8,15.3-13.7c12.5-3.3,25.6-0.7,35.9,7c6.1,4.6,11.3,10.2,15.3,16.7l10,16.3
		c-1,0.5-2,1.2-2.8,1.9c-0.1,0.1-0.1,0.1-0.2,0.2c-2.5,2.3-4.3,5.5-4.6,9.1c0,0,0,0,0,0c-0.1,0.7-0.1,1.5,0,2.2l-6.4-2
		c-2.2-0.7-4.4-1.6-6.5-2.6l-2.9-4.6c-0.6-1-0.5-2.2,0.2-3.1l2.8-3.3c0.4-0.4,0.3-1.1-0.1-1.5c-0.4-0.4-1.1-0.3-1.5,0.1l-2.8,3.3
		c-1.3,1.6-1.5,3.8-0.4,5.6l0.3,0.5c-3,2.1-6.3,3.9-9.8,5.2l-0.6,0.2l-3.5-5.5c-2-3.2-1.7-7.3,0.7-10.2l9.9-11.6
		c0.4-0.4,0.3-1.1-0.1-1.5c-0.4-0.4-1.1-0.3-1.5,0.1l-9.9,11.6c-0.2,0.2-0.3,0.4-0.5,0.6c-3.5-3.6-5.7-8.4-6-13.4l-0.4-7
		c0-0.6-0.5-1-1.1-1c-0.6,0-1,0.5-1,1.1l0.4,7c0.4,5.7,2.9,11.1,7,15.1c-1.5,3.2-1.3,7.1,0.7,10.2l8.4,13.3c-2.3,3-6,4.6-9.8,4.3
		l-18.1-1.6l0.9-2.7c1.5-4.7,1.9-9.8,1.1-14.7l2.4-0.4c0.6-0.1,1-0.6,0.9-1.2c-0.1-0.6-0.6-1-1.2-0.9l-11.5,1.7L615.3,538.4z
		 M619.9,551.4l5.5-0.8l0,0.3c0.6,4.3,0.2,8.8-1.2,12.9l-0.9,2.7l-14.2-1.3c0,0-0.1,0-0.1-0.1c0-0.1,0-0.1,0-0.1
		c0,0,3.7-6.9,4.4-13.9C615.6,551.6,617.8,551.7,619.9,551.4z M595,565.1l3.9-16.4c0.2-0.9,0.8-1.6,1.6-2c0.8-0.4,1.8-0.4,2.6,0
		l7,3.3c0.5,0.2,1,0.4,1.4,0.6c-0.4,3.5-1.2,7-2.7,10.2l-3.7-0.7c-0.4-0.1-0.8,0.1-1,0.4l-4.5,5.5c-1,1.2-2.7,1.5-4.1,0.7
		C595.1,566.3,594.8,565.7,595,565.1z"/>
</g>
<g>
	<path class="st1" d="M440.8,561l-18.4-30.5l11.1-18.3c0-0.1,0.1-0.1,0.1-0.2c1.3-2.4,3.8-4,6.5-4c2.7,0,5.2,1.5,6.5,4
		c0,0,0,0.1,0,0.1l8,15.5c0.1,0.1,0.2,0.2,0.3,0.3c0.4,0.4,1.1,0.5,1.7,0.2c1.2-0.7,2.4-1,3.7-1c2.5,0,4.9,1.3,6.2,3.4
		c0,0,0.1,0.1,0.1,0.1l19.7,31.7l0,0c0.3,0.4,0.7,0.7,1.2,0.7c0.2,0,0.5-0.1,0.7-0.2c0.6-0.4,0.8-1.3,0.4-1.9l-19.8-31.8
		c0,0-0.1-0.1-0.1-0.1c-1.9-2.9-5-4.6-8.5-4.6c-1.3,0-2.6,0.3-3.8,0.8l-7.4-14.4c0,0,0-0.1-0.1-0.1c-1.8-3.3-5.2-5.3-8.9-5.3
		c-3.7,0-7.1,2-8.9,5.3c0,0,0,0,0,0l-10.4,17.1l-2.7-4.4c0,0,0,0,0,0c-1.4-2.6-4.1-4.1-7-4.1c-2.9,0-5.6,1.6-7,4.1
		c0,0,0,0.1-0.1,0.1l-5.4,10.5c-0.9-0.3-1.8-0.5-2.7-0.5c-2.7,0-5.1,1.3-6.6,3.6c0,0-0.1,0.1-0.1,0.1L374.5,561
		c-0.4,0.6-0.2,1.5,0.4,1.9c0.6,0.4,1.5,0.2,1.9-0.4l0,0l14.7-23.6c0,0,0-0.1,0.1-0.1c1-1.5,2.6-2.4,4.4-2.4c0.9,0,1.8,0.2,2.6,0.7
		c0.5,0.3,1.2,0.2,1.6-0.2c0.1-0.1,0.2-0.2,0.3-0.4l5.9-11.6c0,0,0-0.1,0-0.1c0.9-1.7,2.6-2.8,4.6-2.8s3.7,1.1,4.6,2.8
		c0,0.1,0.1,0.1,0.1,0.1l22.7,37.5c0.3,0.4,0.7,0.7,1.2,0.7c0.2,0,0.5-0.1,0.7-0.2c0.2-0.1,0.4-0.3,0.5-0.5
		C441,562,441.1,561.4,440.8,561L440.8,561z"/>
	<path class="st1" d="M495.9,565.7H367.2c-0.6,0-1,0.5-1,1s0.5,1,1,1h128.7c0.6,0,1-0.5,1-1S496.5,565.7,495.9,565.7z"/>
	<path class="st3" d="M398.3,527.7h-15.2l3.2-3.2c0.1-0.1,0.1-0.2,0-0.3c-0.1-0.1-0.2-0.1-0.3,0l-3.6,3.6c0,0,0,0,0,0.1
		c0,0,0,0.1,0,0.2c0,0,0,0,0,0.1l3.6,3.6c0,0,0.1,0.1,0.1,0.1s0.1,0,0.1-0.1c0.1-0.1,0.1-0.2,0-0.3l-3.2-3.2h15.2
		c0.1,0,0.2-0.1,0.2-0.2C398.5,527.8,398.4,527.7,398.3,527.7z"/>
	<path class="st3" d="M456.1,519.9c0,0.1,0.1,0.2,0.2,0.2h15.2l-3.2,3.2c-0.1,0.1-0.1,0.2,0,0.3c0,0,0.1,0.1,0.1,0.1
		c0.1,0,0.1,0,0.1-0.1l3.6-3.6c0,0,0,0,0-0.1c0,0,0-0.1,0-0.2c0,0,0,0,0-0.1l-3.6-3.6c-0.1-0.1-0.2-0.1-0.3,0
		c-0.1,0.1-0.1,0.2,0,0.3l3.2,3.2h-15.2C456.2,519.7,456.1,519.8,456.1,519.9z"/>
</g>
<g>
	<path class="st1" d="M893.9,567.2c1,0.9,2.5,0.7,3.4-0.3c5.8-6.8,9-15.5,9-24.5c-2.1-50.1-73.4-50.1-75.5,0
		c-0.4,29.8,34.5,48.4,58.9,31.2c2.6-1.8-0.1-5.7-2.7-3.9c-21.3,14.9-51.8-1.3-51.5-27.3c0-18.2,14.8-33,33-33
		c27.8-0.2,43.4,33.4,25.1,54.4C892.7,564.8,892.9,566.3,893.9,567.2L893.9,567.2z"/>
	<path class="st1" d="M861.3,561.6c1.9,0,3.8-0.7,5.2-2.2l23.6-23.5c6.7-7.1-3.3-16.9-10.4-10.4l-18.4,18.3l-4-4
		c-7-6.7-17.1,3.4-10.4,10.4l9.2,9.2C857.5,560.9,859.4,561.6,861.3,561.6L861.3,561.6z M850.3,546.9c-2.4-2.4,1.2-6,3.6-3.7
		l5.6,5.6c0.9,0.9,2.4,0.9,3.4,0l20-20c2.4-2.3,6,1.2,3.6,3.6l-23.5,23.6c-1,1-2.6,1-3.7,0L850.3,546.9L850.3,546.9z"/>
</g>
</svg>
