<?xml version="1.0" encoding="utf-8"?>
<!-- Generator: Adobe Illustrator 24.3.0, SVG Export Plug-In . SVG Version: 6.00 Build 0)  -->
<svg xmlns="http://www.w3.org/2000/svg" viewBox="80 480 920 120">
<style type="text/css">
	.st0{fill:none;stroke:#B79967;stroke-width:6;stroke-miterlimit:10;}
	.st1{fill:#B79967;}
	.st2{fill:#FFFFFF;}
	.st3{fill:#FFFFFF;stroke:#FFFFFF;stroke-miterlimit:10;}
	.st4{fill:#B69767;}
</style>
<path class="st0" d="M328.4,540.2l-24,57.4H112.5c-10.1,0-18.4-8.3-18.4-18.4v-72.6c0-10.1,8.3-18.4,18.4-18.4h193.1L328.4,540.2z"
	/>
<polygon class="st0" points="328.4,540.2 305.6,488.2 305.7,488.2 "/>
<polygon class="st0" points="545.6,540.2 521.6,597.6 304.4,597.6 328.4,540.2 305.7,488.2 522.8,488.2 "/>
<polygon class="st0" points="328.4,540.2 305.6,488.2 305.7,488.2 "/>
<polygon class="st1" points="774.8,540.2 750.8,597.6 521.6,597.6 545.6,540.2 522.8,488.2 752,488.2 "/>
<path class="st0" d="M985.7,506.6v72.6c0,10.1-8.3,18.4-18.4,18.4H750.8l24-57.4l-22.8-52h215.2
	C977.4,488.2,985.7,496.5,985.7,506.6z"/>
<g>
	<path class="st1" d="M906.9,511.4c-0.6-0.6-1.5-0.5-2.1,0c-0.5,0.6-0.5,1.5,0,2l5.9,5.9c0.6,0.6,1.5,0.5,2.1,0c0.5-0.6,0.5-1.5,0-2
		L906.9,511.4z"/>
	<path class="st1" d="M917.2,513l-5.9-6c-4.6-4.5-12-4.5-16.6,0l-22.4,22.4l-5.3-5.5c-0.4-0.4-0.6-1-0.5-1.6
		c3.2-15.8-16.5-25.8-27.3-13.8c-8.5,9.2-2.7,24.8,9.7,26.3c2.3,0.3,4.6,0.1,6.8-0.6c0.7-0.2,1.4,0,1.9,0.5l4.6,4.8l-5.4,5.4
		c-0.4,0.5-1.1,0.7-1.7,0.5c-2.9-0.8-6.1-0.7-9,0.2c-19.2,7-11.1,34.8,8.8,30.5c7-1.8,11.9-8.1,11.9-15.4c0-1.4-0.2-2.8-0.5-4.1
		c-0.1-0.6,0.1-1.2,0.6-1.7l5.2-5.2l21.4,22.2c4.9,5.1,13,5.2,18.1,0.3l0,0c0.6-0.6,0.6-1.5,0.1-2.1l0,0l-37.4-38.7l22.5-22.4
		c3.4-3.4,9-3.4,12.4,0l5.9,6c0.6,0.6,1.5,0.5,2.1,0C917.7,514.5,917.7,513.6,917.2,513z M864.7,552.9c-2.5,2.3-0.9,5-0.9,7.8
		c0,5.9-4,11-9.7,12.5c-16.2,3.6-22.8-19.2-7.2-24.8c2.4-0.8,4.9-0.8,7.3-0.2c1.6,0.4,3.4-0.1,4.6-1.3c0,0,5.4-5.4,5.4-5.3l5.8,6
		L864.7,552.9z M908.4,571.2c-4,2.8-9.4,2.3-12.8-1.2c-5.9-6.1-36-37.3-36-37.3c-1.2-1.3-3.1-1.8-4.9-1.3c-1.8,0.6-3.7,0.7-5.6,0.5
		c-15.8-2.6-14.3-25.2,1.7-25.7c7.2,0,12.9,5.9,12.9,13c0,0.8-0.1,1.7-0.3,2.5c-0.3,1.5,0.2,3.1,1.3,4.2L908.4,571.2z"/>
	<path class="st1" d="M850.9,507.9c-6.2,0-11.2,5-11.2,11.2c0.5,14.8,21.9,14.8,22.4,0C862.1,512.9,857.1,507.9,850.9,507.9z
		 M850.9,527.3c-10.9-0.3-10.9-16.1,0-16.5C861.8,511.2,861.8,527,850.9,527.3L850.9,527.3z"/>
	<path class="st1" d="M850.9,549.5c-6.2,0-11.2,5-11.2,11.2c0.5,14.8,21.9,14.8,22.4,0C862.1,554.5,857.1,549.5,850.9,549.5z
		 M850.9,568.9c-10.9-0.3-10.9-16.1,0-16.5C861.8,552.8,861.8,568.6,850.9,568.9L850.9,568.9z"/>
	<path class="st1" d="M906.6,525c0.8,0,1.5-0.7,1.5-1.5c0-0.4-0.2-0.7-0.4-1l-6-5.9c-0.6-0.6-1.5-0.5-2.1,0c-0.5,0.6-0.5,1.5,0,2
		l6,5.9C905.9,524.9,906.2,525,906.6,525z"/>
	<path class="st1" d="M901.4,530.2c0.8,0,1.5-0.7,1.5-1.5c0-0.4-0.2-0.7-0.4-1l-6-5.9c-0.6-0.6-1.5-0.5-2.1,0c-0.5,0.6-0.5,1.5,0,2
		l6,5.9C900.7,530.1,901,530.2,901.4,530.2z"/>
	<path class="st1" d="M896.2,535.4c0.8,0,1.5-0.7,1.5-1.5c0-0.4-0.2-0.7-0.4-1l-5.9-5.9c-0.6-0.6-1.5-0.5-2.1,0
		c-0.5,0.6-0.5,1.5,0,2l5.9,5.9C895.4,535.2,895.8,535.4,896.2,535.4z"/>
	<path class="st1" d="M884,532.1c-0.6,0.6-0.6,1.5,0,2.1l0,0l5.9,5.9c0.6,0.6,1.5,0.6,2.1,0s0.6-1.5,0-2.1l-5.9-5.9
		C885.5,531.6,884.6,531.6,884,532.1L884,532.1z"/>
	<path class="st1" d="M869.6,539.6c0,1.5,1.2,2.6,2.7,2.6c1.4,0,2.6-1.2,2.6-2.6c0-1.5-1.2-2.6-2.7-2.6
		C870.8,537,869.6,538.1,869.6,539.6z"/>
</g>
<g>
	<path class="st2" d="M657.4,564.3L639,533.8l11.1-18.3c0-0.1,0.1-0.1,0.1-0.2c1.3-2.4,3.8-4,6.5-4s5.2,1.5,6.5,4v0.1l8,15.5
		c0.1,0.1,0.2,0.2,0.3,0.3c0.4,0.4,1.1,0.5,1.7,0.2c1.2-0.7,2.4-1,3.7-1c2.5,0,4.9,1.3,6.2,3.4l0.1,0.1l19.7,31.7l0,0
		c0.3,0.4,0.7,0.7,1.2,0.7c0.2,0,0.5-0.1,0.7-0.2c0.6-0.4,0.8-1.3,0.4-1.9l-19.8-31.8l-0.1-0.1c-1.9-2.9-5-4.6-8.5-4.6
		c-1.3,0-2.6,0.3-3.8,0.8l-7.4-14.4c0,0,0-0.1-0.1-0.1c-1.8-3.3-5.2-5.3-8.9-5.3s-7.1,2-8.9,5.3l0,0l-10.4,17.1l-2.7-4.4l0,0
		c-1.4-2.6-4.1-4.1-7-4.1s-5.6,1.6-7,4.1c0,0,0,0.1-0.1,0.1l-5.4,10.5c-0.9-0.3-1.8-0.5-2.7-0.5c-2.7,0-5.1,1.3-6.6,3.6l-0.1,0.1
		l-14.8,23.7c-0.4,0.6-0.2,1.5,0.4,1.9c0.6,0.4,1.5,0.2,1.9-0.4l0,0l14.7-23.6c0,0,0-0.1,0.1-0.1c1-1.5,2.6-2.4,4.4-2.4
		c0.9,0,1.8,0.2,2.6,0.7c0.5,0.3,1.2,0.2,1.6-0.2c0.1-0.1,0.2-0.2,0.3-0.4l5.9-11.6V528c0.9-1.7,2.6-2.8,4.6-2.8
		c1.9,0,3.7,1.1,4.6,2.8c0,0.1,0.1,0.1,0.1,0.1l22.7,37.5c0.3,0.4,0.7,0.7,1.2,0.7c0.2,0,0.5-0.1,0.7-0.2c0.2-0.1,0.4-0.3,0.5-0.5
		C657.7,565.3,657.7,564.8,657.4,564.3L657.4,564.3z"/>
	<path class="st2" d="M712.5,569H583.8c-0.6,0-1,0.5-1,1c0,0.6,0.5,1,1,1h128.7c0.6,0,1-0.5,1-1C713.6,569.5,713.1,569,712.5,569z"
		/>
	<path class="st3" d="M614.9,531h-15.2l3.2-3.2c0.1-0.1,0.1-0.2,0-0.3s-0.2-0.1-0.3,0l-3.6,3.6c0,0,0,0,0,0.1c0,0,0,0.1,0,0.2
		c0,0,0,0,0,0.1l3.6,3.6l0.1,0.1c0,0,0.1,0,0.1-0.1c0.1-0.1,0.1-0.2,0-0.3l-3.2-3.2h15.2c0.1,0,0.2-0.1,0.2-0.2
		C615.1,531.1,615,531,614.9,531z"/>
	<path class="st3" d="M672.8,523.3c0,0.1,0.1,0.2,0.2,0.2h15.2l-3.2,3.2c-0.1,0.1-0.1,0.2,0,0.3l0.1,0.1c0,0,0.1,0,0.1-0.1l3.6-3.6
		c0,0,0,0,0-0.1c0,0,0-0.1,0-0.2c0,0,0,0,0-0.1l-3.6-3.6c-0.1-0.1-0.2-0.1-0.3,0s-0.1,0.2,0,0.3l3.2,3.2H673
		C672.9,523.1,672.8,523.1,672.8,523.3z"/>
</g>
<g>
	<path class="st4" d="M450.4,567.5c1,0.9,2.5,0.7,3.4-0.3c5.8-6.8,9-15.5,9-24.5c-2.1-50.1-73.4-50.1-75.5,0
		c-0.4,29.8,34.5,48.4,58.9,31.2c2.6-1.8-0.1-5.7-2.7-3.9c-21.3,14.9-51.8-1.3-51.5-27.3c0-18.2,14.8-33,33-33
		c27.8-0.2,43.4,33.4,25.1,54.4C449.3,565.1,449.4,566.7,450.4,567.5L450.4,567.5z"/>
	<path class="st4" d="M417.8,561.9c1.9,0,3.8-0.7,5.2-2.2l23.6-23.5c6.7-7.1-3.3-16.9-10.4-10.4l-18.4,18.3l-4-4
		c-7-6.7-17.1,3.4-10.4,10.4l9.2,9.2C414,561.2,415.9,561.9,417.8,561.9L417.8,561.9z M406.8,547.2c-2.4-2.4,1.2-6,3.6-3.7l5.6,5.6
		c0.9,0.9,2.4,0.9,3.4,0l20-20c2.4-2.3,6,1.2,3.6,3.6l-23.5,23.6c-1,1-2.6,1-3.7,0L406.8,547.2L406.8,547.2z"/>
</g>
<g>
	<path class="st4" d="M232.4,567.2c1,0.9,2.5,0.7,3.4-0.3c5.8-6.8,9-15.5,9-24.5c-2.1-50.1-73.4-50.1-75.5,0
		c-0.4,29.8,34.5,48.4,58.9,31.2c2.6-1.8-0.1-5.7-2.7-3.9c-21.3,14.9-51.8-1.3-51.5-27.3c0-18.2,14.8-33,33-33
		c27.8-0.2,43.4,33.4,25.1,54.4C231.3,564.8,231.4,566.4,232.4,567.2L232.4,567.2z"/>
	<path class="st4" d="M199.8,561.6c1.9,0,3.8-0.7,5.2-2.2l23.6-23.5c6.7-7.1-3.3-16.9-10.4-10.4l-18.4,18.3l-4-4
		c-7-6.7-17.1,3.4-10.4,10.4l9.2,9.2C196,560.9,197.9,561.6,199.8,561.6L199.8,561.6z M188.8,546.9c-2.4-2.4,1.2-6,3.6-3.7l5.6,5.6
		c0.9,0.9,2.4,0.9,3.4,0l20-20c2.4-2.3,6,1.2,3.6,3.6l-23.5,23.6c-1,1-2.6,1-3.7,0L188.8,546.9L188.8,546.9z"/>
</g>
</svg>
