<?xml version="1.0" encoding="UTF-8"?>
<svg version="1.1" viewBox="0 0 2048 1272" width="3071" height="1908" xmlns="http://www.w3.org/2000/svg">
<path transform="translate(0)" d="m0 0h2048v1272h-2048z" fill="#FDFDFD"/>
<path transform="translate(802,521)" d="m0 0h3v64l41-1 1-54 27-9h3v59l-1 5 35-1 2-1 8-20 8-16 6-9 5-6 10-7 12-4h15l12 4 8 6 8 9 5 12 2 10v24l-3 17-3 5-17 10-8-1-44-12-7 7-3 1h-122l-2 13-5 12-7 10-10 9-16 8-16 4h-23l-17-4-14-7-10-8-8-11-5-12-2-9v-49l9-3 20-5 1 46 3 14 6 9 6 5 9 4 5 1h17l13-4 8-6 6-12 1-5 1-83z" fill="#111819"/>
<path transform="translate(1313,451)" d="m0 0h1v162l-230 1-2 14-4 11-5 8-6 7-11 7-13 5-17 3h-8l-4-15-2-11 23-4 10-5 5-6 3-9 1-89 27-9h3v64l124-1-13-21-10-19-5-7-6-4-3-1h-13l-15 5-5 2-12-24v-3l17-7 13-3h19l10 3 10 6 8 7 10 14 13 25 7 10 4 5 10 7 12 4 5 1 21 1v-125z" fill="#111819"/>
<path transform="translate(1377,447)" d="m0 0h1v166h-29v-157z" fill="#111819"/>
<path transform="translate(712,725)" d="m0 0 2 2 2 4 4-3 7 1 2 1-1 2-6 1 8 2 4 4-1 3-5-3 4 5 1 2v9l-2-3-3-6-2-1 3 8-1 8-2 1-2-11h-1v9l-3 6h-1l-1-11-1-4h-2l1 37 14-8 8-2h13l4 1v2l-16 2-10 4-11 7 2 4 10 9 3 1h5l2 2-1 4-2 2-6-1-9-7-7-7-4-1-11 11-8 5-5-1-2-2 1-4 1-1h6l11-9 3-3v-2l-13-8-12-4-12-1v-2l4-1h13l10 3 12 7 1-37h-2l-2 15-3-3-1-3v-10l-2 4-1 8h-2l-1-10 4-8-5 5-2 6h-1v-9l3-5 2-2-6 3 1-4 5-4 6-1-7-1v-2l4-2 7 1 2 2z" fill="#B9A67B"/>
<path transform="translate(1363,724)" d="m0 0h4v32h-96l-7-3-2-2-1-7 3-6 6-3h10v16h14v-16h5v16h13v-16l5 1v15l9-1-1-5 2-5 4-3h6l4 2 2 4v8h5l-2-13-2-3-3-1h-12l-1-3 4-2h11l6 3 3 5 1 4v10h9v-26z" fill="#B9A67B"/>
<path transform="translate(1059,775)" d="m0 0h5v31h-16l-4-1-1 1h-32l-4-1-1 1h-73v-4h15l-2-9-11-2v-4h10l6 4 2 3v8l21-1-3-10h-9l-1-4 2-1h10l4 4 3 11 12 1v-15h5v15l7-2 1-13h5l1 13 6 2v-16h4v16h9v-10l4-5 8-1 4 2 2 3 1 10 10 1z" fill="#B9A67B"/>
<path transform="translate(1362,775)" d="m0 0h5v31h-15l-4-1-1 1h-32l-4-1-1 1h-68v-4h15l-3-9-10-2v-4h9l6 3 3 6v6l21-1-4-10h-8l-1-4 1-1h11l4 5 2 11h8v-14l5-1v15l7-2 1-13h5l1 13 6 2v-16h5v16h8v-9l3-5 4-2 7 1 4 4 1 10 9 1z" fill="#B9A67B"/>
<path transform="translate(1e3 724)" d="m0 0h5v27h26v-16h4v16l14-1-5-9 1-4 6-3h9l5 2-1 9-4 5 14 1v-27h5v27h10v-27l5 1v30l-1 1h-32l-8-1-5 1h-47l-1-1z" fill="#B9A67B"/>
<path transform="translate(839,628)" d="m0 0 4 2 11 11 4-2 11-11 4 1 14 14-2 4-13 13-4-1-12-12-4 2-11 11-4-2-13-13 2-4z" fill="#111819"/>
<path transform="translate(864,735)" d="m0 0h9v16h23v-13l5 1v12l6-1 1-11 5-1 1 11 6 2v-15l5-1v16h13v-16h4v21h-25l-6-2-5 2h-33l-1 6-4 3h-10l-3-3 4-2h7l2-4-8-1-4-4v-10l5-5z" fill="#B9A67B"/>
<path transform="translate(969,549)" d="m0 0 7 2 5 5 2 6 1 7v9l-1 8-3 1-32-9-1-3 10-19 6-5z" fill="#F9F8F5"/>
<path transform="translate(906,775)" d="m0 0h5v31h-55l-1 6-5 4h-9l-3-1 1-4h11l1-5h-8l-5-5v-8l2-4 6-3h10v16h19v-16h5v16h11v-16h5v16h10z" fill="#B9A67B"/>
<path transform="translate(1176,724)" d="m0 0h4v27l24-1-5-8 1-5 5-3h10l5 2-1 8-4 6 18 1v-26l5-1v32h-22l-9-1-4 1h-27z" fill="#B9A67B"/>
<path transform="translate(1114,735)" d="m0 0h10v16h24v-8l3-5 2-2h9l4 4 1 7-3 6-2 2-4 1h-43l-7-3-2-3v-9l5-5z" fill="#B9A67B"/>
<path transform="translate(1214,775)" d="m0 0h5v31h-54l-1 6-4 4h-7l-1-4 2-1h4l1-2 1-23h5v16h32l-3-10-1-1h-9l-1-4 2-1h11l3 3 3 13h12z" fill="#B9A67B"/>
<path transform="translate(730,521)" d="m0 0 4 2 13 13-2 4-14 14-7-6-10-10 6-7z" fill="#111819"/>
<path transform="translate(963,735)" d="m0 0h10v16h15v-16l5 1v19l-1 1h-28l-7-3-3-5 1-7 5-5z" fill="#B9A67B"/>
<path transform="translate(1090,786)" d="m0 0h10v25l-4 4-2 1h-9l-3-3 1-2h10l2-5h-8l-4-4-1-2 1-9 4-4z" fill="#B9A67B"/>
<path transform="translate(1124,786)" d="m0 0h8l5 5v8l-3 5-5 2h-12v13h-5v-14l3-3 3-1 1-10z" fill="#B9A67B"/>
<path transform="translate(840,735)" d="m0 0h9v26l-5 4h-10l-2-1 1-4h11l1-4-9-1-4-4v-9l5-6z" fill="#B9A67B"/>
<path transform="translate(824,786)" d="m0 0h7l2 1-1 4-9 2-1 4 9 8v7l-4 3-3 1h-15l-5-3-2-8 2-7h4v10l3 3h11l3-1-1-4-7-6-1-5 4-6z" fill="#B9A67B"/>
<path transform="translate(821,737)" d="m0 0h5v21l-3 5-7 3-8-1-5-5v-11l1-3h5v13l1 1h8l2-2z" fill="#B9A67B"/>
<path transform="translate(1245,724)" d="m0 0 5 1v30l-5 1z" fill="#B9A67B"/>
<path transform="translate(1225,775)" d="m0 0h5v31h-5z" fill="#B9A67B"/>
<path transform="translate(1144,775)" d="m0 0h5v31h-5z" fill="#B9A67B"/>
<path transform="translate(917,775)" d="m0 0h5v31h-5z" fill="#B9A67B"/>
<path transform="translate(1374,724)" d="m0 0h4v32l-5-1z" fill="#B9A67B"/>
<path transform="translate(1374,775)" d="m0 0h4v31h-4z" fill="#B9A67B"/>
<path transform="translate(1071,775)" d="m0 0h4v31h-4z" fill="#B9A67B"/>
<path transform="translate(964,739)" d="m0 0h4v12h-6l-3-3 1-6z" fill="#FEFEFE"/>
<path transform="translate(1272,739)" d="m0 0h3v12h-6l-3-4 1-5z" fill="#FEFEFE"/>
<path transform="translate(1116,739)" d="m0 0h3v12h-6l-3-4 1-5z" fill="#FEFEFE"/>
<path transform="translate(842,739)" d="m0 0h3v12h-7l-1-1v-8z" fill="#FEFEFE"/>
<path transform="translate(1342,790)" d="m0 0 5 2 1 5-3 5h-6v-9z" fill="#FEFEFE"/>
<path transform="translate(847,790)" d="m0 0h4v12h-6l-2-2v-7z" fill="#FEFEFE"/>
<path transform="translate(1038,790)" d="m0 0 5 2 1 5-3 5h-6v-9z" fill="#FEFEFE"/>
<path transform="translate(1126,790)" d="m0 0 5 1 1 1v7l-5 3-4-1 1-9z" fill="#FEFEFE"/>
<path transform="translate(1091,790)" d="m0 0h4v12h-6l-2-3 1-7z" fill="#FEFEFE"/>
<path transform="translate(1155,740)" d="m0 0h5l2 3-1 6-2 2h-6v-8z" fill="#FEFEFE"/>
<path transform="translate(866,739)" d="m0 0h2v12h-6l-2-3 1-6z" fill="#FEFEFE"/>
<path transform="translate(1207,738)" d="m0 0h6l2 1-1 5-3 4-4-1-3-5 1-3z" fill="#FEFEFE"/>
<path transform="translate(1052,738)" d="m0 0h7l1 5-4 5h-3l-4-7z" fill="#FEFEFE"/>
<path transform="translate(1332,742)" d="m0 0h5l1 2v7h-6l-2-3 1-5z" fill="#FEFEFE"/>
<path transform="translate(1294,723)" d="m0 0h5v3h-4l1 2 4 1v2l-8 1v-6z" fill="#B9A67B"/>
<path transform="translate(862,724)" d="m0 0h6v2l-4 2 5 2-1 2h-8l1-7z" fill="#B9A67B"/>
<path transform="translate(818,819)" d="m0 0 4 1-1 5-4-1z" fill="#B9A67B"/>
<path transform="translate(811,819)" d="m0 0 4 1-1 5-4-1z" fill="#B9A67B"/>
<path transform="translate(812,730)" d="m0 0h4l1 4-4 2-2-4z" fill="#B9A67B"/>
<path transform="translate(913,726)" d="m0 0 4 1-1 5-4-1z" fill="#B9A67B"/>
<path transform="translate(906,726)" d="m0 0 4 1-1 5-4-1z" fill="#B9A67B"/>
<path transform="translate(1120,724)" d="m0 0 4 1-1 5-4-1z" fill="#B9A67B"/>
</svg>
