<svg width="348" height="146" viewBox="0 0 348 146" fill="none" xmlns="http://www.w3.org/2000/svg">
<path d="M188.859 90.3426C184.9 90.3426 181.248 91.9999 178.578 94.9974L179.059 95.6623C180.522 95.0281 181.862 94.7212 183.151 94.7212C188.43 94.7212 191.703 99.0076 191.703 105.893V121.504H199.714V101.299C199.714 93.7186 194.261 90.3324 188.859 90.3324" fill="#B49164"/>
<path d="M177.432 91.3554H169.422V121.514H177.432V91.3554Z" fill="#B49164"/>
<path d="M223.182 117.606C218.466 117.606 215.755 113.841 215.755 107.263V91.3554H207.744V111.253C207.744 118.875 212.952 122.281 218.118 122.281C222.138 122.281 226.026 120.307 228.778 116.859L228.235 116.235C226.701 117.115 224.9 117.606 223.182 117.606Z" fill="#B49164"/>
<path d="M238.026 91.3554H230.016V121.514H238.026V91.3554Z" fill="#B49164"/>
<path d="M259.673 102.506C255.325 101.105 251.212 99.7852 251.192 96.9105C251.192 96.2149 251.356 95.6829 251.499 95.3658L251.662 94.9975L252.256 94.8543C252.716 94.7417 253.258 94.6803 253.852 94.6803C256.481 94.6803 260.194 95.9182 261.913 98.22L262.159 98.5473L268.808 93.8415L268.481 93.4936C266.66 91.5499 263.836 90.4348 260.737 90.4348C257.156 90.4348 253.831 91.8364 251.847 94.1791L251.417 94.6803L251.008 94.8031C248.941 95.3964 245.453 97.3811 245.453 101.023C245.422 106.046 250.916 107.847 256.235 109.596C260.235 110.905 264.021 112.143 264.327 114.68C264.471 115.744 264.02 116.655 263.611 117.228L263.294 117.668L262.65 117.821C262.087 117.954 261.483 118.015 260.839 118.015C257.504 118.015 253.596 116.246 251.335 113.719L251.09 113.442L244.389 118.138L244.726 118.496C247.028 120.87 250.404 122.24 253.974 122.24C257.545 122.24 260.931 120.88 263.059 118.517L263.499 118.036L264.061 117.882C264.737 117.708 270.67 115.969 270.435 110.486C270.24 105.923 264.88 104.194 259.693 102.517" fill="#B49164"/>
<path d="M292.205 117.606C287.489 117.606 284.778 113.841 284.778 107.263V91.3554H276.767V111.253C276.767 118.875 281.975 122.281 287.141 122.281C291.161 122.281 295.049 120.307 297.801 116.859L297.258 116.235C295.724 117.115 293.923 117.606 292.205 117.606Z" fill="#B49164"/>
<path d="M307.059 91.3554H299.049V121.514H307.059V91.3554Z" fill="#B49164"/>
<path d="M323.1 76.8184H315.09V121.524H323.1V76.8184Z" fill="#B49164"/>
<path d="M347.99 121.514L332.522 103.939L344.501 91.3554H337.054L323.898 106.312L336.962 121.514H347.99Z" fill="#B49164"/>
<path d="M251.765 70.2507V40.0922H243.744V64.8594H175.795L169.422 69.3198V70.2507H251.765Z" fill="#B49164"/>
<path d="M266.015 56.0001C266.015 62.5679 263.304 66.3428 258.588 66.3428C256.859 66.3428 255.069 65.8518 253.535 64.972L252.992 65.596C255.744 69.0436 259.632 71.018 263.652 71.018C268.819 71.018 274.026 67.6113 274.026 59.9898V40.0922H266.015V56.0103V56.0001Z" fill="#B49164"/>
<path d="M276.338 26.6292C276.102 26.5269 275.836 26.4655 275.53 26.4144L275.274 26.3735L275.345 26.1279C275.489 25.6676 275.56 25.1663 275.56 24.6343C275.56 20.9208 273.964 19.6011 272.593 19.6011C270.363 19.6011 267.785 21.7187 267.785 24.4502C267.785 26.4144 269.074 27.4783 272.082 28.0103L272.583 28.0921L272.174 28.399C270.179 29.8926 266.998 31.2021 263.642 32.532L263.008 32.7776L263.673 32.931C264.43 33.1049 265.77 33.2481 266.455 33.2584H266.496L266.537 33.2481C267.877 32.7571 271.939 31.2737 274.097 28.5423L274.189 28.4195L274.333 28.4707C274.527 28.532 274.742 28.6139 274.936 28.7059L275.1 28.7878L276.583 26.7315L276.338 26.6292ZM274.261 25.3095C274.261 25.555 274.22 25.8006 274.138 26.0461L274.077 26.2302L273.882 26.1893C269.913 25.4016 269.085 24.1228 269.085 23.2021C269.085 22.3428 270.281 21.463 271.448 21.463C272.737 21.463 274.21 23.11 274.261 25.3095Z" fill="#B49164"/>
<path d="M327.932 40.0747L321.052 46.954L327.932 53.8334L334.811 46.954L327.932 40.0747Z" fill="#B49164"/>
<path d="M335.468 26.6189C335.233 26.5166 334.967 26.4553 334.66 26.4041L334.404 26.3632L334.476 26.1177C334.619 25.6573 334.691 25.156 334.691 24.6241C334.691 20.9105 333.095 19.5908 331.724 19.5908C329.494 19.5908 326.916 21.7085 326.916 24.4399C326.916 26.4041 328.194 27.4681 331.212 28L331.714 28.0819L331.304 28.3888C329.31 29.8824 326.128 31.1918 322.772 32.5218L322.138 32.7673L322.803 32.9207C323.56 33.0947 324.9 33.2379 325.586 33.2481H325.627L325.668 33.2379C327.008 32.7468 331.069 31.2635 333.228 28.532L333.32 28.4092L333.463 28.4604C333.657 28.5218 333.872 28.6036 334.067 28.6957L334.23 28.7775L335.714 26.7213L335.468 26.6189ZM333.391 25.2993C333.391 25.5448 333.35 25.7903 333.269 26.0358L333.207 26.22L333.013 26.1791C329.044 25.3913 328.215 24.1126 328.215 23.1918C328.215 22.3325 329.412 21.4527 330.578 21.4527C331.867 21.4527 333.34 23.0998 333.391 25.2993Z" fill="#B49164"/>
<path d="M347.99 70.2405V40.0819H339.98V64.8492H294.496C295.049 63.4886 295.366 61.8722 295.366 60.0001V40.1024H287.356V56.0103C287.356 62.5781 284.645 66.353 279.928 66.353C278.199 66.353 276.409 65.862 274.875 64.9822L274.332 65.6062C277.084 69.0538 280.972 71.0282 284.992 71.0282C288.501 71.0282 292.02 69.4528 293.923 66.0564L299.202 70.2507H348L347.99 70.2405Z" fill="#B49164"/>
<path d="M208.737 45.0742C214.077 45.0742 218.527 47.2737 220.951 51.0998C223.059 54.4348 223.386 58.5167 221.852 62.6088L221.698 63.0077L222.159 63.3044L222.455 63.1203C228.839 59.2123 230.087 53.1152 229.228 49.0845C228.01 43.376 222.998 39.6932 216.45 39.6932L188.992 39.6625L202.854 25.1049H195.396L182.343 39.9591L183.304 45.0845H208.726L208.737 45.0742Z" fill="#B49164"/>
<path d="M140.02 76.9616L144.972 75.3555C144.972 75.3555 145.78 67.335 137.893 58.4655L144.992 56.1637V51.0895C144.992 43.243 128.205 35.0384 126.875 34.353L144.992 28.4706C145.023 26.1893 143.918 24 141.78 23.1714L70.353 0L0.317133 22.7212C0.12276 22.7826 0 22.9463 0 23.1714C0 25.3095 1.43222 27.202 3.38619 28.0818L17.3299 32.6036C1.95125e-06 39.7852 0 47.2839 0 47.2839V56.1637L4.55244 57.6368C-0.10229 63.8056 0.0920591 69.5448 0.0511384 70.7621C-1.24888e-05 72.133 3.78518 75.0793 3.78518 75.0793C-0.419425 83.8056 0.0511384 94.1995 0.0511384 94.1995C0.0920591 95.0384 1.71866 96.5831 1.71866 96.5831C0.265977 105.852 0.0306905 114.455 0 116.89C0 117.361 0.112528 117.831 0.347822 118.24C1.97442 121.084 4.59334 122.23 4.59334 122.23C4.59334 122.23 73.4629 144.573 74.7928 145.013L144.992 122.23C144.992 108.031 142.957 99.4578 142.957 99.4578L144.972 98.8031C144.972 98.8031 145.637 86.9361 140.02 76.9719M140.102 90.9974C139.642 90.0051 139.13 89.0333 138.568 88.0819C136.747 84.9719 134.465 82.1381 131.887 79.6113L137.545 77.7801C139.171 82.0665 139.867 86.4552 140.092 90.9974M18.8645 79.9795L74.8031 98.1279L130.394 80.0921C136.194 85.197 138.056 94.7008 138.056 94.7008L70.3325 116.675L7.73401 96.3581C9.71867 90.0256 12.9514 84.6752 18.8645 79.9693M7.46802 82.2507C8.13298 80.4604 8.94118 78.7315 9.91305 77.0639L11.4783 77.5755C9.99489 79.0077 8.64451 80.5627 7.45781 82.2507M72.491 79.6931C73.3811 79.3964 109.258 67.7545 109.35 67.734C109.35 67.734 120.512 73.5755 124.174 75.7545C124.174 75.7545 85.5755 88.2762 73.7289 92.1228C71.642 92.798 70.3836 93.2072 70.3223 93.2276C70.3223 93.2276 22.1893 77.6062 22.1586 77.5959C27.2941 74.1791 32.9003 71.4885 38.3325 68.6036C38.4246 68.6343 71.9898 79.5294 72.491 79.6931ZM40.3171 55.0179C40.931 54.7008 41.5448 54.3836 42.1484 54.0563C47.0282 51.4578 51.6931 48.4808 56.133 45.2072L58.9054 46.1074C54.8747 50.087 50.4041 53.6164 45.688 56.7673C45.688 56.7673 44.7161 56.4501 43.601 56.0921C42.087 55.601 40.3069 55.0179 40.3069 55.0179M112.471 66.711C112.471 66.711 123.806 63.0282 124.153 62.9259H124.164C124.164 62.9259 131.816 67.202 134.793 72.2967L126.425 75.0077C123.366 72.3785 112.471 66.7008 112.471 66.7008M122.905 49.1765C121.32 49.6982 110.762 53.1151 110.762 53.1151C103.529 49.821 95.3043 44.5831 95.3043 44.5831L106.322 41.0128C106.322 41.0128 121.494 48.1944 123.11 49.1151C123.11 49.1151 123.038 49.1356 122.905 49.1765ZM107.509 54.1688C107.509 54.1688 107.356 54.22 107.079 54.312C105.054 54.9668 96.5627 57.7289 96.5627 57.7289C90.1791 53.7596 84.3581 48.1432 84.3581 48.1432L93.1458 45.289C93.1458 45.289 101.023 50.9054 107.509 54.1688ZM94.4143 58.4143C94.4143 58.4143 87.7034 60.5934 81.7289 62.5269C76.9207 64.0819 72.5934 65.4936 72.5934 65.4936L53.5141 59.2941C57.9949 56.0716 62.1995 52.4808 65.9949 48.3887L74.7826 51.243L82.9156 48.6036C82.9156 48.6036 88.5115 54.1688 94.4246 58.4143M61.4322 43.468C61.3197 43.4271 59.3043 42.7826 59.3043 42.7826C61.8619 40.757 64.3786 38.5882 66.844 36.2967C67.243 35.9284 67.6317 35.5601 68.0205 35.1816C66.2506 37.9437 63.6419 41.0639 61.4322 43.468ZM61.8926 31.7545C58.6292 34.7826 55.2123 37.6266 51.6419 40.2864C51.5192 40.2455 47.1407 38.8235 47.1305 38.8235C52.2353 35.9386 57.1151 32.624 61.9233 29.2992C63.4885 28.2251 65.0435 27.1304 66.5883 26.0256C67.5908 25.3095 68.5934 24.5934 69.596 23.867C67.2226 26.6701 64.5729 29.2685 61.8926 31.7545ZM38.6906 36.0818C38.6906 36.0818 33.2379 34.312 31.2634 33.6675C30.8235 33.5243 30.5575 33.4425 30.5575 33.4425C30.5575 33.4425 40.1534 30.2813 70.3018 14.2711V15.1407C52.6854 28.7468 38.6803 36.0716 38.6803 36.0716M43.1202 40.9514L48.3274 42.6394C45.4834 44.6036 42.5576 46.4246 39.5499 48.1125C36.9821 49.5448 34.353 50.8747 31.7238 52.1944C31.7238 52.1944 31.0895 51.9898 30.2097 51.7033C28.1535 51.0384 24.7264 49.9233 24.7264 49.9233C25.6164 49.4322 26.4962 48.9616 27.3657 48.5115C32.5422 45.8312 37.913 43.5703 43.1304 40.9616M29.7903 65.8107C25.555 68.0205 21.3197 70.2506 17.3402 72.8798C17.1356 73.0128 16.9412 73.1458 16.7366 73.289C15.9181 73.8517 15.1202 74.4348 14.3427 75.0384L11.7749 74.2097C14.9565 69.954 19.1509 66.6189 23.6419 63.8261C23.6726 63.8261 29.78 65.821 29.78 65.821M140.072 70.5678L136.512 71.7238C133.074 66.9463 126.404 62.1688 126.404 62.1688C126.404 62.1688 129.637 61.1253 132.409 60.2148C134.506 59.5396 136.338 58.9463 136.338 58.9463C140.634 65.0026 140.061 70.5678 140.061 70.5678M138.445 44.0102C138.506 44.0614 138.537 44.0921 138.537 44.0921L125.76 48.2353C120.194 44.4604 110.957 40.3274 109.872 39.8466L123.335 35.4783C133.708 40.1739 137.811 43.468 138.455 44.0102M74.7724 4.87979L136.43 24.89C136.43 24.89 118.997 30.5473 118.987 30.5473C97.2379 21.9642 74.7724 9.37083 74.7724 9.37083V4.87979ZM74.7724 12.1023C74.7724 12.1023 78.3632 14.0563 83.5295 16.7673C92.931 21.7084 107.519 29.156 114.987 31.8465L101.985 36.0614C94.8338 32.7366 74.7724 18.2711 74.7724 18.2711V12.0921V12.1023ZM74.7724 20.3376C74.7724 20.3376 77.0844 22.046 80.3683 24.399C86.0154 28.4604 94.5473 34.4552 99.11 36.9923C99.0998 36.9923 89.4629 40.1228 89.1151 40.2353C82.6905 35.7443 74.7724 27.1816 74.7724 27.1816V20.3274V20.3376ZM74.7724 29.1356C74.7724 29.1356 80.2046 35.1714 87.376 40.798L79.8977 43.2225C77.6982 41.0435 76.0921 38.3427 75.2226 35.376C74.9054 34.2916 74.7622 33.1662 74.7622 32.0307V29.1253L74.7724 29.1356ZM72.3888 40.2967C72.8901 39.5396 73.3913 38.7519 73.8517 37.9437C74.2609 38.5166 74.6701 39.0895 75.0997 39.6522C76.1432 41.0435 77.2276 42.3939 78.3632 43.7136L70.2916 46.3325L68.3274 45.6982C69.78 43.9693 71.1509 42.179 72.3888 40.2864M8.65472 26.3325L70.3018 6.33248V7.24297C40.1125 23.3657 21.6266 30.5371 21.6266 30.5371L8.66496 26.3325H8.65472ZM13.7391 41.8414C17.6675 39.3964 21.821 37.3299 26.0358 35.4169L34.445 38.1483C28.7264 40.8696 22.8645 43.3964 17.4322 46.6189C17.0946 46.8235 16.757 47.0179 16.4297 47.2225L9.3504 44.9207C10.7315 43.7852 12.2251 42.7724 13.7289 41.8312M11.3043 59.8159L15.6522 61.2276C12.3785 63.5704 9.38107 66.2711 6.96675 69.5345C6.35294 70.3632 5.79028 71.2225 5.26854 72.1023L5.03326 72.0307C5.75961 67.2839 8.10231 63.2634 11.2941 59.8261M140 117.453C140 117.453 139.028 117.77 137.309 118.322C124.491 122.486 70.2814 140.072 70.2814 140.072C70.2814 140.072 70.2813 140.072 70.2609 140.072C68.665 139.55 4.8082 118.834 4.8082 118.834C4.89004 112.379 5.27877 105.77 6.80306 99.4885L74.7519 121.535L139.12 100.645C139.12 100.645 140.532 112.778 140 117.442" fill="#B49164"/>
</svg>
