<svg width="1080" height="1080" viewBox="0 0 1080 1080" fill="none" xmlns="http://www.w3.org/2000/svg">
<path d="M918.4 309.6L953.4 327.1L636.6 999L635.9 1000.4L637.1 1001.4L638.8 1002.8L625.9 1023.3L595.2 1012.4L590 1001L589.2 999.3L587.4 1000L573 1005.8L563.1 981.8L562.6 980.6H561.3H499.4H497.4V982.6V1011.1C497.4 1013.6 495.4 1015.6 492.9 1015.6H460.7C458.2 1015.6 456.2 1013.6 456.2 1011.1V985.6V983.6H454.2H428.3H427.5L426.9 984.2L426 985.1H414.1V983.5V981.5H412.1H387.7V980.5V978.5H385.7H367H365V980.5V982.1H358.9H356.9V984.1V984.6H333.5V979.5V978.7L332.9 978.1L322.8 968L321.6 966.8L320.2 967.8L317.5 969.8L311.1 963.9L272.5 925.3L277.6 920.6L279 919.3L277.8 917.8L274.2 913.3V896.7H276.3H278.3V894.7V884.6V883.8L277.7 883.2L276 881.5L268.6 569.8L270.7 567.3L272 565.7L270.4 564.4L265.5 560.4L310.3 514L311.1 514.8L312.4 516.1L313.8 515L318.6 511.2L325.2 516.5L326.6 517.6L327.9 516.3L334.9 509.4L335.5 508.8V508V506.1L341.5 506H343.5V504V497.9H402H404V495.9V493.6H421.1V493.9V495.9H423.1H437.6H439.6V493.9V493.1H457.2V494.9H459.2H473.7H475.7V492.9V492.1H480.3H482.3V490.1V465C482.3 462.5 484.3 460.5 486.8 460.5H519.5C522 460.5 524 462.5 524 465V490V492H526H565.1V493.3H567.1H582.8H584.8V491.3V491H600.6V491.9V493.9H602.6L662.8 494.6V497.8V500L665 499.8L670.2 499.3V501.1V501.9L670.8 502.5L677.4 509.1L678.8 510.5L680.2 509.1L687.2 502.1L691.6 506.5L693 507.9L694.4 506.5L696 504.9L731.7 540.6L730.6 541.7L729.2 543.1L730.6 544.5L737.8 551.7L732.1 557.4L730.7 558.8L732.1 560.2L737.2 565.3L737.9 566L738.9 565.8L740.6 565.5V583.6V585.6H742.6H773H774.4L774.9 584.3L779 572.6L779.5 571.1L778.2 570.2L768.7 563.8L793.6 510.2C794 509.2 795 508.6 796 508.6C796.4 508.6 796.9 508.7 797.3 508.9L816.8 519.3L818.6 520.3L819.5 518.4L918.4 309.6ZM917.5 306.9L817.6 517.9L798.1 507.5C797.4 507.1 796.6 507 795.9 507C794.1 507 792.4 508 791.6 509.7L766 564.8L776.9 572.2L772.8 583.9H742.4V563.4L738.3 564.2L733.2 559.1L740.3 552L731.7 543.4L734.2 540.9L695.6 502.3L692.6 505.3L686.8 499.5L678.4 507.9L671.8 501.3V497.2L664.4 498V492.8L602.3 492V489H582.5V491.3H566.8V490H525.7V465C525.7 461.4 522.8 458.5 519.2 458.5H486.5C482.9 458.5 480 461.4 480 465V490.2H473.4V493H458.9V491.2H437.3V494H422.8V491.7H402V496H341.4V504.1L333.4 504.2V508.1L326.4 515L318.5 508.7L312.4 513.5L310.1 511.2L262.4 560.7L269 566L266.4 569L273.8 882.3L276.1 884.6V894.7H272V914L276.1 919.1L269.5 925.2L309.6 965.3L317.2 972.4L321.3 969.4L331.4 979.5V986.6H358.8V984.1H366.9V980.5H385.7V983.5H412.1V987.1H426.8L428.3 985.6H454.2V1011.1C454.2 1014.7 457.1 1017.6 460.7 1017.6H493C496.6 1017.6 499.5 1014.7 499.5 1011.1V982.6H561.4L572.1 1008.5L588.3 1001.9L593.9 1014.1L626.9 1025.8L641.6 1002.5L638.6 1000L956 326.1L917.5 306.9Z" fill="#353635"/>
<path d="M555 523.3L578.4 529.6V536.4V537.6L579.4 538.2L587.7 543L577.5 576.5L577.4 576.8V577.1V599.6L510.6 597V576.4L554.4 531.8L555 531.2V530.4V523.3ZM553 520.7V530.3L508.6 575.5V598.8L579.4 601.6V577L590.1 542L580.5 536.4V528L553 520.7Z" fill="#353635"/>
<path d="M411.9 609L412.7 618.6L412.9 620.7L415 620.4L481.3 610.5L674.9 618.4L677 618.5V616.4V614.4C677 612.9 678.2 611.7 679.7 611.7C679.8 611.7 679.8 611.7 679.9 611.7L685.6 612.2V619H682H680V621V634.7V636.7H682H688.1V657.2L687.2 658.1L686.6 658.7V659.5V716.8V718L687.7 718.6L692.7 721.1V730.8L691.8 731.3L690.7 731.9V733.1V753.4V754.1L691.2 754.7L696.3 760.7L695.6 777.4L688.8 787.8L688.5 788.3V788.9V802.4L658.1 841.4H648.4H646.4V843.4V846.2L635.7 847.5V845.4V843.4H633.7H624.8H622.8V845.4V848L595 857.3L594.9 857.1L594.4 855.7L592.9 855.8L568 857.3L566.1 857.4V859.3V865.7H536.7L536.3 864.2L535.9 862.6H534.3L507.7 863.4H506.2L505.8 864.8L505.2 866.9H492.5L492 862.6L491.8 860.8H490H456.5H455.4L454.8 861.7L452.6 864.9H445.5L444.3 862.7L443.7 861.6H442.5H411.3L402 857L401.4 852.7L401.2 851.1L399.6 851L378 849.7H377.5L377.1 849.9L372.7 851.8H366.2V848.2V846.2H364.2H357.3L357.9 840L358 839.3L357.6 838.7L349.4 827.3V815.4L352.2 809.1L352.4 808.7V808.3L349 660.3L351.7 652.5L352 651.6L351.5 650.8L349 646.9L351.2 642.1L354.1 642.4L355.7 642.6L356.2 641.1L360 629.6L382.4 630.3H382.7L383 630.2L406.3 623.9L407.9 623.5L407.8 621.9L407.1 609.8L411.9 609ZM374.3 805.3H376.4L662 805H664V803L665 630.8V628.7H662.9L380.6 634.5H378.7V636.4L374.4 803.1L374.3 805.3ZM413.7 606.7L405.1 608L405.9 622L382.6 628.3L358.8 627.5L354.5 640.4L350.2 639.9L346.9 647L349.9 651.8L347 660L350.2 808.3L347.3 815V827.9L355.9 839.8L355.1 848.2H364.2V853.8H373.1L377.9 851.8L399.5 853.1L400.3 858.4L411 863.7H442.7L444.5 867H453.9L456.7 862.9H490L490.8 869H506.8L507.8 865.4L534.4 864.6L535.2 867.6H568.2V859.2L593.1 857.7L593.9 859.7L624.8 849.3V845.2H633.7V849.5L648.4 847.7V843.1H659L690.5 802.8V788.6L697.6 777.7L698.4 759.7L692.8 753.1V733L694.8 732V719.8L688.7 716.8V659.5L690.2 658V634.7H682.1V621H687.7V610.3L680.1 609.7C680 609.7 679.8 609.7 679.7 609.7C677.1 609.7 675 611.8 675 614.4V616.4L481.2 608.5L414.7 618.4L413.7 606.7ZM663 630.8L662 803L376.4 803.3L380.7 636.6L663 630.8Z" fill="#353635"/>
<path d="M340 742.5L341.2 793.7L323 790V787.5V785.5H321H308.2V770.5V768.5H306.2H296.6H294.6V770.5V772.9H291.4V760.3H293.7V761.4V763.4H295.7H306H308V761.4V742.9L340 742.5ZM342 740.5L306 740.7V761.2H295.7V758.1H289.4V774.7H296.6V770.3H306.2V787.3H321V791.4L343.3 796L342 740.5Z" fill="#353635"/>
<path d="M662 669.1L661.3 802.6H436.5L437.2 669.1H662ZM438.1 799.2H440.1H610.1H612.1V797.2V672.9V670.9H610.1H440.1H438.1V672.9V797.2V799.2ZM664.1 667.1H435.3L434.5 804.6H663.3L664.1 667.1ZM440.1 797.2V672.9H610.1V797.2H440.1Z" fill="#353635"/>
<path d="M512.3 731.4H497V749.6H512.3V731.4Z" fill="#353635"/>
<path d="M501.6 700.6C509.4 700.6 517 703.2 523 707.9V717.1V719.1H525H544V744.8H541.6H539.6V746.8V751.2H533H531.8L531.2 752.2C525.2 762.7 513.8 769.2 501.6 769.2C482.7 769.2 467.4 753.9 467.4 735C467.4 716.1 482.8 700.6 501.6 700.6ZM501.6 698.6C481.6 698.6 465.4 714.8 465.4 734.8C465.4 754.8 481.6 771 501.6 771C515 771 526.7 763.9 533 753H541.5V746.6H545.9V717H524.9V706.9C518.7 701.7 510.4 698.6 501.6 698.6Z" fill="#353635"/>
<path d="M383.8 982.6V983.6V985.6H385.8H410.2V987.2V989.2H412.2H426.9H427.7L428.3 988.6L429.2 987.7H452.2V1009.3H449.1H448.3L447.7 1009.9L447.5 1010.1H444.2V1005.5V1003.5H442.2H423.9H422.6L422.1 1004.7L416.8 1017.6L358 994.2V992.5V990.5H356.2V988.7H358.8H360.8V986.7V986.2H366.9H368.9V984.2V982.6H383.8ZM385.8 980.6H367V984.2H358.9V986.7H354.3V987.2V992.5H356.1V995.5L418 1020.1L424.1 1005.4H442.4V1012H448.5L449.3 1011.2H454.4V1011.1V985.6H428.5L427 987.1H412.3V983.5H385.9V980.6H385.8Z" fill="#353635"/>
<path d="M559.9 984.6L564.1 995.6L560.1 997.6H530.1H528.1V999.6V1008H526V1007H524H510.6H508.6V1008.8H501.4V984.6H559.9ZM561.3 982.6H499.4V1010.8H510.6V1009H524V1010H530.1V999.6H560.5L566.6 996.6L561.3 982.6Z" fill="#353635"/>
<path d="M329 505.8L295.2 459.4L294.3 460.1L296.1 462.9L285.7 471.2L282.1 466.7L278 466.5L269.6 471.9L236.1 426.4L232 428.4L208.6 396.7L211.9 394.2L150.1 311.5L147.6 314.3L121.9 280.5L125.2 278.5L88.9 229.2L81.8 235L70 218.9L80.2 210.3L65 189.3L70.1 184.7L68.1 181.4L74.6 175.5L77.7 177.3L95 164.3L93.5 161.5L100.5 156.1L103.3 159.6L106.9 156.5L128.1 185.6L185.8 158L186.3 155.8L190.6 153.2L190.1 150.9L228.4 131.6L230.2 134.4L234.2 132.2L237.5 132.7L293.6 103.1L283.4 68.9L287.3 67.7L285.5 63.6L295 61.4L297 64.7L317.6 59L317.3 53.9L325.4 52L326.4 56.1L331.3 55.3L336.9 81.3L435 80.1V65.4H443.4V48.9H459.1V50.9L520.5 48.9V46.3H537.7V62H546.3V75.4L642.7 73.2L649.6 45.9L653.9 46.6V43.2L662.4 43.5L663.2 48.5L684.7 53.7L685.7 50.8L694.2 51.1L693.2 56.3L697 57.1L688.6 92L752.9 120.1L755.9 117.1L795.5 133.1L795 138.4L858.5 165.2L878.9 135.9L882 138L884.8 134.4L891.7 139.1L890.9 142.9L906.6 154H909.3L912.1 152.6L918.9 156.5L916.1 160.3L922.7 164.3L907.7 186.9L918.9 194.3L910.7 205.6L913.4 208.3L908.1 216.9L906 216.7L906.4 218.9L897.8 231.6H896.2L896.8 234.6L891.2 242.6L880.6 236L787.3 377.3L790.3 379.8L768.2 414.4L764.6 411.9L733.2 460.6L720.8 452.8L716.7 459.7L707 452.4L708.8 449.4L708.1 448.9L687.6 476L677.9 469.3L694.6 444.9L686.2 439.1L688.4 432.6L687.5 428.8L660.6 415.5L659.6 417.2L639.7 408.9L640.2 406.7L613.1 397.4L611.9 399.3L609.2 399.1L608.4 403.6L598.8 401L599.8 397L595.4 396L588.8 430.1L577.1 426.7L584.3 393.4L582.1 392.9L581.1 397.1L573 395.8L572.7 389.6L569.4 386.6L527.4 382.4L527.2 384.8H523.9L523.6 387.3L473.5 388.6V385.8H469.4V384.4L427.5 390.9V394.3H425.5L426.4 398.6L416.3 401.4L415.5 397.9L414.2 398.3L423.4 430.4L412.6 433.5L402.5 401.8L399.8 402.6L400.3 406.6L391.1 410L388.6 404.7L384.3 403.2L358.3 414.3L357.8 417.1L339.3 426.2L337.3 425L312.8 440L311.8 443.2L315.6 448.4L307.6 454.5L338.9 498L329 505.8ZM295.6 456.5L329.4 502.9L336.5 497.3L305.1 453.8L313.1 447.7L309.8 443.3L311.3 438.4L337.5 422.4L339.6 423.7L356.2 415.5L356.7 412.7L384.4 400.9L390.2 402.9L392.3 407.3L398.3 405.1L397.8 401L404 399.2L414.1 430.9L421.1 428.9L411.9 396.8L417.2 395.3L418 398.9L424.2 397.2L423.1 392.3H425.6V389.1L471.5 381.9V383.6H475.6V386.4L521.9 385.2L522.2 382.6H525.5L525.8 380L570.5 384.4L574.9 388.5L575.1 393.9L579.7 394.6L580.7 390.2L586.8 391.6L579.6 425L587.4 427.3L594 393.3L602.5 395.2L601.5 399.3L607.1 400.8L607.8 396.7L611.1 397L612.5 394.8L642.8 405.2L642.3 407.5L659 414.4L660 412.6L689.4 427.2L690.6 432.5L688.7 438.1L697.5 444.1L680.8 468.5L687.3 473L707.5 445.9L711.2 448.6L709.4 451.7L715.9 456.6L719.9 449.8L732.4 457.7L763.9 408.9L767.4 411.4L787.4 380.1L784.3 377.6L879.7 233.2L890.4 239.8L894.4 234.1L893.5 229.5H896.5L904.1 218.3L903.4 214.4L906.9 214.7L910.7 208.5L907.9 205.7L915.9 194.7L904.8 187.4L919.7 164.9L913 161L915.8 157.2L911.9 155L909.6 156.1H905.7L888.5 144L889.3 140.2L885 137.3L882.2 140.8L879.2 138.8L859 167.8L792.6 139.8L793.1 134.5L756.1 119.6L753 122.7L686 93.4L694.3 58.8L690.5 58L691.5 53.1L686.8 52.9L685.7 56.1L661.1 50.1L660.4 45.4L655.7 45.2V48.9L650.9 48.1L644.1 75.1H643.3L544.1 77.4V64.1H535.5V48.4H522.3V50.9L456.8 53V50.9H445.1V67.4H436.7V81.8L335 83.1L329.4 57.4L324.6 58.2L323.6 54.2L319 55.3L319.3 60.3L295.7 66.8L293.7 63.5L288 64.8L289.7 68.8L285.5 70.1L295.6 103.9L237.5 134.6L234.2 134.1L229.1 136.9L227.3 134.1L192 151.9L192.5 154.1L187.7 157L187.2 159.3L127.2 188L106.3 159.3L102.8 162.3L100 158.7L95.9 161.9L97.4 164.7L77.7 179.6L74.7 177.9L70.5 181.7L72.5 185L67.5 189.5L82.7 210.6L72.6 219.2L82.1 232.1L89.2 226.3L128 279L124.7 281L147.7 311.1L150.2 308.3L214.7 394.5L211.4 397L232.6 425.7L236.7 423.7L270.1 469L277.4 464.3L283 464.6L286 468.2L293.4 462.3L291.6 459.5L295.6 456.5Z" fill="#353635"/>
<path d="M768.5 164.8L770.9 166.2C772 166.9 773.3 167.2 774.6 167.2C776.4 167.2 778.2 166.5 779.5 165.3L834.2 194.1L814.7 229.9C814.6 230.1 814.4 230.2 814.2 230.2C814.2 230.2 814.2 230.2 814.1 230.2L812.6 230C812.4 230 812.3 230 812.1 230C810.7 230 809.3 230.7 808.6 232L796.5 251.3C795.6 252.8 795.6 254.7 796.5 256.2L797.3 257.5C797.4 257.7 797.4 258 797.3 258.2L776 291C775.9 291.2 775.7 291.2 775.6 291.2C775.5 291.2 775.5 291.2 775.4 291.2L774.3 290.6L772.7 289.8L771.7 291.4L759.2 311.7C758 313.6 758 315.9 759.2 317.8L759.8 318.8L739.2 351.8H736.3H735.2L734.6 352.7L720 374.1C719.5 374.8 719.4 375.6 719.5 376.4C719.7 377.2 720.2 377.9 720.9 378.3L722.3 379.2L699.6 414.8C699.6 414.9 699.5 414.9 699.5 414.9H699.4L697.1 413.6C697 413.6 697 413.5 697 413.5L697.1 411.8C697.2 409.7 696 407.8 694.2 406.8L672.7 395.4L672.2 395.1H671.6L667.6 395.4L684 363.5C684.9 361.8 684.5 359.7 683 358.5C682.9 358.4 682.8 358.3 682.9 358.1C682.9 358 683.1 357.9 683.2 357.8L684.6 357.7L685.9 357.6L686.4 356.4L696.1 332.6L696.4 331.9L696.2 331.2L696 330.7C695.7 329.6 696.2 328.5 697.3 328.1L697.7 328L698.5 327.7L698.8 326.9L712.1 296.5L712.4 295.8L712.1 295L711.9 294.3C711.5 293.3 711.9 292.2 712.9 291.7L713.9 291.1L714.5 290.8L714.8 290.1L724.7 266.1L725 265.4L724.8 264.7C724.5 263.6 725.1 262.5 726.1 262.1L726.3 262L727.2 261.7L727.6 260.9L741.1 229.1L741.5 228.2L741 227.3C740.8 226.9 740.8 226.6 740.9 226.4C740.9 226.2 741.1 225.9 741.5 225.7L742.3 225.3L743 225L743.3 224.3L753.8 200.1L754 199.5L753.9 198.9L753.6 197.5C753.5 197.1 753.7 196.8 753.8 196.6C753.9 196.4 754.2 196.2 754.6 196.2H755.2L756.5 196.1L757 194.9L768.5 164.8ZM768.4 162.7C767.6 162.7 766.9 163.2 766.6 164L755.1 194.6H754.5C752.6 194.7 751.3 196.4 751.6 198.3L751.9 199.7L741.4 223.9L740.6 224.3C739 225.1 738.4 227.1 739.3 228.6L725.8 260.4L725.6 260.5C723.5 261.2 722.3 263.4 723 265.6L713.1 289.6L712.1 290.2C710.3 291.2 709.5 293.3 710.2 295.3L710.4 296L697 326.2L696.6 326.3C694.6 327.1 693.5 329.3 694.2 331.4L694.4 331.9L684.7 355.7L683.3 355.8C682.3 355.9 681.5 356.5 681.2 357.5C680.9 358.4 681.2 359.4 681.9 360C682.6 360.6 682.9 361.7 682.4 362.6L665.3 395.8C664.9 396.6 665.5 397.5 666.3 397.5H666.4L671.9 397.1L693.4 408.5C694.6 409.1 695.3 410.3 695.2 411.7L695.1 413.4C695.1 414.2 695.5 415 696.2 415.4L698.5 416.7C698.8 416.9 699.2 417 699.6 417C700.3 417 701 416.6 701.4 416L724.6 379.6C724.9 379.1 724.8 378.5 724.3 378.2L722 376.8C721.5 376.5 721.4 375.8 721.7 375.3L736.3 353.9H740.4L762.2 318.9L760.9 316.9C760.1 315.7 760.1 314.1 760.9 312.9L773.4 292.6L774.5 293.2C774.8 293.4 775.2 293.5 775.6 293.5C776.4 293.5 777.2 293.1 777.6 292.4L798.9 259.6C799.5 258.7 799.5 257.7 798.9 256.8L798.1 255.5C797.6 254.7 797.6 253.6 798.1 252.7L810.2 233.4C810.6 232.8 811.3 232.4 812 232.4C812.1 232.4 812.2 232.4 812.2 232.4L813.7 232.6C813.8 232.6 813.9 232.6 814 232.6C814.9 232.6 815.8 232.1 816.2 231.3L835.7 195.5C836.2 194.5 835.9 193.4 834.9 192.8L779 162.8L778.7 163.2C777.7 164.5 776.1 165.2 774.6 165.2C773.7 165.2 772.8 165 771.9 164.5L769.5 163.1C769.1 162.8 768.8 162.7 768.4 162.7Z" fill="#353635"/>
<path d="M682 128.8L739.3 148L739 149.8C738.7 151.5 739.7 153.1 741.2 153.7L749.3 156.8L736.3 184.9L736 185.5L736.1 186.1L736.7 189.1C736.7 189.3 736.6 189.5 736.6 189.6C736.5 189.7 736.4 189.8 736.2 189.8H735.7H734.4L733.9 191L723.6 214.4L723.4 214.8V215.3L723.6 219.3C723.6 219.6 723.4 219.8 723.1 219.9L722 220.1L721.6 221.1L708 251.8L707.8 252.3L707.9 252.8L708.2 254.9C708.2 255 708.2 255.1 708.1 255.2C708.1 255.3 708 255.3 707.8 255.3H706.5L706 256.5L695 281.1L694.8 281.5V282L695 285.4C695 285.5 695 285.6 694.9 285.7C694.9 285.8 694.8 285.8 694.6 285.8H694L692.6 285.7L692.1 287L679.5 316.9L679.3 317.3V317.8L679.5 322.2C679.5 322.3 679.5 322.4 679.4 322.5C679.4 322.6 679.3 322.6 679.1 322.6H678.6H677.3L676.8 323.8L666.1 347.4L665.9 347.9L666 348.5L666.4 351.1V351.2L666.3 351.3L664.9 351.2L663.4 351.1L662.9 352.6L650 388L649.1 385.5L648.8 384.6L647.9 384.3L620.1 374.4L618.7 373.9L617.8 375L615.8 377.6L614.5 377.5L625 337.5L626.5 337.8L628.4 338.2L628.9 336.4L636.5 308.6L636.9 307.1L635.5 306.3L633.4 305.2L642.8 269.9C642.9 269.5 643.2 269.1 643.6 268.9L646.3 267.7L647.2 267.3L647.4 266.4L654.2 239.4L654.5 238.2L653.6 237.4L652.6 236.5C652.2 236.1 652 235.6 652.2 235.1L662 199.5C662.2 198.9 662.6 198.5 663.2 198.5L664.7 198.4L666 198.3L666.4 197L674 170.7L674.4 169.2L673 168.4L671 167.3L682 128.8ZM681.7 126.7C681 126.7 680.4 127.1 680.2 127.8L669.3 166.6C669.1 167.5 669.4 168.4 670.2 168.8L672.3 170L664.7 196.3L663.2 196.4C661.8 196.5 660.6 197.5 660.3 198.9L650.5 234.5C650.1 235.8 650.6 237.1 651.6 238L652.6 238.9L645.8 265.9L643.1 267.1C642.1 267.5 641.4 268.4 641.2 269.4L631.7 304.8C631.5 305.6 631.8 306.5 632.6 306.9L634.8 308.1L627.2 335.9L623.8 335.1L612.7 377.3C612.4 378.3 613.2 379.4 614.2 379.4L616.9 379.6L619.6 376.2L647.4 386.1L648.6 389.5C648.8 390 649.2 390.3 649.6 390.5C649.8 390.6 649.9 390.6 650.1 390.6C650.8 390.6 651.4 390.2 651.7 389.5L664.9 353L666.3 353.1C666.4 353.1 666.4 353.1 666.5 353.1C667.8 353.1 668.8 351.9 668.7 350.6L668.3 348L679 324.4H679.5C680.9 324.4 681.9 323.3 681.9 321.9L681.7 317.5L694.3 287.6H694.9H695C696.4 287.6 697.4 286.5 697.4 285.1L697.2 281.7L708 257.2C709.4 257.2 710.5 256 710.3 254.6L710 252.5L723.7 221.9C725 221.7 725.9 220.5 725.8 219.2L725.6 215.2L735.9 191.8H736.4C738 191.8 739.2 190.3 738.9 188.8L738.3 185.8L751.5 157.2C751.9 156.4 751.5 155.5 750.7 155.1L742.2 151.8C741.5 151.5 741.1 150.8 741.2 150.1L741.5 148C741.6 147.2 741.1 146.4 740.4 146.1L682.4 126.7C682 126.7 681.9 126.7 681.7 126.7Z" fill="#353635"/>
<path d="M537.4 103.7C537.9 103.7 538.3 104.1 538.5 104.5L538.7 105.4L539.1 106.8L540.5 106.9L551.2 107.7L552.4 107.8L553 106.8L553.3 106.3C553.6 105.9 554 105.8 554.2 105.8C554.4 105.8 554.8 105.9 555 106.2L555.5 106.9L556.3 107L628.3 116.1C628.7 116.2 629 116.4 629.1 116.6C629.2 116.8 629.4 117.1 629.3 117.5L622.3 155.2L620.1 154.8L618.2 154.5L617.8 156.4L611.7 182.7L611.3 184.5L613.1 185L615.1 185.6L606.7 225.8L605.5 225.6L603.7 225.4L603.3 227.2L597.2 254.2L596.9 255.5L597.9 256.3L599.9 257.8L576.6 368.6L575.5 368.5L574.4 365.2L574 364L572.7 363.9L543.8 360.5L542.8 360.4L542.1 361.2L541.2 362.2L540.7 361.4L540.1 360.5H539H523.4H521.4V362.4H519C518.5 362.4 518.2 362 518.2 361.6V358.1H519.2H521.2V356.1V324.9V323.1L519.4 322.9L518 322.8C517.7 322.8 517.5 322.5 517.5 322.2L517.6 319.8C517.6 319.5 517.9 319.3 518.1 319.3H522.5H524.4L524.5 317.4L536.5 104.7C536.8 104 537.1 103.7 537.4 103.7ZM537.4 101.7C536 101.7 534.8 102.8 534.8 104.2L522.8 316.9H518.4C517 316.9 515.9 318 515.9 319.3L515.8 321.7C515.7 323.1 516.7 324.2 518.1 324.4L519.5 324.5V355.7H516.5V361.2C516.5 362.8 517.8 364 519.3 364H523.7V362.1H539.3L540 363.2C540.3 363.7 540.9 364 541.5 364C542 364 542.5 363.8 542.8 363.4L543.9 362.1L572.8 365.5L574.3 370.1L578.5 370.5L602.5 256.7L599.5 254.4L605.6 227.4L608.6 227.8L617.7 184L613.9 182.9L620 156.6L624.2 157.4L631.6 117.7C631.9 115.9 630.7 114.2 628.9 114L556.9 104.9C556.3 104.1 555.4 103.7 554.5 103.7C553.5 103.7 552.5 104.2 551.9 105.1L551.6 105.6L540.9 104.8L540.7 103.9C540.4 102.6 539.3 101.6 537.9 101.5C537.6 101.7 537.5 101.7 537.4 101.7Z" fill="#353635"/>
<path d="M444 105.8C444.3 105.8 444.5 106 444.5 106.3L469 318.3L469.2 320.2L471.1 320.1L475.4 319.9H475.5C476.5 319.9 477.4 320.8 477.4 321.8C477.4 322.9 476.5 323.7 475.5 323.7H475.2H473.1L473.2 325.8L474.3 357V358.3L475.5 358.8L477.2 359.5C477.7 359.7 477.9 360.1 477.9 360.6L477.8 361.5C477.8 362 477.4 362.5 476.8 362.6C476.7 362.6 476.7 362.6 476.6 362.6C476.1 362.6 475.6 362.2 475.5 361.7L475.4 361.4L475 359.8L473.3 359.9L457.3 361L456.4 361.1L455.9 361.8L455.4 362.5C455.2 362.8 454.9 362.8 454.7 362.8C454.6 362.8 454.4 362.8 454.2 362.6L453.5 362L452.6 362.2L422.5 367.5L421 367.8L420.9 369.3L420.7 372.1C420.7 372.4 420.4 372.7 420.1 372.8H420C419.7 372.8 419.4 372.6 419.3 372.3L389.6 262.7C391.5 262 392.6 260 392.1 258L386.6 235.7C386.1 233.5 384.2 231.9 382 231.8C381.5 231.8 381.1 231.4 380.9 230.9L371.6 194.2C373.1 193.5 373.9 191.9 373.5 190.3L367.5 165.5C367 163.4 365.1 161.9 363 161.9C362.7 161.9 362.4 161.7 362.3 161.4L353 125.1C352.8 124.4 352.9 123.8 353.3 123.2C353.7 122.6 354.3 122.3 354.9 122.1L423.9 111.4L424.7 111.3L425.2 110.6C425.6 110 426.4 109.6 427.1 109.6C427.5 109.6 428 109.7 428.6 110.1L428.8 110.2L429.4 110.7L430.2 110.6L436.3 110.1C438.7 109.9 441 108.7 442.6 106.8L443.4 105.9C443.8 105.9 443.9 105.8 444 105.8ZM444 103.8C443.2 103.8 442.5 104.1 442.1 104.7L441.3 105.6C440.1 107.1 438.3 108 436.4 108.2L430.3 108.7L430.1 108.6C429.3 108 428.3 107.6 427.4 107.6C426 107.6 424.7 108.2 423.8 109.5L354.8 120.2C352.2 120.6 350.6 123.1 351.2 125.6L360.5 161.9C360.8 163.1 361.9 163.9 363.1 163.9C364.3 163.9 365.4 164.7 365.7 165.9L371.7 190.7C371.9 191.4 371.4 192.2 370.7 192.4C370 192.6 369.5 193.4 369.7 194.1L379.1 231.2C379.4 232.5 380.6 233.5 381.9 233.6C383.3 233.7 384.4 234.7 384.7 236L390.2 258.3C390.4 259.3 389.9 260.3 388.9 260.6C387.9 260.9 387.4 262 387.6 262.9L417.3 372.5C417.6 373.7 418.7 374.5 419.9 374.5C420 374.5 420.2 374.5 420.4 374.5C421.6 374.3 422.6 373.3 422.7 372L422.9 369.2L453 363.9C453.5 364.3 454.2 364.6 454.8 364.6C455.7 364.6 456.5 364.2 457.1 363.5L457.6 362.8L473.6 361.7L473.7 362C474.1 363.4 475.3 364.4 476.7 364.4C476.8 364.4 477 364.4 477.1 364.4C478.6 364.2 479.7 363 479.8 361.5L479.9 360.6C480 359.2 479.2 358 477.9 357.5L476.2 356.8L475.1 325.6H475.4C477.6 325.6 479.3 323.9 479.3 321.7C479.3 319.5 477.5 317.8 475.4 317.8C475.3 317.8 475.3 317.8 475.2 317.8L471 318L446.5 106C446.4 104.8 445.3 103.8 444 103.8Z" fill="#353635"/>
<path d="M300.1 139.2C300.7 139.2 301.2 139.6 301.4 140.1L314.3 177.1V177.2L313.6 178.1C312.7 179.2 312.4 180.6 312.8 182L320 204.5C320.5 206.2 322.1 207.4 323.9 207.4C323.9 207.4 324 207.4 324 207.5L336.9 246C336.9 246.1 336.9 246.2 336.9 246.3L336 248.5C335.6 249.5 335.6 250.5 335.9 251.5L343 272.8C343.6 274.6 345.3 275.8 347.2 275.8C347.3 275.8 347.5 275.8 347.7 275.8C347.9 275.8 348 275.9 348.1 276.1L382.7 383.6C382.7 383.7 382.7 383.8 382.6 383.9L381.5 384.4H381.4C381.4 384.4 381.3 384.4 381.2 384.3L380.4 383L379.5 381.6L378 382.2L349.5 392.9L347.7 393.6L348.3 395.4L349.1 397.9C349.1 397.9 349.1 397.9 349.1 398L349 398.1L347.9 398.4C347.9 398.4 347.8 398.4 347.8 398.3L332.6 361.3L331.9 359.6L330.2 360.1H330.1C330 360.1 329.8 360 329.7 359.9C329.6 359.8 329.6 359.7 329.6 359.5L329.7 358.9L329.8 358.2L329.4 357.6L316.2 336.2C315.2 334.5 314.8 332.5 315.2 330.5L315.3 329.8L315 329.2L300.2 298L299.8 297.1L298.8 296.9L297.2 296.6C297.2 296.6 297.1 296.6 297.1 296.5C297.1 296.4 297.1 296.4 297.1 296.3L297.7 294.6L298 293.8L297.6 293L285.4 268.6L284.8 267.4L283.4 267.5C283.3 267.5 283.3 267.5 283.2 267.4C283.1 267.3 283.2 267.2 283.2 267.2L283.5 266.5L283.9 265.6L283.4 264.7L267 233.5L266.4 232.4H265.2H265C265 232.4 264.9 232.4 264.8 232.3C264.7 232.2 264.8 232.1 264.8 232.1L265.2 230.7L265.4 230L265.1 229.3L253.7 205.7L253.3 204.9L252.5 204.6L250.4 204C250.3 204 250.3 203.9 250.3 203.8L250.6 200.2V199.6L250.3 199.1L235.9 172.1C235.8 171.9 235.8 171.7 235.9 171.6C235.9 171.5 236 171.3 236.2 171.2L239.5 169.5C241.7 168.4 242.8 165.8 242.1 163.4C241.9 162.8 242.2 162.2 242.8 161.9L299.6 139.2C299.7 139.2 299.9 139.2 300.1 139.2ZM300.1 137.2C299.7 137.2 299.3 137.3 298.9 137.4L242 160.2C240.5 160.8 239.6 162.5 240.1 164.1C240.5 165.6 239.8 167.1 238.5 167.8L235.2 169.5C233.9 170.2 233.4 171.8 234.1 173L248.5 200L248.2 203.6C248.1 204.6 248.8 205.6 249.8 205.9L251.9 206.5L263.3 230.1L262.9 231.5C262.5 232.9 263.6 234.3 265 234.3H265.2L281.6 265.5L281.3 266.2C280.6 267.7 281.7 269.3 283.3 269.3C283.4 269.3 283.5 269.3 283.5 269.3L295.7 293.7L295.1 295.4C294.6 296.7 295.4 298.1 296.8 298.3L298.4 298.6L313.2 329.8C312.7 332.2 313.2 334.8 314.5 336.9L327.7 358.3L327.6 358.9C327.3 360.5 328.6 361.8 330 361.8C330.2 361.8 330.5 361.8 330.7 361.7L345.9 398.7C346.2 399.5 347 400 347.9 400C348.1 400 348.3 400 348.5 399.9L349.5 399.6C350.6 399.3 351.3 398 350.9 396.9L350.1 394.4L378.6 383.7L379.4 385C379.8 385.7 380.5 386 381.3 386C381.6 386 382 385.9 382.3 385.8L383.4 385.3C384.4 384.8 384.9 383.7 384.5 382.6L349.9 275.1C349.6 274.1 348.7 273.4 347.6 273.4C347.5 273.4 347.4 273.4 347.4 273.4C347.3 273.4 347.2 273.4 347.2 273.4C346.2 273.4 345.3 272.8 344.9 271.8L337.8 250.5C337.6 250 337.6 249.4 337.8 248.9L338.7 246.7C338.9 246.2 338.9 245.6 338.7 245.1L325.8 206.6C325.5 205.7 324.7 205.2 323.8 205.2C322.9 205.2 322.1 204.6 321.8 203.7L314.6 181.2C314.4 180.5 314.5 179.7 315 179.2L315.7 178.3C316.2 177.7 316.3 176.9 316.1 176.2L303.2 139.2C302.7 138.1 301.4 137.2 300.1 137.2Z" fill="#353635"/>
<path d="M207.1 179.5C207.5 179.5 207.8 179.7 208.1 180C209.1 181.3 210.6 182.1 212.3 182.1C213.1 182.1 213.8 181.9 214.5 181.6L217.9 180C218 180 218.1 179.9 218.2 179.9C218.4 179.9 218.6 180 218.8 180.3L231.7 208L231.9 208.5L232.4 208.8L235.4 210.7C235.5 210.8 235.5 210.8 235.5 210.9L234.7 213L234.4 213.8L234.8 214.6L246.8 237.9L247.1 238.6L247.8 238.9L249.2 239.4C249.2 239.4 249.3 239.4 249.3 239.5C249.3 239.6 249.3 239.7 249.3 239.7L249.2 239.8L248.5 240.8L249 241.9L264.1 273.7L264.5 274.6L265.5 274.8L266.3 275C266.3 275 266.4 275 266.4 275.1C266.4 275.2 266.4 275.3 266.4 275.3L265.5 276.3L266.1 277.5L278.2 301.9L278.6 302.7L279.4 303L281.2 303.5C281.2 303.5 281.3 303.5 281.3 303.6C281.3 303.7 281.3 303.7 281.3 303.8L280.6 305.3L280.1 306.2L280.6 307.1L296.6 337.7L296.9 338.3L297.5 338.6C299.3 339.5 300.7 341 301.4 342.8L310.6 366.2L310.9 366.9L311.6 367.2L312.2 367.5C312.4 367.6 312.4 367.8 312.5 367.9C312.5 368 312.5 368.2 312.3 368.3L310.8 369.4L311.7 371L332.1 405.5C332.1 405.6 332.1 405.6 332.1 405.7L331.2 406.3C331.2 406.3 331.2 406.3 331.1 406.3C331.1 406.3 331 406.3 331 406.2L329.5 404L328.4 402.4L326.8 403.4L301.1 419.8L299.7 420.7L300.3 422.2L300.9 423.7C300.9 423.8 300.9 423.9 300.8 424L299.7 424.5H299.6C299.6 424.5 299.5 424.5 299.4 424.4L234.4 332.1C234.3 332 234.3 331.8 234.4 331.6C235.8 330.1 236 327.8 234.8 326.1L222 307.6C221.4 306.7 220.5 306.1 219.5 305.9L217.2 305.3C217.1 305.3 217 305.2 217 305.1L194 271.8V271.7C195.1 270.3 195.1 268.3 194.1 266.9L180.4 247.6C179.6 246.5 178.4 245.9 177.1 245.9C177 245.9 176.9 245.9 176.8 245.9L175.7 246H175.6L153.8 213.4C153.6 213.1 153.5 212.7 153.6 212.4C153.7 212.1 153.9 211.7 154.2 211.5L206.5 179.8C206.7 179.5 206.9 179.5 207.1 179.5ZM207.1 177.5C206.5 177.5 206 177.7 205.4 178L153.1 209.7C151.5 210.7 151 212.8 152.1 214.4L173.9 247C174.3 247.6 174.9 247.9 175.6 247.9H175.7L176.8 247.8H176.9C177.6 247.8 178.2 248.1 178.6 248.7L192.3 268C192.8 268.7 192.8 269.7 192.3 270.5C191.8 271.2 191.7 272.2 192.2 272.9L215.1 306.4C215.4 306.9 215.9 307.2 216.4 307.4L218.7 308C219.2 308.1 219.7 308.5 220 308.9L232.8 327.4C233.4 328.3 233.3 329.5 232.6 330.4C231.8 331.2 231.8 332.5 232.4 333.4L297.4 425.7C297.8 426.3 298.5 426.6 299.2 426.6C299.5 426.6 299.9 426.5 300.2 426.4L301.3 425.9C302.3 425.4 302.8 424.2 302.4 423.1L301.8 421.6L327.5 405.2L329 407.4C329.4 408 330.1 408.3 330.7 408.3C331.1 408.3 331.6 408.2 331.9 407.9L332.8 407.3C333.7 406.7 333.9 405.4 333.4 404.5L313.2 370C314.7 368.9 314.5 366.7 312.9 365.8L312.3 365.5L303.1 342.1C302.2 339.8 300.4 337.9 298.2 336.8L282.2 306.2L282.9 304.7C283.5 303.5 282.9 302 281.6 301.6L279.8 301.1L267.7 276.7C268.9 275.5 268.2 273.4 266.6 273.1L265.8 272.9L250.7 241L250.8 240.9C251.7 239.7 251.2 238.1 249.9 237.5L248.5 237L236.5 213.7L237.3 211.6C237.7 210.6 237.3 209.5 236.4 209L233.4 207.1L220.5 179.4C220.1 178.5 219.1 177.9 218.1 177.9C217.7 177.9 217.3 178 217 178.2L213.6 179.8C213.2 180 212.7 180.1 212.2 180.1C211.2 180.1 210.3 179.6 209.6 178.8C209 177.9 208.1 177.5 207.1 177.5Z" fill="#353635"/>
<path d="M214.8 540.5C218.5 540.5 221.5 543.5 221.5 547.1V572.2V574.2H223.5H266.2L272 882.5V883.3L272.6 883.9L274.3 885.6V892.9H272.2H270.2V894.9V914.2V914.9L270.6 915.4L273.3 918.7H230.4H228.4V920.7V944C228.4 947.7 227.7 948.3 224 948.3H223.9H223.8L193.8 949.8C190.1 949.8 187.2 946.8 187.2 943.2V920.6V918.6H185.2H136.1L70.4 854.7V831.1V829.1H68.4H49.4V794.8V792.8H47.4H42.7L39.8 702.4H43.8H45.8V700.4V667.9H64.2H66.2V665.9V640.1L129.5 574.1H177.3H179.3V572.1V547C179.3 543.3 182.3 540.4 186 540.4H214.8M214.8 538.5H186C181.2 538.5 177.3 542.4 177.3 547.1V572.2H128.7L64.2 639.4V666H43.9V700.5H37.8L40.8 794.9H47.4V831.2H68.5V855.7L135.4 920.8H185.3V943.4C185.3 948.2 189.2 952 194 952L224 950.5C228.8 950.5 230.4 948.9 230.4 944.2V920.9H274.6L276.2 919.4L272.1 914.3V895H276.2V884.9L273.9 882.6L268.1 572.4H223.4V547.3C223.5 542.3 219.6 538.5 214.8 538.5Z" fill="#353635"/>
<path d="M774.3 585.6H740.6V565.3L738 565.9L731.1 559L737.4 551.9L728.7 543.2L731.2 540.7L695.6 504.3L692.6 507.3L686.8 501.5L678.4 510.6L670 502.2V499L663.4 499.8V494.5L601.3 493.7V490.8H583.5V493.1H565.8V491.8H524.7V465C524.7 462 522.2 459.5 519.2 459.5H486.5C483.5 459.5 481 462 481 465V492H474.4V494.8H457.9V493H438.3V495.8H421.8V493.5H403V497.8H343.1V505.2H334.5L334.6 509.4L326.6 517.4L318.3 510.8L312.8 515.4L307.4 510.4L315.7 502.6L318.2 504.8L320.3 502.8L315.7 497.9L320.6 493.3L329.4 503.7L339 496L326 476.8L333.2 471.7L338 472.1L359.3 461H362.2L385 450.1L386.5 451.2L407.6 440.9L405.5 434.2L433.4 425.3L434.6 431.8L466.5 431V432.5H483.9V430.2H493.7V431.3H510.9V429.2H520.9V431.3H528V430H537.7V428.5H545.4V432.1H566V431H570.7L571.7 423.6L598.8 430.5L597.6 437.8L618 446L622.6 444.9L631 448.4L630.3 450.6L643.9 455.4L647.7 454.3L655.6 457.3L655.2 459.9L669.4 465.5L674.5 464.3L694.3 478.7L689.3 485.9L692.4 488.2L690.1 491.3L767.9 564L779.6 571.7L774.3 585.6ZM742.7 583.6H773L777.1 572.5L766.5 565.5L765.2 564.3L687.3 491.5L689.5 488.6L686.5 486.4L691.4 479.3L674 466.6L669.2 467.7L653 461.3L653.4 458.7L647.6 456.5L643.8 457.6L627.7 451.9L628.5 449.6L622.4 447.1L617.8 448.2L595.5 439.1L596.6 432.1L573.5 426.2L572.6 433.1H568.2V434.4H543.6V430.8H539.9V432.3H530V433.6H518.9V431.5H512.9V433.6H491.7V432.5H485.9V434.8H464.5V433.3L432.9 434.1L431.8 428.2L408 435.8L410.1 442.3L386.3 453.8L384.8 452.7L362.7 463.3H359.9L338.6 474.4L333.9 474L328.9 477.5L341.4 496H401V491.7H424.1V494H436.6V491H460.2V492.8H472.7V490H479.3V465C479.3 460.9 482.7 457.5 486.8 457.5H519.5C523.6 457.5 527 460.9 527 465V489.7H568.1V491H581.8V488.7H603.6V491.6L665.7 492.4V497.5L672.3 496.7V501.5L678.6 507.8L687 498.7L692.9 504.6L696 501.5L734.4 540.7L731.9 543.2L740.5 551.8L734.2 558.9L739 563.7L743 562.8V583.6H742.7ZM318.4 508.3L326.6 514.8L332.7 508.7L332.6 503.9L329.2 506.6L320.5 496.3L318.6 498.1L323.1 503L318.3 507.8L315.8 505.5L310.4 510.6L313 513L318.4 508.3ZM333.3 503.2H341.1V496.9L333.3 503.2Z" fill="#353635"/>
<path d="M554.1 779.7H469L457 770.1V702.8L472.4 690.4H560.4L575.2 702.8V763.8L554.1 779.7ZM469.7 777.7H553.5L573.2 762.9V703.8L559.7 692.4H473.1L459 703.8V769.1L469.7 777.7Z" fill="#353635"/>
<path d="M656.3 1036.5L651.2 1032.7L665.7 1009L660.9 1004.2L661.2 1003.6L984.2 318L953.9 301L963.2 281.8L1024.7 311.6L1017.5 327.9L1020.4 328.5L1020 332.8L1025 337V342.3L1035.1 346.2L1040.3 345.3L1041.8 352.5L1034.4 364.2L1036.9 368.4L1017.4 408.4L1020.8 411.8L991.3 474.5L965.9 463.5L917.4 567.9L924.1 571.8L916.6 588.4L909.8 586L795.2 830L818.3 840.1L788.5 908L766.3 896.9L721.1 989.7L709.1 987.3L695.8 1018.7L656.3 1036.5ZM653.9 1032.2L656.6 1034.2L694.3 1017.2L708 985L720.1 987.4L765.5 894.2L787.6 905.3L815.7 841.1L792.5 831L909 583.4L915.7 585.8L921.7 572.5L914.9 568.6L965 460.7L990.4 471.7L1018.5 412L1015.1 408.6L1034.8 368.3L1032.2 364L1039.8 351.9L1038.9 347.4L1035 348.1L1023.1 343.5V337.8L1018 333.5L1018.4 330L1014.9 329.3L1022.3 312.5L964.3 284.4L956.7 300.1L987 317.1L663.5 1003.7L668.4 1008.6L653.9 1032.2Z" fill="#353635"/>
<path d="M597 762.5C596.067 762.5 595.267 762.217 594.6 761.65C593.933 761.083 593.433 760.34 593.1 759.419C591.833 755.452 590.233 751.733 588.3 748.262C586.433 744.792 583.8 740.719 580.4 736.044C577 731.369 574.233 726.906 572.1 722.656C570.033 718.406 569 713.271 569 707.25C569 698.962 571.7 691.95 577.1 686.212C582.567 680.404 589.2 677.5 597 677.5C604.8 677.5 611.4 680.404 616.8 686.212C622.267 691.95 625 698.962 625 707.25C625 713.696 623.833 719.079 621.5 723.4C619.233 727.65 616.6 731.865 613.6 736.044C610 741.144 607.267 745.394 605.4 748.794C603.6 752.123 602.1 755.665 600.9 759.419C600.567 760.41 600.033 761.19 599.3 761.756C598.633 762.252 597.867 762.5 597 762.5ZM597 747.306C598.133 744.898 599.4 742.525 600.8 740.188C602.267 737.85 604.4 734.733 607.2 730.837C610.067 726.871 612.4 723.223 614.2 719.894C616.067 716.494 617 712.279 617 707.25C617 701.371 615.033 696.377 611.1 692.269C607.233 688.09 602.533 686 597 686C591.467 686 586.733 688.09 582.8 692.269C578.933 696.377 577 701.371 577 707.25C577 712.279 577.9 716.494 579.7 719.894C581.567 723.223 583.933 726.871 586.8 730.837C589.6 734.733 591.7 737.85 593.1 740.188C594.567 742.525 595.867 744.898 597 747.306ZM597 717.875C599.8 717.875 602.167 716.848 604.1 714.794C606.033 712.74 607 710.225 607 707.25C607 704.275 606.033 701.76 604.1 699.706C602.167 697.652 599.8 696.625 597 696.625C594.2 696.625 591.833 697.652 589.9 699.706C587.967 701.76 587 704.275 587 707.25C587 710.225 587.967 712.74 589.9 714.794C591.833 716.848 594.2 717.875 597 717.875Z" fill="#FF3B30"/>
</svg>
