<?xml version="1.0" encoding="utf-8"?>
<!-- Generator: Adobe Illustrator 24.3.0, SVG Export Plug-In . SVG Version: 6.00 Build 0)  -->
<svg version="1.1" id="Layer_1" xmlns="http://www.w3.org/2000/svg" xmlns:xlink="http://www.w3.org/1999/xlink" x="0px" y="0px"
	 viewBox="0 0 1080 1080" style="enable-background:new 0 0 1080 1080;" xml:space="preserve">
<style type="text/css">
	.st0{fill:url(#SVGID_1_);}
	.st1{fill:#CFECF3;}
	.st2{fill:#99BDD1;}
	.st3{fill:#8CADBF;}
	.st4{fill:#6996AD;}
	.st5{fill:#667D8B;}
	.st6{fill:#69815A;}
	.st7{fill:#ECC989;}
	.st8{fill:#577563;}
	.st9{fill:#88A8B9;}
	.st10{fill:#B7A88B;}
	.st11{fill:#2C414E;}
	.st12{fill:#D6CCBD;}
	.st13{fill:#F4ECDF;}
	.st14{fill:#37505F;}
	.st15{fill:#AD8D60;}
	.st16{fill:#9D7F56;}
	.st17{fill:#44738D;}
	.st18{fill:#558FB0;}
	.st19{fill:#F2A580;}
	.st20{fill:#E38766;}
	.st21{fill:#1B171B;}
	.st22{fill:#54301E;}
	.st23{fill:#814A38;}
	.st24{fill:url(#SVGID_2_);}
	.st25{fill:url(#SVGID_3_);}
	.st26{fill:url(#SVGID_4_);}
	.st27{fill:url(#SVGID_5_);}
	.st28{fill:url(#SVGID_6_);}
	.st29{fill:#FFFFFF;}
	.st30{fill:url(#SVGID_7_);}
	.st31{fill:#727F88;}
	.st32{fill:url(#SVGID_8_);}
</style>
<g>
	<linearGradient id="SVGID_1_" gradientUnits="userSpaceOnUse" x1="596.6102" y1="57.4339" x2="555.8529" y2="557.934">
		<stop  offset="0" style="stop-color:#C7E2EA"/>
		<stop  offset="0.9948" style="stop-color:#C7E2EA"/>
	</linearGradient>
	<path class="st0" d="M988.7,761.2c-0.1,2.4-0.2,4.9-0.3,7.4c-0.2,3.8-0.5,7.5-0.9,11.2c0,0,0,0.1,0,0.1v0c-0.2,2.3-0.5,4.5-0.7,6.8
		c-0.3,2.3-0.6,4.6-1,6.9c0,0.3-0.1,0.7-0.2,1c-1,6.4-2.2,12.6-3.6,18.7c-8.3,36.5-26.2,67.6-50.1,90.2
		c-22.5,21.4-50.4,35-80.4,38.3c-4.7,0.5-9.4,0.8-14.2,0.8H241.3c-3.2,0-6.3-0.1-9.5-0.3c-0.4,0-0.8-0.1-1.2-0.1h-0.1
		c-0.1,0-0.2,0-0.4,0c-0.7,0-1.4-0.1-2.1-0.2c-0.1,0-0.1,0-0.2,0c-2.2-0.2-4.5-0.5-6.7-0.9c-26.4-4.1-50.8-16.3-71.2-34.4
		c-1.8-1.5-3.5-3.2-5.2-4.8c-27.3-26.6-46.5-64.5-51.7-108.2c0-0.3-0.1-0.6-0.1-0.9c-0.2-1.9-0.4-3.8-0.6-5.7c0,0,0-0.1,0-0.1v-0.1
		c-0.1-1.2-0.2-2.3-0.3-3.5c-0.1-1.2-0.2-2.3-0.3-3.4c-0.1-2-0.3-3.9-0.4-5.8c0,0,0,0,0,0c-0.2-3.8-0.4-7.6-0.4-11.3v-0.1
		c0-1.8,0-3.6,0-5.4c0-1.5,0-3.1,0-4.6v-0.3c0-1.3,0-2.5,0.1-3.8c0-1.5,0.1-2.9,0.2-4.4c0.1-1.4,0.1-2.8,0.2-4.2
		c0.1-1,0.1-1.9,0.2-2.9c0.1-1,0.1-1.9,0.2-2.9c0-0.7,0.1-1.3,0.2-2c0.1-1.3,0.2-2.7,0.4-4c0.1-1.3,0.3-2.6,0.4-3.9
		c0.9-8,2.2-15.7,3.7-23.3c1.1-5.6,2.4-11.1,3.7-16.5c0.3-1.2,0.6-2.3,0.9-3.5c0.4-1.6,0.8-3.2,1.3-4.9c0.4-1.3,0.7-2.6,1.1-3.9
		c0.4-1.4,0.8-2.7,1.2-4.1c0.3-1.1,0.7-2.3,1-3.4c0.3-1.1,0.7-2.3,1-3.4c0.7-2.3,1.4-4.6,2.2-6.9c0.9-2.9,1.8-5.7,2.8-8.6
		c4.4-13.4,9.2-27.1,14.1-41.6c6-17.8,12-36.9,17.6-58.2c0.4-1.4,0.7-2.9,1.1-4.3c0.4-1.4,0.7-2.9,1.1-4.3c0.4-1.5,0.7-2.9,1.1-4.4
		c0.5-2.2,1-4.4,1.5-6.7c0.5-2,0.9-4,1.4-6.1c0.6-2.5,1.1-5.1,1.6-7.7v0c3.1-15,5.8-31.2,8.1-48.7c2.6-20.4,4.1-39,4.7-55.9
		c4.3-120-34.1-161.1-0.7-208.2c13.4-18.9,30.4-27.6,51.8-30.1c2-0.2,4.1-0.4,6.2-0.6c9.9-0.6,20.7-0.1,32.5,1.2
		c2.1,0.2,4.2,0.5,6.3,0.7c14.6,1.9,30.6,4.8,48.2,8.2h0c7.9,1.5,16.1,3.1,24.7,4.7c49.5,9.4,109.9,19.9,183.6,20.5
		c9.8,0.1,19.9,0,30.2-0.3c9.4-0.3,19.1-0.7,28.9-1.3c0.2,0,0.4,0,0.6,0c10.3-0.7,20.3-1.5,30-2.5c31.6-3.2,59.8-7.9,85.2-13
		c9.5-1.9,18.5-3.9,27.2-5.9c0,0,0,0,0,0c93.2-21.5,143.1-44.4,177.3-3.1c20.6,24.8,19.7,54.1,14.2,92.3
		c-8,55.6-25.6,130.2-0.7,237.1c0.4,1.6,0.8,3.2,1.1,4.8v0c0.7,2.6,1.3,5.2,1.9,7.7c0.5,2.1,1.1,4.1,1.6,6.1
		c0.3,1.1,0.6,2.3,0.9,3.4c0.3,1.1,0.6,2.2,0.9,3.3c0.8,3,1.7,5.8,2.6,8.7c0.7,2.4,1.5,4.9,2.3,7.2c0.6,1.8,1.2,3.6,1.7,5.3
		c0.6,1.7,1.2,3.5,1.8,5.2c1.2,3.4,2.4,6.7,3.6,10c10,26.9,20.9,49.2,30.6,70.2c0.9,2.1,1.9,4.1,2.8,6.1v0c1.3,2.9,2.6,5.7,3.8,8.6
		c1,2.3,2,4.6,3,6.9c1,2.3,1.9,4.6,2.8,6.9v0c1.7,4.3,3.4,8.7,4.9,13c0.5,1.4,0.9,2.7,1.4,4.1c0.3,0.9,0.6,1.8,0.9,2.7
		c0.4,1.1,0.7,2.3,1.1,3.4c0.3,1,0.6,2.1,0.9,3.1c0,0.1,0,0.1,0,0.2c0,0,0,0,0,0.1c0.3,1,0.6,2,0.8,3c0.1,0.5,0.3,1,0.4,1.5
		c0.5,1.7,0.9,3.5,1.3,5.2c0.4,1.7,0.8,3.4,1.2,5.1v0c0.1,0.6,0.2,1.2,0.4,1.8c0,0.1,0,0.2,0.1,0.3c0,0.1,0,0.3,0.1,0.4
		c0.2,0.9,0.4,1.8,0.5,2.7c0,0.2,0.1,0.5,0.1,0.7c0,0,0,0.1,0,0.2c0.1,0.8,0.3,1.6,0.4,2.5c0.1,0.6,0.2,1.2,0.3,1.9
		c0,0.3,0.1,0.5,0.1,0.8c0.2,1.1,0.4,2.3,0.5,3.5c0.2,1.1,0.3,2.3,0.4,3.4c0.1,0.6,0.1,1.1,0.2,1.6c0.1,0.6,0.1,1.1,0.2,1.7
		c0,0.4,0.1,0.7,0.1,1.1c0,0.1,0,0.1,0,0.2l0.1,0.9c0,0.3,0.1,0.6,0.1,0.9c0,0.1,0,0.2,0,0.3c0.1,1,0.2,2,0.2,3v0.1
		c0,0.5,0.1,1,0.1,1.5c0,0.2,0,0.4,0,0.5c0,0.2,0,0.5,0,0.7c0.1,1.1,0.1,2.2,0.2,3.3C988.8,749.3,988.9,755.1,988.7,761.2z"/>
	<path class="st1" d="M988.7,761.2c-0.1,2.4-0.2,4.9-0.3,7.4c-0.2,3.8-0.5,7.5-0.9,11.2c0,0,0,0.1,0,0.1v0c-0.2,2.3-0.5,4.5-0.7,6.8
		c-0.3,2.3-0.6,4.6-1,6.9c0,0.3-0.1,0.7-0.2,1c-1,6.4-2.2,12.6-3.6,18.7c-8.3,36.5-26.2,67.6-50.1,90.2
		c-22.5,21.4-50.4,35-80.4,38.3c-4.7,0.5-9.4,0.8-14.2,0.8H241.3c-3.2,0-6.3-0.1-9.5-0.3c-0.4,0-0.8-0.1-1.2-0.1h-0.1
		c-0.1,0-0.2,0-0.4,0c-0.7,0-1.4-0.1-2.1-0.2c-0.1,0-0.1,0-0.2,0c-2.2-0.2-4.5-0.5-6.7-0.9c-26.4-4.1-50.8-16.3-71.2-34.4
		c-1.8-1.5-3.5-3.2-5.2-4.8c-27.3-26.6-46.5-64.5-51.7-108.2c0-0.3-0.1-0.6-0.1-0.9c-0.2-1.9-0.4-3.8-0.6-5.7c0,0,0-0.1,0-0.1v-0.1
		c-0.1-1.2-0.2-2.3-0.3-3.5c-0.1-1.2-0.2-2.3-0.3-3.4c-0.1-2-0.3-3.9-0.4-5.8c0,0,0,0,0,0c-0.2-3.8-0.4-7.6-0.4-11.3v-0.1
		c0-1.8,0-3.6,0-5.4c0-1.5,0-3.1,0-4.6v-0.3c0-1.3,0-2.5,0.1-3.8c0-1.5,0.1-2.9,0.2-4.4c0.1-1.4,0.1-2.8,0.2-4.2
		c0.1-1,0.1-1.9,0.2-2.9c0.1-1,0.1-1.9,0.2-2.9c0-0.7,0.1-1.3,0.2-2c0.1-1.3,0.2-2.7,0.4-4c0.1-1.3,0.3-2.6,0.4-3.9
		c0.9-8,2.2-15.7,3.7-23.3c1.1-5.6,2.4-11.1,3.7-16.5c0.3-1.2,0.6-2.3,0.9-3.5c0.4-1.6,0.8-3.2,1.3-4.9c0.4-1.3,0.7-2.6,1.1-3.9
		c0.4-1.4,0.8-2.7,1.2-4.1c0.3-1.1,0.7-2.3,1-3.4c0.3-1.1,0.7-2.3,1-3.4c0.7-2.3,1.4-4.6,2.2-6.9c0.9-2.9,1.8-5.7,2.8-8.6
		c4.4-13.4,9.2-27.1,14.1-41.6c6-17.8,12-36.9,17.6-58.2c0.4-1.4,0.7-2.9,1.1-4.3c0.4-1.4,0.7-2.9,1.1-4.3c0.4-1.5,0.7-2.9,1.1-4.4
		c0.5-2.2,1-4.4,1.5-6.7c0.5-2,0.9-4,1.4-6.1c0.6-2.5,1.1-5.1,1.6-7.7v0c3.1-15,5.8-31.2,8.1-48.7c2.6-20.4,4.1-39,4.7-55.9
		c7.8-3.9,15.9-7.7,24.4-11.2c12.2-5.1,25.1-9.7,38.8-13.7c7.6-2.2,15.5-4.2,23.5-6c0.9-0.2,1.7-0.4,2.6-0.6c1.6-0.4,3.3-0.7,5-1
		c2-0.4,4-0.8,6-1.1c3.1-0.6,6.1-1,9.1-1.5c3.2-0.5,6.3-0.9,9.4-1.2c2.2-0.3,4.5-0.5,6.7-0.7c87.3-8.1,131.7,28,211.9,28.5
		c14.4,0.1,29.9-0.9,47-3.6c4.2-0.7,8.3-1.4,12.3-2.1c1-0.2,2-0.4,3-0.6c20.1-4,36.6-9.1,51.1-15.2c0.5-0.2,1-0.4,1.5-0.6
		c2.3-1,4.5-1.9,6.7-2.9c56.1-25.9,83.3-64.7,186.7-92.7c34.9-9.5,66.9-12.3,100.7-11.1c-8,55.6-25.6,130.2-0.7,237.1
		c0.4,1.6,0.8,3.2,1.1,4.8v0c0.7,2.6,1.3,5.2,1.9,7.7c0.5,2.1,1.1,4.1,1.6,6.1c0.3,1.1,0.6,2.3,0.9,3.4c0.3,1.1,0.6,2.2,0.9,3.3
		c0.8,3,1.7,5.8,2.6,8.7c0.7,2.4,1.5,4.9,2.3,7.2c0.6,1.8,1.2,3.6,1.7,5.3c0.6,1.7,1.2,3.5,1.8,5.2c1.2,3.4,2.4,6.7,3.6,10
		c10,26.9,20.9,49.2,30.6,70.2c0.9,2.1,1.9,4.1,2.8,6.1v0c1.3,2.9,2.6,5.7,3.8,8.6c1,2.3,2,4.6,3,6.9c1,2.3,1.9,4.6,2.8,6.9v0
		c1.7,4.3,3.4,8.7,4.9,13c0.5,1.4,0.9,2.7,1.4,4.1c0.3,0.9,0.6,1.8,0.9,2.7c0.4,1.1,0.7,2.3,1.1,3.4c0.3,1,0.6,2.1,0.9,3.1
		c0,0.1,0,0.1,0,0.2c0,0,0,0,0,0.1c0.3,1,0.6,2,0.8,3c0.1,0.5,0.3,1,0.4,1.5c0.5,1.7,0.9,3.5,1.3,5.2c0.4,1.7,0.8,3.4,1.2,5.1v0
		c0.1,0.6,0.2,1.2,0.4,1.8c0,0.1,0,0.2,0.1,0.3c0,0.1,0,0.3,0.1,0.4c0.2,0.9,0.4,1.8,0.5,2.7c0,0.2,0.1,0.5,0.1,0.7c0,0,0,0.1,0,0.2
		c0.1,0.8,0.3,1.6,0.4,2.5c0.1,0.6,0.2,1.2,0.3,1.9c0,0.3,0.1,0.5,0.1,0.8c0.2,1.1,0.4,2.3,0.5,3.5c0.2,1.1,0.3,2.3,0.4,3.4
		c0.1,0.6,0.1,1.1,0.2,1.6c0.1,0.6,0.1,1.1,0.2,1.7c0,0.4,0.1,0.7,0.1,1.1c0,0.1,0,0.1,0,0.2l0.1,0.9c0,0.3,0.1,0.6,0.1,0.9
		c0,0.1,0,0.2,0,0.3c0.1,1,0.2,2,0.2,3v0.1c0,0.5,0.1,1,0.1,1.5c0,0.2,0,0.4,0,0.5c0,0.2,0,0.5,0,0.7c0.1,1.1,0.1,2.2,0.2,3.3
		C988.8,749.3,988.9,755.1,988.7,761.2z"/>
	<g>
		<path class="st2" d="M925.9,779.7v-62.6c0-6.8,1.8-13.2,4.9-18.7c1.3-2.3,2.8-4.4,4.5-6.3c0.6-0.7,1.2-1.3,1.8-2
			c6.9-6.9,16.4-11.2,26.9-11.2c4.2,0,8.3,0.7,12.1,2c-1.5-4.4-3.2-8.7-4.9-13v0c-0.9-2.3-1.9-4.6-2.8-6.9c-1-2.3-2-4.6-3-6.9
			c-1.2-2.9-2.5-5.7-3.8-8.6h-2.8v8.6h-39.8v-8.6h-11.2v8.6h-39.8v-8.6h-11.2v8.6h-39.8v-8.6h-11.2v8.6h-39.8v-8.6h-11.2v8.6h-39.9
			v-8.6h-11.2v8.6h-39.8v-8.6h-11.2v8.6h-39.8v-8.6h-10.4v141h384.2c0.3-2.2,0.5-4.5,0.7-6.8v0c0,0,0,0,0-0.1H925.9z M620.2,779.7
			v-62.6c0-2.8,0.3-5.5,0.9-8.2c1-4.5,2.7-8.6,5.1-12.3c1.5-2.3,3.2-4.5,5.2-6.4c1-1,2.2-2,3.3-2.9c6.5-5.2,14.7-8.2,23.6-8.2
			c1.7,0,3.4,0.1,5.1,0.3c3.2,0.4,6.2,1.2,9.1,2.4c8.3,3.3,15.2,9.5,19.4,17.2c2.9,5.4,4.6,11.6,4.6,18.1v62.6H620.2z M722.1,779.7
			v-62.6c0-7,1.9-13.6,5.2-19.2v0c0.2-0.3,0.3-0.5,0.5-0.8c1.2-2,2.6-3.8,4.1-5.5c0.4-0.5,0.9-1,1.4-1.4c2.5-2.5,5.3-4.6,8.4-6.3h0
			c5.5-3.1,11.8-4.8,18.6-4.8c6.2,0,12,1.5,17.2,4.1c1.8,0.9,3.5,1.9,5.1,3.1c9.6,6.9,15.9,18.2,15.9,30.9v62.6H722.1z M824,779.7
			v-62.6c0-5.2,1-10.1,2.9-14.6v0c1.4-3.4,3.2-6.5,5.5-9.2c0.9-1.1,1.8-2.1,2.8-3.1c0.8-0.8,1.6-1.5,2.4-2.2c0.7-0.6,1.3-1.1,2-1.6
			c6.3-4.6,14.1-7.3,22.4-7.3c21,0,38.1,17.1,38.1,38.1v62.6H824z"/>
		<path class="st3" d="M987.5,779.7C987.5,779.8,987.5,779.8,987.5,779.7l0,0.1c-0.2,2.3-0.5,4.5-0.7,6.8c-0.3,2.3-0.6,4.6-1,6.9
			H602.5v-13.8H987.5z"/>
		<path class="st2" d="M965.4,654.2c-1.2-2.9-2.5-5.7-3.8-8.6v0c-0.9-2-1.9-4.1-2.8-6.1v14.7h-39.8v-66h5.2
			c0.7-7.3,2.2-13.8,4.1-18.9c-3.3-8.7-6.4-17.9-9.4-27.7c-0.9-2.9-1.8-5.7-2.6-8.7c-0.6-2.2-1.3-4.4-1.9-6.7c-0.6-2-1.1-4-1.6-6.1
			H602.5v141.1h365.9C967.4,658.8,966.4,656.5,965.4,654.2z M612.9,654.2v-66h5.2c0.8-8.2,2.5-15.4,4.8-20.7
			c1.4-3.2,3.1-5.8,4.9-7.5c1.6-1.5,3.3-2.3,5.1-2.3c2.4,0,4.6,1.5,6.6,4c0.2,0.2,0.4,0.5,0.6,0.8c0.1,0.1,0.2,0.2,0.2,0.4
			c0.3,0.4,0.6,0.9,0.8,1.3c0.8,1.4,1.5,2.9,2.2,4.6c1.1,2.8,2.1,6,2.8,9.6v0c0.2,1,0.5,2.1,0.6,3.2c0.1,0.7,0.2,1.5,0.3,2.2
			c0.2,1.4,0.4,2.8,0.5,4.3h5.2v66H612.9z M663.9,654.2v-66h5.2c0.8-8.1,2.5-15.2,4.8-20.6c0.5-1.1,1-2.1,1.5-3c1-1.8,2-3.2,3.2-4.3
			c1.6-1.6,3.4-2.5,5.3-2.5c0.7,0,1.4,0.1,2.1,0.4c1,0.4,2,1,3,1.9c1.6,1.5,3.1,3.7,4.4,6.5c1.9,4,3.4,9.2,4.4,15.2
			c0.3,2.1,0.6,4.2,0.8,6.5h5.2v66H663.9z M714.9,654.2v-66h5.2c0.3-2.6,0.6-5.2,1-7.6c1-5.7,2.6-10.7,4.4-14.5
			c0.7-1.5,1.4-2.7,2.2-3.8c0.5-0.7,1.1-1.4,1.6-1.9c1.7-1.7,3.5-2.6,5.4-2.6c3.1,0,6,2.5,8.4,6.7c0.3,0.6,0.6,1.1,0.9,1.8
			c1.2,2.4,2.2,5.3,3.1,8.6c0.7,2.7,1.4,5.7,1.8,8.9c0.2,1.5,0.4,2.9,0.5,4.5h5.2v66H714.9z M765.9,654.2v-66h5.2
			c0-0.5,0.1-1.1,0.1-1.6c0.7-6.4,2-12.1,3.7-16.7c0-0.1,0.1-0.2,0.1-0.3c0.1-0.2,0.2-0.5,0.3-0.7c2.7-6.9,6.4-11.2,10.5-11.2
			c4.9,0,9.2,6.1,12,15.6c1.3,4.3,2.2,9.4,2.7,14.9h5.2v66H765.9z M816.9,654.2v-66h5.2c1.7-17.5,7.6-30.5,14.8-30.5
			c1,0,1.9,0.2,2.9,0.7c1.5,0.7,2.9,2.1,4.2,3.9c1.1,1.5,2.1,3.4,3,5.6c0,0,0,0,0,0c2.2,5.3,3.9,12.3,4.6,20.2h5.2v66H816.9z
			 M867.9,654.2v-66h5.2c0.9-9.4,3-17.5,5.9-23c0,0,0,0,0,0c1-1.8,2-3.4,3.1-4.6c1.8-1.9,3.7-2.9,5.7-2.9c7.1,0,13.1,13,14.8,30.5
			h5.2v66H867.9z"/>
		<path class="st3" d="M914.2,526.1H602.5v-13.8h308.2c0.6,2.6,1.3,5.2,1.9,7.7C913.1,522.1,913.7,524.1,914.2,526.1z"/>
		<path class="st3" d="M971.2,667.9L971.2,667.9l-368.7,0v-13.8h362.9c1,2.3,2,4.6,3,6.9C969.3,663.4,970.2,665.6,971.2,667.9z"/>
		<path class="st3" d="M918.7,541.5H602.5v-8.7h313.6C916.9,535.8,917.8,538.7,918.7,541.5z"/>
	</g>
	<g>
		<path class="st2" d="M482.6,645.6v8.6h-39.8v-8.6h-11.2v8.6h-39.8v-8.6h-11.2v8.6h-39.8v-8.6h-11.2v8.6h-39.8v-8.6h-11.2v8.6
			h-39.8v-8.6h-11.2v8.6h-39.8v-8.6h-11.2v8.6h-39.8v-8.6h-11.2v8.6h-16.9c-0.7,2.3-1.4,4.6-2.2,6.9c-0.7,2.3-1.4,4.6-2,6.9
			c-0.4,1.4-0.8,2.7-1.2,4.1c-0.4,1.3-0.7,2.6-1.1,3.9c-0.4,1.6-0.9,3.2-1.3,4.9c-0.3,1.2-0.6,2.3-0.9,3.5c-1.4,5.5-2.6,11-3.7,16.5
			c5.7-12,17.5-20.6,31.5-21.6c1-0.1,2-0.1,3-0.1c1.3,0,2.5,0.1,3.7,0.2c19.3,1.9,34.4,18.1,34.4,37.9v62.6h-34.3v0.1h-43
			c0.2,2.2,0.4,4.5,0.6,6.8h401v-141H482.6z M270.9,779.7h-76.2v-62.6c0-21,17.1-38.1,38.1-38.1c21,0,38.1,17.1,38.1,38.1V779.7z
			 M372.8,779.7h-76.2v-62.6c0-21,17.1-38.1,38.1-38.1c21.1,0,38.1,17.1,38.1,38.1V779.7z M474.7,779.7h-76.2v-62.6
			c0-21,17.1-38.1,38.1-38.1c21,0,38.1,17.1,38.1,38.1V779.7z"/>
		<path class="st3" d="M134.7,779.7l-43,0.1c0.2,2.2,0.4,4.5,0.6,6.8c0,0.1,0,0.2,0,0.2c0.2,1.9,0.4,3.8,0.6,5.7
			c0,0.3,0.1,0.6,0.1,0.9h400.3v-13.8H134.7z"/>
		<path class="st2" d="M149.4,520c-0.4,2.1-0.9,4.1-1.4,6.1c-0.5,2.2-1,4.5-1.5,6.7c-0.7,3-1.4,5.8-2.1,8.7
			c-5.8,23-12.3,43.5-18.7,62.5v50.2h-16.9c-0.7,2.3-1.4,4.6-2.2,6.9h386.7V520H149.4z M136.8,654.2v-66h5.2
			c1.7-17.5,7.6-30.5,14.7-30.5c7.1,0,13.1,13,14.8,30.5h5.2v66H136.8z M187.8,654.2v-66h5.2c1.7-17.5,7.6-30.5,14.7-30.5
			c7.1,0,13.1,13,14.8,30.5h5.2v66H187.8z M238.8,654.2v-66h5.2c1.7-17.5,7.6-30.5,14.7-30.5c7.1,0,13.1,13,14.7,30.5h5.2v66H238.8z
			 M289.8,654.2v-66h5.2c1.7-17.5,7.6-30.5,14.7-30.5c7.1,0,13.1,13,14.7,30.5h5.2v66H289.8z M340.8,654.2v-66h5.2
			c1.7-17.5,7.6-30.5,14.7-30.5s13.1,13,14.7,30.5h5.2v66H340.8z M391.8,654.2v-66h5.2c1.7-17.5,7.6-30.5,14.7-30.5
			c7.1,0,13.1,13,14.7,30.5h5.2v66H391.8z M482.6,654.2h-39.8v-66h5.2c1.7-17.5,7.6-30.5,14.7-30.5c7.1,0,13.1,13,14.7,30.5h5.2
			V654.2z"/>
		<path class="st3" d="M493.3,512.3v13.8H148c0.5-2,0.9-4.1,1.4-6.1c0.6-2.5,1.1-5.1,1.6-7.7H493.3z"/>
		<path class="st3" d="M493.3,654.2V668H104.6c0.7-2.3,1.4-4.6,2-6.9c0.7-2.3,1.5-4.6,2.2-6.9H493.3z"/>
		<path class="st3" d="M493.3,532.8v8.7h-349c0.7-2.8,1.4-5.7,2.1-8.7H493.3z"/>
	</g>
</g>
<g>
	<path class="st4" d="M985.8,793.5c0,0.3-0.1,0.7-0.2,1c-1,6.4-2.2,12.6-3.6,18.7c-8.3,36.5-26.2,67.6-50.1,90.2
		c-22.5,21.4-50.4,35-80.4,38.3c-4.7,0.5-9.4,0.8-14.2,0.8H241.3c-3.2,0-6.3-0.1-9.5-0.3c-0.4,0-0.8-0.1-1.2-0.1h-0.1
		c-0.1,0-0.2,0-0.4,0c-0.7,0-1.4-0.1-2.1-0.2c-0.1,0-0.1,0-0.2,0c-2.2-0.2-4.5-0.5-6.7-0.9c-26.4-4.1-50.8-16.3-71.2-34.4
		c-1.8-1.5-3.5-3.2-5.2-4.8c-27.3-26.6-46.5-64.5-51.7-108.2H985.8z"/>
	<g>
		<rect x="384.6" y="307.4" class="st5" width="39.2" height="33.6"/>
		<path class="st5" d="M428.4,357.5c3.4-1.8,6.8-3.6,10.2-5.3l-16.3-6.6h-37.6l-16.4,6.6c3.8,1.8,7.6,3.6,11.4,5.4
			C395.9,357.6,412.1,357.6,428.4,357.5z"/>
		<polygon class="st2" points="428.4,357.5 428.4,512.1 379.7,512.1 379.7,357.3 382,356.9 424.8,356.9 		"/>
		<polygon class="st6" points="438.5,312.5 434.4,314.1 430.5,314.1 415.9,311.2 415.9,314.1 411.2,314.1 411.2,311.6 395.5,311.6 
			395.5,314.1 391.4,314.1 391.4,311.2 377,314.1 372.4,314.1 368.3,312.5 371.7,308.1 372.4,308.1 393.1,307.2 413.8,306.3 
			429,305.6 434.4,309.5 		"/>
		<path class="st2" d="M372.4,304.9v41.7l20.7-3.6v-41.7L372.4,304.9z M391.4,337.2l-6.8,1.4l-8.3,1.7v-26l0.7-0.1h0l7.6-1.5
			l6.8-1.4V337.2z"/>
		<path class="st2" d="M393.1,301.3V343h20.7v-41.7H393.1z M411.2,337h-15.7v-25.4h15.7V337z"/>
		<path class="st2" d="M423.7,312.8L423.7,312.8l6,1.2L423.7,312.8z M413.8,301.3V343l20.7,3.6v-41.7L413.8,301.3z M415.9,311.2
			l7.8,1.6h0l6,1.2l0.8,0.2l0.8,0.1v26l-7.5-1.5h0l-7.8-1.6V311.2z M423.7,312.8L423.7,312.8l6,1.2L423.7,312.8z"/>
		<path class="st7" d="M406,217.4c3.1-1.2,5.3-4.2,5.3-7.7c0-0.7-0.1-1.4-0.3-2.1c-0.9,3.6-4.2,6.3-8.1,6.3s-7.1-2.7-8.1-6.3
			c-0.2,0.7-0.3,1.3-0.3,2.1c0,3.5,2.2,6.5,5.3,7.7c0,0.9,0.4,1.6,0.9,2.2l-0.6,11.7c-0.7,0.7-1.1,1.6-1.1,2.7
			c0,1.3,0.7,2.5,1.7,3.2l-0.7,12.8h5.7l-0.7-12.8c1-0.7,1.7-1.9,1.7-3.2c0-1-0.4-2-1.1-2.7l-0.6-11.7
			C405.7,219.1,406,218.3,406,217.4z"/>
		<path class="st2" d="M415.8,276.7l-0.7-7.5l0.7-7.4c0,0,0,0,0-0.1c0.3-3.2-0.5-6.3-2-9.1c-1.4-2.5-4.1-4.1-6.9-4.1h-8.2
			c-2.6,0-4.9,1.7-5.8,4.2l-1.4,4.3c-0.5,1.6-0.7,3.2-0.6,4.8l0,0l0.7,7.4l-0.7,7.5c-0.2,1.8-0.2,3.6,0,5.4l0,0
			c0.4,4.4,4.1,7.9,8.6,7.9h7.7c4.5,0,8.2-3.4,8.6-7.9l0,0C416,280.3,416,278.4,415.8,276.7z"/>
		<path class="st8" d="M410.9,286.6h-14.9c-2.7,0-5.4,1-7.4,2.8l-20.3,18l23.4-4h23.4l23.4,4l-20.3-18
			C416.2,287.6,413.6,286.6,410.9,286.6z"/>
		<polygon class="st2" points="415.1,301.3 391.7,301.3 368.3,305.3 368.3,312.5 391.7,308.4 415.1,308.4 438.5,312.5 438.5,305.3 
					"/>
		<polygon class="st2" points="415.1,341 391.7,341 368.3,345 368.3,352.2 391.7,348.2 415.1,348.2 438.5,352.2 438.5,345 		"/>
		<polygon class="st9" points="428.4,357.5 428.4,364.7 415.1,362.4 391.7,362.4 379.7,364.5 379.7,357.3 382,356.9 391.7,355.3 
			415.1,355.3 424.8,356.9 		"/>
		<polygon class="st10" points="431.1,712.8 431.1,604.1 427.1,603.4 416.4,601.6 390.3,601.6 379.5,603.4 377,603.8 377,712.8 		
			"/>
		<polygon class="st9" points="428.4,377.3 428.4,384.5 415.1,382.2 391.7,382.2 379.7,384.3 379.7,377.1 382,376.7 391.7,375.1 
			415.1,375.1 424.8,376.7 		"/>
		<path class="st11" d="M408.6,337H398v-9.6c0-2.9,2.4-5.3,5.3-5.3l0,0c2.9,0,5.3,2.4,5.3,5.3V337z"/>
		<path class="st11" d="M389.9,390.2c-0.7-0.7-1.6-1.1-2.6-1.1c-2,0-3.7,1.6-3.7,3.7v12.6l7.4-1.5v-11.2
			C391,391.8,390.6,390.9,389.9,390.2z M419.5,389.1c-1,0-2,0.4-2.6,1.1c-0.7,0.6-1.1,1.6-1.1,2.6V404l7.4,1.5v-12.6
			C423.2,390.8,421.5,389.1,419.5,389.1z M403.4,389.1c-1.5,0-2.8,0.6-3.7,1.5c-1,1-1.6,2.3-1.6,3.7v9.6h10.5v-9.6
			C408.7,391.5,406.3,389.1,403.4,389.1z"/>
		<rect x="378.1" y="532.1" class="st6" width="54.2" height="46.5"/>
		<path class="st6" d="M431.1,604.1c7.2-3.3,14.5-6.7,21.7-10l-22.6-9.2h-52.1l-22.7,9.2c7.4,3.2,14.8,6.4,22.2,9.7
			C395.5,603.8,413.3,604,431.1,604.1z"/>
		<polygon class="st6" points="452.8,539.1 447.1,541.4 441.7,541.4 421.5,537.4 421.5,541.4 415,541.4 415,537.9 393.3,537.9 
			393.3,541.4 387.5,541.4 387.5,537.4 367.6,541.4 361.2,541.4 355.5,539.1 360.2,533 361.2,533 389.8,531.7 418.5,530.5 
			439.6,529.5 447.1,534.9 		"/>
		<path class="st12" d="M387.5,541.4v32l-6.9,1.4l-0.4,0.1l-0.9,0.2L379,575l-0.1,0l-0.8,0.2l-6.2,1.2v8l4.9-0.8l2.5-0.4l0.9-0.1
			l0.4-0.1l3.7-0.6l4.6-0.8l0.9-0.2v-40H387.5z M387.5,541.4v32l-6.9,1.4l-0.4,0.1l-0.9,0.2L379,575l-0.1,0l-0.8,0.2l-6.2,1.2v8
			l4.9-0.8l2.5-0.4l0.9-0.1l0.4-0.1l3.7-0.6l4.6-0.8l0.9-0.2v-40H387.5z M387.5,541.4v32l-6.9,1.4l-0.4,0.1l-0.9,0.2L379,575l-0.1,0
			l-0.8,0.2l-6.2,1.2v8l4.9-0.8l2.5-0.4l0.9-0.1l0.4-0.1l3.7-0.6l4.6-0.8l0.9-0.2v-40H387.5z M387.5,541.4v32l-6.9,1.4l-0.4,0.1
			l-0.9,0.2L379,575l-0.1,0l-0.8,0.2l-6.2,1.2v8l4.9-0.8l2.5-0.4l0.9-0.1l0.4-0.1l3.7-0.6l4.6-0.8l0.9-0.2v-40H387.5z M387.5,541.4
			v32l-6.9,1.4l-0.4,0.1l-0.9,0.2L379,575l-0.1,0l-0.8,0.2l-6.2,1.2l-1.3,0.3v8l1.3-0.2l4.9-0.8l2.5-0.4l0.9-0.1l0.4-0.1l3.7-0.6
			l4.6-0.8l0.9-0.2v-40H387.5z M387.5,541.4v32l-6.9,1.4l-0.4,0.1l-0.9,0.2L379,575c0,0.1,0,0.1,0,0.1c0,0-0.1,0.9-0.4,2.2
			c-0.1,0.4-0.2,0.8-0.3,1.2h1.8v4.5l0.4-0.1l3.7-0.6l4.6-0.8l0.9-0.2v-40H387.5z M373.7,526.4l-12.6,2.2v57.8l9.5-1.6l1.3-0.2
			l4.9-0.8l2.5-0.4l0.9-0.1l0.4-0.1l3.7-0.6l4.6-0.8l0.9-0.2v-57.8L373.7,526.4z M387.5,573.3l-6.9,1.4l-0.4,0.1l-0.9,0.2L379,575
			l-0.1,0l-0.8,0.2l-6.2,1.2l-1.3,0.3l-4,0.8v-36l1-0.2h0l10.5-2.1l9.4-1.9V573.3z M387.5,541.4v32l-6.9,1.4l-0.4,0.1l-0.9,0.2
			L379,575c0,0.1,0,0.1,0,0.1c0,0-0.1,0.9-0.4,2.2c-0.1,0.4-0.2,0.8-0.3,1.2h1.8v4.5l0.4-0.1l3.7-0.6l4.6-0.8l0.9-0.2v-40H387.5z
			 M387.5,541.4v32l-6.9,1.4l-0.4,0.1l-0.9,0.2L379,575l-0.1,0l-0.8,0.2l-6.2,1.2v8l4.9-0.8l2.5-0.4l0.9-0.1l0.4-0.1l3.7-0.6
			l4.6-0.8l0.9-0.2v-40H387.5z M387.5,541.4v32l-6.9,1.4l-0.4,0.1l-0.9,0.2L379,575l-0.1,0l-0.8,0.2l-6.2,1.2v8l4.9-0.8l2.5-0.4
			l0.9-0.1l0.4-0.1l3.7-0.6l4.6-0.8l0.9-0.2v-40H387.5z M387.5,541.4v32l-6.9,1.4l-0.4,0.1l-0.9,0.2L379,575l-0.1,0l-0.8,0.2
			l-6.2,1.2v8l4.9-0.8l2.5-0.4l0.9-0.1l0.4-0.1l3.7-0.6l4.6-0.8l0.9-0.2v-40H387.5z M387.5,541.4v32l-6.9,1.4l-0.4,0.1l-0.9,0.2
			L379,575l-0.1,0l-0.8,0.2l-6.2,1.2v8l4.9-0.8l2.5-0.4l0.9-0.1l0.4-0.1l3.7-0.6l4.6-0.8l0.9-0.2v-40H387.5z M387.5,541.4v32
			l-6.9,1.4l-0.4,0.1l-0.9,0.2L379,575l-0.1,0l-0.8,0.2l-6.2,1.2v8l4.9-0.8l2.5-0.4l0.9-0.1l0.4-0.1l3.7-0.6l4.6-0.8l0.9-0.2v-40
			H387.5z"/>
		<path class="st2" d="M389.8,523.6v57.8h28.7v-57.8H389.8z M415,573h-21.8v-35.2H415V573z"/>
		<path class="st13" d="M440.2,527.3l-5.6-1l-16.1-2.8v57.8l0.7,0.1l0.9,0.1l0.4,0.1l2.4,0.4l5,0.9l0.8,0.1l11.4,2l6.9,1.2v-57.8
			L440.2,527.3z M442.7,541.6v36l-2.5-0.5l-7.9-1.6h0l-0.8-0.2l-2.8-0.5l-1.7-0.3l-5.6-1.1v-36h0l10.8,2.1h0l7.9,1.6v0l1.4,0.3h0
			L442.7,541.6z M418.5,541.4V568l3-3v-23.6H418.5z M421.5,573.3v-3.7h-1v8.9h3.8c0,0,0,0,0,0c0-0.1,0.1-0.2,0.1-0.3
			c0.3-0.7,0.9-1.8,1.9-3c0.2-0.3,0.5-0.6,0.8-0.9L421.5,573.3z"/>
		<path class="st8" d="M414.5,503.2h-20.7c-3.8,0-7.5,1.4-10.3,3.9l-28,25l32.4-5.6h32.4l32.4,5.6l-28-25
			C421.9,504.6,418.3,503.2,414.5,503.2z"/>
		<polygon class="st2" points="420.4,523.6 387.9,523.6 355.5,529.2 355.5,539.1 387.9,533.5 420.4,533.5 452.8,539.1 452.8,529.2 
					"/>
		<polygon class="st2" points="420.4,578.6 387.9,578.6 355.5,584.2 355.5,594.1 387.9,588.5 420.4,588.5 452.8,594.1 452.8,584.2 
					"/>
		<path class="st11" d="M411.3,573h-14.6v-13.3c0-4,3.3-7.3,7.3-7.3l0,0c4,0,7.3,3.3,7.3,7.3V573z"/>
	</g>
	<g>
		<rect x="612" y="307.4" class="st5" width="39.2" height="33.6"/>
		<path class="st5" d="M655.8,357.5c3.4-1.8,6.8-3.6,10.2-5.3l-16.3-6.6H612l-16.4,6.6c3.8,1.8,7.6,3.6,11.4,5.4
			C623.3,357.6,639.6,357.6,655.8,357.5z"/>
		<polygon class="st2" points="655.8,357.5 655.8,512.1 607.1,512.1 607.1,357.3 609.4,356.9 652.3,356.9 		"/>
		<polygon class="st6" points="666,312.5 661.9,314.1 657.9,314.1 643.4,311.2 643.4,314.1 638.7,314.1 638.7,311.6 623,311.6 
			623,314.1 618.8,314.1 618.8,311.2 604.4,314.1 599.8,314.1 595.7,312.5 599.1,308.1 599.8,308.1 620.5,307.2 641.2,306.3 
			656.5,305.6 661.9,309.5 		"/>
		<path class="st2" d="M599.8,304.9v41.7l20.7-3.6v-41.7L599.8,304.9z M618.8,337.2l-6.8,1.4h0l-8.3,1.7v-26l0.8-0.1l7.6-1.5h0
			l6.8-1.4V337.2z"/>
		<path class="st2" d="M620.5,301.3V343h20.7v-41.7H620.5z M638.7,337h-15.7v-25.4h15.7V337z"/>
		<path class="st2" d="M641.2,301.3V343l20.7,3.6v-41.7L641.2,301.3z M643.3,311.2L643.3,311.2l7.8,1.6l6.8,1.3l0.8,0.1v26l-7.5-1.5
			l-7.8-1.6V311.2z"/>
		<path class="st7" d="M633.4,217.4c3.1-1.2,5.3-4.2,5.3-7.7c0-0.7-0.1-1.4-0.3-2.1c-0.9,3.6-4.2,6.3-8.1,6.3
			c-3.9,0-7.1-2.7-8.1-6.3c-0.2,0.7-0.3,1.3-0.3,2.1c0,3.5,2.2,6.5,5.3,7.7c0,0.9,0.4,1.6,0.9,2.2l-0.6,11.7
			c-0.7,0.7-1.1,1.6-1.1,2.7c0,1.3,0.7,2.5,1.7,3.2l-0.7,12.8h5.7l-0.7-12.8c1-0.7,1.7-1.9,1.7-3.2c0-1-0.4-2-1.1-2.7l-0.6-11.7
			C633.1,219.1,633.4,218.3,633.4,217.4z"/>
		<path class="st2" d="M643.2,276.7l-0.7-7.5l0.7-7.4c0,0,0,0,0-0.1c0.3-3.2-0.5-6.3-2-9.1c-1.4-2.5-4.1-4.1-6.9-4.1h-8.2
			c-2.6,0-4.9,1.7-5.8,4.2l-1.4,4.3c-0.5,1.6-0.7,3.2-0.6,4.8l0,0l0.7,7.4l-0.7,7.5c-0.2,1.8-0.2,3.6,0,5.4l0,0
			c0.4,4.4,4.1,7.9,8.6,7.9h7.7c4.5,0,8.2-3.4,8.6-7.9v0C643.4,280.3,643.4,278.4,643.2,276.7z"/>
		<path class="st8" d="M638.3,286.6h-14.9c-2.7,0-5.4,1-7.4,2.8l-20.3,18l23.4-4h23.4l23.4,4l-20.3-18
			C643.7,287.6,641,286.6,638.3,286.6z"/>
		<polygon class="st2" points="642.5,301.3 619.1,301.3 595.7,305.3 595.7,312.5 619.1,308.4 642.5,308.4 666,312.5 666,305.3 		"/>
		<polygon class="st2" points="642.5,341 619.1,341 595.7,345 595.7,352.2 619.1,348.2 642.5,348.2 666,352.2 666,345 		"/>
		<polygon class="st9" points="655.8,357.5 655.8,364.7 642.5,362.4 619.1,362.4 607.1,364.5 607.1,357.3 609.4,356.9 619.1,355.3 
			642.5,355.3 652.3,356.9 		"/>
		<polygon class="st10" points="658.5,712.8 658.5,604.1 654.6,603.4 643.8,601.6 617.7,601.6 606.9,603.4 604.4,603.8 604.4,712.8 
					"/>
		<polygon class="st9" points="655.8,377.3 655.8,384.5 642.5,382.2 619.1,382.2 607.1,384.3 607.1,377.1 609.4,376.7 619.1,375.1 
			642.5,375.1 652.3,376.7 		"/>
		<path class="st11" d="M636,337h-10.5v-9.6c0-2.9,2.4-5.3,5.3-5.3l0,0c2.9,0,5.3,2.4,5.3,5.3V337z"/>
		<path class="st11" d="M617.3,390.2c-0.7-0.7-1.6-1.1-2.6-1.1c-2,0-3.7,1.6-3.7,3.7v12.6l7.4-1.5v-11.2
			C618.4,391.8,618,390.9,617.3,390.2z M646.9,389.1c-1,0-1.9,0.4-2.6,1.1c-0.7,0.6-1.1,1.6-1.1,2.6V404l6.2,1.2l1.2,0.2v-12.6
			C650.6,390.8,649,389.1,646.9,389.1z M630.8,389.1c-1.4,0-2.8,0.6-3.7,1.5c-0.9,1-1.5,2.3-1.5,3.7v9.6h10.5v-9.6
			C636.1,391.5,633.7,389.1,630.8,389.1z"/>
		<rect x="605.5" y="532.1" class="st6" width="54.2" height="46.5"/>
		<path class="st6" d="M658.5,604.1c7.2-3.3,14.5-6.7,21.7-10l-22.6-9.2h-52.1l-22.7,9.2c7.4,3.2,14.8,6.4,22.2,9.7
			C622.9,603.8,640.7,604,658.5,604.1z"/>
		<polygon class="st6" points="680.2,539.1 674.5,541.4 669.1,541.4 648.9,537.4 648.9,541.4 642.4,541.4 642.4,537.9 620.7,537.9 
			620.7,541.4 614.9,541.4 614.9,537.4 595,541.4 588.6,541.4 582.9,539.1 587.6,533 588.6,533 617.2,531.7 645.9,530.5 
			667.1,529.5 674.5,534.9 		"/>
		<path class="st12" d="M598.1,540.7l2.8-0.6v0L598.1,540.7z M607.7,525.2L607.7,525.2l-1.4,0.2l-5.2,0.9l-0.2,0l-12.3,2.1v57.8
			l0.4-0.1l3.5-0.6l3.1-0.5l1.7-0.3l0.4-0.1l1.6-0.3l1.6-0.3l2.8-0.5l5.6-1l8-1.4v-57.8L607.7,525.2z M614.9,573.3l-3.5,0.7
			l-5.5,1.1l-0.4,0.1l-3,0.6l-1.6,0.3l-3.2,0.6l-0.4,0.1l-3.2,0.7l-0.1,0v-36l1-0.2l3.1-0.6h0l2.8-0.6l4.6-0.9l0.5-0.1l8.9-1.8
			V573.3z M614.9,541.4v32l-3.5,0.7l-5.5,1.1c0,0,0,0,0,0c0,0-0.1,0.9-0.4,2.2c0,0,0,0.1,0,0.1v1.1h11.7v-37.2H614.9z"/>
		<path class="st2" d="M617.2,523.6v57.8h28.7v-57.8H617.2z M642.4,573h-21.8v-35.2h21.8V573z"/>
		<path class="st13" d="M645.9,541.4v11c0.3-0.7,0.7-1.4,1.1-2c0.1-0.2,0.2-0.4,0.4-0.5c0.1-0.2,0.2-0.3,0.3-0.4
			c0.4-0.6,0.8-1.1,1.2-1.5v-6.5H645.9z M645.9,541.4v11c0.3-0.7,0.7-1.4,1.1-2c0.1-0.2,0.2-0.4,0.4-0.5c0.1-0.2,0.2-0.3,0.3-0.4
			c0.4-0.6,0.8-1.1,1.2-1.5v-6.5H645.9z M645.9,541.4v11c0.3-0.7,0.7-1.4,1.1-2c0.1-0.2,0.2-0.4,0.4-0.5c0.1-0.2,0.2-0.3,0.3-0.4
			c0.4-0.6,0.8-1.1,1.2-1.5v-6.5H645.9z M645.9,541.4v11c0.3-0.7,0.7-1.4,1.1-2c0.1-0.2,0.2-0.4,0.4-0.5c0.1-0.2,0.2-0.3,0.3-0.4
			c0.4-0.6,0.8-1.1,1.2-1.5v-6.5H645.9z M645.9,541.4v7l1.1,1.1l1.9,1.9v-10H645.9z M645.9,541.4v37.2h2.2v-8.9h0.8v-28.3H645.9z
			 M662,526.4l-16.1-2.8v57.8l1.8,0.3l0.4,0.1l10.4,1.8l5,0.9l5.3,0.9l3.2,0.6l2.5,0.4v-57.8L662,526.4z M670.1,541.6v36l-1.4-0.3
			l-2.1-0.4l-1-0.2l-4.9-1l-1-0.2l-10.8-2.1v-36h0l10.8,2.1l9.4,1.9L670.1,541.6z M645.9,541.4v37.2h2.2v-8.9h0.8v-28.3H645.9z
			 M645.9,541.4v11c0.3-0.7,0.7-1.4,1.1-2c0.1-0.2,0.2-0.4,0.4-0.5c0.1-0.2,0.2-0.3,0.3-0.4c0.4-0.6,0.8-1.1,1.2-1.5v-6.5H645.9z
			 M645.9,541.4v11c0.3-0.7,0.7-1.4,1.1-2c0.1-0.2,0.2-0.4,0.4-0.5c0.1-0.2,0.2-0.3,0.3-0.4c0.4-0.6,0.8-1.1,1.2-1.5v-6.5H645.9z
			 M645.9,541.4v11c0.3-0.7,0.7-1.4,1.1-2c0.1-0.2,0.2-0.4,0.4-0.5c0.1-0.2,0.2-0.3,0.3-0.4c0.4-0.6,0.8-1.1,1.2-1.5v-6.5H645.9z
			 M645.9,541.4v11c0.3-0.7,0.7-1.4,1.1-2c0.1-0.2,0.2-0.4,0.4-0.5c0.1-0.2,0.2-0.3,0.3-0.4c0.4-0.6,0.8-1.1,1.2-1.5v-6.5H645.9z
			 M645.9,541.4v11c0.3-0.7,0.7-1.4,1.1-2c0.1-0.2,0.2-0.4,0.4-0.5c0.1-0.2,0.2-0.3,0.3-0.4c0.4-0.6,0.8-1.1,1.2-1.5v-6.5H645.9z"/>
		<path class="st8" d="M641.9,503.2h-20.7c-3.8,0-7.5,1.4-10.3,3.9l-28,25l32.4-5.6h32.4l32.4,5.6l-28-25
			C649.3,504.6,645.7,503.2,641.9,503.2z"/>
		<polygon class="st2" points="647.8,523.6 615.3,523.6 582.9,529.2 582.9,539.1 615.3,533.5 647.8,533.5 680.2,539.1 680.2,529.2 
					"/>
		<polygon class="st2" points="647.8,578.6 615.3,578.6 582.9,584.2 582.9,594.1 615.3,588.5 647.8,588.5 680.2,594.1 680.2,584.2 
					"/>
		<path class="st11" d="M638.7,573h-14.6v-13.3c0-4,3.3-7.3,7.3-7.3l0,0c4,0,7.3,3.3,7.3,7.3V573z"/>
	</g>
	<g>
		<rect x="343.7" y="448.2" class="st11" width="245.2" height="49.5"/>
		<polygon class="st11" points="573.1,550.6 573.1,583.2 588.9,583.2 588.9,852.5 343.7,852.5 343.7,534.8 588.9,534.8 588.9,550.6 
					"/>
		<polygon class="st14" points="800.4,448.2 800.4,852.5 588.9,852.5 588.9,583.2 605.7,583.2 605.7,550.6 588.9,550.6 588.9,448.2 
					"/>
		<path class="st15" d="M588.9,550.6v32.7h1.4v0c0.9-2.1,1.6-4,2.3-6c0.1,0.1,0.2,0.3,0.3,0.4c0.2,0.2,0.4,0.5,0.7,0.7
			c0.2-0.6,0.4-1.1,0.5-1.7c0.2-0.5,0.3-1,0.4-1.5c0-0.2,0.1-0.3,0.1-0.4c0-0.1,0.1-0.2,0.1-0.3c0.1-0.5,0.3-1,0.4-1.5
			c0.4-1.6,0.8-3.3,1.1-4.9c0,0,0-0.1,0-0.1c0,0,0-0.1,0-0.1c0,0,0,0,0,0h0v0c0.1-0.3,0.1-0.6,0.2-0.9v0c0-0.3,0.1-0.5,0.1-0.8
			c0.1-0.9,0.3-1.7,0.4-2.6c0.4-2.5,0.7-5.1,0.9-7.7c0,0.4,0.1,0.9,0.1,1.3c0,0.3,0.1,0.6,0.1,0.9v0.1c0.4,6.4,0.9,12.7,1.3,19
			c0.2,2.1,0.3,4.1,0.4,6.2v0h5.9v-32.7H588.9z M635.8,560.6l-4.1-4.1l-0.2-0.2l-0.5,0.5l-0.9,0.9l-10.4,10.4l-0.3,0.3l0.3,0.3
			l5.3,5.4l4.6,4.6c0.5-0.5,0.9-1.1,1.4-1.7c0,0,0.1-0.1,0.1-0.1c1.3-1.7,2.7-3.5,4.2-5.5v0c0.2-0.2,0.4-0.5,0.5-0.7
			c1.3-1.8,2.7-3.8,4.1-5.8L635.8,560.6z M588.9,550.6v32.7h1.4v0c0.9-2.1,1.6-4,2.3-6c0.1,0.1,0.2,0.3,0.3,0.4
			c0.2,0.2,0.4,0.5,0.7,0.7c0.2-0.6,0.4-1.1,0.5-1.7c0.2-0.5,0.3-1,0.4-1.5c0-0.2,0.1-0.3,0.1-0.4c0-0.1,0.1-0.2,0.1-0.3
			c0.1-0.5,0.3-1,0.4-1.5c0.4-1.6,0.8-3.3,1.1-4.9c0,0,0-0.1,0-0.1c0,0,0-0.1,0-0.1v0c0.1-0.3,0.1-0.6,0.2-0.9v0
			c0-0.3,0.1-0.5,0.1-0.8c0.1-0.9,0.3-1.7,0.4-2.6c0.4-2.5,0.7-5.1,0.9-7.7c0,0.4,0.1,0.9,0.1,1.3c0,0.3,0.1,0.6,0.1,0.9v0.1
			c0.4,6.4,0.9,12.7,1.3,19c0.2,2.1,0.3,4.1,0.4,6.2v0h5.9v-32.7H588.9z M635.8,560.6l-4.1-4.1l-0.2-0.2l-0.5,0.5l-0.9,0.9
			l-10.4,10.4l-0.3,0.3l0.3,0.3l5.3,5.4l4.6,4.6c0.5-0.5,0.9-1.1,1.4-1.7c0,0,0.1-0.1,0.1-0.1c1.3-1.7,2.7-3.5,4.2-5.5v0
			c0.2-0.2,0.4-0.5,0.5-0.7c1.3-1.8,2.7-3.8,4.1-5.8L635.8,560.6z M588.9,550.6v32.7h1.4v0c0.9-2.1,1.6-4,2.3-6
			c0.1,0.1,0.2,0.3,0.3,0.4c0.2,0.2,0.4,0.5,0.7,0.7c0.2-0.6,0.4-1.1,0.5-1.7c0.2-0.5,0.3-1,0.4-1.5c0-0.2,0.1-0.3,0.1-0.4
			c0-0.1,0.1-0.2,0.1-0.3c0.1-0.5,0.3-1,0.4-1.5c0.4-1.6,0.8-3.3,1.1-4.9c0,0,0-0.1,0-0.1c0,0,0-0.1,0-0.1h0v0
			c0.1-0.3,0.1-0.6,0.2-0.9v0c0-0.3,0.1-0.5,0.1-0.8c0.1-0.9,0.3-1.7,0.4-2.6c0.4-2.5,0.7-5.1,0.9-7.7c0,0.4,0.1,0.9,0.1,1.3
			c0,0.3,0.1,0.6,0.1,0.9v0.1c0.4,6.4,0.9,12.7,1.3,19c0.2,2.1,0.3,4.1,0.4,6.2v0h5.9v-32.7H588.9z M635.8,560.6l-4.1-4.1l-0.2-0.2
			l-0.5,0.5l-0.9,0.9l-10.4,10.4l-0.3,0.3l0.3,0.3l5.3,5.4l4.6,4.6c0.5-0.5,0.9-1.1,1.4-1.7c0,0,0.1-0.1,0.1-0.1
			c1.3-1.7,2.7-3.5,4.2-5.5v0c0.2-0.2,0.4-0.5,0.5-0.7c1.3-1.8,2.7-3.8,4.1-5.8L635.8,560.6z M588.9,550.6v32.7h1.4v0
			c0.9-2.1,1.6-4,2.3-6c0.1,0.1,0.2,0.3,0.3,0.4c0.2,0.2,0.4,0.5,0.7,0.7c0.2-0.6,0.4-1.1,0.5-1.7c0.2-0.5,0.3-1,0.4-1.5
			c0-0.2,0.1-0.3,0.1-0.4c0-0.1,0.1-0.2,0.1-0.3c0.1-0.5,0.3-1,0.4-1.5c0.4-1.6,0.8-3.3,1.1-4.9c0,0,0-0.1,0-0.1c0,0,0-0.1,0-0.1h0
			v0c0.1-0.3,0.1-0.6,0.2-0.9v0c0-0.3,0.1-0.5,0.1-0.8c0.1-0.9,0.3-1.7,0.4-2.6c0.4-2.5,0.7-5.1,0.9-7.7c0,0.4,0.1,0.9,0.1,1.3
			c0,0.3,0.1,0.6,0.1,0.9v0.1c0.4,6.4,0.9,12.7,1.3,19c0.2,2.1,0.3,4.1,0.4,6.2v0h5.9v-32.7H588.9z M635.8,560.6l-4.1-4.1l-0.2-0.2
			l-0.5,0.5l-0.9,0.9l-10.4,10.4l-0.3,0.3l0.3,0.3l5.3,5.4l4.6,4.6c0.5-0.5,0.9-1.1,1.4-1.7c0,0,0.1-0.1,0.1-0.1
			c1.3-1.7,2.7-3.5,4.2-5.5v0c0.2-0.2,0.4-0.5,0.5-0.7c1.3-1.8,2.7-3.8,4.1-5.8L635.8,560.6z M588.9,550.6v32.7h16.8v-32.7H588.9z
			 M640.4,565.3l-0.6-0.6l-4.1-4.1l-4.1-4.1l-0.2-0.2l-0.5,0.5l-0.9,0.9l-10.4,10.4l-0.3,0.3l0.3,0.3l5.3,5.4l4.6,4.6l1.9,1.9
			l4.6-4.6l4.4-4.4l3.1-3.1L640.4,565.3z M692.2,638.2c-0.4-0.8-0.8-1.5-1.3-2.3c-0.1-0.1-0.2-0.3-0.3-0.4c-0.8-1.2-1.6-2.4-2.4-3.5
			c-0.7-0.9-1.4-1.8-2.1-2.6c-0.2-0.3-0.5-0.5-0.7-0.8v0c-0.4-0.4-0.7-0.8-1.1-1.2c-0.1-0.1-0.2-0.3-0.4-0.4
			c-0.1-0.1-0.2-0.2-0.3-0.3c-0.3-0.2-0.5-0.4-0.7-0.6c-1.5-1.3-2.9-2.4-4.3-3.3c-0.6-0.4-1.2-0.7-1.7-1c0,0-0.1,0-0.1-0.1
			c0,0-0.1-0.1-0.1-0.1c-0.1,0-0.1-0.1-0.2-0.1c-0.1,0-0.1-0.1-0.2-0.1c-0.7-0.4-1.4-0.8-2-1c-2.9-1.4-5.7-2.5-8.5-3.5
			c0,0-0.1,0-0.1,0h0c-1.1-0.4-2.3-0.8-3.4-1.2c-0.3-0.1-0.7-0.2-1-0.3h0c-0.2-0.1-0.4-0.1-0.5-0.2c-0.5-0.2-1.1-0.4-1.7-0.6
			c-1.2-0.4-2.3-0.7-3-0.9c-0.1,0-0.2-0.1-0.3-0.1l0,0c-0.7-0.6-1.2-1.3-1.6-2c-0.2-0.3-0.3-0.7-0.4-1c0-0.1-0.1-0.2-0.1-0.3
			c0-0.2-0.1-0.3-0.1-0.4c0-0.1-0.1-0.3-0.1-0.4c0-0.2-0.1-0.4-0.1-0.5c0-0.1,0-0.1-0.1-0.2c-0.1-0.2-0.1-0.4-0.1-0.6
			c-0.1-0.2-0.1-0.5-0.1-0.7c0-0.3,0-0.7,0-1c0-0.6,0-1.2,0-2.1c0-0.4,0-0.9,0.1-1.3l-2.7,0.5v-7.4l6.5-1.1c0.1-0.3,0.3-0.7,0.4-1.1
			c0.3-0.8,0.5-1.7,0.8-2.6l11.5-2h2.1v-38.8H650v106.9c2.7,0.3,5.3,1,7.7,2v-17.6h33.8c0.5-0.6,0.9-1.3,1.5-1.9
			C692.7,639.3,692.4,638.7,692.2,638.2z M588.9,497.7v37.1h211.6v-37.1H588.9z M635.8,560.6l-4.1-4.1l-0.2-0.2l-0.5,0.5l-0.9,0.9
			l-10.4,10.4l-0.3,0.3l0.3,0.3l5.3,5.4l4.6,4.6c0.5-0.5,0.9-1.1,1.4-1.7c0,0,0.1-0.1,0.1-0.1c1.3-1.7,2.7-3.5,4.2-5.5v0
			c0.2-0.2,0.4-0.5,0.5-0.7c1.3-1.8,2.7-3.8,4.1-5.8L635.8,560.6z M588.9,550.6v32.7h1.4v0c0.9-2.1,1.6-4,2.3-6
			c0.1,0.1,0.2,0.3,0.3,0.4c0.2,0.2,0.4,0.5,0.7,0.7c0.2-0.6,0.4-1.1,0.5-1.7c0.2-0.5,0.3-1,0.4-1.5c0-0.2,0.1-0.3,0.1-0.4
			c0-0.1,0.1-0.2,0.1-0.3c0.1-0.5,0.3-1,0.4-1.5c0.4-1.6,0.8-3.3,1.1-4.9c0,0,0-0.1,0-0.1c0,0,0-0.1,0-0.1h0v0
			c0.1-0.3,0.1-0.6,0.2-0.9v0c0-0.3,0.1-0.5,0.1-0.8c0.1-0.9,0.3-1.7,0.4-2.6c0.4-2.5,0.7-5.1,0.9-7.7c0,0.4,0.1,0.9,0.1,1.3
			c0,0.3,0.1,0.6,0.1,0.9v0.1c0.4,6.4,0.9,12.7,1.3,19c0.2,2.1,0.3,4.1,0.4,6.2v0h5.9v-32.7H588.9z M635.8,560.6l-4.1-4.1l-0.2-0.2
			l-0.5,0.5l-0.9,0.9l-10.4,10.4l-0.3,0.3l0.3,0.3l5.3,5.4l4.6,4.6c0.5-0.5,0.9-1.1,1.4-1.7c0,0,0.1-0.1,0.1-0.1
			c1.3-1.7,2.7-3.5,4.2-5.5v0c0.2-0.2,0.4-0.5,0.5-0.7c1.3-1.8,2.7-3.8,4.1-5.8L635.8,560.6z M588.9,550.6v32.7h1.4v0
			c0.9-2.1,1.6-4,2.3-6c0.1,0.1,0.2,0.3,0.3,0.4c0.2,0.2,0.4,0.5,0.7,0.7c0.2-0.6,0.4-1.1,0.5-1.7c0.2-0.5,0.3-1,0.4-1.5
			c0-0.2,0.1-0.3,0.1-0.4c0-0.1,0.1-0.2,0.1-0.3c0.1-0.5,0.3-1,0.4-1.5c0.4-1.6,0.8-3.3,1.1-4.9c0,0,0-0.1,0-0.1c0,0,0-0.1,0-0.1h0
			v0c0.1-0.3,0.1-0.6,0.2-0.9v0c0-0.3,0.1-0.5,0.1-0.8c0.1-0.9,0.3-1.7,0.4-2.6c0.4-2.5,0.7-5.1,0.9-7.7c0,0.4,0.1,0.9,0.1,1.3
			c0,0.3,0.1,0.6,0.1,0.9v0.1c0.4,6.4,0.9,12.7,1.3,19c0.2,2.1,0.3,4.1,0.4,6.2v0h5.9v-32.7H588.9z M635.8,560.6l-4.1-4.1l-0.2-0.2
			l-0.5,0.5l-0.9,0.9l-10.4,10.4l-0.3,0.3l0.3,0.3l5.3,5.4l4.6,4.6c0.5-0.5,0.9-1.1,1.4-1.7c0,0,0.1-0.1,0.1-0.1
			c1.3-1.7,2.7-3.5,4.2-5.5v0c0.2-0.2,0.4-0.5,0.5-0.7c1.3-1.8,2.7-3.8,4.1-5.8L635.8,560.6z M588.9,550.6v32.7h1.4v0
			c0.9-2.1,1.6-4,2.3-6c0.1,0.1,0.2,0.3,0.3,0.4c0.2,0.2,0.4,0.5,0.7,0.7c0.2-0.6,0.4-1.1,0.5-1.7c0.2-0.5,0.3-1,0.4-1.5
			c0-0.2,0.1-0.3,0.1-0.4c0-0.1,0.1-0.2,0.1-0.3c0.1-0.5,0.3-1,0.4-1.5c0.4-1.6,0.8-3.3,1.1-4.9c0,0,0-0.1,0-0.1c0,0,0-0.1,0-0.1h0
			v0c0.1-0.3,0.1-0.6,0.2-0.9v0c0-0.3,0.1-0.5,0.1-0.8c0.1-0.9,0.3-1.7,0.4-2.6c0.4-2.5,0.7-5.1,0.9-7.7c0,0.4,0.1,0.9,0.1,1.3
			c0,0.3,0.1,0.6,0.1,0.9v0.1c0.4,6.4,0.9,12.7,1.3,19c0.2,2.1,0.3,4.1,0.4,6.2v0h5.9v-32.7H588.9z M635.8,560.6l-4.1-4.1l-0.2-0.2
			l-0.5,0.5l-0.9,0.9l-10.4,10.4l-0.3,0.3l0.3,0.3l5.3,5.4l4.6,4.6c0.5-0.5,0.9-1.1,1.4-1.7c0,0,0.1-0.1,0.1-0.1
			c1.3-1.7,2.7-3.5,4.2-5.5v0c0.2-0.2,0.4-0.5,0.5-0.7c1.3-1.8,2.7-3.8,4.1-5.8L635.8,560.6z M588.9,550.6v32.7h1.4v0
			c0.9-2.1,1.6-4,2.3-6c0.1,0.1,0.2,0.3,0.3,0.4c0.2,0.2,0.4,0.5,0.7,0.7c0.2-0.6,0.4-1.1,0.5-1.7c0.2-0.5,0.3-1,0.4-1.5
			c0-0.2,0.1-0.3,0.1-0.4c0-0.1,0.1-0.2,0.1-0.3c0.1-0.5,0.3-1,0.4-1.5c0.4-1.6,0.8-3.3,1.1-4.9c0,0,0-0.1,0-0.1c0,0,0-0.1,0-0.1
			c0,0,0,0,0,0h0v0c0.1-0.3,0.1-0.6,0.2-0.9v0c0-0.3,0.1-0.5,0.1-0.8c0.1-0.9,0.3-1.7,0.4-2.6c0.4-2.5,0.7-5.1,0.9-7.7
			c0,0.4,0.1,0.9,0.1,1.3c0,0.3,0.1,0.6,0.1,0.9v0.1c0.4,6.4,0.9,12.7,1.3,19c0.2,2.1,0.3,4.1,0.4,6.2v0h5.9v-32.7H588.9z
			 M640.4,565.3l-0.6-0.6l-4.1-4.1l-4.1-4.1l-0.2-0.2l-0.5,0.5l-0.9,0.9l-10.4,10.4l-0.3,0.3l0.3,0.3l5.3,5.4l4.6,4.6l1.9,1.9
			l4.6-4.6l4.4-4.4l3.1-3.1L640.4,565.3z M734.3,567.1l-3.1-3.1l-7.7-7.7l-4.6,4.6l-0.8,0.8l-6.8,6.7l5.7,5.7l1.1,1.1l3.6,3.6
			l1.8,1.7l0.9-0.9l5-5l6.2-6.2L734.3,567.1z M650,550.6v249.1h55V550.6H650z M742,550.6v32.7h58.4v-32.7H742z M588.9,550.6v32.7
			h16.8v-32.7H588.9z"/>
		<path class="st16" d="M388.3,550.6v32.7h1c0.2-0.2,0.4-0.3,0.6-0.5c0.2-0.2,0.4-0.3,0.7-0.5c0.4-0.3,0.8-0.5,1.2-0.7
			c0.2-0.1,0.4-0.2,0.6-0.3c0.2-0.1,0.4-0.2,0.6-0.3c0.3-0.1,0.6-0.2,0.9-0.3c0.1,0,0.2-0.1,0.3-0.1c0.3-0.1,0.5-0.2,0.7-0.2
			c0.1-0.1,0.3-0.1,0.4-0.1c0.1,0,0.3-0.1,0.4-0.1c0.3-0.1,0.6-0.2,0.9-0.2c0.2,0,0.3-0.1,0.4-0.1c0,0,0,0,0,0h0
			c0.4-0.1,0.8-0.1,1.2-0.2c0.2,0,0.4,0,0.5-0.1c0.7,0,1.4,0,2.1,0c0.3,0,0.6,0,0.8,0.1c0.6,0.1,1.3,0.2,1.9,0.3
			c0.2,0.1,0.4,0.1,0.6,0.2c0.2,0.1,0.4,0.1,0.6,0.2c1.1,0.3,2,0.8,2.9,1.3c0.1,0,0.1,0.1,0.2,0.1c0.1,0.1,0.2,0.1,0.3,0.2
			c0.1,0,0.1,0.1,0.2,0.1v1.2h34.6v-32.7H388.3z M469.5,564l-7.7-7.7l-12.1,12.1l7.9,7.9l3.3,3.2l1,1l0.9-0.9l3.9-3.9l0,0l3.7-3.7
			l1.5-1.5l0,0l2-2L469.5,564z M480.3,550.6v32.7h54.9v-32.7H480.3z M560.4,562.9l-3.2-3.1l-1.7-1.7l-1.6-1.6l-0.1-0.1l-3.6,3.6
			l-2.3,2.3l-2.7,2.7l-3.2,3.2l-0.3,0.3l0.3,0.3l1.3,1.3l4.7,4.7l2.3,2.3l3.5,3.5l0.2,0.2l1.2-1.2c0,0,0,0,0,0l2.2-2.2l3.2-3.2
			l5.6-5.6L560.4,562.9z M388.3,550.6v32.7h1c0.2-0.2,0.4-0.3,0.6-0.5c0.2-0.2,0.4-0.3,0.7-0.5c0.4-0.3,0.8-0.5,1.2-0.7
			c0.2-0.1,0.4-0.2,0.6-0.3c0.2-0.1,0.4-0.2,0.6-0.3c0.3-0.1,0.6-0.2,0.9-0.3c0.1,0,0.2-0.1,0.3-0.1c0.3-0.1,0.5-0.2,0.7-0.2
			c0.1-0.1,0.3-0.1,0.4-0.1c0.1,0,0.3-0.1,0.4-0.1c0.3-0.1,0.6-0.2,0.9-0.2c0.2,0,0.3-0.1,0.4-0.1c0,0,0,0,0,0h0
			c0.4-0.1,0.8-0.1,1.2-0.2c0.2,0,0.4,0,0.5-0.1c0.7,0,1.4,0,2.1,0c0.3,0,0.6,0,0.8,0.1c0.6,0.1,1.3,0.2,1.9,0.3
			c0.2,0.1,0.4,0.1,0.6,0.2c0.2,0.1,0.4,0.1,0.6,0.2c1.1,0.3,2,0.8,2.9,1.3c0.1,0,0.1,0.1,0.2,0.1c0.1,0.1,0.2,0.1,0.3,0.2
			c0.1,0,0.1,0.1,0.2,0.1v1.2h34.6v-32.7H388.3z M469.5,564l-7.7-7.7l-12.1,12.1l7.9,7.9l3.3,3.2l1,1l0.9-0.9l3.9-3.9l0,0l3.7-3.7
			l1.5-1.5l0,0l2-2L469.5,564z M480.3,550.6v32.7h54.9v-32.7H480.3z M560.4,562.9l-3.2-3.1l-1.7-1.7l-1.6-1.6l-0.1-0.1l-3.6,3.6
			l-2.3,2.3l-2.7,2.7l-3.2,3.2l-0.3,0.3l0.3,0.3l1.3,1.3l4.7,4.7l2.3,2.3l3.5,3.5l0.2,0.2l1.2-1.2c0,0,0,0,0,0l2.2-2.2l3.2-3.2
			l5.6-5.6L560.4,562.9z M388.3,550.6v32.7h1c0.2-0.2,0.4-0.3,0.6-0.5c0.2-0.2,0.4-0.3,0.7-0.5c0.4-0.3,0.8-0.5,1.2-0.7
			c0.2-0.1,0.4-0.2,0.6-0.3c0.2-0.1,0.4-0.2,0.6-0.3c0.3-0.1,0.6-0.2,0.9-0.3c0.1,0,0.2-0.1,0.3-0.1c0.3-0.1,0.5-0.2,0.7-0.2
			c0.1-0.1,0.3-0.1,0.4-0.1c0.1,0,0.3-0.1,0.4-0.1c0.3-0.1,0.6-0.2,0.9-0.2c0.2,0,0.3-0.1,0.4-0.1c0,0,0,0,0,0h0
			c0.4-0.1,0.8-0.1,1.2-0.2c0.2,0,0.4,0,0.5-0.1c0.7,0,1.4,0,2.1,0c0.3,0,0.6,0,0.8,0.1c0.6,0.1,1.3,0.2,1.9,0.3
			c0.2,0.1,0.4,0.1,0.6,0.2c0.2,0.1,0.4,0.1,0.6,0.2c1.1,0.3,2,0.8,2.9,1.3c0.1,0,0.1,0.1,0.2,0.1c0.1,0.1,0.2,0.1,0.3,0.2
			c0.1,0,0.1,0.1,0.2,0.1v1.2h34.6v-32.7H388.3z M469.5,564l-7.7-7.7l-12.1,12.1l7.9,7.9l3.3,3.2l1,1l0.9-0.9l3.9-3.9l0,0l3.7-3.7
			l1.5-1.5l0,0l2-2L469.5,564z M480.3,550.6v32.7h54.9v-32.7H480.3z M560.4,562.9l-3.2-3.1l-1.7-1.7l-1.6-1.6l-0.1-0.1l-3.6,3.6
			l-2.3,2.3l-2.7,2.7l-3.2,3.2l-0.3,0.3l0.3,0.3l1.3,1.3l4.7,4.7l2.3,2.3l3.5,3.5l0.2,0.2l1.2-1.2c0,0,0,0,0,0l2.2-2.2l3.2-3.2
			l5.6-5.6L560.4,562.9z M388.3,550.6v32.7h1c0.2-0.2,0.4-0.3,0.6-0.5c0.2-0.2,0.4-0.3,0.7-0.5c0.4-0.3,0.8-0.5,1.2-0.7
			c0.2-0.1,0.4-0.2,0.6-0.3c0.2-0.1,0.4-0.2,0.6-0.3c0.3-0.1,0.6-0.2,0.9-0.3c0.1,0,0.2-0.1,0.3-0.1c0.3-0.1,0.5-0.2,0.7-0.2
			c0.1-0.1,0.3-0.1,0.4-0.1c0.1,0,0.3-0.1,0.4-0.1c0.3-0.1,0.6-0.2,0.9-0.2c0.2,0,0.3-0.1,0.4-0.1c0,0,0,0,0,0h0
			c0.4-0.1,0.8-0.1,1.2-0.2c0.2,0,0.4,0,0.5-0.1c0.7,0,1.4,0,2.1,0c0.3,0,0.6,0,0.8,0.1c0.6,0.1,1.3,0.2,1.9,0.3
			c0.2,0.1,0.4,0.1,0.6,0.2c0.2,0.1,0.4,0.1,0.6,0.2c1.1,0.3,2,0.8,2.9,1.3c0.1,0,0.1,0.1,0.2,0.1c0.1,0.1,0.2,0.1,0.3,0.2
			c0.1,0,0.1,0.1,0.2,0.1v1.2h34.6v-32.7H388.3z M469.5,564l-7.7-7.7l-12.1,12.1l7.9,7.9l3.3,3.2l1,1l0.9-0.9l3.9-3.9l0,0l3.7-3.7
			l1.5-1.5l0,0l2-2L469.5,564z M480.3,550.6v32.7h54.9v-32.7H480.3z M560.4,562.9l-3.2-3.1l-1.7-1.7l-1.6-1.6l-0.1-0.1l-3.6,3.6
			l-2.3,2.3l-2.7,2.7l-3.2,3.2l-0.3,0.3l0.3,0.3l1.3,1.3l4.7,4.7l2.3,2.3l3.5,3.5l0.2,0.2l1.2-1.2c0,0,0,0,0,0l2.2-2.2l3.2-3.2
			l5.6-5.6L560.4,562.9z M343.6,550.6v32.7h7.6v-32.7H343.6z M381.2,567.8l-5.4-5.4l-3.3-3.3l-2.8-2.8l-12.1,12.1l1.6,1.6l0,0
			l5.5,5.5l4,4.1l1,1l11-11l1.2-1.2L381.2,567.8z M388.3,550.6v32.7h55v-32.7H388.3z M469.5,564l-7.7-7.7l-12.1,12.1l7.9,7.9
			l3.3,3.2l1,1l0.9-0.9l3.9-3.9l0,0l3.7-3.7l1.5-1.5l0,0l2-2L469.5,564z M480.3,550.6v32.7h54.9v-32.7H480.3z M560.4,562.9l-3.2-3.1
			l-1.7-1.7l-1.6-1.6l-0.1-0.1l-3.6,3.6l-2.3,2.3l-2.7,2.7l-3.2,3.2l-0.3,0.3l0.3,0.3l1.3,1.3l4.7,4.7l2.3,2.3l3.5,3.5l0.2,0.2
			l1.2-1.2c0,0,0,0,0,0l2.2-2.2l3.2-3.2l5.6-5.6L560.4,562.9z M573,550.6v32.7h15.8v-32.7H573z M343.6,497.7v37.1h245.2v-37.1H343.6
			z M573,550.6v32.7h15.8v-32.7H573z M557.3,559.8l-1.7-1.7l-1.6-1.6l-0.1-0.1l-3.6,3.6l-2.3,2.3l-2.7,2.7l-3.2,3.2l-0.3,0.3
			l0.3,0.3l1.3,1.3l4.7,4.7l2.3,2.3l3.5,3.5l0.2,0.2l1.2-1.2c0,0,0,0,0,0l2.2-2.2l3.2-3.2l5.6-5.6l-5.6-5.6L557.3,559.8z
			 M480.3,550.6v32.7h54.9v-32.7H480.3z M461.8,556.3l-12.1,12.1l7.9,7.9l3.3,3.2l1,1l0.9-0.9l3.9-3.9l0,0l3.7-3.7l1.5-1.5l0,0l2-2
			l-4.5-4.5L461.8,556.3z M388.3,583.2h55v-32.7h-55V583.2z M375.8,562.4l-3.3-3.3l-2.8-2.8l-12.1,12.1l1.6,1.6l0,0l5.5,5.5l4,4.1
			l1,1l11-11l1.2-1.2l-0.7-0.7L375.8,562.4z M343.6,550.6v32.7h7.6v-32.7H343.6z M560.4,562.9l-3.2-3.1l-1.7-1.7l-1.6-1.6l-0.1-0.1
			l-3.6,3.6l-2.3,2.3l-2.7,2.7l-3.2,3.2l-0.3,0.3l0.3,0.3l1.3,1.3l4.7,4.7l2.3,2.3l3.5,3.5l0.2,0.2l1.2-1.2c0,0,0,0,0,0l2.2-2.2
			l3.2-3.2l5.6-5.6L560.4,562.9z M480.3,550.6v32.7h54.9v-32.7H480.3z M469.5,564l-7.7-7.7l-12.1,12.1l7.9,7.9l3.3,3.2l1,1l0.9-0.9
			l3.9-3.9l0,0l3.7-3.7l1.5-1.5l0,0l2-2L469.5,564z M388.3,550.6v32.7h1c0.2-0.2,0.4-0.3,0.6-0.5c0.2-0.2,0.4-0.3,0.7-0.5
			c0.4-0.3,0.8-0.5,1.2-0.7c0.2-0.1,0.4-0.2,0.6-0.3c0.2-0.1,0.4-0.2,0.6-0.3c0.3-0.1,0.6-0.2,0.9-0.3c0.1,0,0.2-0.1,0.3-0.1
			c0.3-0.1,0.5-0.2,0.7-0.2c0.1-0.1,0.3-0.1,0.4-0.1c0.1,0,0.3-0.1,0.4-0.1c0.3-0.1,0.6-0.2,0.9-0.2c0.2,0,0.3-0.1,0.4-0.1
			c0,0,0,0,0,0h0c0.4-0.1,0.8-0.1,1.2-0.2c0.2,0,0.4,0,0.5-0.1c0.7,0,1.4,0,2.1,0c0.3,0,0.6,0,0.8,0.1c0.6,0.1,1.3,0.2,1.9,0.3
			c0.2,0.1,0.4,0.1,0.6,0.2c0.2,0.1,0.4,0.1,0.6,0.2c1.1,0.3,2,0.8,2.9,1.3c0.1,0,0.1,0.1,0.2,0.1c0.1,0.1,0.2,0.1,0.3,0.2
			c0.1,0,0.1,0.1,0.2,0.1v1.2h34.6v-32.7H388.3z M560.4,562.9l-3.2-3.1l-1.7-1.7l-1.6-1.6l-0.1-0.1l-3.6,3.6l-2.3,2.3l-2.7,2.7
			l-3.2,3.2l-0.3,0.3l0.3,0.3l1.3,1.3l4.7,4.7l2.3,2.3l3.5,3.5l0.2,0.2l1.2-1.2c0,0,0,0,0,0l2.2-2.2l3.2-3.2l5.6-5.6L560.4,562.9z
			 M480.3,550.6v32.7h54.9v-32.7H480.3z M469.5,564l-7.7-7.7l-12.1,12.1l7.9,7.9l3.3,3.2l1,1l0.9-0.9l3.9-3.9l0,0l3.7-3.7l1.5-1.5
			l0,0l2-2L469.5,564z M388.3,550.6v32.7h1c0.2-0.2,0.4-0.3,0.6-0.5c0.2-0.2,0.4-0.3,0.7-0.5c0.4-0.3,0.8-0.5,1.2-0.7
			c0.2-0.1,0.4-0.2,0.6-0.3c0.2-0.1,0.4-0.2,0.6-0.3c0.3-0.1,0.6-0.2,0.9-0.3c0.1,0,0.2-0.1,0.3-0.1c0.3-0.1,0.5-0.2,0.7-0.2
			c0.1-0.1,0.3-0.1,0.4-0.1c0.1,0,0.3-0.1,0.4-0.1c0.3-0.1,0.6-0.2,0.9-0.2c0.2,0,0.3-0.1,0.4-0.1c0,0,0,0,0,0h0
			c0.4-0.1,0.8-0.1,1.2-0.2c0.2,0,0.4,0,0.5-0.1c0.7,0,1.4,0,2.1,0c0.3,0,0.6,0,0.8,0.1c0.6,0.1,1.3,0.2,1.9,0.3
			c0.2,0.1,0.4,0.1,0.6,0.2c0.2,0.1,0.4,0.1,0.6,0.2c1.1,0.3,2,0.8,2.9,1.3c0.1,0,0.1,0.1,0.2,0.1c0.1,0.1,0.2,0.1,0.3,0.2
			c0.1,0,0.1,0.1,0.2,0.1v1.2h34.6v-32.7H388.3z M560.4,562.9l-3.2-3.1l-1.7-1.7l-1.6-1.6l-0.1-0.1l-3.6,3.6l-2.3,2.3l-2.7,2.7
			l-3.2,3.2l-0.3,0.3l0.3,0.3l1.3,1.3l4.7,4.7l2.3,2.3l3.5,3.5l0.2,0.2l1.2-1.2c0,0,0,0,0,0l2.2-2.2l3.2-3.2l5.6-5.6L560.4,562.9z
			 M480.3,550.6v32.7h54.9v-32.7H480.3z M469.5,564l-7.7-7.7l-12.1,12.1l7.9,7.9l3.3,3.2l1,1l0.9-0.9l3.9-3.9l0,0l3.7-3.7l1.5-1.5
			l0,0l2-2L469.5,564z M388.3,550.6v32.7h1c0.2-0.2,0.4-0.3,0.6-0.5c0.2-0.2,0.4-0.3,0.7-0.5c0.4-0.3,0.8-0.5,1.2-0.7
			c0.2-0.1,0.4-0.2,0.6-0.3c0.2-0.1,0.4-0.2,0.6-0.3c0.3-0.1,0.6-0.2,0.9-0.3c0.1,0,0.2-0.1,0.3-0.1c0.3-0.1,0.5-0.2,0.7-0.2
			c0.1-0.1,0.3-0.1,0.4-0.1c0.1,0,0.3-0.1,0.4-0.1c0.3-0.1,0.6-0.2,0.9-0.2c0.2,0,0.3-0.1,0.4-0.1c0,0,0,0,0,0h0
			c0.4-0.1,0.8-0.1,1.2-0.2c0.2,0,0.4,0,0.5-0.1c0.7,0,1.4,0,2.1,0c0.3,0,0.6,0,0.8,0.1c0.6,0.1,1.3,0.2,1.9,0.3
			c0.2,0.1,0.4,0.1,0.6,0.2c0.2,0.1,0.4,0.1,0.6,0.2c1.1,0.3,2,0.8,2.9,1.3c0.1,0,0.1,0.1,0.2,0.1c0.1,0.1,0.2,0.1,0.3,0.2
			c0.1,0,0.1,0.1,0.2,0.1v1.2h34.6v-32.7H388.3z M560.4,562.9l-3.2-3.1l-1.7-1.7l-1.6-1.6l-0.1-0.1l-3.6,3.6l-2.3,2.3l-2.7,2.7
			l-3.2,3.2l-0.3,0.3l0.3,0.3l1.3,1.3l4.7,4.7l2.3,2.3l3.5,3.5l0.2,0.2l1.2-1.2c0,0,0,0,0,0l2.2-2.2l3.2-3.2l5.6-5.6L560.4,562.9z
			 M480.3,550.6v32.7h54.9v-32.7H480.3z M469.5,564l-7.7-7.7l-12.1,12.1l7.9,7.9l3.3,3.2l1,1l0.9-0.9l3.9-3.9l0,0l3.7-3.7l1.5-1.5
			l0,0l2-2L469.5,564z M388.3,550.6v32.7h1c0.2-0.2,0.4-0.3,0.6-0.5c0.2-0.2,0.4-0.3,0.7-0.5c0.4-0.3,0.8-0.5,1.2-0.7
			c0.2-0.1,0.4-0.2,0.6-0.3c0.2-0.1,0.4-0.2,0.6-0.3c0.3-0.1,0.6-0.2,0.9-0.3c0.1,0,0.2-0.1,0.3-0.1c0.3-0.1,0.5-0.2,0.7-0.2
			c0.1-0.1,0.3-0.1,0.4-0.1c0.1,0,0.3-0.1,0.4-0.1c0.3-0.1,0.6-0.2,0.9-0.2c0.2,0,0.3-0.1,0.4-0.1c0,0,0,0,0,0h0
			c0.4-0.1,0.8-0.1,1.2-0.2c0.2,0,0.4,0,0.5-0.1c0.7,0,1.4,0,2.1,0c0.3,0,0.6,0,0.8,0.1c0.6,0.1,1.3,0.2,1.9,0.3
			c0.2,0.1,0.4,0.1,0.6,0.2c0.2,0.1,0.4,0.1,0.6,0.2c1.1,0.3,2,0.8,2.9,1.3c0.1,0,0.1,0.1,0.2,0.1c0.1,0.1,0.2,0.1,0.3,0.2
			c0.1,0,0.1,0.1,0.2,0.1v1.2h34.6v-32.7H388.3z M381.2,567.8l-5.4-5.4l-3.3-3.3l-2.8-2.8l-12.1,12.1l1.6,1.6l0,0l5.5,5.5l4,4.1l1,1
			l11-11l1.2-1.2L381.2,567.8z M343.6,550.6v32.7h7.6v-32.7H343.6z M441.2,583.2h2.1v-2C442.5,581.9,441.8,582.6,441.2,583.2z
			 M469.5,564l-7.7-7.7l-12.1,12.1l7.9,7.9l3.3,3.2l1,1l0.9-0.9l3.9-3.9l0,0l3.7-3.7l1.5-1.5l0,0l2-2L469.5,564z M388.3,550.6v32.7
			h55v-32.7H388.3z M560.4,562.9l-3.2-3.1l-1.7-1.7l-1.6-1.6l-0.1-0.1l-3.6,3.6l-2.3,2.3l-2.7,2.7l-3.2,3.2l-0.3,0.3l0.3,0.3
			l1.3,1.3l4.7,4.7l2.3,2.3l3.5,3.5l0.2,0.2l1.2-1.2c0,0,0,0,0,0l2.2-2.2l3.2-3.2l5.6-5.6L560.4,562.9z M480.3,550.6v32.7h54.9
			v-32.7H480.3z M573,550.6v32.7h15.8v-32.7H573z"/>
	</g>
	<g>
		<path class="st17" d="M470.2,810.8c0.2,0.9,0.4,1.9,0.6,2.8c-0.7,1.2-1.4,1.6-1.8,1.7c-1.1,0.2-1.8-0.8-3-0.4
			c-0.8,0.3-0.8,0.9-1.5,0.9c-0.8,0.1-1-0.8-2.1-0.9c-0.7-0.1-0.9,0.3-1.7,0.5c-0.6,0.1-1.5,0.1-2.7-0.6c-0.8-1.4-1.6-2.7-2.4-4.1
			c-0.5-0.9-1-1.8-1.5-2.7l-0.7-1.5c-0.6-0.7-1.2-1.3-1.8-2c-1.9-2-3.7-4.1-5.5-6.1c-4.1-4.6-8.2-9.1-12.3-13.6
			c-0.5-0.6-1-1.1-1.5-1.7c-3.9-4.3-7.8-8.6-11.6-12.9c-3.4-6.7-6.8-13.5-10.2-20.2c-0.2,3.1-0.4,4.4-0.4,4.6
			c-0.6,7.1,6.9,19.8,3.3,31.4c-1.1,3.7-2.2,3.4-2.5,6.4c-0.3,2.3,0.2,4.3,0.9,6c0.2,0.6,0.5,1.1,0.7,1.6c0.2,0.5,0.5,1,0.8,1.5
			c0.5,1,1,2,1.4,3c0.7,1.6,1.1,3.3,1,5.3c0,0.3,0,0.6-0.1,0.8c-0.1,0.9-0.3,2-0.8,3.3c-0.6,1.6-1.6,3.4-3.3,5.3
			c4.7,24.5,9.3,49,14,73.6c1,6.5,2,12.9,3.1,19.4c1.6,10.2,3.2,20.4,4.8,30.7H312.1c3.3-10.2,6.5-20.4,9.8-30.7
			c2.8-8.8,5.6-17.7,8.5-26.5c1.8-24.8,3.6-49.5,5.5-74.2c0-0.3,0-0.5,0.1-0.8c0.1-1,0.2-2,0.2-3.1c-0.1-0.9-0.1-1.9-0.1-3
			c-0.1-1.8-0.2-3.9-0.2-6.1c-0.1-2.2-0.1-4.7-0.2-7.2v-0.2c-0.1-3.6-0.1-7.4,0-11.2l-9.8-12.3l-0.6,6.1l-1.8,17.5l-0.6,5.9
			l-0.2,1.5l-0.6,6.1l-0.6,6.1l-0.2,1.6l2.1,4.8c-0.7,3.9-1.4,4.8-1.4,4.8c-0.4,0.5-1.1,1.2-2.5,1.7c-0.5,1-1,2.1-1.5,3.2
			c0,0.1-0.1,0.2-0.1,0.3c-1.3,0.6-2,0.5-2.5,0.3c-1-0.5-1-1.7-2.2-2.1c-0.8-0.3-1.2,0.2-1.8-0.2c-0.7-0.5-0.3-1.3-1.1-2
			c-0.5-0.5-0.9-0.3-1.7-0.7c-0.5-0.2-1.2-0.8-1.8-2c0.3-2.6,0.6-5.1,0.9-7.7l0.8-4.1l0.9-0.2v-49.1c0.8-1.6,0.1-12.3-0.8-18.6
			c-0.4-2.4-0.8-4.2-1.1-4.6c3.5-6.8,7-13.6,10.5-20.3c2.9-5.5,5.7-11.1,8.6-16.6c0.7-1.3,1.4-2.6,2-3.9c0.3-0.8,0.7-1.5,1.2-2.2
			c1-1.2,2.3-2,3.8-2.3l1.2-0.3l8.8-2.2c2.2-0.4,4.4-0.8,6.6-1.2c0.2,0,0.5-0.1,0.7-0.1c3.9-0.6,7.7-1.1,11.3-1.5c0,0,0,0,0.1,0
			c0.4,0.1,2.7-0.5,2.9-6v-0.2c0,0,0-0.1,0-0.1v-0.2c0-0.5,0-1.1,0-1.8c0-1.8,0.2-4.4,0.5-8.1c-0.4-0.9-0.7-1.8-1.1-2.7
			c-0.2-0.6-0.5-1.2-0.8-1.8c-0.1-0.2-0.2-0.4-0.2-0.6c-1.1-0.5-2.6-1.3-3.5-3c-0.9-1.7-1.3-4.1-0.5-5.7c-0.3-0.9-0.6-1.9-0.8-2.9
			c-0.1-0.4-0.2-0.9-0.3-1.3c-0.1-0.3-0.1-0.6-0.2-0.9c0,0,0,0,0,0v-0.3c-0.1-0.8-0.1-1.8,0.1-3c0-0.1,0-0.2,0-0.4
			c0-0.2,0.1-0.6,0.1-0.9c0.1-0.6,0.2-1.3,0.4-2.1c0.2-1,0.5-2.2,1-3.4c0.1-0.3,0.2-0.6,0.4-1c0.1-0.2,0.2-0.5,0.4-0.7
			c0-0.1,0.1-0.2,0.2-0.3c0.4-0.7,1-2,2.1-3.3c0.2-0.3,0.6-0.7,0.9-1c0.5-0.6,1.1-1.2,1.8-1.7c0.2-0.2,0.4-0.3,0.7-0.5
			c0.2-0.2,0.5-0.3,0.7-0.5c0.4-0.3,0.8-0.5,1.3-0.7c0.2-0.1,0.4-0.2,0.6-0.3c0.2-0.1,0.4-0.2,0.6-0.3c0.3-0.1,0.6-0.2,0.9-0.4
			c0.1,0,0.2-0.1,0.3-0.1c0.2-0.1,0.5-0.2,0.7-0.2c0.1-0.1,0.3-0.1,0.4-0.1c0.1-0.1,0.3-0.1,0.4-0.1c0.3-0.1,0.6-0.2,1-0.2
			c0.6-0.1,1.2-0.2,1.8-0.2c0.2,0,0.4,0,0.6-0.1c0.7,0,1.5,0,2.2,0c0.3,0,0.6,0,0.9,0.1c0.7,0.1,1.3,0.2,1.9,0.3
			c0.2,0.1,0.4,0.1,0.7,0.2c0.2,0.1,0.5,0.1,0.7,0.2c1.1,0.3,2.1,0.8,3.1,1.3c0.1,0,0.1,0.1,0.2,0.1c0.1,0.1,0.2,0.1,0.3,0.2
			c0.1,0,0.1,0.1,0.2,0.1c0.1,0.1,0.2,0.2,0.3,0.2c0.4,0.3,0.8,0.7,1.2,1c2.1,1.9,3.6,4.3,3.9,5c0.7,1.3,1.2,2.7,1.2,2.7
			c0,0,0,0.1,0,0.1c0.2,0.5,0.3,1,0.5,1.5c0.3,1.3,0.4,2.5,0.4,3.7c0,0,0,0,0,0v0.1c0,1-0.1,2-0.1,2.9c-0.2,2-0.7,3.6-0.9,4.2
			c0,0-0.1,0-0.3-0.1c-0.4,1.4-2,6.5-2.1,7.5c0,0-0.1,0.9-0.4,2.2c-0.4,2.2-1,4.1-1.6,5.8c-0.9,2.6-1.8,4.3-1.8,4.3
			c-0.1,0.1-0.2,0.3-0.2,0.5c-0.5,0.8-1,1.8-1.7,2.8c0,0.6-0.1,1.1-0.1,1.6c0,0.8-0.1,1.4-0.1,1.9c0,0.2,0,0.3,0,0.5
			c0,0.2,0,0.3,0,0.4c0,0.4,0.1,0.9,0.3,1.3c0.1,0.1,0.1,0.6,0.3,1.2c0.1,0.4,0.3,0.8,0.5,1.3c0.2,0.4,0.4,0.7,0.7,1.1
			c0.2,0.3,0.5,0.5,0.8,0.8v0c0.7,0.2,1.7,0.5,3,1c0.7,0.2,1.3,0.4,1.9,0.6c0,0,0,0,0.1,0c4.2,1.4,7.9,2.7,12,4.7
			c0.6,0.3,1.2,0.6,1.8,0.9c0.1,0.1,0.2,0.1,0.4,0.2c0.1,0.1,0.1,0.1,0.2,0.1c0.1,0.1,0.2,0.1,0.3,0.2c1.1,0.6,2.3,1.4,3.5,2.4
			c0.6,0.4,1.1,0.9,1.7,1.4c0.2,0.2,0.4,0.4,0.6,0.6c0.5,0.5,1.1,1.1,1.7,1.8c2,2.2,4.4,5.6,6,8.6c0.6,1,1.2,2.4,1.9,4.1
			c0.3,0.6,0.5,1.3,0.8,2c2.3,5.7,5.2,14,7.8,24.2c2.8,5.9,5.6,11.9,8.6,17.9c2.4,4.8,4.8,9.6,7.2,14.3c0.3,0.5,0.5,1,0.8,1.5
			c4.4,8.5,8.7,16.7,13.1,24.7l3.1,1.8l6.5,3.8c0.5,0.9,0.8,1.7,1,2.3c0.7,1.7,0.7,2.4,0.7,2.4c0,0.7-0.2,1.6-0.9,2.8
			C470.1,810.2,470.1,810.5,470.2,810.8z"/>
		<path class="st17" d="M743.5,805.4c0.3,1.4,0.6,2.8,0.9,4.2c-0.2,0.5-0.5,0.9-0.8,1.1c-0.5,0.5-0.9,0.7-1.3,0.8
			c-1.3,0.3-2.1-0.9-3.4-0.4c-0.1,0-0.2,0.1-0.3,0.1c-0.7,0.3-0.8,0.9-1.5,0.9c-0.9,0.1-1.2-0.9-2.3-1c-0.8-0.1-1,0.4-2,0.6
			c-0.7,0.1-1.7,0.1-3-0.6c-0.1-0.1-0.1-0.2-0.2-0.3c-1.2-2-2.4-4.1-3.6-6.1c-0.2-0.4-0.5-0.8-0.7-1.2l-0.8-1.7
			c-1-1.1-1.9-2.1-2.9-3.2c-5.3-5.9-10.6-11.8-16-17.7c-4.1-4.5-8.2-9.1-12.3-13.6c-1.7-1.9-3.4-3.7-5.1-5.6
			c-0.4-0.4-0.7-0.8-1.1-1.2c-3.9-7.7-7.7-15.4-11.6-23.1c-0.3,3.5-0.4,5.1-0.4,5.2c-0.6,8.1,7.9,22.5,3.8,35.8
			c-0.4,1.2-0.7,2.1-1.1,2.7c-0.8,1.6-1.5,2.1-1.8,4.5c-0.2,2,0,3.8,0.5,5.4c0.8,2.6,2.3,4.9,3.4,7.4c0,0,0,0,0,0.1
			c0.9,1.9,1.5,3.8,1.6,6.1c0,0.3,0,0.6,0,0.9c-0.1,1.3-0.3,2.8-1,4.6c-0.1,0.2-0.2,0.4-0.2,0.6c-0.4,0.8-0.8,1.7-1.4,2.6
			c-0.6,0.9-1.3,1.8-2.1,2.8c0.5,2.5,1,5.1,1.5,7.6c2.1,11.2,4.3,22.3,6.4,33.5c2.7,14.2,5.4,28.4,8.1,42.6
			c0.6,4.1,1.3,8.2,1.9,12.3c1.6,10.2,3.2,20.4,4.9,30.7H568.2c3.3-10.2,6.5-20.4,9.8-30.7c2.2-6.8,4.4-13.6,6.5-20.4
			c2-27,4-54,6-81c0.2-2,0.3-4.1,0.5-6.1c0-0.6,0.1-1.1,0.1-1.7c-0.1-1.3-0.1-2.8-0.2-4.4c-0.3-7-0.6-17-0.4-27.3l-8.3-10.4
			l-2.9-3.7l-5.2,51.1l2.3,5.5c-0.8,4.4-1.5,5.4-1.5,5.4c-0.4,0.5-1,1.2-2.2,1.7c-0.2,0.1-0.4,0.2-0.6,0.2c-0.6,1.3-1.2,2.6-1.9,3.9
			c-1.4,0.7-2.3,0.6-2.8,0.3c-1.2-0.5-1.2-1.9-2.5-2.4c-0.9-0.3-1.4,0.2-2-0.2c-0.8-0.5-0.4-1.5-1.3-2.3c-0.6-0.5-1.1-0.3-1.9-0.7
			c-0.6-0.3-1.4-0.9-2.1-2.3c0.3-2.9,0.7-5.9,1-8.8l0.9-4.6l1-0.2v-55.9c1.3-2.5-0.7-24.7-2.2-26.3c4.7-9,9.3-18,14-27
			c0.1-0.2,0.2-0.4,0.3-0.6c3.2-6.1,6.3-12.3,9.5-18.4c0.1-0.2,0.2-0.4,0.3-0.6c0.7-2,2.3-3.7,4.2-4.6c0.5-0.2,1-0.4,1.5-0.6
			l3.2-0.8l8.1-2c2.5-0.5,5-0.9,7.6-1.4c4.7-0.8,9.2-1.4,13.6-1.8c0.2,0.2,2.9-0.1,3.3-5.9v0c0-0.3,0-0.6,0.1-0.9c0-0.1,0-0.2,0-0.2
			v-2.4c0.1-2,0.2-4.9,0.6-9.1c-0.2-0.4-0.3-0.8-0.5-1.1c-0.5-1.3-1.1-2.6-1.7-4c-0.1-0.2-0.2-0.4-0.3-0.6c-1.3-0.5-3-1.5-4-3.4
			c-1-1.9-1.5-4.7-0.5-6.5c-0.1-0.2-0.1-0.5-0.2-0.7c-0.2-0.8-0.5-1.7-0.7-2.6c-0.1-0.3-0.1-0.6-0.2-0.9c-0.1-0.6-0.2-1.1-0.4-1.7
			v-0.3c-0.1-0.9-0.1-2.1,0.1-3.4c0-0.1,0-0.3,0-0.4c0.1-1.5,0.5-4.8,2.2-8.4l0,0v0c0.2-0.4,0.4-0.8,0.6-1.2
			c0.3-0.6,0.8-1.5,1.4-2.5c1.2-1.7,2.9-3.9,5.6-5.6c0.1-0.1,0.2-0.1,0.4-0.2c1.9-1.2,4-2,6.2-2.5c0.9-0.2,1.7-0.3,2.6-0.4
			c0.4,0,0.8-0.1,1.2-0.1c3.3-0.1,6.5,0.5,9.3,1.8c0.8,0.4,1.5,0.8,2.2,1.3c0.7,0.5,1.3,1.1,1.9,1.7c2.1,2.1,3.5,4.4,3.9,5.2
			c0.8,1.5,1.3,3.1,1.3,3.1c0,0,0,0.1,0,0.1c0.2,0.6,0.4,1.1,0.5,1.7c0.4,1.5,0.5,2.9,0.5,4.2c0,0,0,0,0,0v0.2
			c0,1.2-0.1,2.3-0.2,3.3c-0.3,2.3-0.8,4.1-1.1,4.8c0,0-0.1,0-0.3-0.1c-0.4,1.2-1.6,5.1-2.2,7.3c-0.2,0.6-0.2,1-0.3,1.3
			c0,0-0.1,1-0.4,2.5c-0.1,0.5-0.2,0.9-0.3,1.4c-0.1,0.3-0.2,0.7-0.2,1c-0.3,1.4-0.7,2.6-1.1,3.8c-0.3,0.9-0.6,1.7-0.9,2.4
			c-0.7,1.8-1.3,2.9-1.3,2.9c-0.5,0.9-1,1.9-1.7,3c-0.1,0.2-0.3,0.4-0.4,0.7c0,0.6-0.1,1.3-0.1,1.8c0,0.9-0.1,1.5-0.1,2.2
			c0,0.4,0,0.7,0.1,1.1c0.1,0.5,0.1,1,0.3,1.5c0.1,0.2,0.1,0.7,0.3,1.3c0.1,0.4,0.3,0.9,0.6,1.4c0.4,0.7,0.9,1.5,1.7,2.1
			c0.7,0.2,1.9,0.6,3.4,1.1c0.8,0.2,1.5,0.5,2.3,0.8h0c1.6,0.5,3.2,1,4.7,1.6c3,1,5.8,2.2,8.8,3.7c0.6,0.3,1.3,0.6,2.1,1.1
			c0.1,0.1,0.3,0.1,0.4,0.2c0.1,0,0.2,0.1,0.2,0.1c0.6,0.3,1.1,0.7,1.7,1c1.4,0.9,3,2,4.5,3.4c0.2,0.2,0.4,0.4,0.7,0.6
			c0.5,0.5,1.2,1.2,1.8,1.9c0.9,1,1.9,2.2,2.8,3.5c1,1.3,1.9,2.7,2.8,4.1c0.5,0.8,0.9,1.6,1.4,2.3c0.3,0.5,0.6,1.1,0.9,1.8
			c0.3,0.6,0.6,1.3,0.9,2c0.8,1.7,1.6,3.8,2.5,6.1c1,2.5,2,5.4,3,8.6c1.2,3.7,2.5,7.8,3.6,12.3c0.3,1.2,0.6,2.4,0.9,3.6
			c2.5,5.3,5.1,10.7,7.7,16.1c0.7,1.4,1.4,2.8,2.1,4.3c7.9,16.1,15.9,31.4,23.9,46.1l9.3,5.4l1.7,1c0.3,0.6,0.6,1.2,0.8,1.6
			c1.2,2.7,1.2,3.6,1.2,3.6c0,0.6-0.1,1.5-0.7,2.5C743.9,804.9,743.7,805.1,743.5,805.4z"/>
		<path class="st17" d="M923.8,805.4c0.3,1.4,0.6,2.8,0.8,4.2c-0.2,0.5-0.5,0.9-0.8,1.1c-0.5,0.5-0.9,0.7-1.3,0.8
			c-0.2,0-0.4,0.1-0.5,0c-1-0.1-1.7-0.8-2.9-0.5c-0.9,0.3-0.9,1-1.7,1c-1,0.1-1.2-0.9-2.4-1c-0.8-0.1-1,0.4-2,0.6
			c-0.7,0.1-1.7,0.1-3-0.6c-0.1-0.1-0.1-0.2-0.2-0.3c-1.2-2-2.4-4.1-3.6-6.1c-0.2-0.4-0.5-0.8-0.7-1.2l-0.8-1.7
			c-1-1.1-1.9-2.1-2.9-3.2c-10.9-12.1-21.9-24.2-32.8-36.3c-0.6-0.6-1.1-1.2-1.6-1.8c-3.9-7.7-7.7-15.4-11.6-23.1
			c-0.3,3.5-0.4,5.1-0.4,5.2c-0.6,8.1,7.9,22.5,3.8,35.8c-1.3,4.3-2.5,3.9-2.9,7.3c-0.6,5.3,2.1,8.9,3.9,12.9
			c0.9,1.9,1.5,3.8,1.6,6.1c0,0.3,0,0.6,0,0.9c0,1.3-0.3,2.8-1,4.6c-0.1,0.2-0.2,0.4-0.2,0.6c-0.7,1.6-1.8,3.5-3.5,5.4
			c5.3,27.9,10.6,55.8,16,83.7c0.4,2.8,0.9,5.5,1.3,8.3c-20,18.9-44.7,31-71.3,34c-4.1,0.5-8.3,0.7-12.6,0.7h-42.1
			c3.3-10.2,6.5-20.4,9.8-30.7c2.2-6.8,4.4-13.6,6.5-20.4c2-27,4-54,6-81c0.2-2,0.3-4.1,0.5-6.1c0-0.6,0.1-1.1,0.1-1.7
			c-0.1-1.3-0.1-2.8-0.2-4.4c-0.3-7-0.6-17-0.4-27.3l-11.2-14l-3.6,35.4l-0.6,5.9l-0.6,6.1l-0.4,3.7l1,2.4l1.3,3.1
			c-0.8,4.4-1.5,5.4-1.5,5.4c-0.4,0.6-1.3,1.4-2.8,1.9c-0.6,1.3-1.2,2.6-1.9,3.9c-1.5,0.7-2.3,0.6-2.8,0.3c-1.2-0.5-1.2-1.9-2.5-2.4
			c-0.9-0.3-1.4,0.2-2-0.2c-0.8-0.5-0.4-1.5-1.3-2.3c-0.6-0.5-1.1-0.3-1.9-0.7c-0.6-0.3-1.4-0.9-2.1-2.3c0.2-2.1,0.5-4.2,0.7-6.3
			c0-0.2,0-0.3,0.1-0.5c0.1-0.7,0.2-1.3,0.2-2l0.8-4.1l0.1-0.5l1.1-0.2v-55.9c1.2-2.5-0.7-24.7-2.2-26.3c1.1-2,2.1-4.1,3.2-6.1
			c2.8-5.4,5.6-10.8,8.4-16.2c1-2,2.1-4.1,3.2-6.1c1-2,2.1-4.1,3.2-6.1c1.3-2.5,2.6-5.1,3.9-7.6c0.7-1.3,1.3-2.6,2-3.8
			c0.1-0.2,0.2-0.3,0.3-0.5c0.9-2.6,3.1-4.5,5.7-5.1l3.9-1l4.2-1l3.3-0.8c2.4-0.5,5-0.9,7.5-1.4c1.8-0.3,3.5-0.6,5.2-0.8
			c2.9-0.4,5.7-0.8,8.4-1c0.2,0.2,3.1-0.1,3.3-6.8c0-0.1,0-0.2,0-0.2v-0.3c0-0.6,0-1.2,0-2c0-2,0.2-5,0.5-9.2
			c-0.7-1.7-1.4-3.4-2.2-5.1c-0.1-0.2-0.2-0.4-0.3-0.6c-1.3-0.5-3-1.5-4-3.4c-1-1.9-1.5-4.7-0.5-6.5c-0.3-1-0.6-2.2-0.9-3.3
			c-0.2-0.9-0.4-1.7-0.5-2.5c0-0.1,0-0.2,0-0.3c-0.1-0.9-0.1-2.1,0.1-3.4c0-0.1,0-0.3,0-0.4c0.1-1.5,0.5-4.8,2.1-8.4
			c0.1-0.2,0.2-0.5,0.4-0.8c0,0,0,0,0,0c0.1-0.1,0.1-0.3,0.2-0.4c0.9-1.6,2.9-5.4,7-8.1c6.6-4.3,16-4.2,21.8-0.1
			c0.8,0.6,1.6,1.3,2.3,2c1.9,2,3.2,4.1,3.6,4.8c0.8,1.5,1.3,3.1,1.3,3.1c0,0,0,0.1,0,0.1c0,0,0,0,0,0c0.2,0.6,0.4,1.1,0.5,1.7
			c0.4,1.5,0.5,2.9,0.5,4.2c0,0,0,0,0,0c0,0.1,0,0.1,0,0.2c0,1.2-0.1,2.3-0.2,3.3c-0.3,2.3-0.8,4.1-1.1,4.8c0,0-0.1,0-0.3-0.1
			c-0.4,1.5-2.3,7.4-2.4,8.6c0,0-0.1,1-0.4,2.5c-1.3,6.5-3.9,11.4-3.9,11.4c-0.6,1.1-1.3,2.3-2.2,3.7c0,0.6-0.1,1.3-0.1,1.8
			c0,0.9-0.1,1.5-0.1,2.2c0,0.4,0,0.7,0.1,1.1c0.1,0.5,0.2,1,0.3,1.5c0.1,0.2,0.1,0.7,0.3,1.3c0.1,0.4,0.3,0.9,0.6,1.4
			c0.4,0.7,0.9,1.5,1.7,2.1c0.7,0.2,2,0.6,3.4,1.1c5.8,1.9,10.5,3.4,15.9,6c0.6,0.3,1.3,0.6,2.1,1.1c0.1,0.1,0.3,0.1,0.4,0.2
			c0.1,0,0.2,0.1,0.2,0.1c0.8,0.4,1.6,0.9,2.4,1.5c1.2,0.8,2.5,1.8,3.8,2.9c0.2,0.2,0.4,0.4,0.7,0.6c0.5,0.5,1.2,1.2,1.8,1.9
			c1.1,1.2,2.3,2.8,3.5,4.5c0.7,1,1.4,2.1,2.1,3.1c0.5,0.8,0.9,1.6,1.4,2.3c0.5,1,1.1,2.2,1.8,3.8c0.8,1.7,1.6,3.8,2.5,6.1
			c2.1,5.6,4.5,12.9,6.8,21.5c0.3,1,0.6,2,0.8,3.1c3.2,6.7,6.4,13.5,9.8,20.4c7.9,16.1,15.9,31.4,23.9,46.1l11,6.4
			c0.3,0.6,0.6,1.2,0.8,1.6c0,0,0,0.1,0,0.1v0c1.2,2.6,1.2,3.5,1.2,3.6c0,0.6-0.1,1.5-0.6,2.5C924.1,804.9,923.9,805.1,923.8,805.4z
			"/>
		<path class="st17" d="M346,805.4c0.3,1.4,0.6,2.8,0.9,4.2c-0.3,0.5-0.5,0.9-0.8,1.1c-0.5,0.5-0.9,0.8-1.3,0.8
			c-1.3,0.3-2.1-0.9-3.4-0.4c-0.9,0.3-0.9,1-1.7,1.1c-1,0.1-1.2-0.9-2.4-1.1c-0.6,0-0.9,0.2-1.4,0.4c-0.1,0.1-0.3,0.1-0.5,0.2
			c-0.7,0.1-1.7,0.1-3-0.6c-0.1-0.1-0.1-0.2-0.2-0.3c-1.2-2-2.4-4.1-3.6-6.1c-0.2-0.4-0.5-0.8-0.7-1.2l-0.8-1.7
			c-1-1.1-1.9-2.1-2.9-3.2c-0.1-0.1-0.2-0.2-0.2-0.3c-0.4-0.4-0.8-0.9-1.1-1.3c-1.6-1.8-3.2-3.5-4.8-5.3c-0.2-0.2-0.3-0.4-0.5-0.6
			c-0.2-0.2-0.3-0.4-0.5-0.6c-1.1-1.2-2.3-2.5-3.4-3.7c-0.9-0.9-1.7-1.9-2.6-2.8c-0.5-0.6-1-1.2-1.6-1.7c-2.8-3.2-5.7-6.3-8.5-9.4
			c-2.2-2.5-4.5-4.9-6.7-7.4c-0.7-0.8-1.4-1.5-2.1-2.3c-0.8-0.9-1.6-1.7-2.4-2.6c-0.5-1-1-2-1.5-3c-1.3-2.6-2.6-5.2-3.9-7.8
			c-1.7-3.4-3.4-6.8-5.1-10.2c-0.3-0.7-0.7-1.4-1-2.1c-0.3,3.5-0.4,5-0.4,5.2c-0.2,2.6,0.5,5.7,1.5,9.3c0.9,3.4,2,7.2,2.7,11.1
			c0.1,0.5,0.2,1,0.2,1.5c0.7,4.6,0.8,9.3-0.6,13.8c-0.8,2.5-1.5,3.4-2.1,4.4c-0.1,0.2-0.2,0.4-0.3,0.6c-0.2,0.6-0.4,1.2-0.6,2.3
			c-0.1,1.1-0.1,2.1,0,3c0.1,0.9,0.3,1.7,0.5,2.5c0.8,2.7,2.3,5,3.4,7.4c0.9,1.9,1.5,3.8,1.6,6.1c0,0.3,0,0.6,0,0.9
			c0,1.3-0.3,2.8-1,4.6c-0.1,0.2-0.2,0.4-0.2,0.6c-0.7,1.6-1.8,3.5-3.5,5.4c5.3,27.9,10.6,55.8,15.9,83.7c2.3,14.3,4.5,28.7,6.8,43
			h-34.3c-2.8,0-5.6-0.1-8.4-0.3c-1.1-0.1-2.2-0.2-3.3-0.3c-0.1,0-0.1,0-0.2,0c-2-0.2-4-0.5-5.9-0.8c-23.4-3.7-45.1-14.4-63.2-30.5
			c-1.6-1.4-3.1-2.8-4.6-4.3c1.6-5,3.2-9.9,4.8-14.9c2-27,4-54,6-81c0.2-2,0.3-4.1,0.5-6.1c0-0.6,0.1-1.1,0.1-1.7
			c0-1.3-0.1-2.8-0.2-4.4c-0.3-7-0.6-17-0.4-27.3l-6.5-8.2l-4.7-5.8l-0.6,5.8l-3.6,35.5l-0.6,6.1l-0.4,3.7l1,2.4l1.3,3.1
			c-0.8,4.4-1.6,5.4-1.6,5.4c-0.4,0.6-1.3,1.4-2.8,1.9c-0.6,1.3-1.2,2.6-1.9,3.9c-1.5,0.7-2.3,0.6-2.8,0.3c-1.2-0.5-1.2-1.9-2.5-2.4
			c-0.9-0.3-1.4,0.3-2-0.2c-0.8-0.5-0.4-1.5-1.3-2.3c-0.6-0.5-1-0.3-1.9-0.7c-0.6-0.3-1.4-0.9-2.1-2.3c0.3-2.3,0.5-4.5,0.8-6.8
			c0.1-0.7,0.2-1.3,0.2-2l0.8-4.1l0.1-0.5l1.1-0.2v-55.9c1.2-2.5-0.7-24.7-2.2-26.3c2.1-4.1,4.3-8.2,6.4-12.3c0,0,0,0,0-0.1
			c1.7-3.3,3.4-6.6,5.1-9.9c1.1-2,2.1-4.1,3.2-6.1c1.1-2.1,2.1-4.1,3.2-6.1c1.3-2.5,2.6-5.1,3.9-7.6c0.8-1.4,1.5-2.9,2.3-4.4
			c0.9-2.6,3.1-4.5,5.7-5.1l11.4-2.8c0.8-0.2,1.7-0.3,2.5-0.5c1.6-0.3,3.3-0.6,5-0.9c0.3,0,0.6-0.1,0.9-0.1c1.1-0.2,2.2-0.3,3.2-0.5
			c0.2,0,0.5-0.1,0.7-0.1c2-0.3,4-0.5,5.9-0.8c0.9-0.1,1.9-0.2,2.8-0.3c0.2,0.2,3.2-0.1,3.3-6.8c0-0.1,0-0.2,0-0.2
			c0-0.1,0-0.2,0-0.3c0-0.5,0-1.2,0-2c0-1.1,0.1-2.5,0.2-4.1c0.1-1.3,0.2-2.9,0.3-4.7c0-0.1,0-0.3,0-0.4c-0.3-0.8-0.7-1.6-1-2.5
			c-0.4-0.9-0.7-1.7-1.1-2.6c-0.1-0.2-0.2-0.4-0.3-0.6c0,0-0.1,0-0.1-0.1c-0.5-0.2-1.2-0.5-1.7-1c-0.8-0.6-1.5-1.3-2.1-2.4
			c-0.1-0.1-0.1-0.3-0.2-0.4c-0.2-0.4-0.3-0.8-0.5-1.2c-0.5-1.7-0.5-3.6,0.1-4.9c-0.3-1-0.6-2-0.8-3.1c0-0.1,0-0.1,0-0.2
			c-0.1-0.3-0.1-0.6-0.2-0.9c-0.1-0.6-0.2-1.1-0.3-1.6c0-0.1,0-0.2,0-0.3c0-0.9,0-2.1,0.1-3.4c0-0.1,0-0.3,0-0.4
			c0.1-0.5,0.1-1.3,0.3-2.2c0.3-1.7,0.8-3.9,1.9-6.3c0.2-0.4,0.4-0.8,0.6-1.2c0.9-1.6,2.9-5.4,7-8.1c0.4-0.3,0.8-0.5,1.2-0.7
			c0.8-0.5,1.7-0.9,2.6-1.2c0.6-0.2,1.2-0.4,1.9-0.6c0.7-0.2,1.4-0.3,2-0.4c1.4-0.2,2.8-0.3,4.1-0.3c3.7,0.1,7.2,1.2,9.9,3.1
			c1.2,0.9,2.3,2,3.2,3c1.4,1.7,2.4,3.3,2.7,3.8c0.8,1.5,1.3,3.1,1.3,3.1c0,0,0,0.1,0,0.1c0.2,0.5,0.4,1.1,0.5,1.7
			c0.3,1.5,0.5,2.9,0.4,4.2c0,0,0,0,0,0v0.2c0,1.2-0.1,2.3-0.2,3.3c-0.3,2.3-0.8,4.1-1.1,4.8c0,0-0.1,0-0.3,0c0,0.1-0.1,0.3-0.1,0.4
			c-0.2,0.7-0.6,1.9-0.9,3.1c-0.3,0.9-0.5,1.8-0.8,2.6c-0.3,1-0.5,1.8-0.6,2.3c0,0.1,0,0.1,0,0.1c0,0-0.1,1-0.4,2.5
			c-0.1,0.5-0.2,0.9-0.3,1.4c-0.2,0.7-0.3,1.3-0.5,2c-0.1,0.4-0.2,0.8-0.4,1.2c-0.3,0.9-0.6,1.8-0.9,2.5c-0.2,0.5-0.4,1-0.5,1.4
			c-0.1,0.4-0.3,0.7-0.4,1c-0.5,1.2-0.9,1.9-0.9,1.9c-0.1,0.2-0.2,0.3-0.3,0.5c-0.1,0.2-0.2,0.4-0.3,0.6c-0.4,0.8-1,1.6-1.6,2.5
			c0,0.1,0,0.2,0,0.3c0,0.5,0,1-0.1,1.5c0,0.9-0.1,1.5-0.1,2.2c0,0.4,0,0.8,0.1,1.1c0,0.5,0.2,1,0.3,1.5c0,0.2,0.1,0.7,0.3,1.3
			c0.1,0.4,0.3,0.9,0.5,1.4c0.2,0.4,0.5,0.8,0.8,1.2c0.3,0.3,0.5,0.6,0.9,0.9c0.7,0.2,1.7,0.5,2.9,0.9c0.2,0.1,0.3,0.1,0.5,0.2
			c0.6,0.2,1.1,0.4,1.6,0.5c0.9,0.3,1.7,0.5,2.5,0.8c0.5,0.2,1,0.3,1.4,0.5c0.5,0.2,0.9,0.3,1.4,0.5c0.2,0.1,0.4,0.1,0.7,0.2
			c1.3,0.5,2.6,1,3.9,1.5c1.4,0.6,2.9,1.2,4.4,2c0.6,0.3,1.3,0.6,2.1,1.1c0.1,0.1,0.3,0.1,0.4,0.2c0.1,0,0.2,0.1,0.2,0.1
			c1.9,1.1,4.1,2.5,6.3,4.5c0,0,0.1,0.1,0.1,0.1c0.2,0.1,0.4,0.3,0.6,0.5c0.5,0.5,1.2,1.2,1.8,1.9c0.8,1,1.7,2.1,2.6,3.3
			c1,1.3,2.1,2.8,3,4.3c0.5,0.8,0.9,1.6,1.3,2.4c0.2,0.4,0.4,0.8,0.6,1.2c0,0,0,0.1,0.1,0.1c0.3,0.7,0.7,1.5,1.1,2.4
			c0.8,1.7,1.6,3.7,2.5,6.1c2.4,6.2,5.1,14.6,7.6,24.6c0.1,0.3,0.3,0.5,0.4,0.8c2.5,5.3,5.1,10.7,7.7,16.1c0.6,1.1,1.1,2.3,1.7,3.4
			c0.2,0.5,0.5,1,0.7,1.5c0.9,1.7,1.7,3.5,2.6,5.2c1.1,2.3,2.3,4.5,3.4,6.7c0.3,0.7,0.7,1.3,1,2c0.6,1.1,1.1,2.2,1.7,3.4
			c1.4,2.8,2.8,5.5,4.2,8.2c0.4,0.8,0.8,1.5,1.2,2.3c3,5.7,6,11.4,9,16.9l1.1,0.6l0.4,0.2v0l9.5,5.6c0.3,0.6,0.6,1.2,0.8,1.6
			c1.2,2.7,1.2,3.6,1.2,3.6c0,0.6-0.1,1.5-0.6,2.5C346.3,804.9,346.2,805.1,346,805.4z"/>
		<path class="st18" d="M369,817.8c0,0.1-0.1,0.2-0.1,0.3c1.4,18.2,2.5,36.9,3.4,56.1c0.6,12.9,1,25.6,1.3,38.1
			c0.2,10.1,0.4,20.2,0.5,30c-3.9,0.4-7.9,0.6-11.9,0.6h-94.3c-2.8,0-5.6-0.1-8.4-0.3c1.2-10.9,2.3-21,3.3-30.4
			c2.6-25.1,4.5-45.1,5.9-61.2c-3.8-0.9-12.7-4-12.9-4.6c-0.3-0.8-1.5-5.4-1.5-5.4l-1.5-1.1l2.2-10.3l-6.8-2.7l4.6-16.2l1.7-6.1
			l1.7-6.1l2.1-7.4l3.6-12.6l4.4-15.4l7.6-26.8c1.4-3.5,3.2-6.8,5.3-9.8c0.2-0.3,0.4-0.6,0.7-0.9c-0.2-2.2-0.3-4.7-0.2-7.3
			c0-0.9,0.1-1.8,0.3-2.7c0.1-0.5,0.2-1,0.3-1.5c0.4-1.6,0.8-3.2,1.4-4.7c1.3-3.5,2.9-6.7,4-9.2c0.1-0.2,0.2-0.4,0.3-0.7
			c0.8-1.8,1.6-3.8,2.5-6.1c0.3-0.8,0.5-1.6,0.8-2.4c0-0.1,0.1-0.2,0.1-0.3c0.4-1.1,0.7-2.3,1.1-3.5c0.7-2.3,1.3-4.9,1.9-7.6
			c0.5-2.3,0.9-4.7,1.3-7.2h0c0.2-0.6,0.4-1.2,0.7-1.7h0c0.4-1,0.9-2,1.3-3c0,0,0-0.1,0.1-0.1c0.5-0.9,1-1.8,1.5-2.6c0,0,0,0,0-0.1
			c0.8-1.3,1.7-2.5,2.7-3.4c0.1-0.1,0.2-0.2,0.3-0.2l0,0c0.2-0.2,0.5-0.4,0.8-0.6c0.4-0.3,0.8-0.5,1.2-0.8c1.3-0.7,2.6-1.3,3.9-1.7
			c1.6-0.5,3.2-0.8,4.7-1c1.2-0.1,2.3-0.2,3.3-0.2c1.9,0,3.5,0.3,4.9,0.5c0.4,0.1,0.8,0.2,1.2,0.2c0.4,0.1,2,0.4,3.5,0.8
			c0.8,0.2,1.5,0.4,2.2,0.7c1,0.4,1.9,0.9,2.7,1.5c0.1,0.1,0.2,0.2,0.3,0.2c1,0.8,1.8,1.6,2.5,2.4c1.5,1.8,2.5,3.6,3,4.7
			c1.6,3,3,7,4.4,11.5c0.3,1.1,0.6,2.2,0.9,3.3c0.4,1.4,0.8,2.9,1.1,4.3c0.2,0.6,0.3,1.2,0.4,1.8c0.4,1.4,0.7,2.9,1.1,4.3
			c0.5,2.1,0.9,4.1,1.3,6.1c0.8,3.7,1.6,7.2,2.2,10.1c0.7,3.2,1.3,5.8,1.9,7.6c0.4,1.2,0.7,2,1,2.3c1.1,0.4,2.1,0.9,2.9,1.2
			c10.2,4.7,15.1,13.4,16.8,17.1c1.3,5,2.6,10.1,3.8,15.2c0.9,3.4,1.5,6.7,2.1,10.1c1.8,11.8,1.7,23.8-0.4,35.5
			c-0.3,2-0.8,4.1-1.2,6.1c-0.5,2.1-1,4.1-1.6,6.1C370.7,813.1,369.9,815.5,369,817.8z"/>
		<path class="st17" d="M626.7,840.1c-2.1,0.7-4.1,1.3-5.5,1.6c1.5,17.3,3.6,38.7,6.3,65.3c1.1,11,2.4,23,3.8,35.9H501.7
			c0.1-11.8,0.3-23.7,0.6-35.9c0.3-12.9,0.8-25.9,1.4-39.1c1-21.7,2.3-42.9,3.8-63.6c0-0.1-0.1-0.2-0.1-0.4
			c-8.7-23.5-10.2-49.1-4-73.5c1.5-5.7,2.9-11.5,4.3-17.2c1.9-3.9,7-13.2,17.4-18.6c0.5-0.3,1.1-0.6,1.7-0.8c0.9-0.4,2-0.9,3.2-1.4
			c2.1-2,5.5-23.5,10.3-41.1c0-0.1,0.1-0.2,0.1-0.3c0.2-0.9,0.5-1.7,0.7-2.5c1.6-5.6,3.4-10.6,5.3-14.2c1.1-2.2,4.1-7.8,9.7-10
			c2.2-0.9,5.7-1.6,6.4-1.7c1.4-0.3,2.9-0.6,4.8-0.7c0,0,0,0,0,0c0.7,0,1.4-0.1,2.1-0.1h0.2c3.8,0,8.7,0.7,13.5,3.3
			c0.8,0.4,1.5,0.9,2.2,1.6c0.1,0.1,0.2,0.2,0.3,0.3c2.5,2.3,4.6,5.9,6.4,10.3c0.2,0.6,0.5,1.3,0.7,2h0c0.7,5,1.7,9.5,2.7,13.6
			c0.1,0.5,0.2,0.9,0.4,1.3c1.9,6.8,4,12.3,6,16.6c1.5,3.2,3.6,7.5,5.1,12.2c0.4,1.2,0.7,2.4,1,3.6c0.4,1.6,0.6,3.2,0.7,4.8
			c0.1,2.9,0,5.8-0.2,8.2c2.7,3.7,5,7.8,6.8,12.2l3.8,13.4l6.3,22.5L633,774l2,7.2l2,7.2l7.3,26l-7.7,3l2.5,11.7l-1.7,1.3
			c0,0-1.3,5.2-1.7,6.1C635.6,837,631,838.7,626.7,840.1z"/>
		<path class="st18" d="M526.1,809.4l2.4,11.4l-1.6,1.3c0,0-1.3,5-1.6,5.9c-0.3,0.7-10.1,4.1-14.3,5.1c1.8,20.1,4.2,45.9,7.8,79.1
			c1,9.6,2.1,19.8,3.3,30.7H394.5c0-10.1,0.2-20.3,0.4-30.7c0.3-17.5,0.9-35.4,1.7-53.6c0.7-16.2,1.6-32.1,2.7-47.7v-0.1
			c0,0,0-0.1,0-0.1c0.1-2,0.3-4,0.4-6c0.1-2,0.3-4.1,0.4-6.1c0.1-0.6,0.1-1.2,0.1-1.9c0-0.1-0.1-0.2-0.1-0.4c0-0.1-0.1-0.2-0.1-0.2
			v0c-3-8-5.1-16.3-6.3-24.6v0c-2.2-15.5-1.4-31.3,2.5-46.6c0.1-0.4,0.2-0.9,0.3-1.4v0c1.3-5.1,2.6-10.2,3.9-15.4
			c0.9-1.9,2.7-5.2,5.5-8.6c1-1.2,2.2-2.5,3.5-3.7c0.9-0.8,1.8-1.6,2.8-2.4c2-1.6,4.3-3,6.8-4.1c0.9-0.4,2-0.9,3.2-1.4
			c0.1-0.1,0.3-0.3,0.4-0.6c0.6-1.2,1.4-4,2.2-7.6c0.4-1.9,0.9-3.9,1.4-6.2c0,0,0-0.1,0-0.1c1.3-5.8,2.7-12.7,4.4-19.4
			c2.2-8.8,4.7-17.2,7.5-22.7c0.3-0.6,0.8-1.5,1.4-2.5c1.3-2.1,3.4-4.8,6.4-6.5c0.5-0.3,1-0.5,1.6-0.8c0.6-0.2,1.2-0.5,1.9-0.7
			c1.9-0.6,3.8-0.9,4.3-1c1.7-0.3,3.6-0.7,6-0.8c0.2,0,0.5,0,0.7,0c2.7,0,6,0.3,9.5,1.5c1.2,0.4,2.3,0.9,3.5,1.5
			c0.1,0.1,0.2,0.1,0.3,0.2c0.8,0.4,1.5,0.9,2.2,1.5l0,0c0.1,0.1,0.2,0.2,0.3,0.3c2.1,2,3.9,4.9,5.5,8.5c0.2,0.5,0.5,1,0.7,1.6
			c0.2,0.6,0.5,1.3,0.7,1.9c0.6,3.8,1.2,7.3,2,10.5c0.6,2.6,1.3,5.1,2,7.4c0.1,0.3,0.2,0.5,0.2,0.8v0c1,3.2,2.1,6.1,3.1,8.6
			c0.5,1.2,1,2.3,1.5,3.4c1.8,3.9,4.6,9.5,5.9,15.3c0.4,1.5,0.6,3.1,0.7,4.7c0.1,2.8,0,5.6-0.2,8c2.7,3.6,4.9,7.6,6.6,11.9l0.6,2.2
			l0.4,1.5v0l0.1,0.3l5.7,20.2l21.4,75.8L526.1,809.4z"/>
	</g>
</g>
<g>
	<path class="st19" d="M726.1,582.1c0.3,1.2,0.6,2.1,0.8,2.9c0.5,1.5,0.8,1.9,1,3.1c0.3,1.1,0.7,3-0.1,3.6c-0.2,0.2-0.5,0.2-0.8,0.2
		c-0.8,0-2,0.1-3.7,0.3C724.3,588.8,725.2,585.5,726.1,582.1z"/>
	<path class="st19" d="M713.3,607.1c0.4,0.6,1,1.7,2,3.7c-1.3,1.1-4.8,3.7-9.8,3.8c-9,0.3-14.4-7.7-14.7-8.2c1.8-4.8,3.8-9.8,6.3-15
		c0.5-1,5-9.9,5.3-10.6c0.9,0.8,1.8,1.5,2.7,2.3c3.9,3.4,7.7,6.7,11.6,10.1c-1.1,2.5-2.3,5.1-3.3,7.8c-0.3,0.8-0.6,1.6-0.9,2.4
		c-0.2,0.6-0.2,1.2,0,1.8c0.1,0.1,0.1,0.2,0.2,0.4C712.8,606.4,713.2,606.9,713.3,607.1z"/>
	<path class="st20" d="M708.6,603.5c-0.2,0.6-0.2,1.2,0,1.8c0.1,0.1,0.1,0.2,0.2,0.4c0.3,0.8,0.7,1.3,0.8,1.5c-1-0.3-2-0.8-3-1.5
		c-5.3-3.6-5.9-10.4-6.2-13.9c-0.3-3.4,0.2-5.8,0.6-7.4c0.1-0.5,0.2-0.9,0.3-1.2c3.9,3.4,7.7,6.7,11.6,10.1
		c-1.1,2.5-2.3,5.1-3.3,7.8C709.2,601.9,708.9,602.7,708.6,603.5z"/>
	<path class="st19" d="M698.1,578.4C698.1,578.4,698.1,578.4,698.1,578.4c-0.2-4.3-1-16.8,6.2-21.8c7.3-5.1,20.5-0.8,23.4,5.8
		c1.2,2.8,1.3,7.6,1,10.3c-0.2,1.4-0.2,2-0.7,4.2c-0.3,1.2-0.1,2.3-0.7,3.5c-0.4,0.8-0.5,0.7-0.7,1.3c-0.4,1.2,0,1.6-0.3,3.4
		c-0.1,0.7-0.2,0.9-0.4,1.8c-0.2,0.8-0.2,1-0.3,1.6c-0.5,1.9-0.8,3-1.5,4.1c-0.6,0.9-1,0.9-1.5,1.9c-0.4,0.8-0.5,1.4-0.6,1.6
		c-0.2,0.9-0.9,2.2-3,4.5c-0.7,0.8-1.9,1.1-2.9,0.9c-3.7-0.9-6.6-2.2-8.6-3.3c-2.6-1.4-6.4-3.5-9.2-7.8c-0.6-0.9-1-1.7-1.3-2.3
		c0-0.1,0-0.1,0-0.2C696.3,585.2,698.4,583.5,698.1,578.4z"/>
	<path class="st21" d="M725.3,579.5c-0.1,0.7-0.7,1.3-1.2,1.2c-0.5-0.1-0.8-0.8-0.7-1.5c0.1-0.7,0.7-1.3,1.2-1.2
		S725.4,578.8,725.3,579.5z"/>
	<path class="st22" d="M710.3,588.3c1.7,7.2,9,11,10,10.9c0.9,2.3,0.7,3.8,0.3,4.8c-0.4,1-1,1.4-2.4,3.5c-0.9,1.3-1,1.7-1.7,2.8
		c-1.8,3-3,5-4.7,5.5c-2.6,0.8-6-1.9-7.7-4.5c0,0-3.2-5-1.1-13.3c0.1-0.3,0.4-1.4,0.5-3c0.2-1.8,0-2.2,0.1-3.1c0.3-2.9,3-2.7,4.1-6
		c0.7-1.9,0.5-4.2,0.4-5.5c-0.1-0.9-0.2-1.6-0.2-1.9c0.1,0,0.9-0.5,1.6-0.2C710.2,578.6,710.2,585.8,710.3,588.3z"/>
	<path class="st22" d="M727.2,576c-0.2,0.4-0.5,0.5-0.9,0.4c-0.5-0.2-1.1-0.5-1.8-0.6c-0.6-0.1-1.3-0.1-1.9,0
		c-0.5,0.1-0.9-0.5-0.8-1.1l0,0c0.1-0.2,0.2-0.4,0.3-0.5c0.5-0.3,1.4-0.7,2.7-0.5c1,0.2,1.7,0.7,2.2,1.1c0.3,0.2,0.4,0.7,0.2,1
		L727.2,576z"/>
	<path class="st22" d="M728.1,563.3c0,0.1-0.1,0.3-0.1,0.4c-1.2,0.2-2.3,0.3-3.1,0.2c-1-0.1-1.8-0.4-2.1-0.5
		c-4.8-1.8-7.6-4.5-9.3-3.7c-2.3,1.1-2.1,8.4-2.9,13.6c-0.1,0.5-0.2,1.5-1,2.5c-1.4,2-2.6,1.7-4.2,2.9c-1.1,0.8,0.1,3-1.1,6.6
		c-0.4,1.2-0.9,2-1.1,2.3c0,0,0,0.1-0.1,0.1c-1.7,2.4-4,4.7-7.4,6.7c-0.4-1.4-1.1-3.5-2.3-5.9c-0.9-1.8-1.6-2.9-2-3.7
		c0,0-2.4-4.2-2.8-10.4c-0.4-6.1,2.6-16,11.4-20.9c7.2-4,17.8-4.3,23.8,1.8C726.6,558.1,727.6,561.3,728.1,563.3z"/>
	<path class="st19" d="M704.6,572.2c-1.5-0.1-2.9,2.1-3.4,3.6c-0.7,2.2,0.1,4.1,0.7,5.4c0.3,0.7,0.7,1.3,1.4,1.9
		c0.4,0.3,1.2,1,2.1,0.7c0.2-0.1,0.4-0.2,0.5-0.3c0.1,1.3,2.2-0.2,2.2-0.2c0.2-0.8,0.4-2,0.3-3.4
		C708.2,576.7,706.7,572.3,704.6,572.2z"/>
	<path class="st23" d="M705.4,582.2C705.4,582.2,705.4,582.2,705.4,582.2c-0.5,0.1-1,0-1.3-0.2c-0.4-0.3-0.7-0.9-0.6-1.5
		c0-0.1,0.1-0.2,0.2-0.2c0.1,0,0.2,0.1,0.2,0.2c-0.1,0.4,0.1,0.8,0.4,1c0.3,0.2,0.7,0.2,0.9,0.2c0.2,0,0.3-0.1,0.3-0.2
		c0,0,0-0.1,0-0.4c0-0.2-0.1-0.4-0.1-0.8l0-0.1c0-0.3,0-0.3,0-0.4c0.1-0.5,0.6-0.8,1-1.1c0.2-0.1,0.4-0.3,0.5-0.4
		c0.1-0.4-1.2-3-2-3.9c-0.1-0.1-0.1-0.1-0.2-0.1c-0.5,0.1-1.3,1.4-1.8,2.2c-0.1,0.1-0.2,0.2-0.3,0.1c-0.1-0.1-0.2-0.2-0.1-0.3
		c0.2-0.4,1.2-2.4,2.1-2.5c0.2,0,0.4,0.1,0.6,0.2c0.8,0.9,2.2,3.7,2,4.3c-0.1,0.2-0.3,0.4-0.6,0.6c-0.3,0.2-0.7,0.5-0.8,0.8
		c0,0,0,0.1,0,0.3l0,0.1c0.1,0.4,0.1,0.6,0.1,0.8c0.1,0.4,0.1,0.5,0,0.7C705.9,582,705.7,582.1,705.4,582.2z"/>
	<linearGradient id="SVGID_2_" gradientUnits="userSpaceOnUse" x1="674.3378" y1="838.6791" x2="753.4932" y2="838.6791">
		<stop  offset="0" style="stop-color:#FFFFFF"/>
		<stop  offset="1" style="stop-color:#BEB595"/>
	</linearGradient>
	<path class="st24" d="M753.5,941.8h-69c-8.6-65.2-11.3-128-9.8-187.9c0.1-2.4,0.1-4.9,0.2-7.3l41.9-11.1c0,0,0,0,0,0
		c0.1,0.3,0.2,0.6,0.3,0.8c15.6,53.4,28.4,114.3,34.6,181.7C752.4,926.1,753,934,753.5,941.8z"/>
	<path class="st19" d="M628.1,747.5c-0.7,2.5-1.5,6-2.1,10.3c-1.3,10-1.3,13.8,0.5,14.9c0.6,0.3,1.1,0.3,2.3,1
		c1.4,0.9,1.5,1.5,2.8,2.4c1.4,0.9,1.6,0.4,3.1,1.3c2.2,1.3,2.2,2.5,3.8,2.8c1.3,0.2,1.6-0.6,3-0.3c1.7,0.3,1.6,1.5,3.3,1.8
		c1.7,0.3,3.7-0.7,3.7-0.7h0c0,0,1.1-7.6,2.2-15.2c1.4-10.1,3.1-12.7,1.7-15.2C651.5,748.9,647.7,744.2,628.1,747.5z"/>
	<linearGradient id="SVGID_3_" gradientUnits="userSpaceOnUse" x1="662.6483" y1="850.5806" x2="701.1159" y2="1020.2325">
		<stop  offset="0" style="stop-color:#FFFFFF"/>
		<stop  offset="1" style="stop-color:#BFC9CC"/>
	</linearGradient>
	<path class="st25" d="M719.1,942.2c-12.9,0-25.7-0.1-38.6-0.1c-22.5-0.1-45.1-0.1-67.6-0.2c-3.4,0-6.7,0-10.1,0
		c27-84,32.9-117.8,31.7-131.2c-0.1-1.3-0.6-6.2-0.7-12.6c0-5.9,0.3-13.1,1.7-20.2c0.3-1.5,0.6-3,1.1-4.5c0.4-1.3,2.2-7.9,4.8-16.3
		c0.5-1.5,0.9-3,1.4-4.3c0.7-2.2,1.4-4.2,2-6c0.4-1.3,0.8-2.4,1.2-3.4c1.3-0.8,2.6-1.7,3.9-2.5c0.4-0.2,0.8-0.5,1.1-0.7
		c16.9-10.9,33.8-21.8,50.6-32.7c2.5-1.6,5-3.2,7.5-4.9c0.9,3.3,1.8,6.7,2.7,10.2c0.8,3.3,1.6,6.6,2.4,10c0.9,4.2,1.8,8.5,2.6,12.9
		c0,0,0,0,0,0l0.2,0.9c0.2,1.5,0.4,3.1,0.6,4.7c2.5,18.4,4.5,37.9,5.8,58.3C726.7,852.6,724.2,900.7,719.1,942.2z"/>
	<linearGradient id="SVGID_4_" gradientUnits="userSpaceOnUse" x1="670.459" y1="768.5198" x2="730.4371" y2="656.7861">
		<stop  offset="0" style="stop-color:#FFFFFF"/>
		<stop  offset="1" style="stop-color:#BFC9CC"/>
	</linearGradient>
	<path class="st26" d="M717.6,741.1c-10,36.6-19.1,45.5-26.1,45.8c-7.4,0.3-10.8-9.2-20.8-11.1c-13.1-2.5-26.7,9.9-36.9,22.2
		c-0.2-8.8,0.8-15.6,1.7-20.2c0.3-1.5,0.6-3,1.1-4.5c0.4-1.3,2.2-7.9,4.8-16.3c0.5-1.5,0.9-3,1.4-4.3c0.7-2.2,1.4-4.2,2-6
		c0.4-1.3,0.8-2.4,1.2-3.4c1.3-0.8,2.6-1.7,3.9-2.5c0.4-0.2,0.8-0.5,1.1-0.7l63.2-17.4c0.9,4.2,1.8,8.5,2.6,12.9c0,0,0,0,0,0
		l0.2,0.9C717.2,738,717.4,739.6,717.6,741.1z"/>
	<linearGradient id="SVGID_5_" gradientUnits="userSpaceOnUse" x1="583.5398" y1="611.4009" x2="755.7362" y2="793.2715">
		<stop  offset="0" style="stop-color:#FFFFFF"/>
		<stop  offset="1" style="stop-color:#BEB595"/>
	</linearGradient>
	<path class="st27" d="M672.2,611.7c-1.1,1-2.7,2.4-4.5,4.1c-3.1,3-15,14.8-23.8,32.1c-4.4,8.6-6.9,16.6-11.4,37
		c-3.3,15.1-7.2,35.2-10.6,59.3c0.6,1.2,3.5,6.1,9.8,8.3c6.7,2.3,12.3-0.2,13.4-0.8c3.1-6.4,6.2-14.2,8.9-23.2
		c2.3-7.8,4-15.6,5-23.4l0,0l15.3-88.3C673.6,615.2,672.9,613.4,672.2,611.7z"/>
	<linearGradient id="SVGID_6_" gradientUnits="userSpaceOnUse" x1="679.1699" y1="742.8427" x2="679.6541" y2="805.7894">
		<stop  offset="0" style="stop-color:#FFFFFF"/>
		<stop  offset="0.9948" style="stop-color:#D2E1D6"/>
	</linearGradient>
	<path class="st28" d="M719.2,733.2c-0.5,2.1-2.2,3.6-4.1,4.7c-2.3,1.3-4.9,2.2-6.4,3.1c-11.3,6.7-32.9,16.6-67.2,16.1
		c-2.9-6.4-2.7-11-2-14c1.2-5.1,4.3-7.2,5.2-13.5c0.6-4.2-0.2-7.3-0.5-8.8c-2.4-11.5,0.2-36.5,3.5-53.5c0,0,6.7-34.4,21.1-51.8
		c2.4-3,5.1-5,5.4-5.2c6.4-4.7,13.2-6.5,18-7.2c5.5,3.8,11,7.6,16.4,11.4c3.4,14.6,5.3,26.9,6.4,36c0,0,0,0,0,0
		c2.7,22.2,3.8,50.6,2.2,62.1c-0.3,2.1-0.9,5.1-0.3,9.3C717.5,728,719.9,730,719.2,733.2z"/>
	<path class="st29" d="M722,593.7c-0.4-0.2-0.8-0.3-1.2-0.6c-0.9-0.6-1.7-1.2-2.2-1.8c-0.2-0.2-0.5-0.1-0.5,0.1
		c-0.1,0.5-0.1,1.1,0,1.8c0.1,0.4,0.5,2.1,1.7,2.2C720.7,595.5,721.6,594.8,722,593.7z"/>
	<path class="st20" d="M681.1,627.6c-9.4,25.8-6.1,43.8-3.6,52.4c3.7,12.7,8.4,14.2,9.5,14.5c7.1,1.9,15.8-7.1,19.6-14.5
		c7.1-13.8,0.6-28.9,0-30.1c-1.6-3.1-9.8-15.5-9.8-15.5L681.1,627.6z"/>
	<linearGradient id="SVGID_7_" gradientUnits="userSpaceOnUse" x1="664.3327" y1="722.2457" x2="748.496" y2="624.8611">
		<stop  offset="0" style="stop-color:#FFFFFF"/>
		<stop  offset="1" style="stop-color:#BFC9CC"/>
	</linearGradient>
	<path class="st30" d="M719.2,733.2c-0.5,2.1-2.2,3.6-4.1,4.7c-3.4-0.6-7-1.9-9.9-4.5c-7.1-6.4-22.9-9.8-17.1-22
		c0.7-1.5,0.3-2.4,0.3-2.8c0-1.5-0.6-4.9-8.2-9.5c-2.1,3.1-4.7,6.5-7.9,10c-7.5,8.1-15.5,13.2-21.7,16.5c-1.5-1.5-3.4-3.9-3.5-6.8
		c-0.3-8.7,16.8-12.6,23.3-20c7.1-8.1,10.8-71.2,10.8-71.2l33.8,22.8c2.7,22.2,3.8,50.6,2.2,62.1c-0.3,2.1-0.9,5.1-0.3,9.3
		C717.5,728,719.9,730,719.2,733.2z"/>
	<path class="st19" d="M691.5,617.3c6.8-1.7,13.8,3,17.4,7.1c5.3,5.9,5.8,13,6.3,18.6c1,9.9,3,23.9,7.6,42
		c15.5,10.9,31,21.8,46.4,32.7c-2,4.6-4,9.3-5.9,13.9c-17.2-5.3-35.2-11.8-53.7-19.9c-1.1-0.5-2.3-1-3.4-1.5c-5-2.3-9-6.4-11-11.5
		c-5.7-14.5-10.5-27.4-14.5-38.5c-1.7-4.6-3.9-11.2-3-19.5C677.9,638.4,680.1,620,691.5,617.3z"/>
	<path class="st19" d="M794.1,722c0.4,0.4,1,1.1,0.9,1.9c-0.1,1.2-1.6,1.4-2.1,2.8c-0.5,1.5,0.9,2.5,0.3,3.6
		c-0.5,0.8-1.2,0.5-1.9,1.5c-0.7,1,0,1.5-0.6,2.6c-0.8,1.3-2.4,1.3-2.5,2.5c-0.1,0.4,0.1,0.5,0,0.8c-0.2,0.9-1.9,1.4-3.7,1.6
		c-2-0.1-4.9-0.4-8.2-1.6c-1-0.4-1.8-0.7-2.8-1.1c-3.8-1.6-7.2-3.3-10.1-4.9l5.9-13.9c3.5-1.4,7-2.8,10.5-4.2
		c3.4,1.1,6.7,2.2,10.1,3.3c0.1,0.2,0.1,0.8-0.1,1.4c-0.3,0.9-1,1.3-1.2,1.3c0.6,0.4,1.3,0.8,2.1,1.1
		C792,721.2,793.1,721.6,794.1,722z"/>
	<path class="st31" d="M646.4,757.6c-1.7,0-3.3,0-5-0.1c-0.3,0-0.5-0.2-0.5-0.5c0-0.3,0.2-0.5,0.5-0.5c13.6,0.5,27.2-1.1,40.2-4.8
		c10.5-3,20.6-7.3,30-12.8c0.2-0.1,0.5-0.1,0.7,0.2c0.1,0.2,0.1,0.5-0.2,0.7c-9.5,5.6-19.7,9.9-30.3,12.9
		C670.4,755.9,658.4,757.6,646.4,757.6z"/>
	<path class="st31" d="M648,732.3c-0.2,0-0.3-0.1-0.4-0.2c-0.1-0.2-0.1-0.5,0.2-0.7c6.4-3.8,12.5-8.3,18-13.3
		c4.2-3.8,8.2-7.9,11.8-12.3c0.2-0.2,0.5-0.2,0.7-0.1c0.2,0.2,0.2,0.5,0.1,0.7c-3.6,4.4-7.7,8.6-11.9,12.4
		c-5.6,5-11.7,9.5-18.2,13.4C648.1,732.3,648.1,732.3,648,732.3z"/>
	<path class="st31" d="M639.4,754c-0.2,0-0.4-0.2-0.5-0.4c-0.5-3.6-0.5-7.1,0-10.7c0.8-4.8,2.5-9.4,5.2-13.5l-1.4-17.6l1.7-27.3
		c0-0.3,0.2-0.5,0.5-0.5c0.3,0,0.5,0.2,0.5,0.5l-1.7,27.3l0.1,1.2l1.3,16.6c0,0.1,0,0.2-0.1,0.3c-2.7,4.1-4.4,8.5-5.1,13.3
		c-0.5,3.4-0.5,6.9,0,10.4C640,753.7,639.8,754,639.4,754C639.5,754,639.5,754,639.4,754z"/>
	<path class="st31" d="M724.9,855.9c-0.3,0-0.5-0.2-0.5-0.5c-0.2-24.5-1.1-49.3-2.7-73.8c-0.8-12.8-1.9-25.7-3.1-38.5
		c0-0.3,0.2-0.5,0.4-0.5c0.2,0,0.5,0.2,0.5,0.4c1.2,12.8,2.3,25.7,3.1,38.5c1.6,24.5,2.5,49.3,2.7,73.8
		C725.3,855.7,725.1,855.9,724.9,855.9C724.9,855.9,724.9,855.9,724.9,855.9z"/>
	<linearGradient id="SVGID_8_" gradientUnits="userSpaceOnUse" x1="652.1576" y1="909.9396" x2="627.6629" y2="669.4451">
		<stop  offset="0" style="stop-color:#FFFFFF"/>
		<stop  offset="1" style="stop-color:#BEB595"/>
	</linearGradient>
	<path class="st32" d="M688.6,862.8c-0.4,26-4.9,58.9-8.2,79.2c-22.5-0.1-45.1-0.1-67.6-0.2c1.9-2.8,4-5.9,6.4-9.3
		c21.6-31,44.9-47.7,51.8-86.3C678,807.5,689.3,822.2,688.6,862.8z"/>
</g>
</svg>
